<svg version="1.1" id="Layer_1" xmlns="http://www.w3.org/2000/svg" xmlns:xlink="http://www.w3.org/1999/xlink" x="0px" y="0px"
	 width="100%" viewBox="0 0 2053 1160" enable-background="new 0 0 2053 1160" xml:space="preserve">
<path fill="#000000" opacity="1.000000" stroke="none" 
	d="
M1504.000000,1161.000000 
	C1002.666809,1161.000000 501.833618,1161.000000 1.000336,1161.000000 
	C1.000224,774.333618 1.000224,387.667206 1.000112,1.000397 
	C1.499735,1.000000 1.999471,1.000000 2.499206,1.000000 
	C686.332336,1.000000 1370.165405,1.000000 2053.999023,1.000000 
	C2053.999268,387.666107 2053.999268,774.332214 2053.999512,1160.999146 
	C1870.833374,1161.000000 1687.666626,1161.000000 1504.000000,1161.000000 
M1229.500000,502.999207 
	C1473.246582,502.999207 1716.993286,502.999207 1960.693481,502.999207 
	C1960.693481,384.286377 1960.693481,266.361969 1960.693481,148.394989 
	C1667.012207,148.394989 1373.637207,148.394989 1080.307617,148.394989 
	C1080.307617,266.713684 1080.307617,384.637970 1080.307617,502.999207 
	C1129.908447,502.999207 1179.204224,502.999207 1229.500000,502.999207 
M289.999878,931.500061 
	C289.999878,924.348999 289.999878,917.197876 289.999878,910.046814 
	C291.576324,911.305176 292.312653,912.575562 292.968048,913.886536 
	C305.318695,938.591248 317.633270,963.314148 330.065674,987.977661 
	C330.854675,989.542847 332.503265,991.749023 333.822571,991.799194 
	C342.743286,992.138000 351.683014,991.976074 360.601318,991.976074 
	C360.601318,952.980835 360.601318,914.614807 360.601318,876.307373 
	C352.941315,876.307373 345.683807,876.307373 337.841064,876.307373 
	C337.841064,904.051086 337.841064,931.493530 337.841064,958.936035 
	C336.363647,957.554138 335.636536,956.103088 334.917145,954.648315 
	C322.608337,929.756226 310.327667,904.850159 297.927948,880.003479 
	C297.147675,878.439941 295.481567,876.249146 294.157532,876.199036 
	C285.238281,875.861206 276.300110,876.023010 267.405701,876.023010 
	C267.405701,915.033447 267.405701,953.399536 267.405701,991.685547 
	C275.073029,991.685547 282.330597,991.685547 289.999878,991.685547 
	C289.999878,971.749329 289.999878,952.124695 289.999878,931.500061 
M425.509888,923.000000 
	C421.092285,923.000000 416.674683,923.000000 411.851471,923.000000 
	C411.851471,906.976013 411.851471,891.722107 411.851471,876.367004 
	C403.718964,876.367004 396.013397,876.367004 388.421661,876.367004 
	C388.421661,915.089722 388.421661,953.444031 388.421661,991.673340 
	C396.436279,991.673340 404.025574,991.673340 412.202118,991.673340 
	C412.202118,974.647217 412.202118,957.939270 412.202118,941.299072 
	C427.052612,941.299072 441.302948,941.299072 456.148193,941.299072 
	C456.148193,958.296265 456.148193,975.003906 456.148193,991.721924 
	C464.337250,991.721924 471.924408,991.721924 479.667267,991.721924 
	C479.667267,953.089600 479.667267,914.736023 479.667267,876.415039 
	C471.620453,876.415039 463.912842,876.415039 455.797729,876.415039 
	C455.797729,892.080261 455.797729,907.333862 455.797729,923.000000 
	C445.755585,923.000000 436.130798,923.000000 425.509888,923.000000 
M1112.000000,921.500000 
	C1112.000000,903.431091 1112.000000,885.362183 1112.000000,867.276306 
	C1103.998779,867.276306 1096.746704,867.276306 1089.026978,867.276306 
	C1089.026978,882.751709 1089.026978,897.960754 1089.026978,913.461365 
	C1075.686646,904.959290 1075.683228,904.768616 1059.104370,905.068848 
	C1048.511230,905.260742 1040.272949,910.113342 1035.187866,919.559631 
	C1027.083374,934.614502 1026.257935,950.614746 1030.121826,966.900269 
	C1036.519897,993.867676 1060.568970,999.808899 1081.529541,990.037598 
	C1084.403809,988.697693 1086.880371,986.504883 1089.812134,984.523804 
	C1089.957275,987.045105 1090.086060,989.285583 1090.223022,991.665771 
	C1097.523193,991.665771 1104.573730,991.665771 1112.000000,991.665771 
	C1112.000000,968.389038 1112.000000,945.444519 1112.000000,921.500000 
M506.989075,892.649231 
	C503.049194,903.701660 501.852631,914.623657 507.808533,925.495911 
	C512.566589,934.181458 520.953003,937.954651 529.211304,941.938843 
	C534.962585,944.713501 540.941711,947.033936 546.601257,949.976257 
	C553.576294,953.602356 555.665710,961.178833 551.817627,967.435364 
	C548.813782,972.319214 537.858643,976.959412 532.244873,975.610779 
	C524.207886,973.680054 516.195618,971.646362 507.456085,969.478882 
	C507.024628,974.710938 506.688843,981.040222 505.899628,987.312378 
	C505.553162,990.065979 506.685272,990.743408 508.922272,991.004883 
	C510.050903,991.136780 511.167023,991.401855 512.278137,991.653625 
	C524.975281,994.530884 537.870056,995.535889 550.583801,992.804810 
	C563.246948,990.084656 573.972473,984.247131 577.456482,970.118530 
	C581.920227,952.016479 577.437317,936.747742 559.391052,928.144653 
	C551.432678,924.350708 543.320740,920.877869 535.378479,917.051697 
	C530.109192,914.513245 528.114868,910.021301 529.070862,904.321350 
	C529.882874,899.479553 535.584595,893.737305 540.469299,893.083435 
	C547.627625,892.125244 554.731506,892.416565 561.655823,894.853088 
	C564.195129,895.746643 566.849182,896.314087 569.904724,897.155212 
	C570.721863,890.277161 571.470703,883.973389 572.216064,877.699768 
	C561.894165,873.908569 551.722290,873.874878 541.486023,873.957764 
	C526.896423,874.075806 514.935791,878.968750 506.989075,892.649231 
M1345.487305,918.010376 
	C1344.313721,919.386047 1342.940308,920.637756 1341.998047,922.156921 
	C1334.179321,934.762146 1332.265747,948.205811 1335.814087,962.657837 
	C1339.605591,978.100830 1349.000000,988.296265 1364.130493,992.338989 
	C1370.840088,994.131714 1378.212524,994.111877 1385.248047,993.868896 
	C1397.575073,993.443176 1407.434570,987.699951 1415.008423,977.983948 
	C1423.826172,966.672424 1424.394287,953.334900 1422.689819,940.224304 
	C1420.758911,925.370728 1412.546265,914.234741 1398.306274,908.021301 
	C1391.240112,904.937988 1383.933105,905.083801 1376.512329,904.940369 
	C1364.442993,904.707275 1354.449829,909.140198 1345.487305,918.010376 
M808.111816,928.470093 
	C805.491638,922.064880 801.283691,917.023132 795.708679,912.868042 
	C785.825562,905.501953 774.626099,904.386902 762.870300,904.967468 
	C749.486450,905.628418 738.568054,911.322021 731.132996,922.154663 
	C722.757690,934.357178 721.218201,948.109863 724.779236,962.572937 
	C728.574829,977.988647 737.892517,988.210938 753.040771,992.299011 
	C759.430359,994.023376 766.421387,993.819153 773.147888,993.924805 
	C783.091858,994.081116 791.518982,989.976501 798.937683,983.571106 
	C813.869995,970.678528 815.072937,946.235107 808.111816,928.470093 
M1166.883423,993.936707 
	C1173.270264,990.562378 1179.657227,987.188110 1185.778198,983.954224 
	C1186.164673,985.798889 1186.810181,988.880554 1187.385498,991.627136 
	C1194.215454,991.627136 1200.466064,991.627136 1206.000000,991.627136 
	C1206.000000,978.667236 1206.122070,966.082642 1205.957275,953.501770 
	C1205.846802,945.068359 1206.003662,936.543945 1204.815796,928.235291 
	C1203.461304,918.759583 1197.736084,912.005920 1188.857300,907.851562 
	C1180.620483,903.997437 1171.979004,904.124573 1163.447632,905.161804 
	C1155.893677,906.080261 1148.492920,908.320007 1141.068970,910.156738 
	C1140.251221,910.359009 1139.124023,911.776672 1139.163086,912.580933 
	C1139.448975,918.457092 1139.996338,924.320435 1140.505005,930.741638 
	C1147.893433,925.833435 1155.497681,922.089294 1164.499512,921.660217 
	C1176.856934,921.071167 1184.411377,924.897034 1184.724731,939.000732 
	C1176.924683,939.000732 1169.093140,938.544495 1161.333862,939.099304 
	C1146.860718,940.134094 1133.798340,945.455261 1130.394287,962.962097 
	C1128.357788,973.436096 1133.583984,984.839050 1142.935059,990.104858 
	C1150.317627,994.262146 1158.078003,994.091919 1166.883423,993.936707 
M1464.999512,949.628967 
	C1464.881470,942.753845 1466.416626,936.318481 1469.903564,930.340271 
	C1473.068115,924.915100 1480.065918,921.464355 1485.528198,922.795349 
	C1493.110596,924.643005 1496.896118,929.786560 1496.978027,938.725647 
	C1497.071289,948.884460 1497.000244,959.044861 1497.000366,969.204529 
	C1497.000488,976.646057 1497.000488,984.087646 1497.000488,991.631775 
	C1504.948730,991.631775 1512.321899,991.631775 1519.989502,991.631775 
	C1519.989502,971.298828 1520.279907,951.326050 1519.822754,931.370422 
	C1519.674438,924.896545 1517.416260,918.603088 1512.919922,913.360901 
	C1504.473145,903.513062 1493.274414,903.388611 1482.261108,905.664917 
	C1475.876221,906.984558 1470.116333,911.328735 1464.139282,914.280273 
	C1464.059937,912.673828 1463.933350,910.112549 1463.794800,907.306763 
	C1456.534302,907.306763 1449.484253,907.306763 1442.374512,907.306763 
	C1442.374512,935.644348 1442.374512,963.673584 1442.374512,991.718567 
	C1450.007080,991.718567 1457.261597,991.718567 1464.999512,991.718567 
	C1464.999512,977.828369 1464.999512,964.213928 1464.999512,949.628967 
M932.000000,947.500000 
	C932.000000,962.242920 932.000000,976.985779 932.000000,991.710693 
	C940.023621,991.710693 947.277893,991.710693 954.999146,991.710693 
	C954.999146,989.812195 954.999084,988.182495 954.999084,986.552856 
	C954.999268,973.729187 954.472534,960.874329 955.227234,948.095215 
	C955.591309,941.929749 957.955566,935.750366 960.189758,929.872070 
	C961.782715,925.680786 969.311890,921.299500 975.567749,922.818970 
	C983.276306,924.691345 986.961365,929.923340 986.987854,939.269226 
	C987.032227,954.924011 987.000488,970.578918 987.000732,986.233826 
	C987.000793,988.008606 987.000793,989.783325 987.000793,991.617920 
	C994.978333,991.617920 1002.351624,991.617920 1009.989014,991.617920 
	C1009.989014,971.268433 1010.280334,951.293213 1009.821594,931.335205 
	C1009.672852,924.861633 1007.407654,918.571289 1002.897339,913.335388 
	C994.434143,903.510620 983.237183,903.402466 972.231384,905.676819 
	C965.850891,906.995422 960.097168,911.346863 954.140198,914.294434 
	C954.057800,912.658936 953.928589,910.095093 953.788574,907.316895 
	C946.511108,907.316895 939.462158,907.316895 932.000000,907.316895 
	C932.000000,920.586304 932.000000,933.543152 932.000000,947.500000 
M896.532593,992.000000 
	C900.613831,992.000000 904.695068,992.000000 908.703308,992.000000 
	C908.703308,963.278992 908.703308,935.366028 908.703308,907.380920 
	C901.027832,907.380920 893.653931,907.380920 886.000183,907.380920 
	C886.000183,921.901367 886.499390,936.068298 885.773560,950.172180 
	C885.447937,956.498291 883.283569,962.952332 880.828064,968.882263 
	C878.484863,974.540955 872.625366,976.699097 866.977539,976.698364 
	C861.669006,976.697693 857.170715,973.719971 855.652344,968.077637 
	C854.767517,964.789734 854.109436,961.332397 854.072266,957.943420 
	C853.906128,942.787903 853.999939,927.629517 853.999878,912.472168 
	C853.999878,910.725769 853.999878,908.979370 853.999878,907.310181 
	C845.932617,907.310181 838.676208,907.310181 831.411804,907.310181 
	C831.241394,908.071533 831.045166,908.540588 831.044617,909.009949 
	C831.019775,928.664368 830.625671,948.329712 831.176819,967.968384 
	C831.427612,976.903198 835.121826,985.272583 843.284180,989.930603 
	C855.415894,996.853699 867.776550,995.828186 879.629822,988.670776 
	C882.076233,987.193481 884.250610,985.265808 886.826111,983.339600 
	C886.979980,986.466431 887.107300,989.054443 887.252197,992.000000 
	C890.277283,992.000000 892.914673,992.000000 896.532593,992.000000 
M1732.000000,922.504028 
	C1732.000000,937.161072 1731.740601,951.824341 1732.092407,966.472961 
	C1732.323120,976.080566 1736.250610,984.015625 1744.137329,990.151550 
	C1750.929810,995.436218 1771.768188,995.339600 1778.560913,989.981262 
	C1781.450928,987.701721 1784.588379,985.735962 1787.832153,983.475098 
	C1787.979858,986.465332 1788.107666,989.053162 1788.232910,991.590881 
	C1795.693848,991.590881 1802.739136,991.590881 1809.698853,991.590881 
	C1809.698853,963.268494 1809.698853,935.356201 1809.698853,907.385071 
	C1802.018677,907.385071 1794.644897,907.385071 1787.000000,907.385071 
	C1787.000000,921.910278 1787.499146,936.077759 1786.772949,950.182251 
	C1786.447388,956.508057 1784.283691,962.962830 1781.825073,968.890869 
	C1779.479370,974.546753 1773.617554,976.699341 1767.968994,976.698608 
	C1762.655273,976.697937 1758.167603,973.707581 1756.647827,968.071228 
	C1755.761353,964.783997 1755.109131,961.325317 1755.072144,957.935852 
	C1754.906616,942.780945 1755.000000,927.623169 1755.000000,912.466431 
	C1755.000000,910.720642 1755.000000,908.974854 1755.000000,907.311890 
	C1746.928833,907.311890 1739.672607,907.311890 1732.000000,907.311890 
	C1732.000000,912.245178 1732.000000,916.875610 1732.000000,922.504028 
M677.602173,923.000000 
	C675.509949,923.000000 673.417725,923.000000 671.256531,923.000000 
	C671.256531,913.034851 671.256531,903.783875 671.256531,893.938782 
	C684.542297,893.938782 697.584473,893.938782 710.589355,893.938782 
	C710.589355,887.625244 710.589355,881.918091 710.589355,876.297180 
	C688.935608,876.297180 667.693665,876.297180 646.340454,876.297180 
	C646.340454,914.941040 646.340454,953.286865 646.340454,991.580811 
	C654.726379,991.580811 662.765808,991.580811 671.205566,991.580811 
	C671.205566,974.582153 671.205566,957.999573 671.205566,940.828979 
	C683.988159,940.828979 696.364624,940.828979 708.710754,940.828979 
	C708.710754,934.639099 708.710754,929.051331 708.710754,923.000000 
	C698.479736,923.000000 688.530762,923.000000 677.602173,923.000000 
M1630.363281,992.000000 
	C1632.125122,992.000000 1633.886841,992.000000 1636.212402,992.000000 
	C1636.212402,958.961914 1636.212402,926.608032 1636.212402,893.840637 
	C1647.368896,893.840637 1657.957031,893.840637 1668.627808,893.840637 
	C1668.627808,887.705383 1668.627808,882.000000 1668.627808,876.424194 
	C1638.900635,876.424194 1609.547485,876.424194 1580.328857,876.424194 
	C1580.328857,882.442200 1580.328857,888.029724 1580.328857,894.208740 
	C1591.025391,894.208740 1601.405884,894.208740 1612.156494,894.208740 
	C1612.156494,927.040588 1612.156494,959.274353 1612.156494,992.000000 
	C1618.158203,992.000000 1623.776978,992.000000 1630.363281,992.000000 
M1888.936523,974.962097 
	C1889.190063,973.518372 1889.496338,972.081726 1889.688599,970.629883 
	C1891.371216,957.918884 1887.328247,948.322388 1875.240845,943.050842 
	C1869.427734,940.515564 1863.274536,938.757324 1857.265259,936.676208 
	C1853.655151,935.425903 1850.197998,933.830444 1851.081909,929.184143 
	C1851.911743,924.821899 1855.174072,922.110107 1859.405396,922.130127 
	C1867.419189,922.168030 1875.429443,922.967407 1884.269775,923.500366 
	C1884.720581,919.742004 1885.452271,914.622437 1885.822388,909.476807 
	C1885.876831,908.720703 1884.322754,907.300659 1883.328857,907.100159 
	C1869.490234,904.307800 1855.521606,902.703552 1842.034546,908.183838 
	C1833.910400,911.484863 1827.836792,917.464172 1827.087769,926.816101 
	C1826.231079,937.510925 1827.753784,947.473877 1839.472534,952.087402 
	C1845.837402,954.593140 1852.346191,956.734131 1858.791382,959.035828 
	C1865.377808,961.387878 1867.668335,966.700562 1864.423828,972.110229 
	C1862.365356,975.541931 1853.686890,978.609009 1849.068359,977.518311 
	C1842.471802,975.960510 1835.879272,974.386169 1828.889282,972.724792 
	C1828.607666,977.283020 1828.405762,982.204590 1827.963745,987.104614 
	C1827.683838,990.206543 1828.912964,991.766479 1831.958740,991.996277 
	C1840.820435,992.664978 1849.687500,993.935486 1858.542725,993.858826 
	C1871.883911,993.743347 1882.901733,988.862122 1888.936523,974.962097 
M1258.928589,883.230591 
	C1258.322388,882.974792 1257.610962,882.369385 1257.125854,882.515564 
	C1249.801270,884.722229 1242.506348,887.027588 1234.735229,889.456482 
	C1234.735229,895.343567 1234.735229,901.084778 1234.735229,907.216675 
	C1229.240845,907.216675 1224.310669,907.216675 1219.409424,907.216675 
	C1219.409424,912.700012 1219.409424,917.745300 1219.409424,923.203857 
	C1224.746094,923.203857 1229.677002,923.203857 1234.803833,923.203857 
	C1234.883179,924.758911 1234.969238,925.894531 1234.994873,927.031433 
	C1235.334961,942.128357 1235.642334,957.226135 1236.010132,972.322388 
	C1236.212402,980.619812 1241.831787,989.253906 1248.706909,991.844238 
	C1259.024170,995.731384 1269.409790,994.955627 1280.053223,992.535278 
	C1279.576172,986.399536 1279.129639,980.656616 1278.656616,974.571655 
	C1277.382690,974.926880 1276.047119,975.311218 1274.705078,975.671631 
	C1264.489868,978.415405 1259.008301,974.184875 1259.001465,963.546143 
	C1258.995239,953.884460 1259.000000,944.222839 1259.000000,934.561157 
	C1259.000000,930.803711 1259.000000,927.046326 1259.000000,922.874634 
	C1265.664429,922.874634 1271.596924,922.874634 1277.635986,922.874634 
	C1277.635986,917.394836 1277.635986,912.355164 1277.635986,906.888184 
	C1271.350464,906.888184 1265.418335,906.888184 1258.985596,906.888184 
	C1258.985596,899.011353 1258.985596,891.560120 1258.928589,883.230591 
M1920.677124,887.109802 
	C1918.554077,887.911560 1916.431030,888.713318 1913.767334,889.719238 
	C1913.767334,895.291138 1913.767334,901.034302 1913.767334,907.177124 
	C1908.281738,907.177124 1903.349121,907.177124 1898.391113,907.177124 
	C1898.391113,912.660217 1898.391113,917.704895 1898.391113,923.168335 
	C1903.708374,923.168335 1908.639648,923.168335 1913.801270,923.168335 
	C1913.881592,924.718262 1913.969116,925.850037 1913.994751,926.983276 
	C1914.335083,942.083008 1914.572754,957.185913 1915.035889,972.281860 
	C1915.310669,981.239746 1919.651855,988.163818 1927.730591,991.704224 
	C1937.814331,996.123230 1948.383423,994.984070 1959.323120,992.480591 
	C1958.848022,989.204163 1958.263428,986.313110 1958.052124,983.395020 
	C1957.841675,980.489136 1958.005981,977.556091 1958.005981,974.351196 
	C1956.225830,974.897461 1954.986694,975.315552 1953.727173,975.658203 
	C1943.524048,978.433655 1938.008667,974.191833 1938.001343,963.566467 
	C1937.994873,954.236267 1938.000000,944.906006 1938.000000,935.575806 
	C1938.000000,931.483643 1938.000000,927.391541 1938.000000,922.882507 
	C1944.655762,922.882507 1950.588989,922.882507 1956.638306,922.882507 
	C1956.638306,917.402588 1956.638306,912.360474 1956.638306,906.891663 
	C1950.354126,906.891663 1944.421265,906.891663 1937.960205,906.891663 
	C1937.960205,898.423096 1937.960205,890.371338 1937.960205,881.886841 
	C1932.052979,883.720825 1926.769653,885.361145 1920.677124,887.109802 
M1684.240112,907.007385 
	C1678.638428,907.007385 1673.036621,907.007385 1667.340088,907.007385 
	C1667.340088,935.611938 1667.340088,963.622620 1667.340088,991.583618 
	C1675.057739,991.583618 1682.428101,991.583618 1689.999512,991.583618 
	C1689.999512,982.189880 1689.738159,973.201660 1690.076172,964.236023 
	C1690.385254,956.038818 1690.464844,947.668884 1692.247070,939.734802 
	C1694.268433,930.735291 1699.601807,924.810181 1710.778809,926.057983 
	C1713.093262,926.316345 1715.339844,927.181641 1717.999512,927.865356 
	C1717.999512,923.752197 1717.999634,920.104431 1717.999634,916.456604 
	C1717.999634,912.711182 1717.999512,908.965820 1717.999512,903.855347 
	C1711.089355,905.135803 1704.490845,904.942261 1699.499634,907.679688 
	C1694.452759,910.447815 1690.997925,916.118530 1686.997070,920.357483 
	C1686.997070,917.385864 1687.145630,913.896667 1686.913818,910.432861 
	C1686.835815,909.267822 1685.790527,908.167480 1684.240112,907.007385 
M1301.538086,907.000000 
	C1298.451904,907.000000 1295.365845,907.000000 1292.394653,907.000000 
	C1292.394653,935.747803 1292.394653,963.746216 1292.394653,991.711548 
	C1300.372681,991.711548 1307.952637,991.711548 1315.689941,991.711548 
	C1315.689941,963.424866 1315.689941,935.427490 1315.689941,907.000000 
	C1311.100342,907.000000 1306.810425,907.000000 1301.538086,907.000000 
M1315.999512,882.453674 
	C1315.999512,878.388733 1315.999512,874.323853 1315.999512,870.431274 
	C1307.536987,870.431274 1299.854736,870.431274 1292.302490,870.431274 
	C1292.302490,877.432129 1292.302490,883.997742 1292.302490,890.654114 
	C1300.288208,890.654114 1307.967529,890.654114 1315.999512,890.654114 
	C1315.999512,888.016968 1315.999512,885.722534 1315.999512,882.453674 
z"/>
<path fill="#0172BC" opacity="1.000000" stroke="none" 
	d="
M1229.000000,502.999207 
	C1179.204224,502.999207 1129.908447,502.999207 1080.307617,502.999207 
	C1080.307617,384.637970 1080.307617,266.713684 1080.307617,148.394989 
	C1373.637207,148.394989 1667.012207,148.394989 1960.693481,148.394989 
	C1960.693481,266.361969 1960.693481,384.286377 1960.693481,502.999207 
	C1716.993286,502.999207 1473.246582,502.999207 1229.000000,502.999207 
M1266.741333,197.771484 
	C1265.630615,194.111374 1264.212280,190.509949 1263.499390,186.773895 
	C1262.843140,183.334290 1261.038452,182.790222 1257.944092,182.801056 
	C1228.949219,182.902496 1199.953857,182.902710 1170.958984,182.799316 
	C1167.949097,182.788589 1166.633423,183.559174 1165.964722,186.687195 
	C1147.402222,273.528778 1128.728882,360.346680 1110.087402,447.171417 
	C1108.644531,453.891571 1107.300049,460.632874 1105.874268,467.536499 
	C1130.209717,467.536499 1153.819214,467.536499 1177.663208,467.536499 
	C1190.959229,401.772644 1204.214111,336.212463 1217.468872,270.652252 
	C1219.052002,272.168915 1219.625122,273.648865 1220.084961,275.163177 
	C1239.107300,337.812622 1258.135132,400.460449 1277.088013,463.130890 
	C1278.060425,466.346558 1279.229126,467.941895 1283.128174,467.912811 
	C1311.788574,467.699097 1340.451172,467.801208 1369.113159,467.786377 
	C1370.572388,467.785645 1372.031616,467.624603 1373.608765,467.531219 
	C1393.825439,372.616089 1413.975830,278.013031 1434.181519,183.149475 
	C1409.940430,183.149475 1386.186646,183.149475 1362.283447,183.149475 
	C1348.874146,248.982254 1335.514893,314.568604 1322.155762,380.154968 
	C1321.712036,380.127625 1321.268311,380.100250 1320.824585,380.072906 
	C1302.868530,319.564148 1284.912354,259.055389 1266.741333,197.771484 
M1435.783325,313.237274 
	C1425.031982,364.577484 1414.280640,415.917694 1403.470215,467.540649 
	C1429.503174,467.540649 1454.597534,467.540649 1479.867310,467.540649 
	C1488.364502,426.815247 1496.817871,386.299622 1505.277466,345.754272 
	C1535.628906,345.754272 1565.704712,345.754272 1596.411377,345.754272 
	C1587.915771,386.593384 1579.508545,427.007782 1571.024170,467.792908 
	C1595.982422,467.792908 1620.302246,467.844269 1644.619751,467.635559 
	C1645.788330,467.625519 1647.671143,465.484222 1647.983887,464.063202 
	C1651.807251,446.685272 1655.405396,429.257751 1659.049316,411.840454 
	C1671.582031,351.935944 1684.116455,292.031860 1696.634644,232.124359 
	C1700.028564,215.882111 1703.367676,199.628403 1706.776367,183.165680 
	C1681.134277,183.165680 1655.883301,183.165680 1630.453125,183.165680 
	C1622.913208,219.503647 1615.426147,255.587112 1607.966309,291.539001 
	C1577.391479,291.539001 1547.323730,291.539001 1516.884888,291.539001 
	C1524.377441,255.238754 1531.791260,219.319672 1539.270874,183.082062 
	C1513.601440,183.082062 1488.487183,183.082062 1462.887085,183.082062 
	C1453.898682,226.196014 1444.912109,269.300812 1435.783325,313.237274 
M1772.650146,472.434937 
	C1779.454224,471.957184 1786.280396,471.686829 1793.058350,470.963593 
	C1815.049072,468.616974 1836.275513,463.573669 1856.002563,453.104401 
	C1902.714478,428.314117 1907.843018,378.538788 1898.079468,348.157532 
	C1891.578003,327.927399 1876.705811,315.153229 1858.409302,306.161560 
	C1846.055298,300.090363 1833.021973,295.417236 1820.474365,289.718231 
	C1813.541626,286.569489 1806.460571,283.310638 1800.361328,278.850403 
	C1785.800293,268.202301 1787.729248,248.700058 1803.805542,240.481918 
	C1806.878540,238.910995 1810.272217,237.757629 1813.651245,237.029663 
	C1834.275513,232.586288 1855.055786,232.778076 1875.653687,236.655594 
	C1886.942017,238.780624 1897.907837,242.617661 1909.406128,245.789444 
	C1915.256592,227.808777 1921.296387,209.246445 1927.464600,190.289307 
	C1923.015869,188.749878 1919.212646,186.812881 1915.199463,186.153580 
	C1898.653320,183.435242 1882.116089,180.254410 1865.440186,178.826279 
	C1838.974731,176.559769 1812.514771,177.376709 1786.575928,184.119431 
	C1743.927124,195.205841 1715.708740,221.234238 1712.456665,265.081390 
	C1710.459839,292.004761 1718.897705,313.934296 1742.671631,327.800720 
	C1755.513794,335.291077 1769.706909,340.441132 1783.165527,346.907043 
	C1793.311401,351.781403 1803.687378,356.390869 1813.161987,362.381775 
	C1821.082886,367.390228 1824.250244,375.700165 1823.309082,385.361633 
	C1821.934692,399.472351 1812.779907,406.744202 1800.599243,410.943512 
	C1779.595947,418.184601 1758.012207,417.554535 1736.406982,414.478424 
	C1720.898438,412.270355 1705.824707,408.402222 1691.582520,400.537140 
	C1685.579712,419.795197 1679.718506,438.598999 1673.701904,457.901550 
	C1705.931274,467.431122 1738.248779,473.616516 1772.650146,472.434937 
z"/>
<path fill="#0072BC" opacity="1.000000" stroke="none" 
	d="
M289.999878,932.000000 
	C289.999878,952.124695 289.999878,971.749329 289.999878,991.685547 
	C282.330597,991.685547 275.073029,991.685547 267.405701,991.685547 
	C267.405701,953.399536 267.405701,915.033447 267.405701,876.023010 
	C276.300110,876.023010 285.238281,875.861206 294.157532,876.199036 
	C295.481567,876.249146 297.147675,878.439941 297.927948,880.003479 
	C310.327667,904.850159 322.608337,929.756226 334.917145,954.648315 
	C335.636536,956.103088 336.363647,957.554138 337.841064,958.936035 
	C337.841064,931.493530 337.841064,904.051086 337.841064,876.307373 
	C345.683807,876.307373 352.941315,876.307373 360.601318,876.307373 
	C360.601318,914.614807 360.601318,952.980835 360.601318,991.976074 
	C351.683014,991.976074 342.743286,992.138000 333.822571,991.799194 
	C332.503265,991.749023 330.854675,989.542847 330.065674,987.977661 
	C317.633270,963.314148 305.318695,938.591248 292.968048,913.886536 
	C292.312653,912.575562 291.576324,911.305176 289.999878,910.046814 
	C289.999878,917.197876 289.999878,924.348999 289.999878,932.000000 
z"/>
<path fill="#0072BC" opacity="1.000000" stroke="none" 
	d="
M426.007935,923.000000 
	C436.130798,923.000000 445.755585,923.000000 455.797729,923.000000 
	C455.797729,907.333862 455.797729,892.080261 455.797729,876.415039 
	C463.912842,876.415039 471.620453,876.415039 479.667267,876.415039 
	C479.667267,914.736023 479.667267,953.089600 479.667267,991.721924 
	C471.924408,991.721924 464.337250,991.721924 456.148193,991.721924 
	C456.148193,975.003906 456.148193,958.296265 456.148193,941.299072 
	C441.302948,941.299072 427.052612,941.299072 412.202118,941.299072 
	C412.202118,957.939270 412.202118,974.647217 412.202118,991.673340 
	C404.025574,991.673340 396.436279,991.673340 388.421661,991.673340 
	C388.421661,953.444031 388.421661,915.089722 388.421661,876.367004 
	C396.013397,876.367004 403.718964,876.367004 411.851471,876.367004 
	C411.851471,891.722107 411.851471,906.976013 411.851471,923.000000 
	C416.674683,923.000000 421.092285,923.000000 426.007935,923.000000 
z"/>
<path fill="#0072BC" opacity="1.000000" stroke="none" 
	d="
M1112.000000,922.000000 
	C1112.000000,945.444519 1112.000000,968.389038 1112.000000,991.665771 
	C1104.573730,991.665771 1097.523193,991.665771 1090.223022,991.665771 
	C1090.086060,989.285583 1089.957275,987.045105 1089.812134,984.523804 
	C1086.880371,986.504883 1084.403809,988.697693 1081.529541,990.037598 
	C1060.568970,999.808899 1036.519897,993.867676 1030.121826,966.900269 
	C1026.257935,950.614746 1027.083374,934.614502 1035.187866,919.559631 
	C1040.272949,910.113342 1048.511230,905.260742 1059.104370,905.068848 
	C1075.683228,904.768616 1075.686646,904.959290 1089.026978,913.461365 
	C1089.026978,897.960754 1089.026978,882.751709 1089.026978,867.276306 
	C1096.746704,867.276306 1103.998779,867.276306 1112.000000,867.276306 
	C1112.000000,885.362183 1112.000000,903.431091 1112.000000,922.000000 
M1078.404907,974.069824 
	C1079.609863,973.020508 1081.068115,972.154541 1081.980225,970.893555 
	C1090.938477,958.508789 1091.016724,945.422852 1084.498169,932.079529 
	C1081.568237,926.081848 1076.496094,922.404419 1069.732788,922.247375 
	C1063.259888,922.096985 1057.561401,927.103149 1055.042114,934.135437 
	C1051.749634,943.325562 1050.984741,952.722412 1054.155273,961.976074 
	C1057.987183,973.159973 1066.246948,980.265808 1078.404907,974.069824 
z"/>
<path fill="#0072BC" opacity="1.000000" stroke="none" 
	d="
M507.032288,892.262878 
	C514.935791,878.968750 526.896423,874.075806 541.486023,873.957764 
	C551.722290,873.874878 561.894165,873.908569 572.216064,877.699768 
	C571.470703,883.973389 570.721863,890.277161 569.904724,897.155212 
	C566.849182,896.314087 564.195129,895.746643 561.655823,894.853088 
	C554.731506,892.416565 547.627625,892.125244 540.469299,893.083435 
	C535.584595,893.737305 529.882874,899.479553 529.070862,904.321350 
	C528.114868,910.021301 530.109192,914.513245 535.378479,917.051697 
	C543.320740,920.877869 551.432678,924.350708 559.391052,928.144653 
	C577.437317,936.747742 581.920227,952.016479 577.456482,970.118530 
	C573.972473,984.247131 563.246948,990.084656 550.583801,992.804810 
	C537.870056,995.535889 524.975281,994.530884 512.278137,991.653625 
	C511.167023,991.401855 510.050903,991.136780 508.922272,991.004883 
	C506.685272,990.743408 505.553162,990.065979 505.899628,987.312378 
	C506.688843,981.040222 507.024628,974.710938 507.456085,969.478882 
	C516.195618,971.646362 524.207886,973.680054 532.244873,975.610779 
	C537.858643,976.959412 548.813782,972.319214 551.817627,967.435364 
	C555.665710,961.178833 553.576294,953.602356 546.601257,949.976257 
	C540.941711,947.033936 534.962585,944.713501 529.211304,941.938843 
	C520.953003,937.954651 512.566589,934.181458 507.808533,925.495911 
	C501.852631,914.623657 503.049194,903.701660 507.032288,892.262878 
z"/>
<path fill="#0072BC" opacity="1.000000" stroke="none" 
	d="
M1345.742554,917.756836 
	C1354.449829,909.140198 1364.442993,904.707275 1376.512329,904.940369 
	C1383.933105,905.083801 1391.240112,904.937988 1398.306274,908.021301 
	C1412.546265,914.234741 1420.758911,925.370728 1422.689819,940.224304 
	C1424.394287,953.334900 1423.826172,966.672424 1415.008423,977.983948 
	C1407.434570,987.699951 1397.575073,993.443176 1385.248047,993.868896 
	C1378.212524,994.111877 1370.840088,994.131714 1364.130493,992.338989 
	C1349.000000,988.296265 1339.605591,978.100830 1335.814087,962.657837 
	C1332.265747,948.205811 1334.179321,934.762146 1341.998047,922.156921 
	C1342.940308,920.637756 1344.313721,919.386047 1345.742554,917.756836 
M1398.929321,956.943665 
	C1398.613647,950.518372 1399.104736,943.922791 1397.793091,937.707703 
	C1395.825195,928.382874 1389.291626,922.962646 1379.682739,922.439880 
	C1372.782349,922.064514 1367.227173,924.810730 1363.257568,931.075928 
	C1355.475586,943.358276 1357.959961,955.366272 1363.203491,967.526428 
	C1366.605957,975.417297 1379.918945,979.388245 1388.275757,974.292114 
	C1394.611206,970.428711 1397.064331,964.460327 1398.929321,956.943665 
z"/>
<path fill="#0072BC" opacity="1.000000" stroke="none" 
	d="
M808.345947,928.781738 
	C815.072937,946.235107 813.869995,970.678528 798.937683,983.571106 
	C791.518982,989.976501 783.091858,994.081116 773.147888,993.924805 
	C766.421387,993.819153 759.430359,994.023376 753.040771,992.299011 
	C737.892517,988.210938 728.574829,977.988647 724.779236,962.572937 
	C721.218201,948.109863 722.757690,934.357178 731.132996,922.154663 
	C738.568054,911.322021 749.486450,905.628418 762.870300,904.967468 
	C774.626099,904.386902 785.825562,905.501953 795.708679,912.868042 
	C801.283691,917.023132 805.491638,922.064880 808.345947,928.781738 
M788.000000,954.202271 
	C787.654846,948.611023 788.055420,942.845581 786.799194,937.467163 
	C784.621765,928.144287 777.930603,922.855347 768.479309,922.369629 
	C761.654175,922.018860 756.048340,924.962952 752.097168,931.242676 
	C744.923340,942.644226 746.953613,953.955872 751.193970,965.518921 
	C755.224182,976.508911 770.665283,980.517822 780.250000,972.177612 
	C785.373474,967.719360 787.073792,961.563477 788.000000,954.202271 
z"/>
<path fill="#0072BC" opacity="1.000000" stroke="none" 
	d="
M1166.437988,993.961731 
	C1158.078003,994.091919 1150.317627,994.262146 1142.935059,990.104858 
	C1133.583984,984.839050 1128.357788,973.436096 1130.394287,962.962097 
	C1133.798340,945.455261 1146.860718,940.134094 1161.333862,939.099304 
	C1169.093140,938.544495 1176.924683,939.000732 1184.724731,939.000732 
	C1184.411377,924.897034 1176.856934,921.071167 1164.499512,921.660217 
	C1155.497681,922.089294 1147.893433,925.833435 1140.505005,930.741638 
	C1139.996338,924.320435 1139.448975,918.457092 1139.163086,912.580933 
	C1139.124023,911.776672 1140.251221,910.359009 1141.068970,910.156738 
	C1148.492920,908.320007 1155.893677,906.080261 1163.447632,905.161804 
	C1171.979004,904.124573 1180.620483,903.997437 1188.857300,907.851562 
	C1197.736084,912.005920 1203.461304,918.759583 1204.815796,928.235291 
	C1206.003662,936.543945 1205.846802,945.068359 1205.957275,953.501770 
	C1206.122070,966.082642 1206.000000,978.667236 1206.000000,991.627136 
	C1200.466064,991.627136 1194.215454,991.627136 1187.385498,991.627136 
	C1186.810181,988.880554 1186.164673,985.798889 1185.778198,983.954224 
	C1179.657227,987.188110 1173.270264,990.562378 1166.437988,993.961731 
M1153.071167,962.885620 
	C1151.202026,969.378723 1154.133911,975.525574 1159.966431,976.899658 
	C1175.888672,980.650818 1185.189941,968.328674 1184.227539,952.003601 
	C1180.773804,952.003601 1177.293823,951.869629 1173.829712,952.047485 
	C1171.224609,952.181274 1168.585449,952.493591 1166.057739,953.116882 
	C1160.676758,954.443726 1155.879883,956.751465 1153.071167,962.885620 
z"/>
<path fill="#0072BC" opacity="1.000000" stroke="none" 
	d="
M1464.999512,950.114258 
	C1464.999512,964.213928 1464.999512,977.828369 1464.999512,991.718567 
	C1457.261597,991.718567 1450.007080,991.718567 1442.374512,991.718567 
	C1442.374512,963.673584 1442.374512,935.644348 1442.374512,907.306763 
	C1449.484253,907.306763 1456.534302,907.306763 1463.794800,907.306763 
	C1463.933350,910.112549 1464.059937,912.673828 1464.139282,914.280273 
	C1470.116333,911.328735 1475.876221,906.984558 1482.261108,905.664917 
	C1493.274414,903.388611 1504.473145,903.513062 1512.919922,913.360901 
	C1517.416260,918.603088 1519.674438,924.896545 1519.822754,931.370422 
	C1520.279907,951.326050 1519.989502,971.298828 1519.989502,991.631775 
	C1512.321899,991.631775 1504.948730,991.631775 1497.000488,991.631775 
	C1497.000488,984.087646 1497.000488,976.646057 1497.000366,969.204529 
	C1497.000244,959.044861 1497.071289,948.884460 1496.978027,938.725647 
	C1496.896118,929.786560 1493.110596,924.643005 1485.528198,922.795349 
	C1480.065918,921.464355 1473.068115,924.915100 1469.903564,930.340271 
	C1466.416626,936.318481 1464.881470,942.753845 1464.999512,950.114258 
z"/>
<path fill="#0072BC" opacity="1.000000" stroke="none" 
	d="
M932.000000,947.000000 
	C932.000000,933.543152 932.000000,920.586304 932.000000,907.316895 
	C939.462158,907.316895 946.511108,907.316895 953.788574,907.316895 
	C953.928589,910.095093 954.057800,912.658936 954.140198,914.294434 
	C960.097168,911.346863 965.850891,906.995422 972.231384,905.676819 
	C983.237183,903.402466 994.434143,903.510620 1002.897339,913.335388 
	C1007.407654,918.571289 1009.672852,924.861633 1009.821594,931.335205 
	C1010.280334,951.293213 1009.989014,971.268433 1009.989014,991.617920 
	C1002.351624,991.617920 994.978333,991.617920 987.000793,991.617920 
	C987.000793,989.783325 987.000793,988.008606 987.000732,986.233826 
	C987.000488,970.578918 987.032227,954.924011 986.987854,939.269226 
	C986.961365,929.923340 983.276306,924.691345 975.567749,922.818970 
	C969.311890,921.299500 961.782715,925.680786 960.189758,929.872070 
	C957.955566,935.750366 955.591309,941.929749 955.227234,948.095215 
	C954.472534,960.874329 954.999268,973.729187 954.999084,986.552856 
	C954.999084,988.182495 954.999146,989.812195 954.999146,991.710693 
	C947.277893,991.710693 940.023621,991.710693 932.000000,991.710693 
	C932.000000,976.985779 932.000000,962.242920 932.000000,947.000000 
z"/>
<path fill="#0072BC" opacity="1.000000" stroke="none" 
	d="
M896.042358,992.000000 
	C892.914673,992.000000 890.277283,992.000000 887.252197,992.000000 
	C887.107300,989.054443 886.979980,986.466431 886.826111,983.339600 
	C884.250610,985.265808 882.076233,987.193481 879.629822,988.670776 
	C867.776550,995.828186 855.415894,996.853699 843.284180,989.930603 
	C835.121826,985.272583 831.427612,976.903198 831.176819,967.968384 
	C830.625671,948.329712 831.019775,928.664368 831.044617,909.009949 
	C831.045166,908.540588 831.241394,908.071533 831.411804,907.310181 
	C838.676208,907.310181 845.932617,907.310181 853.999878,907.310181 
	C853.999878,908.979370 853.999878,910.725769 853.999878,912.472168 
	C853.999939,927.629517 853.906128,942.787903 854.072266,957.943420 
	C854.109436,961.332397 854.767517,964.789734 855.652344,968.077637 
	C857.170715,973.719971 861.669006,976.697693 866.977539,976.698364 
	C872.625366,976.699097 878.484863,974.540955 880.828064,968.882263 
	C883.283569,962.952332 885.447937,956.498291 885.773560,950.172180 
	C886.499390,936.068298 886.000183,921.901367 886.000183,907.380920 
	C893.653931,907.380920 901.027832,907.380920 908.703308,907.380920 
	C908.703308,935.366028 908.703308,963.278992 908.703308,992.000000 
	C904.695068,992.000000 900.613831,992.000000 896.042358,992.000000 
z"/>
<path fill="#0072BC" opacity="1.000000" stroke="none" 
	d="
M1732.000000,922.005005 
	C1732.000000,916.875610 1732.000000,912.245178 1732.000000,907.311890 
	C1739.672607,907.311890 1746.928833,907.311890 1755.000000,907.311890 
	C1755.000000,908.974854 1755.000000,910.720642 1755.000000,912.466431 
	C1755.000000,927.623169 1754.906616,942.780945 1755.072144,957.935852 
	C1755.109131,961.325317 1755.761353,964.783997 1756.647827,968.071228 
	C1758.167603,973.707581 1762.655273,976.697937 1767.968994,976.698608 
	C1773.617554,976.699341 1779.479370,974.546753 1781.825073,968.890869 
	C1784.283691,962.962830 1786.447388,956.508057 1786.772949,950.182251 
	C1787.499146,936.077759 1787.000000,921.910278 1787.000000,907.385071 
	C1794.644897,907.385071 1802.018677,907.385071 1809.698853,907.385071 
	C1809.698853,935.356201 1809.698853,963.268494 1809.698853,991.590881 
	C1802.739136,991.590881 1795.693848,991.590881 1788.232910,991.590881 
	C1788.107666,989.053162 1787.979858,986.465332 1787.832153,983.475098 
	C1784.588379,985.735962 1781.450928,987.701721 1778.560913,989.981262 
	C1771.768188,995.339600 1750.929810,995.436218 1744.137329,990.151550 
	C1736.250610,984.015625 1732.323120,976.080566 1732.092407,966.472961 
	C1731.740601,951.824341 1732.000000,937.161072 1732.000000,922.005005 
z"/>
<path fill="#0072BC" opacity="1.000000" stroke="none" 
	d="
M678.092041,923.000000 
	C688.530762,923.000000 698.479736,923.000000 708.710754,923.000000 
	C708.710754,929.051331 708.710754,934.639099 708.710754,940.828979 
	C696.364624,940.828979 683.988159,940.828979 671.205566,940.828979 
	C671.205566,957.999573 671.205566,974.582153 671.205566,991.580811 
	C662.765808,991.580811 654.726379,991.580811 646.340454,991.580811 
	C646.340454,953.286865 646.340454,914.941040 646.340454,876.297180 
	C667.693665,876.297180 688.935608,876.297180 710.589355,876.297180 
	C710.589355,881.918091 710.589355,887.625244 710.589355,893.938782 
	C697.584473,893.938782 684.542297,893.938782 671.256531,893.938782 
	C671.256531,903.783875 671.256531,913.034851 671.256531,923.000000 
	C673.417725,923.000000 675.509949,923.000000 678.092041,923.000000 
z"/>
<path fill="#0072BC" opacity="1.000000" stroke="none" 
	d="
M1629.879395,992.000000 
	C1623.776978,992.000000 1618.158203,992.000000 1612.156494,992.000000 
	C1612.156494,959.274353 1612.156494,927.040588 1612.156494,894.208740 
	C1601.405884,894.208740 1591.025391,894.208740 1580.328857,894.208740 
	C1580.328857,888.029724 1580.328857,882.442200 1580.328857,876.424194 
	C1609.547485,876.424194 1638.900635,876.424194 1668.627808,876.424194 
	C1668.627808,882.000000 1668.627808,887.705383 1668.627808,893.840637 
	C1657.957031,893.840637 1647.368896,893.840637 1636.212402,893.840637 
	C1636.212402,926.608032 1636.212402,958.961914 1636.212402,992.000000 
	C1633.886841,992.000000 1632.125122,992.000000 1629.879395,992.000000 
z"/>
<path fill="#0072BC" opacity="1.000000" stroke="none" 
	d="
M1888.815186,975.353455 
	C1882.901733,988.862122 1871.883911,993.743347 1858.542725,993.858826 
	C1849.687500,993.935486 1840.820435,992.664978 1831.958740,991.996277 
	C1828.912964,991.766479 1827.683838,990.206543 1827.963745,987.104614 
	C1828.405762,982.204590 1828.607666,977.283020 1828.889282,972.724792 
	C1835.879272,974.386169 1842.471802,975.960510 1849.068359,977.518311 
	C1853.686890,978.609009 1862.365356,975.541931 1864.423828,972.110229 
	C1867.668335,966.700562 1865.377808,961.387878 1858.791382,959.035828 
	C1852.346191,956.734131 1845.837402,954.593140 1839.472534,952.087402 
	C1827.753784,947.473877 1826.231079,937.510925 1827.087769,926.816101 
	C1827.836792,917.464172 1833.910400,911.484863 1842.034546,908.183838 
	C1855.521606,902.703552 1869.490234,904.307800 1883.328857,907.100159 
	C1884.322754,907.300659 1885.876831,908.720703 1885.822388,909.476807 
	C1885.452271,914.622437 1884.720581,919.742004 1884.269775,923.500366 
	C1875.429443,922.967407 1867.419189,922.168030 1859.405396,922.130127 
	C1855.174072,922.110107 1851.911743,924.821899 1851.081909,929.184143 
	C1850.197998,933.830444 1853.655151,935.425903 1857.265259,936.676208 
	C1863.274536,938.757324 1869.427734,940.515564 1875.240845,943.050842 
	C1887.328247,948.322388 1891.371216,957.918884 1889.688599,970.629883 
	C1889.496338,972.081726 1889.190063,973.518372 1888.815186,975.353455 
z"/>
<path fill="#0072BC" opacity="1.000000" stroke="none" 
	d="
M1258.957031,883.669678 
	C1258.985596,891.560120 1258.985596,899.011353 1258.985596,906.888184 
	C1265.418335,906.888184 1271.350464,906.888184 1277.635986,906.888184 
	C1277.635986,912.355164 1277.635986,917.394836 1277.635986,922.874634 
	C1271.596924,922.874634 1265.664429,922.874634 1259.000000,922.874634 
	C1259.000000,927.046326 1259.000000,930.803711 1259.000000,934.561157 
	C1259.000000,944.222839 1258.995239,953.884460 1259.001465,963.546143 
	C1259.008301,974.184875 1264.489868,978.415405 1274.705078,975.671631 
	C1276.047119,975.311218 1277.382690,974.926880 1278.656616,974.571655 
	C1279.129639,980.656616 1279.576172,986.399536 1280.053223,992.535278 
	C1269.409790,994.955627 1259.024170,995.731384 1248.706909,991.844238 
	C1241.831787,989.253906 1236.212402,980.619812 1236.010132,972.322388 
	C1235.642334,957.226135 1235.334961,942.128357 1234.994873,927.031433 
	C1234.969238,925.894531 1234.883179,924.758911 1234.803833,923.203857 
	C1229.677002,923.203857 1224.746094,923.203857 1219.409424,923.203857 
	C1219.409424,917.745300 1219.409424,912.700012 1219.409424,907.216675 
	C1224.310669,907.216675 1229.240845,907.216675 1234.735229,907.216675 
	C1234.735229,901.084778 1234.735229,895.343567 1234.735229,889.456482 
	C1242.506348,887.027588 1249.801270,884.722229 1257.125854,882.515564 
	C1257.610962,882.369385 1258.322388,882.974792 1258.957031,883.669678 
z"/>
<path fill="#0072BC" opacity="1.000000" stroke="none" 
	d="
M1921.081787,887.055664 
	C1926.769653,885.361145 1932.052979,883.720825 1937.960205,881.886841 
	C1937.960205,890.371338 1937.960205,898.423096 1937.960205,906.891663 
	C1944.421265,906.891663 1950.354126,906.891663 1956.638306,906.891663 
	C1956.638306,912.360474 1956.638306,917.402588 1956.638306,922.882507 
	C1950.588989,922.882507 1944.655762,922.882507 1938.000000,922.882507 
	C1938.000000,927.391541 1938.000000,931.483643 1938.000000,935.575806 
	C1938.000000,944.906006 1937.994873,954.236267 1938.001343,963.566467 
	C1938.008667,974.191833 1943.524048,978.433655 1953.727173,975.658203 
	C1954.986694,975.315552 1956.225830,974.897461 1958.005981,974.351196 
	C1958.005981,977.556091 1957.841675,980.489136 1958.052124,983.395020 
	C1958.263428,986.313110 1958.848022,989.204163 1959.323120,992.480591 
	C1948.383423,994.984070 1937.814331,996.123230 1927.730591,991.704224 
	C1919.651855,988.163818 1915.310669,981.239746 1915.035889,972.281860 
	C1914.572754,957.185913 1914.335083,942.083008 1913.994751,926.983276 
	C1913.969116,925.850037 1913.881592,924.718262 1913.801270,923.168335 
	C1908.639648,923.168335 1903.708374,923.168335 1898.391113,923.168335 
	C1898.391113,917.704895 1898.391113,912.660217 1898.391113,907.177124 
	C1903.349121,907.177124 1908.281738,907.177124 1913.767334,907.177124 
	C1913.767334,901.034302 1913.767334,895.291138 1913.767334,889.719238 
	C1916.431030,888.713318 1918.554077,887.911560 1921.081787,887.055664 
z"/>
<path fill="#0072BC" opacity="1.000000" stroke="none" 
	d="
M1684.713623,907.022461 
	C1685.790527,908.167480 1686.835815,909.267822 1686.913818,910.432861 
	C1687.145630,913.896667 1686.997070,917.385864 1686.997070,920.357483 
	C1690.997925,916.118530 1694.452759,910.447815 1699.499634,907.679688 
	C1704.490845,904.942261 1711.089355,905.135803 1717.999512,903.855347 
	C1717.999512,908.965820 1717.999634,912.711182 1717.999634,916.456604 
	C1717.999634,920.104431 1717.999512,923.752197 1717.999512,927.865356 
	C1715.339844,927.181641 1713.093262,926.316345 1710.778809,926.057983 
	C1699.601807,924.810181 1694.268433,930.735291 1692.247070,939.734802 
	C1690.464844,947.668884 1690.385254,956.038818 1690.076172,964.236023 
	C1689.738159,973.201660 1689.999512,982.189880 1689.999512,991.583618 
	C1682.428101,991.583618 1675.057739,991.583618 1667.340088,991.583618 
	C1667.340088,963.622620 1667.340088,935.611938 1667.340088,907.007385 
	C1673.036621,907.007385 1678.638428,907.007385 1684.713623,907.022461 
z"/>
<path fill="#0072BC" opacity="1.000000" stroke="none" 
	d="
M1302.029297,907.000000 
	C1306.810425,907.000000 1311.100342,907.000000 1315.689941,907.000000 
	C1315.689941,935.427490 1315.689941,963.424866 1315.689941,991.711548 
	C1307.952637,991.711548 1300.372681,991.711548 1292.394653,991.711548 
	C1292.394653,963.746216 1292.394653,935.747803 1292.394653,907.000000 
	C1295.365845,907.000000 1298.451904,907.000000 1302.029297,907.000000 
z"/>
<path fill="#0072BC" opacity="1.000000" stroke="none" 
	d="
M1315.999512,882.940857 
	C1315.999512,885.722534 1315.999512,888.016968 1315.999512,890.654114 
	C1307.967529,890.654114 1300.288208,890.654114 1292.302490,890.654114 
	C1292.302490,883.997742 1292.302490,877.432129 1292.302490,870.431274 
	C1299.854736,870.431274 1307.536987,870.431274 1315.999512,870.431274 
	C1315.999512,874.323853 1315.999512,878.388733 1315.999512,882.940857 
z"/>
<path fill="#FEFEFF" opacity="1.000000" stroke="none" 
	d="
M1266.848877,198.159058 
	C1284.912354,259.055389 1302.868530,319.564148 1320.824585,380.072906 
	C1321.268311,380.100250 1321.712036,380.127625 1322.155762,380.154968 
	C1335.514893,314.568604 1348.874146,248.982254 1362.283447,183.149475 
	C1386.186646,183.149475 1409.940430,183.149475 1434.181519,183.149475 
	C1413.975830,278.013031 1393.825439,372.616089 1373.608765,467.531219 
	C1372.031616,467.624603 1370.572388,467.785645 1369.113159,467.786377 
	C1340.451172,467.801208 1311.788574,467.699097 1283.128174,467.912811 
	C1279.229126,467.941895 1278.060425,466.346558 1277.088013,463.130890 
	C1258.135132,400.460449 1239.107300,337.812622 1220.084961,275.163177 
	C1219.625122,273.648865 1219.052002,272.168915 1217.468872,270.652252 
	C1204.214111,336.212463 1190.959229,401.772644 1177.663208,467.536499 
	C1153.819214,467.536499 1130.209717,467.536499 1105.874268,467.536499 
	C1107.300049,460.632874 1108.644531,453.891571 1110.087402,447.171417 
	C1128.728882,360.346680 1147.402222,273.528778 1165.964722,186.687195 
	C1166.633423,183.559174 1167.949097,182.788589 1170.958984,182.799316 
	C1199.953857,182.902710 1228.949219,182.902496 1257.944092,182.801056 
	C1261.038452,182.790222 1262.843140,183.334290 1263.499390,186.773895 
	C1264.212280,190.509949 1265.630615,194.111374 1266.848877,198.159058 
z"/>
<path fill="#FEFEFF" opacity="1.000000" stroke="none" 
	d="
M1435.854492,312.821442 
	C1444.912109,269.300812 1453.898682,226.196014 1462.887085,183.082062 
	C1488.487183,183.082062 1513.601440,183.082062 1539.270874,183.082062 
	C1531.791260,219.319672 1524.377441,255.238754 1516.884888,291.539001 
	C1547.323730,291.539001 1577.391479,291.539001 1607.966309,291.539001 
	C1615.426147,255.587112 1622.913208,219.503647 1630.453125,183.165680 
	C1655.883301,183.165680 1681.134277,183.165680 1706.776367,183.165680 
	C1703.367676,199.628403 1700.028564,215.882111 1696.634644,232.124359 
	C1684.116455,292.031860 1671.582031,351.935944 1659.049316,411.840454 
	C1655.405396,429.257751 1651.807251,446.685272 1647.983887,464.063202 
	C1647.671143,465.484222 1645.788330,467.625519 1644.619751,467.635559 
	C1620.302246,467.844269 1595.982422,467.792908 1571.024170,467.792908 
	C1579.508545,427.007782 1587.915771,386.593384 1596.411377,345.754272 
	C1565.704712,345.754272 1535.628906,345.754272 1505.277466,345.754272 
	C1496.817871,386.299622 1488.364502,426.815247 1479.867310,467.540649 
	C1454.597534,467.540649 1429.503174,467.540649 1403.470215,467.540649 
	C1414.280640,415.917694 1425.031982,364.577484 1435.854492,312.821442 
z"/>
<path fill="#FEFEFF" opacity="1.000000" stroke="none" 
	d="
M1772.172119,472.436218 
	C1738.248779,473.616516 1705.931274,467.431122 1673.701904,457.901550 
	C1679.718506,438.598999 1685.579712,419.795197 1691.582520,400.537140 
	C1705.824707,408.402222 1720.898438,412.270355 1736.406982,414.478424 
	C1758.012207,417.554535 1779.595947,418.184601 1800.599243,410.943512 
	C1812.779907,406.744202 1821.934692,399.472351 1823.309082,385.361633 
	C1824.250244,375.700165 1821.082886,367.390228 1813.161987,362.381775 
	C1803.687378,356.390869 1793.311401,351.781403 1783.165527,346.907043 
	C1769.706909,340.441132 1755.513794,335.291077 1742.671631,327.800720 
	C1718.897705,313.934296 1710.459839,292.004761 1712.456665,265.081390 
	C1715.708740,221.234238 1743.927124,195.205841 1786.575928,184.119431 
	C1812.514771,177.376709 1838.974731,176.559769 1865.440186,178.826279 
	C1882.116089,180.254410 1898.653320,183.435242 1915.199463,186.153580 
	C1919.212646,186.812881 1923.015869,188.749878 1927.464600,190.289307 
	C1921.296387,209.246445 1915.256592,227.808777 1909.406128,245.789444 
	C1897.907837,242.617661 1886.942017,238.780624 1875.653687,236.655594 
	C1855.055786,232.778076 1834.275513,232.586288 1813.651245,237.029663 
	C1810.272217,237.757629 1806.878540,238.910995 1803.805542,240.481918 
	C1787.729248,248.700058 1785.800293,268.202301 1800.361328,278.850403 
	C1806.460571,283.310638 1813.541626,286.569489 1820.474365,289.718231 
	C1833.021973,295.417236 1846.055298,300.090363 1858.409302,306.161560 
	C1876.705811,315.153229 1891.578003,327.927399 1898.079468,348.157532 
	C1907.843018,378.538788 1902.714478,428.314117 1856.002563,453.104401 
	C1836.275513,463.573669 1815.049072,468.616974 1793.058350,470.963593 
	C1786.280396,471.686829 1779.454224,471.957184 1772.172119,472.436218 
z"/>
<path fill="#000000" opacity="1.000000" stroke="none" 
	d="
M1078.131592,974.334106 
	C1066.246948,980.265808 1057.987183,973.159973 1054.155273,961.976074 
	C1050.984741,952.722412 1051.749634,943.325562 1055.042114,934.135437 
	C1057.561401,927.103149 1063.259888,922.096985 1069.732788,922.247375 
	C1076.496094,922.404419 1081.568237,926.081848 1084.498169,932.079529 
	C1091.016724,945.422852 1090.938477,958.508789 1081.980225,970.893555 
	C1081.068115,972.154541 1079.609863,973.020508 1078.131592,974.334106 
z"/>
<path fill="#000000" opacity="1.000000" stroke="none" 
	d="
M1398.794312,957.366394 
	C1397.064331,964.460327 1394.611206,970.428711 1388.275757,974.292114 
	C1379.918945,979.388245 1366.605957,975.417297 1363.203491,967.526428 
	C1357.959961,955.366272 1355.475586,943.358276 1363.257568,931.075928 
	C1367.227173,924.810730 1372.782349,922.064514 1379.682739,922.439880 
	C1389.291626,922.962646 1395.825195,928.382874 1397.793091,937.707703 
	C1399.104736,943.922791 1398.613647,950.518372 1398.794312,957.366394 
z"/>
<path fill="#000000" opacity="1.000000" stroke="none" 
	d="
M787.998657,954.662842 
	C787.073792,961.563477 785.373474,967.719360 780.250000,972.177612 
	C770.665283,980.517822 755.224182,976.508911 751.193970,965.518921 
	C746.953613,953.955872 744.923340,942.644226 752.097168,931.242676 
	C756.048340,924.962952 761.654175,922.018860 768.479309,922.369629 
	C777.930603,922.855347 784.621765,928.144287 786.799194,937.467163 
	C788.055420,942.845581 787.654846,948.611023 787.998657,954.662842 
z"/>
<path fill="#000000" opacity="1.000000" stroke="none" 
	d="
M1153.217529,962.527954 
	C1155.879883,956.751465 1160.676758,954.443726 1166.057739,953.116882 
	C1168.585449,952.493591 1171.224609,952.181274 1173.829712,952.047485 
	C1177.293823,951.869629 1180.773804,952.003601 1184.227539,952.003601 
	C1185.189941,968.328674 1175.888672,980.650818 1159.966431,976.899658 
	C1154.133911,975.525574 1151.202026,969.378723 1153.217529,962.527954 
z"/>
</svg>