<svg version="1.1" id="Layer_1" xmlns="http://www.w3.org/2000/svg" xmlns:xlink="http://www.w3.org/1999/xlink" x="0px" y="0px"
	 width="100%" viewBox="0 0 2053 1160" enable-background="new 0 0 2053 1160" xml:space="preserve">
<path fill="#FFFFFF" opacity="1.000000" stroke="none" 
	d="
M1504.000000,1161.000000 
	C1002.666809,1161.000000 501.833618,1161.000000 1.000336,1161.000000 
	C1.000224,774.333618 1.000224,387.667206 1.000112,1.000595 
	C685.332825,1.000397 1369.665649,1.000397 2053.999023,1.000198 
	C2053.999268,387.666107 2053.999268,774.332214 2053.999512,1160.999146 
	C1870.833374,1161.000000 1687.666626,1161.000000 1504.000000,1161.000000 
M1293.500000,502.656830 
	C1515.616821,502.656830 1737.733643,502.656830 1959.856445,502.656830 
	C1959.856445,384.349060 1959.856445,266.638031 1959.856445,149.152084 
	C1666.708008,149.152084 1373.981079,149.152084 1081.242920,149.152084 
	C1081.242920,267.144562 1081.242920,384.706726 1081.242920,502.656647 
	C1151.893311,502.656647 1222.196655,502.656647 1293.500000,502.656830 
M1322.461182,685.351135 
	C1323.720215,692.310486 1325.933960,699.251892 1326.065063,706.232422 
	C1326.516113,730.223633 1326.238525,754.228638 1326.238525,778.228333 
	C1326.238525,779.990723 1326.238403,781.753174 1326.238403,783.401672 
	C1337.123291,783.401672 1347.355469,783.401672 1357.751099,783.401672 
	C1357.751099,754.719177 1357.848633,726.395325 1357.661255,698.073425 
	C1357.627441,692.965820 1356.810425,687.777588 1355.676025,682.780762 
	C1353.236572,672.036133 1349.385132,662.093811 1338.574463,656.683167 
	C1320.733154,647.753784 1296.433350,652.144653 1283.058838,666.940491 
	C1281.021240,669.194763 1279.336182,671.767883 1277.155762,674.629761 
	C1269.325806,659.131165 1256.799072,652.112122 1240.165771,652.258789 
	C1223.848511,652.402710 1211.197144,659.871277 1201.556641,673.150452 
	C1201.242432,672.849609 1200.928223,672.548767 1200.614014,672.247864 
	C1200.614014,666.664856 1200.614014,661.081787 1200.614014,655.585815 
	C1190.235474,655.585815 1180.337036,655.585815 1170.620605,655.585815 
	C1170.620605,698.497498 1170.620605,741.061096 1170.620605,783.520813 
	C1181.117188,783.520813 1191.229980,783.520813 1201.761597,783.520813 
	C1201.761597,781.660156 1201.761475,780.034485 1201.761475,778.408813 
	C1201.761475,758.409058 1201.398804,738.399475 1201.939941,718.414368 
	C1202.157227,710.391052 1203.537476,702.175049 1205.840332,694.481323 
	C1210.006226,680.562988 1222.358032,674.589172 1236.173218,678.707825 
	C1241.420654,680.272278 1244.856323,683.834534 1246.119629,688.927490 
	C1247.308105,693.718933 1248.108398,698.736084 1248.147705,703.661377 
	C1248.345337,728.492798 1248.238525,753.326721 1248.238525,778.159729 
	C1248.238525,779.928772 1248.238403,781.697815 1248.238403,783.425903 
	C1259.073730,783.425903 1269.304932,783.425903 1279.761597,783.425903 
	C1279.761597,760.774475 1279.603027,738.456177 1279.836182,716.141907 
	C1279.935425,706.647705 1281.231445,697.235962 1286.093140,688.758972 
	C1293.656494,675.571228 1313.199707,673.391113 1322.461182,685.351135 
M882.242065,771.372131 
	C881.925720,774.155396 881.609375,776.938721 881.268738,779.936096 
	C901.150146,785.266296 920.947754,789.049438 941.401184,785.440186 
	C953.513123,783.302856 965.139893,779.420349 974.097229,770.719543 
	C989.362671,755.891174 990.731873,737.126648 985.906189,717.960083 
	C981.950623,702.249573 969.587402,693.504456 955.305664,687.363586 
	C945.571716,683.178284 935.706177,679.262512 926.174683,674.656921 
	C920.682678,672.003113 915.202515,668.603882 913.789490,661.859131 
	C911.094116,648.992859 918.704651,637.223145 931.749451,634.853943 
	C937.379944,633.831360 943.402588,633.552612 949.047058,634.350769 
	C957.769775,635.584229 966.320801,638.032288 975.418091,640.071350 
	C976.203369,632.051208 977.112549,623.670898 977.721436,615.268738 
	C977.788818,614.339172 976.306702,612.657104 975.264221,612.382324 
	C955.445862,607.158264 935.484558,604.712891 915.307251,610.371216 
	C881.163696,619.946350 866.799011,659.882507 887.958923,687.986694 
	C892.555664,694.092102 899.745361,698.753540 906.593689,702.535583 
	C916.710815,708.122742 927.838684,711.864624 938.042480,717.316223 
	C943.094360,720.015320 948.578186,723.952454 951.174133,728.777832 
	C956.677307,739.007080 953.121582,751.531616 938.782715,757.093750 
	C922.463440,763.424133 906.847229,759.813660 891.516968,753.297302 
	C889.184998,752.306030 886.912109,751.175781 884.467590,750.042908 
	C883.681641,757.268066 882.962891,763.875000 882.242065,771.372131 
M1142.756958,715.619873 
	C1142.076050,699.171204 1137.447998,684.183228 1125.927002,671.979065 
	C1111.848145,657.065308 1093.945801,651.290649 1074.011719,652.375061 
	C1047.835571,653.799133 1028.052002,665.653137 1017.382141,690.450195 
	C1012.617249,701.523926 1011.796021,713.289917 1012.244629,725.189209 
	C1012.738831,738.296814 1016.751160,750.242920 1024.156860,761.052063 
	C1045.203247,791.771301 1090.802979,792.884827 1115.402222,776.142700 
	C1136.170044,762.008118 1144.001831,741.207520 1142.756958,715.619873 
M1392.950073,752.634583 
	C1398.055298,765.469910 1406.646484,775.292480 1419.635376,780.059204 
	C1428.094727,783.163574 1437.130005,785.357971 1446.082886,786.312683 
	C1461.998779,788.009888 1477.583130,785.706604 1492.123657,778.471191 
	C1493.427124,777.822632 1495.196167,776.345032 1495.234375,775.201843 
	C1495.504272,767.131165 1495.377808,759.047180 1495.377808,750.637146 
	C1490.422729,753.015137 1486.185303,755.223572 1481.810547,757.114929 
	C1469.691528,762.354614 1457.181885,765.069763 1443.965576,762.232239 
	C1428.746460,758.964661 1416.911621,744.166504 1418.279907,729.669312 
	C1446.964966,729.669312 1475.699463,729.669312 1504.380371,729.669312 
	C1505.431519,719.040222 1503.567505,700.986816 1498.996338,689.577026 
	C1495.833740,681.683411 1492.055420,673.623718 1486.760132,667.090759 
	C1478.064697,656.363037 1465.040405,653.465820 1451.908325,652.516174 
	C1426.004028,650.642944 1405.391357,659.358948 1394.352051,684.421814 
	C1384.588867,706.587219 1384.784180,729.223694 1392.950073,752.634583 
M1735.031738,733.644531 
	C1737.247681,750.394775 1743.212891,765.182556 1757.591064,775.265747 
	C1767.202026,782.005859 1778.212646,785.016907 1789.767456,786.167664 
	C1806.761841,787.860168 1823.271240,786.198120 1838.825073,778.597656 
	C1840.181030,777.935120 1842.173340,776.605347 1842.210571,775.527832 
	C1842.494995,767.325378 1842.366333,759.108582 1842.366333,750.647217 
	C1837.308228,753.065674 1833.064575,755.314392 1828.653442,757.163635 
	C1814.528931,763.084717 1800.110718,766.151428 1785.149902,760.330017 
	C1772.892822,755.560852 1763.765747,741.438293 1765.423828,729.584167 
	C1794.077393,729.584167 1822.801636,729.584167 1851.755859,729.584167 
	C1851.790527,713.040894 1849.737427,697.379150 1843.674194,682.370972 
	C1838.239990,668.919678 1829.011963,659.195068 1814.870361,655.562317 
	C1806.616699,653.442078 1797.831543,652.228516 1789.333862,652.450378 
	C1768.481445,652.994751 1752.511841,662.222107 1742.772461,681.326660 
	C1734.446899,697.657654 1732.981079,714.920959 1735.031738,733.644531 
M1643.057861,761.846497 
	C1636.831055,759.777710 1630.604248,757.708923 1624.164062,755.569214 
	C1623.522217,764.069092 1622.875244,772.637390 1622.212158,781.420227 
	C1639.798584,785.866638 1657.145142,788.728699 1674.793701,785.456421 
	C1686.306030,783.321838 1697.491211,779.510254 1705.236450,769.979614 
	C1722.936890,748.199219 1713.738770,717.647827 1686.852417,708.314026 
	C1678.723511,705.492065 1670.420532,703.144348 1662.387695,700.080505 
	C1653.768188,696.792786 1652.064087,686.916504 1658.969482,680.767578 
	C1660.989136,678.969238 1663.772217,677.294861 1666.362427,677.014465 
	C1672.909912,676.305908 1679.607178,675.777222 1686.130737,676.388794 
	C1692.636353,676.998657 1699.003906,679.082764 1705.540771,680.544922 
	C1706.220825,672.723389 1706.904907,664.854736 1707.657837,656.195984 
	C1698.411011,654.858215 1689.624634,653.064697 1680.754761,652.417114 
	C1664.376465,651.221375 1648.791016,653.500244 1634.599731,663.062378 
	C1616.826782,675.037903 1614.822388,711.703430 1639.042847,722.563477 
	C1643.559692,724.588684 1648.265503,726.208313 1652.934570,727.873413 
	C1659.316772,730.149353 1665.819824,732.101562 1672.135742,734.543091 
	C1677.956299,736.793091 1680.449707,741.582336 1680.179077,747.605408 
	C1679.900757,753.799194 1676.714111,757.866760 1670.820557,760.413940 
	C1661.931763,764.255615 1652.983643,763.512634 1643.057861,761.846497 
M1947.256104,785.747070 
	C1949.815430,785.157104 1952.374756,784.567078 1954.385864,784.103516 
	C1954.385864,775.240845 1954.385864,766.878906 1954.385864,758.239258 
	C1936.418579,765.412537 1926.314697,760.548706 1923.962891,744.231934 
	C1923.774170,742.922485 1923.769897,741.579041 1923.769043,740.251282 
	C1923.757446,721.102417 1923.755615,701.953613 1923.773193,682.804749 
	C1923.774414,681.536133 1923.950073,680.267639 1924.069336,678.665161 
	C1933.794800,678.665161 1943.220581,678.665161 1952.860107,678.665161 
	C1952.860107,670.751526 1952.860107,663.200562 1952.860107,655.109192 
	C1943.043945,655.109192 1933.494141,655.109192 1923.604248,655.109192 
	C1923.604248,642.845093 1923.604248,631.118652 1923.604248,618.897644 
	C1912.826782,622.503235 1902.529175,625.948303 1891.959229,629.484436 
	C1891.959229,638.281860 1891.959229,646.690369 1891.959229,655.554626 
	C1883.798218,655.554626 1876.069702,655.554626 1868.484131,655.554626 
	C1868.484131,663.474121 1868.484131,670.914124 1868.484131,678.821716 
	C1876.448730,678.821716 1884.181274,678.821716 1892.238892,678.821716 
	C1892.238892,700.239990 1892.178345,721.185913 1892.284424,742.130920 
	C1892.308838,746.929932 1892.537476,751.786316 1893.309082,756.512207 
	C1895.723389,771.296631 1903.545410,782.055298 1918.723022,784.820251 
	C1927.701904,786.455994 1937.146729,785.533997 1947.256104,785.747070 
M352.424744,876.315369 
	C348.160339,876.315369 343.895966,876.315369 339.025391,876.315369 
	C339.025391,905.304993 339.025391,933.615967 339.025391,961.926941 
	C337.039825,960.723755 336.128082,959.241455 335.356537,957.689575 
	C322.542542,931.915955 309.771423,906.121033 296.884155,880.384155 
	C296.093628,878.805420 294.462280,876.564758 293.143585,876.509583 
	C284.708893,876.156799 276.252197,876.329712 267.685120,876.329712 
	C267.685120,915.027466 267.685120,953.218750 267.685120,991.368408 
	C274.809937,991.368408 281.560455,991.368408 288.947327,991.368408 
	C288.947327,962.760254 288.947327,934.462585 288.947327,906.164917 
	C290.813690,907.488525 291.709747,909.002808 292.495392,910.572266 
	C305.371063,936.293884 318.206360,962.035828 331.162628,987.716736 
	C331.949860,989.277161 333.628479,991.442932 334.967621,991.497986 
	C343.393616,991.844849 351.840942,991.673584 360.275208,991.673584 
	C360.275208,952.893066 360.275208,914.701721 360.275208,876.315491 
	C357.706726,876.315491 355.545807,876.315491 352.424744,876.315369 
M479.682404,934.500061 
	C479.682404,915.233887 479.682404,895.967712 479.682404,876.609863 
	C471.805359,876.609863 464.555298,876.609863 456.845917,876.609863 
	C456.845917,892.150146 456.845917,907.405457 456.845917,922.984985 
	C441.334106,922.984985 426.284698,922.984985 410.623108,922.984985 
	C410.623108,907.410278 410.623108,892.027649 410.623108,876.601440 
	C402.925995,876.601440 395.843658,876.601440 388.718353,876.601440 
	C388.718353,915.081665 388.718353,953.276672 388.718353,991.332886 
	C396.209503,991.332886 403.295166,991.332886 410.800385,991.332886 
	C410.800385,974.396240 410.800385,957.804382 410.800385,941.015137 
	C426.284882,941.015137 441.334290,941.015137 456.845703,941.015137 
	C456.845703,957.927612 456.845703,974.516418 456.845703,991.310669 
	C464.680878,991.310669 472.048492,991.310669 479.682220,991.310669 
	C479.682220,972.460144 479.682220,953.980103 479.682404,934.500061 
M1068.921143,993.516174 
	C1076.971680,992.293945 1083.838379,988.642883 1090.041626,982.099121 
	C1090.275146,986.000061 1090.437744,988.717773 1090.597656,991.389893 
	C1097.673096,991.389893 1104.260254,991.389893 1110.959106,991.389893 
	C1110.959106,949.940186 1110.959106,908.770081 1110.959106,867.635986 
	C1103.796387,867.635986 1097.031372,867.635986 1089.719849,867.635986 
	C1089.719849,883.639771 1089.719849,899.348145 1089.719849,916.291687 
	C1087.711060,914.650146 1086.604370,913.819458 1085.579834,912.897583 
	C1072.050415,900.724487 1042.864990,902.447998 1034.232910,923.281555 
	C1029.350830,935.064453 1028.239990,947.023010 1029.704224,959.350464 
	C1030.713379,967.846558 1033.432251,975.941956 1038.902466,982.723022 
	C1046.414185,992.034790 1056.825073,994.026733 1068.921143,993.516174 
M1599.563599,683.613403 
	C1602.416992,684.057556 1605.270508,684.501709 1608.126465,684.946228 
	C1608.126465,674.180664 1608.126465,663.756470 1608.126465,653.405457 
	C1588.827515,648.576782 1575.982300,657.306946 1563.732422,684.258179 
	C1563.732422,673.779785 1563.732422,664.629517 1563.732422,655.591248 
	C1553.887085,655.591248 1544.659302,655.591248 1535.599365,655.591248 
	C1535.599365,698.487427 1535.599365,741.032043 1535.599365,783.489014 
	C1546.224731,783.489014 1556.488770,783.489014 1567.139282,783.489014 
	C1567.139282,781.586060 1567.139282,779.951172 1567.139282,778.316345 
	C1567.139282,762.159851 1566.815552,745.994202 1567.270630,729.850586 
	C1567.512451,721.272034 1568.171509,712.492249 1570.292114,704.226562 
	C1574.028198,689.663879 1582.189697,681.544128 1599.563599,683.613403 
M563.977173,986.452454 
	C575.494568,979.397888 580.852844,964.280396 577.084412,949.620605 
	C573.929565,937.347839 564.725586,931.296082 553.922913,926.734680 
	C547.350464,923.959412 540.588623,921.419189 534.479980,917.811462 
	C526.415344,913.048401 525.557190,902.273987 532.873291,896.353638 
	C536.095764,893.745972 540.990906,891.866516 545.078857,891.951538 
	C553.072754,892.117676 561.033203,893.895996 569.421997,895.064697 
	C569.829529,890.931641 570.534119,886.190247 570.615234,881.438293 
	C570.638306,880.085022 569.086487,877.792664 567.854431,877.470642 
	C554.843506,874.069824 541.719971,872.692566 528.518616,876.603271 
	C507.347229,882.874939 497.886139,906.181335 508.766724,925.376160 
	C513.227600,933.245789 521.048218,936.819946 528.695923,940.508179 
	C534.829651,943.466309 541.174805,945.995667 547.245483,949.071777 
	C552.259460,951.612549 554.651306,955.834778 554.399292,961.704407 
	C554.164246,967.175171 551.468872,970.676147 546.918335,973.159668 
	C540.633179,976.589783 533.859009,977.242126 527.056702,975.801819 
	C520.823792,974.482056 514.763916,972.345337 508.373566,970.494995 
	C507.698364,976.551758 507.005768,982.764160 506.279022,989.283203 
	C511.227539,990.345398 515.716675,991.431702 520.252808,992.260010 
	C535.176819,994.984924 549.726013,994.539124 563.977173,986.452454 
M1368.797729,992.672974 
	C1380.275269,994.945618 1391.405762,993.733337 1401.669800,988.154602 
	C1425.619385,975.137512 1427.790405,942.477661 1415.294189,923.453735 
	C1404.596680,907.168274 1380.217407,900.546021 1361.382812,908.430298 
	C1339.146362,917.738586 1332.530151,937.629578 1335.915649,958.708374 
	C1338.830200,976.854492 1349.782471,988.381531 1368.797729,992.672974 
M762.982178,993.504395 
	C772.623535,994.281799 781.974304,992.933838 790.478760,988.304871 
	C814.492432,975.234009 816.849976,942.934570 804.439697,923.661499 
	C793.794617,907.129822 769.120789,900.513672 750.168762,908.522583 
	C728.087891,917.853638 721.283936,937.992065 725.010010,958.913513 
	C728.709656,979.686157 740.503357,989.865906 762.982178,993.504395 
M1732.325562,952.491943 
	C1733.344116,960.683777 1733.497925,969.109009 1735.628540,977.000549 
	C1737.686523,984.622498 1743.230347,990.296143 1751.344238,992.361877 
	C1764.478638,995.705994 1776.011475,992.707642 1785.734863,983.125916 
	C1786.586060,982.287109 1787.572510,981.585693 1789.419678,980.055359 
	C1789.419678,984.602417 1789.419678,987.989258 1789.419678,991.428772 
	C1796.276489,991.428772 1802.538330,991.428772 1808.968750,991.428772 
	C1808.968750,963.320190 1808.968750,935.458923 1808.968750,907.629028 
	C1801.805420,907.629028 1795.037354,907.629028 1787.883057,907.629028 
	C1787.883057,920.731201 1787.987671,933.534912 1787.843750,946.335876 
	C1787.757812,953.978882 1787.568970,961.648010 1783.367188,968.527039 
	C1779.170898,975.396973 1771.973999,978.781494 1764.763550,977.062256 
	C1758.779907,975.635559 1755.013916,970.632629 1754.711426,962.125916 
	C1754.126099,945.666687 1753.991455,929.191406 1753.678955,912.722595 
	C1753.645996,910.984924 1753.674438,909.246155 1753.674438,907.693970 
	C1746.081543,907.693970 1739.333252,907.693970 1732.325806,907.693970 
	C1732.325806,922.538818 1732.325806,937.016663 1732.325562,952.491943 
M859.663513,975.129150 
	C855.356567,972.038635 853.883423,967.513916 853.694519,962.553345 
	C853.251709,950.928406 852.938843,939.297363 852.699158,927.666260 
	C852.562927,921.054993 852.674622,914.438599 852.674622,907.701599 
	C845.302368,907.701599 838.439575,907.701599 831.376099,907.701599 
	C831.376099,926.708435 831.175049,945.343689 831.520630,963.968872 
	C831.604736,968.501709 832.970825,973.204834 834.656494,977.470459 
	C837.509705,984.690430 842.385010,990.341309 850.305847,992.356018 
	C863.431763,995.694519 874.957764,992.727295 884.690430,983.171753 
	C885.550964,982.326843 886.533264,981.605896 888.362488,980.067505 
	C888.362488,984.567871 888.362488,987.940552 888.362488,991.463623 
	C895.221863,991.463623 901.484131,991.463623 908.025574,991.463623 
	C908.025574,963.392578 908.025574,935.532898 908.025574,907.583984 
	C900.926636,907.583984 894.164307,907.583984 887.518188,907.583984 
	C887.258423,908.127136 887.000671,908.415466 886.999390,908.704895 
	C886.946350,920.688293 887.069519,932.674988 886.815918,944.653809 
	C886.696838,950.275208 886.384460,955.991577 885.238586,961.472351 
	C882.531311,974.420776 871.651123,980.389587 859.663513,975.129150 
M1492.312744,905.327209 
	C1480.582153,904.695801 1471.281860,909.754700 1462.623535,919.477844 
	C1462.623535,914.395264 1462.623535,911.028198 1462.623535,907.607422 
	C1455.597046,907.607422 1449.185547,907.607422 1442.715576,907.607422 
	C1442.715576,935.740417 1442.715576,963.591064 1442.715576,991.301392 
	C1450.017578,991.301392 1456.925171,991.301392 1464.115845,991.301392 
	C1464.115845,977.289185 1464.056274,963.646301 1464.138672,950.004272 
	C1464.186523,942.084167 1465.393311,934.437866 1470.366211,927.862549 
	C1474.311768,922.645691 1481.195190,920.231689 1487.744873,921.844482 
	C1492.820435,923.094360 1496.425171,927.870728 1497.313843,934.581543 
	C1497.488281,935.898193 1497.623413,937.230896 1497.631836,938.557068 
	C1497.732056,954.207336 1497.805664,969.857788 1497.883057,985.508179 
	C1497.892578,987.433228 1497.884277,989.358459 1497.884277,991.415161 
	C1505.320801,991.415161 1512.068481,991.415161 1518.817261,991.415161 
	C1519.035767,990.715759 1519.306519,990.252930 1519.306885,989.789917 
	C1519.325928,971.305908 1519.797729,952.806030 1519.181152,934.342529 
	C1518.587524,916.566589 1509.627930,907.178345 1492.312744,905.327209 
M960.770447,927.335266 
	C965.625427,921.490295 972.011780,920.305542 978.802124,922.370483 
	C985.617981,924.443176 987.081299,930.605835 987.484070,936.744751 
	C987.930542,943.548462 987.838989,950.391296 987.870239,957.217590 
	C987.921936,968.512695 987.884338,979.808289 987.884338,991.332520 
	C995.196228,991.332520 1002.066650,991.332520 1009.060425,991.332520 
	C1009.060425,971.372070 1009.380249,951.743591 1008.903687,932.134399 
	C1008.711975,924.248291 1005.880676,916.765076 999.494324,911.373352 
	C988.953613,902.473999 969.588806,903.365173 958.976379,913.245239 
	C957.222046,914.878479 955.939270,917.018066 954.438599,918.923706 
	C953.930603,918.566162 953.422607,918.208679 952.914612,917.851196 
	C952.759277,914.481445 952.603943,911.111633 952.448303,907.735535 
	C945.576721,907.735535 939.043091,907.735535 932.677002,907.735535 
	C932.677002,935.885620 932.677002,963.625854 932.677002,991.348511 
	C939.952087,991.348511 946.872131,991.348511 954.115784,991.348511 
	C954.115784,977.381592 954.059814,963.736267 954.137207,950.091736 
	C954.182190,942.169861 955.344666,934.502197 960.770447,927.335266 
M1183.968262,981.965027 
	C1185.151733,980.783325 1186.423584,979.578369 1186.862305,982.427307 
	C1187.164795,984.390869 1186.891479,986.483276 1187.435181,988.355530 
	C1187.799072,989.608215 1189.094360,991.468140 1190.059937,991.522888 
	C1195.473389,991.829956 1200.913208,991.670776 1205.678589,991.670776 
	C1205.678589,985.159058 1205.774658,979.343933 1205.659302,973.532898 
	C1205.385376,959.724731 1205.423828,945.892639 1204.557373,932.119141 
	C1203.747559,919.246948 1196.151123,910.657043 1183.758423,907.046631 
	C1174.066528,904.222961 1164.301758,904.853088 1154.632568,907.006348 
	C1139.611816,910.351379 1139.633057,910.465027 1140.699097,925.723389 
	C1140.767578,926.704102 1140.968750,927.675537 1141.155884,928.985107 
	C1142.224243,928.350891 1143.064819,927.894043 1143.862549,927.371826 
	C1151.803711,922.173523 1160.554810,920.157043 1169.963257,920.680481 
	C1180.917358,921.289978 1186.769409,928.524902 1184.588135,939.321350 
	C1180.053223,939.321350 1175.365723,938.877136 1170.795898,939.420898 
	C1163.093262,940.337219 1155.286987,941.236633 1147.844482,943.298889 
	C1134.003174,947.134094 1127.938110,963.013855 1132.474976,976.596069 
	C1136.065186,987.344360 1145.262817,991.621155 1155.482422,993.273132 
	C1166.599487,995.070190 1176.144165,991.414185 1183.968262,981.965027 
M647.310547,931.499939 
	C647.310547,951.434570 647.310547,971.369202 647.310547,991.431091 
	C655.022461,991.431091 662.106567,991.431091 669.802124,991.431091 
	C669.802124,974.468384 669.802124,957.753113 669.802124,940.616211 
	C683.003235,940.616211 695.598511,940.616211 708.311584,940.616211 
	C708.311584,934.637390 708.311584,929.100586 708.311584,923.135132 
	C695.343994,923.135132 682.748718,923.135132 670.049561,923.135132 
	C670.049561,913.147217 670.049561,903.600464 670.049561,893.500183 
	C683.621887,893.500183 696.843140,893.500183 710.067383,893.500183 
	C710.067383,887.509827 710.067383,882.083252 710.067383,876.682861 
	C689.030823,876.682861 668.304932,876.682861 647.310730,876.682861 
	C647.310730,894.869141 647.310730,912.684509 647.310547,931.499939 
M1613.310669,969.499878 
	C1613.310669,976.771667 1613.310669,984.043457 1613.310669,991.429138 
	C1621.026489,991.429138 1628.110718,991.429138 1635.803711,991.429138 
	C1635.803711,958.798401 1635.803711,926.421997 1635.803711,893.493896 
	C1646.960693,893.493896 1657.518677,893.493896 1668.064697,893.493896 
	C1668.064697,887.502380 1668.064697,882.075745 1668.064697,876.684570 
	C1638.693237,876.684570 1609.634644,876.684570 1580.630371,876.684570 
	C1580.630371,882.482910 1580.630371,887.900757 1580.630371,893.926025 
	C1591.659180,893.926025 1602.378052,893.926025 1613.310913,893.926025 
	C1613.310913,919.193237 1613.310913,943.846558 1613.310669,969.499878 
M1880.204834,985.739685 
	C1888.754028,978.863586 1890.208496,969.517700 1888.470825,959.599121 
	C1886.996704,951.184631 1881.091309,946.070923 1873.256348,943.229797 
	C1867.491089,941.139282 1861.643677,939.275391 1855.834961,937.304138 
	C1852.590332,936.203064 1849.730591,934.159119 1850.336426,930.603088 
	C1850.811279,927.815918 1852.491577,924.738342 1854.597656,922.878113 
	C1856.355713,921.325317 1859.539551,920.686401 1862.036987,920.804810 
	C1869.081665,921.138672 1876.098145,922.070618 1883.489746,922.802979 
	C1883.822266,920.065430 1884.180420,916.638123 1884.667969,913.229431 
	C1885.213745,909.412048 1884.080566,907.359253 1879.793945,907.188416 
	C1876.345581,907.050903 1872.950684,905.844543 1869.495361,905.563354 
	C1857.319214,904.572510 1845.568970,905.525879 1835.378174,913.427917 
	C1823.803223,922.403076 1825.245728,943.900513 1838.283325,950.435425 
	C1844.306274,953.454285 1850.976685,955.187195 1857.364990,957.470764 
	C1864.482056,960.014771 1866.944214,962.754578 1866.752441,968.009583 
	C1866.568848,973.040833 1863.522583,976.024475 1856.534546,977.861450 
	C1855.270874,978.193604 1853.872925,978.463745 1852.609741,978.275269 
	C1845.020996,977.142944 1837.453247,975.868408 1829.569580,974.591492 
	C1829.212158,979.128662 1828.789917,984.487061 1828.341675,990.176270 
	C1846.166748,994.343445 1863.378052,996.729004 1880.204834,985.739685 
M1236.312256,946.500000 
	C1236.312378,953.830627 1236.231079,961.162292 1236.331177,968.491577 
	C1236.496216,980.558289 1242.182373,989.730164 1252.642700,991.841125 
	C1260.107544,993.347595 1268.062622,992.551147 1275.794434,992.450562 
	C1276.770142,992.437927 1278.462524,990.460632 1278.549194,989.298645 
	C1278.877441,984.898499 1278.681152,980.459229 1278.681152,975.637695 
	C1276.681763,976.129211 1275.572754,976.393860 1274.467896,976.674683 
	C1264.653687,979.168701 1259.554810,976.188110 1258.075439,966.389893 
	C1257.361328,961.660156 1257.721680,956.759399 1257.700317,951.935669 
	C1257.657837,942.333313 1257.687744,932.730713 1257.687744,922.528259 
	C1264.696045,922.528259 1271.084351,922.528259 1277.355469,922.528259 
	C1277.355469,917.157166 1277.355469,912.406372 1277.355469,907.051270 
	C1270.646484,907.051270 1264.258179,907.051270 1257.483398,907.051270 
	C1257.483398,898.862732 1257.483398,891.281311 1257.483398,883.329041 
	C1250.864746,885.438232 1244.692139,887.263245 1238.655640,889.461731 
	C1237.584351,889.851929 1236.491943,891.762390 1236.418213,893.029541 
	C1236.150879,897.624207 1236.312866,902.243774 1236.312866,907.447266 
	C1230.663452,907.447266 1225.610474,907.447266 1220.631958,907.447266 
	C1220.631958,912.817078 1220.631958,917.568115 1220.631958,922.924927 
	C1225.995728,922.924927 1231.054443,922.924927 1236.312500,922.924927 
	C1236.312500,930.858215 1236.312500,938.179077 1236.312256,946.500000 
M1916.849731,889.532715 
	C1916.337158,891.123291 1915.462036,892.696045 1915.382568,894.307983 
	C1915.174194,898.544067 1915.312256,902.797119 1915.312256,907.456726 
	C1909.589722,907.456726 1904.660034,907.456726 1899.717896,907.456726 
	C1899.717896,912.762817 1899.717896,917.631226 1899.717896,922.914551 
	C1905.047119,922.914551 1909.973267,922.914551 1915.312256,922.914551 
	C1915.312256,925.138367 1915.312256,926.934387 1915.312256,928.730347 
	C1915.312256,941.880310 1915.244263,955.030762 1915.331909,968.180176 
	C1915.416382,980.869263 1921.678589,990.325439 1932.713013,992.283630 
	C1939.754639,993.533203 1947.187256,992.726624 1954.434937,992.512878 
	C1955.542114,992.480164 1957.446533,990.729675 1957.528320,989.662354 
	C1957.875732,985.124451 1957.675903,980.544678 1957.675903,975.790039 
	C1941.221558,979.397400 1936.688965,975.736389 1936.687866,959.840576 
	C1936.687378,953.348816 1936.687744,946.857056 1936.687744,940.365295 
	C1936.687744,934.604553 1936.687744,928.843811 1936.687744,922.492920 
	C1943.736328,922.492920 1950.124023,922.492920 1956.345581,922.492920 
	C1956.345581,917.132141 1956.345581,912.383606 1956.345581,907.037659 
	C1949.629883,907.037659 1943.242432,907.037659 1936.484375,907.037659 
	C1936.484375,898.859009 1936.484375,891.281677 1936.484375,883.330017 
	C1929.879272,885.435486 1923.759521,887.386169 1916.849731,889.532715 
M1667.319702,926.500549 
	C1667.319702,948.082092 1667.319702,969.663635 1667.319702,991.414429 
	C1674.802490,991.414429 1681.709717,991.414429 1689.120483,991.414429 
	C1689.120483,980.713623 1688.962646,970.267700 1689.168457,959.828857 
	C1689.344604,950.892517 1689.028320,941.833374 1693.501099,933.553650 
	C1696.364502,928.253052 1700.546753,925.241638 1706.688843,925.383667 
	C1710.071533,925.461914 1713.450317,925.703308 1717.115845,925.885376 
	C1717.115845,919.966919 1717.128418,914.326843 1717.101685,908.687012 
	C1717.097900,907.874207 1716.905762,907.062317 1716.808960,906.313110 
	C1705.135010,902.775269 1697.357666,907.425842 1686.793701,924.777161 
	C1686.793701,918.463562 1686.793701,913.129761 1686.793701,907.694214 
	C1679.969238,907.694214 1673.772705,907.694214 1667.319946,907.694214 
	C1667.319946,913.877014 1667.319946,919.688965 1667.319702,926.500549 
M1305.467896,991.677490 
	C1308.578735,991.677490 1311.689575,991.677490 1314.830566,991.677490 
	C1314.830566,963.282104 1314.830566,935.541809 1314.830566,907.579224 
	C1307.634888,907.579224 1300.728149,907.579224 1293.688110,907.579224 
	C1293.688110,935.690918 1293.688110,963.544373 1293.688110,991.677307 
	C1297.532471,991.677307 1301.013672,991.677307 1305.467896,991.677490 
M1294.153809,870.499146 
	C1293.774048,877.142944 1293.394409,883.786682 1293.020996,890.319336 
	C1301.009399,890.319336 1307.923218,890.319336 1314.784424,890.319336 
	C1314.784424,883.532227 1314.784424,877.121094 1314.784424,870.338074 
	C1307.979004,870.338074 1301.509155,870.338074 1294.153809,870.499146 
z"/>
<path fill="#0273BC" opacity="1.000000" stroke="none" 
	d="
M1293.000000,502.656738 
	C1222.196655,502.656647 1151.893311,502.656647 1081.242920,502.656647 
	C1081.242920,384.706726 1081.242920,267.144562 1081.242920,149.152084 
	C1373.981079,149.152084 1666.708008,149.152084 1959.856445,149.152084 
	C1959.856445,266.638031 1959.856445,384.349060 1959.856445,502.656830 
	C1737.733643,502.656830 1515.616821,502.656830 1293.000000,502.656738 
M1358.875000,200.337677 
	C1358.687500,200.976593 1358.451660,201.605667 1358.319580,202.255829 
	C1347.863770,253.749008 1337.420654,305.244812 1326.962036,356.737396 
	C1325.365723,364.596527 1323.698608,372.441315 1322.064331,380.292725 
	C1320.681885,379.026550 1320.224243,377.816559 1319.856812,376.579803 
	C1301.164917,313.667572 1282.446899,250.763016 1263.878296,187.814392 
	C1262.745239,183.973389 1261.152710,182.722412 1257.055420,182.753311 
	C1228.730835,182.966919 1200.403809,182.865829 1172.077637,182.865829 
	C1170.440430,182.865829 1168.803101,182.865829 1166.884155,182.865829 
	C1146.478882,277.917358 1126.151123,372.608093 1105.793823,467.436554 
	C1130.154053,467.436554 1153.889648,467.436554 1177.674316,467.436554 
	C1190.994385,401.565521 1204.245361,336.035675 1217.496338,270.505829 
	C1219.165527,272.327484 1219.721558,274.045258 1220.246460,275.772552 
	C1239.181763,338.089752 1258.147339,400.397858 1276.965454,462.750397 
	C1278.100342,466.510559 1279.513062,467.958618 1283.720093,467.923859 
	C1311.877686,467.691040 1340.038330,467.802887 1368.197876,467.802887 
	C1369.975952,467.802887 1371.754028,467.802856 1373.546143,467.802856 
	C1393.830200,372.569702 1413.975708,277.986694 1434.173950,183.156006 
	C1409.928467,183.156006 1386.178223,183.156006 1362.284058,183.156006 
	C1361.154541,188.768555 1360.075317,194.131393 1358.875000,200.337677 
M1442.680542,280.165131 
	C1429.631348,342.539429 1416.582153,404.913727 1403.484741,467.517944 
	C1429.547729,467.517944 1454.631714,467.517944 1479.866455,467.517944 
	C1488.368530,426.773651 1496.820312,386.270874 1505.284058,345.710175 
	C1535.639282,345.710175 1565.711914,345.710175 1596.425537,345.710175 
	C1587.924194,386.570343 1579.510132,427.010498 1571.023438,467.800049 
	C1595.855103,467.800049 1620.171997,467.850830 1644.487183,467.648407 
	C1645.689697,467.638397 1647.613281,465.598450 1647.947144,464.203522 
	C1650.151855,454.991180 1652.044922,445.703247 1653.981445,436.427826 
	C1669.170410,363.677124 1684.349121,290.924286 1699.522583,218.170334 
	C1701.946777,206.546768 1704.329102,194.914520 1706.738770,183.247681 
	C1680.910645,183.247681 1655.670898,183.247681 1630.436035,183.247681 
	C1622.877563,219.674576 1615.394897,255.735870 1607.984985,291.446625 
	C1577.241943,291.446625 1547.220215,291.446625 1516.898193,291.446625 
	C1524.397217,255.105591 1531.800903,219.225906 1539.263306,183.061890 
	C1513.460693,183.061890 1488.347412,183.061890 1462.876221,183.061890 
	C1456.193604,215.230637 1449.534912,247.284241 1442.680542,280.165131 
M1779.679077,186.079346 
	C1740.842651,198.517059 1715.906982,222.612122 1712.473511,265.250793 
	C1710.172729,293.823639 1720.488525,315.892944 1745.706787,329.810974 
	C1757.729126,336.446075 1770.846924,341.068268 1783.296021,346.966278 
	C1793.463745,351.783417 1803.794434,356.477875 1813.269287,362.466614 
	C1821.016968,367.363617 1824.187988,375.531830 1823.362915,384.982727 
	C1822.112427,399.308136 1812.910889,406.769165 1800.495972,410.970612 
	C1777.451416,418.769226 1753.936768,417.537109 1730.425903,413.508362 
	C1716.977783,411.203979 1703.942627,407.425110 1691.587524,400.518311 
	C1685.572388,419.822021 1679.713135,438.625275 1673.771118,457.694183 
	C1675.342651,458.235931 1676.553345,458.707947 1677.795288,459.073517 
	C1715.829346,470.269409 1754.477661,475.556641 1794.113403,470.920258 
	C1815.723022,468.392487 1836.624023,463.409790 1856.039673,453.091187 
	C1902.306030,428.502625 1907.974243,379.092499 1898.068970,348.144653 
	C1891.593994,327.914612 1876.701416,315.147186 1858.402344,306.162506 
	C1846.048340,300.096741 1832.997070,295.466736 1820.483765,289.703949 
	C1813.127197,286.316101 1805.606323,282.761566 1799.227295,277.885071 
	C1786.503174,268.157776 1787.955444,250.013916 1801.682373,241.823853 
	C1805.327881,239.648712 1809.496094,238.017883 1813.637817,237.063217 
	C1832.036133,232.822327 1850.740234,232.711899 1869.214233,235.663849 
	C1882.668335,237.813705 1895.796509,242.004135 1909.524414,245.397156 
	C1915.235229,227.857391 1921.280518,209.290115 1927.518188,190.131866 
	C1921.664429,188.291077 1916.380127,186.324570 1910.943115,184.972214 
	C1887.019897,179.021729 1862.603149,177.871765 1838.091675,177.944092 
	C1818.533447,178.001801 1799.244263,180.156372 1779.679077,186.079346 
z"/>
<path fill="#050505" opacity="1.000000" stroke="none" 
	d="
M1322.245850,685.031860 
	C1313.199707,673.391113 1293.656494,675.571228 1286.093140,688.758972 
	C1281.231445,697.235962 1279.935425,706.647705 1279.836182,716.141907 
	C1279.603027,738.456177 1279.761597,760.774475 1279.761597,783.425903 
	C1269.304932,783.425903 1259.073730,783.425903 1248.238403,783.425903 
	C1248.238403,781.697815 1248.238525,779.928772 1248.238525,778.159729 
	C1248.238525,753.326721 1248.345337,728.492798 1248.147705,703.661377 
	C1248.108398,698.736084 1247.308105,693.718933 1246.119629,688.927490 
	C1244.856323,683.834534 1241.420654,680.272278 1236.173218,678.707825 
	C1222.358032,674.589172 1210.006226,680.562988 1205.840332,694.481323 
	C1203.537476,702.175049 1202.157227,710.391052 1201.939941,718.414368 
	C1201.398804,738.399475 1201.761475,758.409058 1201.761475,778.408813 
	C1201.761475,780.034485 1201.761597,781.660156 1201.761597,783.520813 
	C1191.229980,783.520813 1181.117188,783.520813 1170.620605,783.520813 
	C1170.620605,741.061096 1170.620605,698.497498 1170.620605,655.585815 
	C1180.337036,655.585815 1190.235474,655.585815 1200.614014,655.585815 
	C1200.614014,661.081787 1200.614014,666.664856 1200.614014,672.247864 
	C1200.928223,672.548767 1201.242432,672.849609 1201.556641,673.150452 
	C1211.197144,659.871277 1223.848511,652.402710 1240.165771,652.258789 
	C1256.799072,652.112122 1269.325806,659.131165 1277.155762,674.629761 
	C1279.336182,671.767883 1281.021240,669.194763 1283.058838,666.940491 
	C1296.433350,652.144653 1320.733154,647.753784 1338.574463,656.683167 
	C1349.385132,662.093811 1353.236572,672.036133 1355.676025,682.780762 
	C1356.810425,687.777588 1357.627441,692.965820 1357.661255,698.073425 
	C1357.848633,726.395325 1357.751099,754.719177 1357.751099,783.401672 
	C1347.355469,783.401672 1337.123291,783.401672 1326.238403,783.401672 
	C1326.238403,781.753174 1326.238525,779.990723 1326.238525,778.228333 
	C1326.238525,754.228638 1326.516113,730.223633 1326.065063,706.232422 
	C1325.933960,699.251892 1323.720215,692.310486 1322.245850,685.031860 
z"/>
<path fill="#040404" opacity="1.000000" stroke="none" 
	d="
M882.243103,770.927002 
	C882.962891,763.875000 883.681641,757.268066 884.467590,750.042908 
	C886.912109,751.175781 889.184998,752.306030 891.516968,753.297302 
	C906.847229,759.813660 922.463440,763.424133 938.782715,757.093750 
	C953.121582,751.531616 956.677307,739.007080 951.174133,728.777832 
	C948.578186,723.952454 943.094360,720.015320 938.042480,717.316223 
	C927.838684,711.864624 916.710815,708.122742 906.593689,702.535583 
	C899.745361,698.753540 892.555664,694.092102 887.958923,687.986694 
	C866.799011,659.882507 881.163696,619.946350 915.307251,610.371216 
	C935.484558,604.712891 955.445862,607.158264 975.264221,612.382324 
	C976.306702,612.657104 977.788818,614.339172 977.721436,615.268738 
	C977.112549,623.670898 976.203369,632.051208 975.418091,640.071350 
	C966.320801,638.032288 957.769775,635.584229 949.047058,634.350769 
	C943.402588,633.552612 937.379944,633.831360 931.749451,634.853943 
	C918.704651,637.223145 911.094116,648.992859 913.789490,661.859131 
	C915.202515,668.603882 920.682678,672.003113 926.174683,674.656921 
	C935.706177,679.262512 945.571716,683.178284 955.305664,687.363586 
	C969.587402,693.504456 981.950623,702.249573 985.906189,717.960083 
	C990.731873,737.126648 989.362671,755.891174 974.097229,770.719543 
	C965.139893,779.420349 953.513123,783.302856 941.401184,785.440186 
	C920.947754,789.049438 901.150146,785.266296 881.268738,779.936096 
	C881.609375,776.938721 881.925720,774.155396 882.243103,770.927002 
z"/>
<path fill="#040404" opacity="1.000000" stroke="none" 
	d="
M1142.757080,716.106628 
	C1144.001831,741.207520 1136.170044,762.008118 1115.402222,776.142700 
	C1090.802979,792.884827 1045.203247,791.771301 1024.156860,761.052063 
	C1016.751160,750.242920 1012.738831,738.296814 1012.244629,725.189209 
	C1011.796021,713.289917 1012.617249,701.523926 1017.382141,690.450195 
	C1028.052002,665.653137 1047.835571,653.799133 1074.011719,652.375061 
	C1093.945801,651.290649 1111.848145,657.065308 1125.927002,671.979065 
	C1137.447998,684.183228 1142.076050,699.171204 1142.757080,716.106628 
M1052.772949,747.541260 
	C1065.672119,766.661255 1093.034424,766.540466 1103.279663,746.502075 
	C1111.600098,730.228210 1111.958862,712.653625 1105.156372,695.460205 
	C1100.682617,684.152527 1091.732910,678.512756 1079.725220,677.776672 
	C1066.623413,676.973511 1056.795166,682.333923 1050.940308,694.146057 
	C1042.128174,711.924744 1045.067627,729.499817 1052.772949,747.541260 
z"/>
<path fill="#050505" opacity="1.000000" stroke="none" 
	d="
M1392.768311,752.294739 
	C1384.784180,729.223694 1384.588867,706.587219 1394.352051,684.421814 
	C1405.391357,659.358948 1426.004028,650.642944 1451.908325,652.516174 
	C1465.040405,653.465820 1478.064697,656.363037 1486.760132,667.090759 
	C1492.055420,673.623718 1495.833740,681.683411 1498.996338,689.577026 
	C1503.567505,700.986816 1505.431519,719.040222 1504.380371,729.669312 
	C1475.699463,729.669312 1446.964966,729.669312 1418.279907,729.669312 
	C1416.911621,744.166504 1428.746460,758.964661 1443.965576,762.232239 
	C1457.181885,765.069763 1469.691528,762.354614 1481.810547,757.114929 
	C1486.185303,755.223572 1490.422729,753.015137 1495.377808,750.637146 
	C1495.377808,759.047180 1495.504272,767.131165 1495.234375,775.201843 
	C1495.196167,776.345032 1493.427124,777.822632 1492.123657,778.471191 
	C1477.583130,785.706604 1461.998779,788.009888 1446.082886,786.312683 
	C1437.130005,785.357971 1428.094727,783.163574 1419.635376,780.059204 
	C1406.646484,775.292480 1398.055298,765.469910 1392.768311,752.294739 
M1434.890137,678.020813 
	C1422.886719,683.870117 1418.991089,694.443298 1417.668091,706.841675 
	C1436.786743,706.841675 1455.439697,706.841675 1474.290894,706.841675 
	C1473.888916,703.793152 1473.665283,701.144409 1473.175659,698.545715 
	C1470.764160,685.743469 1463.491333,677.623169 1451.777954,676.237366 
	C1446.532471,675.616821 1441.027954,677.185913 1434.890137,678.020813 
z"/>
<path fill="#050505" opacity="1.000000" stroke="none" 
	d="
M1734.962402,733.202087 
	C1732.981079,714.920959 1734.446899,697.657654 1742.772461,681.326660 
	C1752.511841,662.222107 1768.481445,652.994751 1789.333862,652.450378 
	C1797.831543,652.228516 1806.616699,653.442078 1814.870361,655.562317 
	C1829.011963,659.195068 1838.239990,668.919678 1843.674194,682.370972 
	C1849.737427,697.379150 1851.790527,713.040894 1851.755859,729.584167 
	C1822.801636,729.584167 1794.077393,729.584167 1765.423828,729.584167 
	C1763.765747,741.438293 1772.892822,755.560852 1785.149902,760.330017 
	C1800.110718,766.151428 1814.528931,763.084717 1828.653442,757.163635 
	C1833.064575,755.314392 1837.308228,753.065674 1842.366333,750.647217 
	C1842.366333,759.108582 1842.494995,767.325378 1842.210571,775.527832 
	C1842.173340,776.605347 1840.181030,777.935120 1838.825073,778.597656 
	C1823.271240,786.198120 1806.761841,787.860168 1789.767456,786.167664 
	C1778.212646,785.016907 1767.202026,782.005859 1757.591064,775.265747 
	C1743.212891,765.182556 1737.247681,750.394775 1734.962402,733.202087 
M1821.068970,704.828308 
	C1820.228394,696.409241 1818.067993,688.368042 1811.976074,682.226685 
	C1804.565430,674.755554 1790.182617,673.580200 1779.846802,679.033447 
	C1770.966919,683.718506 1763.989258,697.136963 1765.384277,707.241089 
	C1783.275635,707.241089 1801.212158,707.257751 1819.148071,707.177856 
	C1819.836792,707.174805 1820.521484,706.242737 1821.068970,704.828308 
z"/>
<path fill="#040404" opacity="1.000000" stroke="none" 
	d="
M1643.472900,761.959412 
	C1652.983643,763.512634 1661.931763,764.255615 1670.820557,760.413940 
	C1676.714111,757.866760 1679.900757,753.799194 1680.179077,747.605408 
	C1680.449707,741.582336 1677.956299,736.793091 1672.135742,734.543091 
	C1665.819824,732.101562 1659.316772,730.149353 1652.934570,727.873413 
	C1648.265503,726.208313 1643.559692,724.588684 1639.042847,722.563477 
	C1614.822388,711.703430 1616.826782,675.037903 1634.599731,663.062378 
	C1648.791016,653.500244 1664.376465,651.221375 1680.754761,652.417114 
	C1689.624634,653.064697 1698.411011,654.858215 1707.657837,656.195984 
	C1706.904907,664.854736 1706.220825,672.723389 1705.540771,680.544922 
	C1699.003906,679.082764 1692.636353,676.998657 1686.130737,676.388794 
	C1679.607178,675.777222 1672.909912,676.305908 1666.362427,677.014465 
	C1663.772217,677.294861 1660.989136,678.969238 1658.969482,680.767578 
	C1652.064087,686.916504 1653.768188,696.792786 1662.387695,700.080505 
	C1670.420532,703.144348 1678.723511,705.492065 1686.852417,708.314026 
	C1713.738770,717.647827 1722.936890,748.199219 1705.236450,769.979614 
	C1697.491211,779.510254 1686.306030,783.321838 1674.793701,785.456421 
	C1657.145142,788.728699 1639.798584,785.866638 1622.212158,781.420227 
	C1622.875244,772.637390 1623.522217,764.069092 1624.164062,755.569214 
	C1630.604248,757.708923 1636.831055,759.777710 1643.472900,761.959412 
z"/>
<path fill="#050505" opacity="1.000000" stroke="none" 
	d="
M1946.819092,785.754639 
	C1937.146729,785.533997 1927.701904,786.455994 1918.723022,784.820251 
	C1903.545410,782.055298 1895.723389,771.296631 1893.309082,756.512207 
	C1892.537476,751.786316 1892.308838,746.929932 1892.284424,742.130920 
	C1892.178345,721.185913 1892.238892,700.239990 1892.238892,678.821716 
	C1884.181274,678.821716 1876.448730,678.821716 1868.484131,678.821716 
	C1868.484131,670.914124 1868.484131,663.474121 1868.484131,655.554626 
	C1876.069702,655.554626 1883.798218,655.554626 1891.959229,655.554626 
	C1891.959229,646.690369 1891.959229,638.281860 1891.959229,629.484436 
	C1902.529175,625.948303 1912.826782,622.503235 1923.604248,618.897644 
	C1923.604248,631.118652 1923.604248,642.845093 1923.604248,655.109192 
	C1933.494141,655.109192 1943.043945,655.109192 1952.860107,655.109192 
	C1952.860107,663.200562 1952.860107,670.751526 1952.860107,678.665161 
	C1943.220581,678.665161 1933.794800,678.665161 1924.069336,678.665161 
	C1923.950073,680.267639 1923.774414,681.536133 1923.773193,682.804749 
	C1923.755615,701.953613 1923.757446,721.102417 1923.769043,740.251282 
	C1923.769897,741.579041 1923.774170,742.922485 1923.962891,744.231934 
	C1926.314697,760.548706 1936.418579,765.412537 1954.385864,758.239258 
	C1954.385864,766.878906 1954.385864,775.240845 1954.385864,784.103516 
	C1952.374756,784.567078 1949.815430,785.157104 1946.819092,785.754639 
z"/>
<path fill="#0A77BE" opacity="1.000000" stroke="none" 
	d="
M352.904816,876.315430 
	C355.545807,876.315491 357.706726,876.315491 360.275208,876.315491 
	C360.275208,914.701721 360.275208,952.893066 360.275208,991.673584 
	C351.840942,991.673584 343.393616,991.844849 334.967621,991.497986 
	C333.628479,991.442932 331.949860,989.277161 331.162628,987.716736 
	C318.206360,962.035828 305.371063,936.293884 292.495392,910.572266 
	C291.709747,909.002808 290.813690,907.488525 288.947327,906.164917 
	C288.947327,934.462585 288.947327,962.760254 288.947327,991.368408 
	C281.560455,991.368408 274.809937,991.368408 267.685120,991.368408 
	C267.685120,953.218750 267.685120,915.027466 267.685120,876.329712 
	C276.252197,876.329712 284.708893,876.156799 293.143585,876.509583 
	C294.462280,876.564758 296.093628,878.805420 296.884155,880.384155 
	C309.771423,906.121033 322.542542,931.915955 335.356537,957.689575 
	C336.128082,959.241455 337.039825,960.723755 339.025391,961.926941 
	C339.025391,933.615967 339.025391,905.304993 339.025391,876.315369 
	C343.895966,876.315369 348.160339,876.315369 352.904816,876.315430 
z"/>
<path fill="#0977BE" opacity="1.000000" stroke="none" 
	d="
M479.682312,935.000122 
	C479.682220,953.980103 479.682220,972.460144 479.682220,991.310669 
	C472.048492,991.310669 464.680878,991.310669 456.845703,991.310669 
	C456.845703,974.516418 456.845703,957.927612 456.845703,941.015137 
	C441.334290,941.015137 426.284882,941.015137 410.800385,941.015137 
	C410.800385,957.804382 410.800385,974.396240 410.800385,991.332886 
	C403.295166,991.332886 396.209503,991.332886 388.718353,991.332886 
	C388.718353,953.276672 388.718353,915.081665 388.718353,876.601440 
	C395.843658,876.601440 402.925995,876.601440 410.623108,876.601440 
	C410.623108,892.027649 410.623108,907.410278 410.623108,922.984985 
	C426.284698,922.984985 441.334106,922.984985 456.845917,922.984985 
	C456.845917,907.405457 456.845917,892.150146 456.845917,876.609863 
	C464.555298,876.609863 471.805359,876.609863 479.682404,876.609863 
	C479.682404,895.967712 479.682404,915.233887 479.682312,935.000122 
z"/>
<path fill="#0575BD" opacity="1.000000" stroke="none" 
	d="
M1068.485962,993.580322 
	C1056.825073,994.026733 1046.414185,992.034790 1038.902466,982.723022 
	C1033.432251,975.941956 1030.713379,967.846558 1029.704224,959.350464 
	C1028.239990,947.023010 1029.350830,935.064453 1034.232910,923.281555 
	C1042.864990,902.447998 1072.050415,900.724487 1085.579834,912.897583 
	C1086.604370,913.819458 1087.711060,914.650146 1089.719849,916.291687 
	C1089.719849,899.348145 1089.719849,883.639771 1089.719849,867.635986 
	C1097.031372,867.635986 1103.796387,867.635986 1110.959106,867.635986 
	C1110.959106,908.770081 1110.959106,949.940186 1110.959106,991.389893 
	C1104.260254,991.389893 1097.673096,991.389893 1090.597656,991.389893 
	C1090.437744,988.717773 1090.275146,986.000061 1090.041626,982.099121 
	C1083.838379,988.642883 1076.971680,992.293945 1068.485962,993.580322 
M1086.643799,965.829712 
	C1090.968262,953.881958 1091.127686,942.052979 1084.994141,930.676514 
	C1081.557251,924.301758 1076.077637,921.069153 1068.558594,921.632446 
	C1061.829590,922.136658 1057.392700,925.669739 1054.976685,931.707153 
	C1050.617188,942.601440 1050.094604,953.727417 1054.282104,964.764099 
	C1056.734253,971.226990 1060.720093,976.511780 1068.343506,977.311035 
	C1076.969360,978.215454 1082.480347,973.718018 1086.643799,965.829712 
z"/>
<path fill="#050505" opacity="1.000000" stroke="none" 
	d="
M1599.142334,683.535095 
	C1582.189697,681.544128 1574.028198,689.663879 1570.292114,704.226562 
	C1568.171509,712.492249 1567.512451,721.272034 1567.270630,729.850586 
	C1566.815552,745.994202 1567.139282,762.159851 1567.139282,778.316345 
	C1567.139282,779.951172 1567.139282,781.586060 1567.139282,783.489014 
	C1556.488770,783.489014 1546.224731,783.489014 1535.599365,783.489014 
	C1535.599365,741.032043 1535.599365,698.487427 1535.599365,655.591248 
	C1544.659302,655.591248 1553.887085,655.591248 1563.732422,655.591248 
	C1563.732422,664.629517 1563.732422,673.779785 1563.732422,684.258179 
	C1575.982300,657.306946 1588.827515,648.576782 1608.126465,653.405457 
	C1608.126465,663.756470 1608.126465,674.180664 1608.126465,684.946228 
	C1605.270508,684.501709 1602.416992,684.057556 1599.142334,683.535095 
z"/>
<path fill="#0675BE" opacity="1.000000" stroke="none" 
	d="
M563.656006,986.623901 
	C549.726013,994.539124 535.176819,994.984924 520.252808,992.260010 
	C515.716675,991.431702 511.227539,990.345398 506.279022,989.283203 
	C507.005768,982.764160 507.698364,976.551758 508.373566,970.494995 
	C514.763916,972.345337 520.823792,974.482056 527.056702,975.801819 
	C533.859009,977.242126 540.633179,976.589783 546.918335,973.159668 
	C551.468872,970.676147 554.164246,967.175171 554.399292,961.704407 
	C554.651306,955.834778 552.259460,951.612549 547.245483,949.071777 
	C541.174805,945.995667 534.829651,943.466309 528.695923,940.508179 
	C521.048218,936.819946 513.227600,933.245789 508.766724,925.376160 
	C497.886139,906.181335 507.347229,882.874939 528.518616,876.603271 
	C541.719971,872.692566 554.843506,874.069824 567.854431,877.470642 
	C569.086487,877.792664 570.638306,880.085022 570.615234,881.438293 
	C570.534119,886.190247 569.829529,890.931641 569.421997,895.064697 
	C561.033203,893.895996 553.072754,892.117676 545.078857,891.951538 
	C540.990906,891.866516 536.095764,893.745972 532.873291,896.353638 
	C525.557190,902.273987 526.415344,913.048401 534.479980,917.811462 
	C540.588623,921.419189 547.350464,923.959412 553.922913,926.734680 
	C564.725586,931.296082 573.929565,937.347839 577.084412,949.620605 
	C580.852844,964.280396 575.494568,979.397888 563.656006,986.623901 
z"/>
<path fill="#0675BE" opacity="1.000000" stroke="none" 
	d="
M1368.377686,992.630493 
	C1349.782471,988.381531 1338.830200,976.854492 1335.915649,958.708374 
	C1332.530151,937.629578 1339.146362,917.738586 1361.382812,908.430298 
	C1380.217407,900.546021 1404.596680,907.168274 1415.294189,923.453735 
	C1427.790405,942.477661 1425.619385,975.137512 1401.669800,988.154602 
	C1391.405762,993.733337 1380.275269,994.945618 1368.377686,992.630493 
M1370.993042,976.033325 
	C1383.474243,979.446838 1392.742554,976.297974 1396.968872,965.962280 
	C1401.575684,954.695801 1402.230103,942.967468 1396.468750,931.713684 
	C1389.918945,918.920105 1371.026978,917.960327 1362.766724,929.717590 
	C1358.188843,936.233582 1357.057739,943.474854 1357.726074,951.068665 
	C1358.590332,960.888489 1360.696167,970.236145 1370.993042,976.033325 
z"/>
<path fill="#0675BE" opacity="1.000000" stroke="none" 
	d="
M762.540833,993.433228 
	C740.503357,989.865906 728.709656,979.686157 725.010010,958.913513 
	C721.283936,937.992065 728.087891,917.853638 750.168762,908.522583 
	C769.120789,900.513672 793.794617,907.129822 804.439697,923.661499 
	C816.849976,942.934570 814.492432,975.234009 790.478760,988.304871 
	C781.974304,992.933838 772.623535,994.281799 762.540833,993.433228 
M759.275513,975.681091 
	C771.727234,979.772278 781.622559,976.452637 786.080322,965.789124 
	C790.302429,955.689392 790.730774,945.075134 786.945740,934.641663 
	C780.675415,917.357117 759.875000,919.596680 752.695496,928.171997 
	C742.743164,940.059265 745.468933,968.658264 759.275513,975.681091 
z"/>
<path fill="#0776BE" opacity="1.000000" stroke="none" 
	d="
M1732.325684,951.993286 
	C1732.325806,937.016663 1732.325806,922.538818 1732.325806,907.693970 
	C1739.333252,907.693970 1746.081543,907.693970 1753.674438,907.693970 
	C1753.674438,909.246155 1753.645996,910.984924 1753.678955,912.722595 
	C1753.991455,929.191406 1754.126099,945.666687 1754.711426,962.125916 
	C1755.013916,970.632629 1758.779907,975.635559 1764.763550,977.062256 
	C1771.973999,978.781494 1779.170898,975.396973 1783.367188,968.527039 
	C1787.568970,961.648010 1787.757812,953.978882 1787.843750,946.335876 
	C1787.987671,933.534912 1787.883057,920.731201 1787.883057,907.629028 
	C1795.037354,907.629028 1801.805420,907.629028 1808.968750,907.629028 
	C1808.968750,935.458923 1808.968750,963.320190 1808.968750,991.428772 
	C1802.538330,991.428772 1796.276489,991.428772 1789.419678,991.428772 
	C1789.419678,987.989258 1789.419678,984.602417 1789.419678,980.055359 
	C1787.572510,981.585693 1786.586060,982.287109 1785.734863,983.125916 
	C1776.011475,992.707642 1764.478638,995.705994 1751.344238,992.361877 
	C1743.230347,990.296143 1737.686523,984.622498 1735.628540,977.000549 
	C1733.497925,969.109009 1733.344116,960.683777 1732.325684,951.993286 
z"/>
<path fill="#0776BE" opacity="1.000000" stroke="none" 
	d="
M859.967529,975.387939 
	C871.651123,980.389587 882.531311,974.420776 885.238586,961.472351 
	C886.384460,955.991577 886.696838,950.275208 886.815918,944.653809 
	C887.069519,932.674988 886.946350,920.688293 886.999390,908.704895 
	C887.000671,908.415466 887.258423,908.127136 887.518188,907.583984 
	C894.164307,907.583984 900.926636,907.583984 908.025574,907.583984 
	C908.025574,935.532898 908.025574,963.392578 908.025574,991.463623 
	C901.484131,991.463623 895.221863,991.463623 888.362488,991.463623 
	C888.362488,987.940552 888.362488,984.567871 888.362488,980.067505 
	C886.533264,981.605896 885.550964,982.326843 884.690430,983.171753 
	C874.957764,992.727295 863.431763,995.694519 850.305847,992.356018 
	C842.385010,990.341309 837.509705,984.690430 834.656494,977.470459 
	C832.970825,973.204834 831.604736,968.501709 831.520630,963.968872 
	C831.175049,945.343689 831.376099,926.708435 831.376099,907.701599 
	C838.439575,907.701599 845.302368,907.701599 852.674622,907.701599 
	C852.674622,914.438599 852.562927,921.054993 852.699158,927.666260 
	C852.938843,939.297363 853.251709,950.928406 853.694519,962.553345 
	C853.883423,967.513916 855.356567,972.038635 859.967529,975.387939 
z"/>
<path fill="#0675BE" opacity="1.000000" stroke="none" 
	d="
M1492.762207,905.328125 
	C1509.627930,907.178345 1518.587524,916.566589 1519.181152,934.342529 
	C1519.797729,952.806030 1519.325928,971.305908 1519.306885,989.789917 
	C1519.306519,990.252930 1519.035767,990.715759 1518.817261,991.415161 
	C1512.068481,991.415161 1505.320801,991.415161 1497.884277,991.415161 
	C1497.884277,989.358459 1497.892578,987.433228 1497.883057,985.508179 
	C1497.805664,969.857788 1497.732056,954.207336 1497.631836,938.557068 
	C1497.623413,937.230896 1497.488281,935.898193 1497.313843,934.581543 
	C1496.425171,927.870728 1492.820435,923.094360 1487.744873,921.844482 
	C1481.195190,920.231689 1474.311768,922.645691 1470.366211,927.862549 
	C1465.393311,934.437866 1464.186523,942.084167 1464.138672,950.004272 
	C1464.056274,963.646301 1464.115845,977.289185 1464.115845,991.301392 
	C1456.925171,991.301392 1450.017578,991.301392 1442.715576,991.301392 
	C1442.715576,963.591064 1442.715576,935.740417 1442.715576,907.607422 
	C1449.185547,907.607422 1455.597046,907.607422 1462.623535,907.607422 
	C1462.623535,911.028198 1462.623535,914.395264 1462.623535,919.477844 
	C1471.281860,909.754700 1480.582153,904.695801 1492.762207,905.328125 
z"/>
<path fill="#0675BE" opacity="1.000000" stroke="none" 
	d="
M960.547546,927.632935 
	C955.344666,934.502197 954.182190,942.169861 954.137207,950.091736 
	C954.059814,963.736267 954.115784,977.381592 954.115784,991.348511 
	C946.872131,991.348511 939.952087,991.348511 932.677002,991.348511 
	C932.677002,963.625854 932.677002,935.885620 932.677002,907.735535 
	C939.043091,907.735535 945.576721,907.735535 952.448303,907.735535 
	C952.603943,911.111633 952.759277,914.481445 952.914612,917.851196 
	C953.422607,918.208679 953.930603,918.566162 954.438599,918.923706 
	C955.939270,917.018066 957.222046,914.878479 958.976379,913.245239 
	C969.588806,903.365173 988.953613,902.473999 999.494324,911.373352 
	C1005.880676,916.765076 1008.711975,924.248291 1008.903687,932.134399 
	C1009.380249,951.743591 1009.060425,971.372070 1009.060425,991.332520 
	C1002.066650,991.332520 995.196228,991.332520 987.884338,991.332520 
	C987.884338,979.808289 987.921936,968.512695 987.870239,957.217590 
	C987.838989,950.391296 987.930542,943.548462 987.484070,936.744751 
	C987.081299,930.605835 985.617981,924.443176 978.802124,922.370483 
	C972.011780,920.305542 965.625427,921.490295 960.547546,927.632935 
z"/>
<path fill="#0876BE" opacity="1.000000" stroke="none" 
	d="
M1183.699585,982.256836 
	C1176.144165,991.414185 1166.599487,995.070190 1155.482422,993.273132 
	C1145.262817,991.621155 1136.065186,987.344360 1132.474976,976.596069 
	C1127.938110,963.013855 1134.003174,947.134094 1147.844482,943.298889 
	C1155.286987,941.236633 1163.093262,940.337219 1170.795898,939.420898 
	C1175.365723,938.877136 1180.053223,939.321350 1184.588135,939.321350 
	C1186.769409,928.524902 1180.917358,921.289978 1169.963257,920.680481 
	C1160.554810,920.157043 1151.803711,922.173523 1143.862549,927.371826 
	C1143.064819,927.894043 1142.224243,928.350891 1141.155884,928.985107 
	C1140.968750,927.675537 1140.767578,926.704102 1140.699097,925.723389 
	C1139.633057,910.465027 1139.611816,910.351379 1154.632568,907.006348 
	C1164.301758,904.853088 1174.066528,904.222961 1183.758423,907.046631 
	C1196.151123,910.657043 1203.747559,919.246948 1204.557373,932.119141 
	C1205.423828,945.892639 1205.385376,959.724731 1205.659302,973.532898 
	C1205.774658,979.343933 1205.678589,985.159058 1205.678589,991.670776 
	C1200.913208,991.670776 1195.473389,991.829956 1190.059937,991.522888 
	C1189.094360,991.468140 1187.799072,989.608215 1187.435181,988.355530 
	C1186.891479,986.483276 1187.164795,984.390869 1186.862305,982.427307 
	C1186.423584,979.578369 1185.151733,980.783325 1183.699585,982.256836 
M1178.497192,951.672974 
	C1172.437988,952.391663 1166.182495,952.403259 1160.371704,954.016663 
	C1153.821411,955.835449 1150.397583,963.291870 1151.731079,970.130188 
	C1152.629517,974.737549 1158.169922,978.268005 1164.594727,978.326965 
	C1178.241089,978.452271 1186.900513,967.268372 1184.814087,951.672791 
	C1183.083008,951.672791 1181.285156,951.672791 1178.497192,951.672974 
z"/>
<path fill="#0B78BF" opacity="1.000000" stroke="none" 
	d="
M647.310669,930.999878 
	C647.310730,912.684509 647.310730,894.869141 647.310730,876.682861 
	C668.304932,876.682861 689.030823,876.682861 710.067383,876.682861 
	C710.067383,882.083252 710.067383,887.509827 710.067383,893.500183 
	C696.843140,893.500183 683.621887,893.500183 670.049561,893.500183 
	C670.049561,903.600464 670.049561,913.147217 670.049561,923.135132 
	C682.748718,923.135132 695.343994,923.135132 708.311584,923.135132 
	C708.311584,929.100586 708.311584,934.637390 708.311584,940.616211 
	C695.598511,940.616211 683.003235,940.616211 669.802124,940.616211 
	C669.802124,957.753113 669.802124,974.468384 669.802124,991.431091 
	C662.106567,991.431091 655.022461,991.431091 647.310547,991.431091 
	C647.310547,971.369202 647.310547,951.434570 647.310669,930.999878 
z"/>
<path fill="#0B78BF" opacity="1.000000" stroke="none" 
	d="
M1613.310791,968.999878 
	C1613.310913,943.846558 1613.310913,919.193237 1613.310913,893.926025 
	C1602.378052,893.926025 1591.659180,893.926025 1580.630371,893.926025 
	C1580.630371,887.900757 1580.630371,882.482910 1580.630371,876.684570 
	C1609.634644,876.684570 1638.693237,876.684570 1668.064697,876.684570 
	C1668.064697,882.075745 1668.064697,887.502380 1668.064697,893.493896 
	C1657.518677,893.493896 1646.960693,893.493896 1635.803711,893.493896 
	C1635.803711,926.421997 1635.803711,958.798401 1635.803711,991.429138 
	C1628.110718,991.429138 1621.026489,991.429138 1613.310669,991.429138 
	C1613.310669,984.043457 1613.310669,976.771667 1613.310791,968.999878 
z"/>
<path fill="#0776BE" opacity="1.000000" stroke="none" 
	d="
M1879.933105,985.979492 
	C1863.378052,996.729004 1846.166748,994.343445 1828.341675,990.176270 
	C1828.789917,984.487061 1829.212158,979.128662 1829.569580,974.591492 
	C1837.453247,975.868408 1845.020996,977.142944 1852.609741,978.275269 
	C1853.872925,978.463745 1855.270874,978.193604 1856.534546,977.861450 
	C1863.522583,976.024475 1866.568848,973.040833 1866.752441,968.009583 
	C1866.944214,962.754578 1864.482056,960.014771 1857.364990,957.470764 
	C1850.976685,955.187195 1844.306274,953.454285 1838.283325,950.435425 
	C1825.245728,943.900513 1823.803223,922.403076 1835.378174,913.427917 
	C1845.568970,905.525879 1857.319214,904.572510 1869.495361,905.563354 
	C1872.950684,905.844543 1876.345581,907.050903 1879.793945,907.188416 
	C1884.080566,907.359253 1885.213745,909.412048 1884.667969,913.229431 
	C1884.180420,916.638123 1883.822266,920.065430 1883.489746,922.802979 
	C1876.098145,922.070618 1869.081665,921.138672 1862.036987,920.804810 
	C1859.539551,920.686401 1856.355713,921.325317 1854.597656,922.878113 
	C1852.491577,924.738342 1850.811279,927.815918 1850.336426,930.603088 
	C1849.730591,934.159119 1852.590332,936.203064 1855.834961,937.304138 
	C1861.643677,939.275391 1867.491089,941.139282 1873.256348,943.229797 
	C1881.091309,946.070923 1886.996704,951.184631 1888.470825,959.599121 
	C1890.208496,969.517700 1888.754028,978.863586 1879.933105,985.979492 
z"/>
<path fill="#0A78BF" opacity="1.000000" stroke="none" 
	d="
M1236.312378,946.000000 
	C1236.312500,938.179077 1236.312500,930.858215 1236.312500,922.924927 
	C1231.054443,922.924927 1225.995728,922.924927 1220.631958,922.924927 
	C1220.631958,917.568115 1220.631958,912.817078 1220.631958,907.447266 
	C1225.610474,907.447266 1230.663452,907.447266 1236.312866,907.447266 
	C1236.312866,902.243774 1236.150879,897.624207 1236.418213,893.029541 
	C1236.491943,891.762390 1237.584351,889.851929 1238.655640,889.461731 
	C1244.692139,887.263245 1250.864746,885.438232 1257.483398,883.329041 
	C1257.483398,891.281311 1257.483398,898.862732 1257.483398,907.051270 
	C1264.258179,907.051270 1270.646484,907.051270 1277.355469,907.051270 
	C1277.355469,912.406372 1277.355469,917.157166 1277.355469,922.528259 
	C1271.084351,922.528259 1264.696045,922.528259 1257.687744,922.528259 
	C1257.687744,932.730713 1257.657837,942.333313 1257.700317,951.935669 
	C1257.721680,956.759399 1257.361328,961.660156 1258.075439,966.389893 
	C1259.554810,976.188110 1264.653687,979.168701 1274.467896,976.674683 
	C1275.572754,976.393860 1276.681763,976.129211 1278.681152,975.637695 
	C1278.681152,980.459229 1278.877441,984.898499 1278.549194,989.298645 
	C1278.462524,990.460632 1276.770142,992.437927 1275.794434,992.450562 
	C1268.062622,992.551147 1260.107544,993.347595 1252.642700,991.841125 
	C1242.182373,989.730164 1236.496216,980.558289 1236.331177,968.491577 
	C1236.231079,961.162292 1236.312378,953.830627 1236.312378,946.000000 
z"/>
<path fill="#0A78BF" opacity="1.000000" stroke="none" 
	d="
M1917.244873,889.434814 
	C1923.759521,887.386169 1929.879272,885.435486 1936.484375,883.330017 
	C1936.484375,891.281677 1936.484375,898.859009 1936.484375,907.037659 
	C1943.242432,907.037659 1949.629883,907.037659 1956.345581,907.037659 
	C1956.345581,912.383606 1956.345581,917.132141 1956.345581,922.492920 
	C1950.124023,922.492920 1943.736328,922.492920 1936.687744,922.492920 
	C1936.687744,928.843811 1936.687744,934.604553 1936.687744,940.365295 
	C1936.687744,946.857056 1936.687378,953.348816 1936.687866,959.840576 
	C1936.688965,975.736389 1941.221558,979.397400 1957.675903,975.790039 
	C1957.675903,980.544678 1957.875732,985.124451 1957.528320,989.662354 
	C1957.446533,990.729675 1955.542114,992.480164 1954.434937,992.512878 
	C1947.187256,992.726624 1939.754639,993.533203 1932.713013,992.283630 
	C1921.678589,990.325439 1915.416382,980.869263 1915.331909,968.180176 
	C1915.244263,955.030762 1915.312256,941.880310 1915.312256,928.730347 
	C1915.312256,926.934387 1915.312256,925.138367 1915.312256,922.914551 
	C1909.973267,922.914551 1905.047119,922.914551 1899.717896,922.914551 
	C1899.717896,917.631226 1899.717896,912.762817 1899.717896,907.456726 
	C1904.660034,907.456726 1909.589722,907.456726 1915.312256,907.456726 
	C1915.312256,902.797119 1915.174194,898.544067 1915.382568,894.307983 
	C1915.462036,892.696045 1916.337158,891.123291 1917.244873,889.434814 
z"/>
<path fill="#0877BE" opacity="1.000000" stroke="none" 
	d="
M1667.319824,926.000732 
	C1667.319946,919.688965 1667.319946,913.877014 1667.319946,907.694214 
	C1673.772705,907.694214 1679.969238,907.694214 1686.793701,907.694214 
	C1686.793701,913.129761 1686.793701,918.463562 1686.793701,924.777161 
	C1697.357666,907.425842 1705.135010,902.775269 1716.808960,906.313110 
	C1716.905762,907.062317 1717.097900,907.874207 1717.101685,908.687012 
	C1717.128418,914.326843 1717.115845,919.966919 1717.115845,925.885376 
	C1713.450317,925.703308 1710.071533,925.461914 1706.688843,925.383667 
	C1700.546753,925.241638 1696.364502,928.253052 1693.501099,933.553650 
	C1689.028320,941.833374 1689.344604,950.892517 1689.168457,959.828857 
	C1688.962646,970.267700 1689.120483,980.713623 1689.120483,991.414429 
	C1681.709717,991.414429 1674.802490,991.414429 1667.319702,991.414429 
	C1667.319702,969.663635 1667.319702,948.082092 1667.319824,926.000732 
z"/>
<path fill="#0776BE" opacity="1.000000" stroke="none" 
	d="
M1304.981323,991.677368 
	C1301.013672,991.677307 1297.532471,991.677307 1293.688110,991.677307 
	C1293.688110,963.544373 1293.688110,935.690918 1293.688110,907.579224 
	C1300.728149,907.579224 1307.634888,907.579224 1314.830566,907.579224 
	C1314.830566,935.541809 1314.830566,963.282104 1314.830566,991.677490 
	C1311.689575,991.677490 1308.578735,991.677490 1304.981323,991.677368 
z"/>
<path fill="#0B78BF" opacity="1.000000" stroke="none" 
	d="
M1294.596436,870.418579 
	C1301.509155,870.338074 1307.979004,870.338074 1314.784424,870.338074 
	C1314.784424,877.121094 1314.784424,883.532227 1314.784424,890.319336 
	C1307.923218,890.319336 1301.009399,890.319336 1293.020996,890.319336 
	C1293.394409,883.786682 1293.774048,877.142944 1294.596436,870.418579 
z"/>
<path fill="#FEFEFF" opacity="1.000000" stroke="none" 
	d="
M1358.935547,199.915955 
	C1360.075317,194.131393 1361.154541,188.768555 1362.284058,183.156006 
	C1386.178223,183.156006 1409.928467,183.156006 1434.173950,183.156006 
	C1413.975708,277.986694 1393.830200,372.569702 1373.546143,467.802856 
	C1371.754028,467.802856 1369.975952,467.802887 1368.197876,467.802887 
	C1340.038330,467.802887 1311.877686,467.691040 1283.720093,467.923859 
	C1279.513062,467.958618 1278.100342,466.510559 1276.965454,462.750397 
	C1258.147339,400.397858 1239.181763,338.089752 1220.246460,275.772552 
	C1219.721558,274.045258 1219.165527,272.327484 1217.496338,270.505829 
	C1204.245361,336.035675 1190.994385,401.565521 1177.674316,467.436554 
	C1153.889648,467.436554 1130.154053,467.436554 1105.793823,467.436554 
	C1126.151123,372.608093 1146.478882,277.917358 1166.884155,182.865829 
	C1168.803101,182.865829 1170.440430,182.865829 1172.077637,182.865829 
	C1200.403809,182.865829 1228.730835,182.966919 1257.055420,182.753311 
	C1261.152710,182.722412 1262.745239,183.973389 1263.878296,187.814392 
	C1282.446899,250.763016 1301.164917,313.667572 1319.856812,376.579803 
	C1320.224243,377.816559 1320.681885,379.026550 1322.064331,380.292725 
	C1323.698608,372.441315 1325.365723,364.596527 1326.962036,356.737396 
	C1337.420654,305.244812 1347.863770,253.749008 1358.319580,202.255829 
	C1358.451660,201.605667 1358.687500,200.976593 1358.935547,199.915955 
z"/>
<path fill="#FEFEFF" opacity="1.000000" stroke="none" 
	d="
M1442.778442,279.751495 
	C1449.534912,247.284241 1456.193604,215.230637 1462.876221,183.061890 
	C1488.347412,183.061890 1513.460693,183.061890 1539.263306,183.061890 
	C1531.800903,219.225906 1524.397217,255.105591 1516.898193,291.446625 
	C1547.220215,291.446625 1577.241943,291.446625 1607.984985,291.446625 
	C1615.394897,255.735870 1622.877563,219.674576 1630.436035,183.247681 
	C1655.670898,183.247681 1680.910645,183.247681 1706.738770,183.247681 
	C1704.329102,194.914520 1701.946777,206.546768 1699.522583,218.170334 
	C1684.349121,290.924286 1669.170410,363.677124 1653.981445,436.427826 
	C1652.044922,445.703247 1650.151855,454.991180 1647.947144,464.203522 
	C1647.613281,465.598450 1645.689697,467.638397 1644.487183,467.648407 
	C1620.171997,467.850830 1595.855103,467.800049 1571.023438,467.800049 
	C1579.510132,427.010498 1587.924194,386.570343 1596.425537,345.710175 
	C1565.711914,345.710175 1535.639282,345.710175 1505.284058,345.710175 
	C1496.820312,386.270874 1488.368530,426.773651 1479.866455,467.517944 
	C1454.631714,467.517944 1429.547729,467.517944 1403.484741,467.517944 
	C1416.582153,404.913727 1429.631348,342.539429 1442.778442,279.751495 
z"/>
<path fill="#FEFEFF" opacity="1.000000" stroke="none" 
	d="
M1780.072388,186.000443 
	C1799.244263,180.156372 1818.533447,178.001801 1838.091675,177.944092 
	C1862.603149,177.871765 1887.019897,179.021729 1910.943115,184.972214 
	C1916.380127,186.324570 1921.664429,188.291077 1927.518188,190.131866 
	C1921.280518,209.290115 1915.235229,227.857391 1909.524414,245.397156 
	C1895.796509,242.004135 1882.668335,237.813705 1869.214233,235.663849 
	C1850.740234,232.711899 1832.036133,232.822327 1813.637817,237.063217 
	C1809.496094,238.017883 1805.327881,239.648712 1801.682373,241.823853 
	C1787.955444,250.013916 1786.503174,268.157776 1799.227295,277.885071 
	C1805.606323,282.761566 1813.127197,286.316101 1820.483765,289.703949 
	C1832.997070,295.466736 1846.048340,300.096741 1858.402344,306.162506 
	C1876.701416,315.147186 1891.593994,327.914612 1898.068970,348.144653 
	C1907.974243,379.092499 1902.306030,428.502625 1856.039673,453.091187 
	C1836.624023,463.409790 1815.723022,468.392487 1794.113403,470.920258 
	C1754.477661,475.556641 1715.829346,470.269409 1677.795288,459.073517 
	C1676.553345,458.707947 1675.342651,458.235931 1673.771118,457.694183 
	C1679.713135,438.625275 1685.572388,419.822021 1691.587524,400.518311 
	C1703.942627,407.425110 1716.977783,411.203979 1730.425903,413.508362 
	C1753.936768,417.537109 1777.451416,418.769226 1800.495972,410.970612 
	C1812.910889,406.769165 1822.112427,399.308136 1823.362915,384.982727 
	C1824.187988,375.531830 1821.016968,367.363617 1813.269287,362.466614 
	C1803.794434,356.477875 1793.463745,351.783417 1783.296021,346.966278 
	C1770.846924,341.068268 1757.729126,336.446075 1745.706787,329.810974 
	C1720.488525,315.892944 1710.172729,293.823639 1712.473511,265.250793 
	C1715.906982,222.612122 1740.842651,198.517059 1780.072388,186.000443 
z"/>
<path fill="#FEFEFE" opacity="1.000000" stroke="none" 
	d="
M1052.593262,747.216675 
	C1045.067627,729.499817 1042.128174,711.924744 1050.940308,694.146057 
	C1056.795166,682.333923 1066.623413,676.973511 1079.725220,677.776672 
	C1091.732910,678.512756 1100.682617,684.152527 1105.156372,695.460205 
	C1111.958862,712.653625 1111.600098,730.228210 1103.279663,746.502075 
	C1093.034424,766.540466 1065.672119,766.661255 1052.593262,747.216675 
z"/>
<path fill="#FDFDFD" opacity="1.000000" stroke="none" 
	d="
M1435.265625,677.891113 
	C1441.027954,677.185913 1446.532471,675.616821 1451.777954,676.237366 
	C1463.491333,677.623169 1470.764160,685.743469 1473.175659,698.545715 
	C1473.665283,701.144409 1473.888916,703.793152 1474.290894,706.841675 
	C1455.439697,706.841675 1436.786743,706.841675 1417.668091,706.841675 
	C1418.991089,694.443298 1422.886719,683.870117 1435.265625,677.891113 
z"/>
<path fill="#FDFDFD" opacity="1.000000" stroke="none" 
	d="
M1821.138550,705.285950 
	C1820.521484,706.242737 1819.836792,707.174805 1819.148071,707.177856 
	C1801.212158,707.257751 1783.275635,707.241089 1765.384277,707.241089 
	C1763.989258,697.136963 1770.966919,683.718506 1779.846802,679.033447 
	C1790.182617,673.580200 1804.565430,674.755554 1811.976074,682.226685 
	C1818.067993,688.368042 1820.228394,696.409241 1821.138550,705.285950 
z"/>
<path fill="#FDFEFE" opacity="1.000000" stroke="none" 
	d="
M1086.482666,966.182129 
	C1082.480347,973.718018 1076.969360,978.215454 1068.343506,977.311035 
	C1060.720093,976.511780 1056.734253,971.226990 1054.282104,964.764099 
	C1050.094604,953.727417 1050.617188,942.601440 1054.976685,931.707153 
	C1057.392700,925.669739 1061.829590,922.136658 1068.558594,921.632446 
	C1076.077637,921.069153 1081.557251,924.301758 1084.994141,930.676514 
	C1091.127686,942.052979 1090.968262,953.881958 1086.482666,966.182129 
z"/>
<path fill="#FDFEFE" opacity="1.000000" stroke="none" 
	d="
M1370.636230,975.858032 
	C1360.696167,970.236145 1358.590332,960.888489 1357.726074,951.068665 
	C1357.057739,943.474854 1358.188843,936.233582 1362.766724,929.717590 
	C1371.026978,917.960327 1389.918945,918.920105 1396.468750,931.713684 
	C1402.230103,942.967468 1401.575684,954.695801 1396.968872,965.962280 
	C1392.742554,976.297974 1383.474243,979.446838 1370.636230,975.858032 
z"/>
<path fill="#FDFEFE" opacity="1.000000" stroke="none" 
	d="
M758.922058,975.513855 
	C745.468933,968.658264 742.743164,940.059265 752.695496,928.171997 
	C759.875000,919.596680 780.675415,917.357117 786.945740,934.641663 
	C790.730774,945.075134 790.302429,955.689392 786.080322,965.789124 
	C781.622559,976.452637 771.727234,979.772278 758.922058,975.513855 
z"/>
<path fill="#FDFEFE" opacity="1.000000" stroke="none" 
	d="
M1178.992188,951.672852 
	C1181.285156,951.672791 1183.083008,951.672791 1184.814087,951.672791 
	C1186.900513,967.268372 1178.241089,978.452271 1164.594727,978.326965 
	C1158.169922,978.268005 1152.629517,974.737549 1151.731079,970.130188 
	C1150.397583,963.291870 1153.821411,955.835449 1160.371704,954.016663 
	C1166.182495,952.403259 1172.437988,952.391663 1178.992188,951.672852 
z"/>
</svg>