<svg version="1.1" id="Layer_1" xmlns="http://www.w3.org/2000/svg" xmlns:xlink="http://www.w3.org/1999/xlink" x="0px" y="0px"
	 width="100%" viewBox="0 0 2065 1233" enable-background="new 0 0 2065 1233" xml:space="preserve">
<path fill="#FFFFFF" opacity="1.000000" stroke="none" 
	d="
M1548.000000,1234.000000 
	C1032.000122,1234.000000 516.500305,1234.000000 1.000346,1234.000000 
	C1.000231,823.000305 1.000231,412.000549 1.000115,1.000414 
	C1.333057,1.000000 1.666114,1.000000 1.999171,1.000000 
	C689.998962,1.000000 1377.998779,1.000000 2065.999023,1.000000 
	C2065.999268,411.999390 2065.999268,822.998779 2065.999512,1233.999023 
	C1893.500000,1234.000000 1721.000000,1234.000000 1548.000000,1234.000000 
M470.499939,552.658569 
	C658.763611,552.658569 847.027222,552.658569 1035.388184,552.658569 
	C1035.388184,434.425995 1035.388184,316.832428 1035.388184,198.979919 
	C742.373535,198.979919 449.629120,198.979919 156.700821,198.979919 
	C156.700821,316.947083 156.700821,434.658722 156.700821,552.658386 
	C261.206604,552.658386 365.353271,552.658386 470.499939,552.658569 
M541.238464,820.486694 
	C541.238464,824.773743 541.238464,829.060791 541.238464,833.490845 
	C551.943848,833.490845 562.172180,833.490845 572.761536,833.490845 
	C572.761536,831.591003 572.761597,829.958008 572.761597,828.325012 
	C572.761597,807.996338 572.599121,787.665527 572.860413,767.340210 
	C572.938904,761.235718 573.632385,755.013855 575.023560,749.075256 
	C579.002930,732.088196 591.356262,724.348511 606.600464,728.645996 
	C612.270447,730.244385 615.927429,733.901550 617.080994,739.484741 
	C618.217102,744.984070 619.093140,750.644043 619.144531,756.242065 
	C619.364685,780.234558 619.238403,804.230286 619.238403,828.224792 
	C619.238403,829.987244 619.238464,831.749756 619.238464,833.405884 
	C630.118103,833.405884 640.348572,833.405884 650.751709,833.405884 
	C650.751709,804.734680 650.849243,776.418091 650.661926,748.103455 
	C650.628113,742.996948 649.812866,737.809448 648.677124,732.814270 
	C646.277710,722.261536 642.585205,712.412231 632.040955,706.956665 
	C613.981689,697.612793 589.141724,702.079590 575.758545,717.269958 
	C573.847595,719.438965 572.257324,721.890503 570.177307,724.666870 
	C562.369751,709.181946 549.863159,702.135864 533.231201,702.256714 
	C516.888123,702.375488 504.242279,709.853271 494.593048,723.112061 
	C494.287689,722.835999 493.982300,722.559937 493.676941,722.283875 
	C493.676941,716.706299 493.676941,711.128723 493.676941,705.555420 
	C483.294403,705.555420 473.398468,705.555420 463.580475,705.555420 
	C463.580475,748.429993 463.580475,790.986755 463.580475,833.386658 
	C474.157349,833.386658 484.388672,833.386658 494.761566,833.386658 
	C494.761566,811.522644 494.489136,790.027893 494.908661,768.546631 
	C495.056396,760.983154 496.196930,753.268982 498.115692,745.946289 
	C501.907379,731.475891 514.912476,724.566711 529.027039,728.683533 
	C534.461914,730.268799 537.970520,733.887878 539.167908,739.267578 
	C540.242371,744.095032 541.101135,749.082153 541.148193,754.007446 
	C541.356689,775.833801 541.238464,797.663330 541.238464,820.486694 
M174.251160,691.787537 
	C170.535110,707.060364 169.849731,721.950623 179.036362,735.882812 
	C184.091782,743.549805 191.334473,748.536804 199.230530,752.484985 
	C209.593460,757.666687 220.512711,761.756409 230.761032,767.137817 
	C235.726395,769.745178 241.051407,773.410950 243.852722,778.029480 
	C249.494766,787.331665 247.081360,800.842712 232.110184,807.033020 
	C221.829178,811.283936 211.268005,811.251343 200.802658,808.592712 
	C192.870392,806.577698 185.220535,803.450989 177.362793,800.791138 
	C176.368546,810.253479 175.336975,820.070984 174.313477,829.811768 
	C197.835999,836.113342 211.865524,838.654541 233.221436,835.625732 
	C245.870728,833.831726 258.004242,829.667114 267.315643,820.508850 
	C282.325836,805.745667 283.696533,787.125183 278.968170,768.137268 
	C275.056641,752.429504 262.766113,743.605835 248.473022,737.437561 
	C238.441666,733.108521 228.310806,728.977112 218.477829,724.232239 
	C210.908569,720.579773 205.459106,715.161316 206.375702,705.566772 
	C207.602188,692.728455 217.247696,684.065063 230.935486,683.734131 
	C243.687531,683.425842 255.888199,685.921143 268.256897,691.070740 
	C269.253418,681.549011 270.194824,672.553833 271.177307,663.166077 
	C250.491531,657.505615 230.195709,654.442932 209.449234,660.216064 
	C192.838455,664.838379 179.938858,673.751648 174.251160,691.787537 
M307.300964,749.788330 
	C304.697144,762.125549 303.901672,774.583435 306.778534,786.898743 
	C313.820801,817.045288 335.127930,835.151978 366.068451,836.611328 
	C385.019836,837.505249 402.729889,833.400085 416.841492,819.271362 
	C431.433594,804.661438 436.419617,786.843323 435.851105,766.627136 
	C434.877594,732.008301 413.537811,706.886414 379.437897,702.783508 
	C349.253723,699.151733 316.778564,713.561035 307.300964,749.788330 
M719.789429,802.682861 
	C714.129761,796.240601 711.201721,788.758362 710.765930,779.678894 
	C739.947266,779.678894 768.685852,779.678894 797.776001,779.678894 
	C797.679382,760.582886 795.360168,742.483643 786.408081,725.778931 
	C781.671021,716.939453 774.562622,710.762268 765.194946,707.059937 
	C755.439636,703.204407 745.303589,701.733521 734.937988,702.295715 
	C714.074951,703.427185 698.210205,712.551941 688.571289,731.684631 
	C680.567322,747.572327 679.051575,764.385498 680.741516,781.699158 
	C681.853455,793.091003 685.060181,803.871521 691.673706,813.380432 
	C700.708313,826.370422 713.864502,832.497620 728.933044,835.131348 
	C748.210815,838.500854 766.996155,837.117310 784.896667,828.585571 
	C786.156372,827.985168 788.103943,826.871948 788.131958,825.948853 
	C788.384399,817.609375 788.279663,809.259033 788.279663,801.274048 
	C780.241333,804.532349 772.926941,808.177002 765.212341,810.482605 
	C749.230225,815.258850 733.674561,815.473633 719.789429,802.682861 
M1129.494629,779.758972 
	C1134.446533,779.758972 1139.398560,779.758972 1144.275513,779.758972 
	C1145.543579,769.699707 1143.091064,751.634644 1139.044922,739.178223 
	C1136.350952,730.884460 1132.905029,723.050171 1126.748779,716.658936 
	C1117.140625,706.684021 1104.685181,703.346985 1091.585083,702.475586 
	C1065.690308,700.753052 1045.304077,709.442688 1034.222412,734.691589 
	C1024.707642,756.370239 1024.645386,778.652832 1032.203735,800.803467 
	C1037.777710,817.138611 1049.515381,827.806702 1066.065796,832.649048 
	C1072.703125,834.590942 1079.648071,835.964172 1086.535645,836.470032 
	C1102.306152,837.628235 1117.713745,835.685181 1132.081665,828.491394 
	C1133.391724,827.835632 1135.192993,826.384155 1135.231201,825.250427 
	C1135.503418,817.175476 1135.376343,809.087036 1135.376343,800.639221 
	C1130.462036,803.000061 1126.237427,805.210266 1121.871216,807.092224 
	C1109.758301,812.313416 1097.264526,815.069092 1084.045166,812.240479 
	C1068.809204,808.980408 1057.202759,794.593628 1058.180298,779.758972 
	C1081.598145,779.758972 1105.047485,779.758972 1129.494629,779.758972 
M926.374939,769.137207 
	C931.744995,771.691650 936.990234,774.565674 942.515442,776.722534 
	C950.049805,779.663696 957.862610,781.885803 965.432556,784.743347 
	C971.131226,786.894531 973.337830,791.685974 973.188049,797.468750 
	C973.031921,803.498779 970.026367,807.792542 964.407288,810.226990 
	C957.165771,813.364624 949.572266,814.314331 941.957825,812.700317 
	C933.641846,810.937561 925.497131,808.366821 917.122009,806.106323 
	C916.520691,814.083191 915.874817,822.651428 915.213623,831.422668 
	C932.818054,835.867676 950.171570,838.734619 967.825378,835.449951 
	C979.338623,833.307800 990.523865,829.494385 998.261597,819.946106 
	C1015.977051,798.085205 1006.764282,767.638977 979.791748,758.298767 
	C971.815125,755.536621 963.706482,753.142822 955.790283,750.222595 
	C947.892944,747.309204 945.170410,739.425232 950.130188,732.995605 
	C952.201721,730.310120 955.835327,727.453552 958.953918,727.213745 
	C967.789185,726.534363 976.749878,726.813477 985.611084,727.432617 
	C989.924561,727.734009 994.126282,729.634705 998.516785,730.849670 
	C999.223389,722.651672 999.901001,714.790100 1000.642944,706.181946 
	C991.327271,704.838928 982.532166,703.069885 973.654663,702.410828 
	C960.969421,701.469116 948.489136,702.569458 936.558350,707.887512 
	C911.325439,719.134949 905.780212,749.910278 926.374939,769.137207 
M1187.045410,678.787476 
	C1186.443237,680.275391 1185.358398,681.751221 1185.320801,683.253296 
	C1185.138916,690.504822 1185.238892,697.763489 1185.238892,705.477905 
	C1176.871338,705.477905 1169.137695,705.477905 1161.625000,705.477905 
	C1161.625000,713.520996 1161.625000,721.084106 1161.625000,728.927673 
	C1169.618286,728.927673 1177.226929,728.927673 1185.238770,728.927673 
	C1185.238770,750.161987 1185.178467,771.100586 1185.284424,792.038330 
	C1185.308716,796.837830 1185.556519,801.689819 1186.308472,806.421204 
	C1188.087402,817.614380 1192.984863,826.967896 1203.701904,832.095032 
	C1218.158569,839.011230 1232.995605,837.435120 1247.368652,834.166260 
	C1247.368652,825.205627 1247.368652,816.846375 1247.368652,808.607544 
	C1243.488525,809.599121 1240.355713,810.795166 1237.129761,811.154724 
	C1224.044922,812.613098 1216.967896,805.972046 1216.817017,791.701660 
	C1216.602051,771.387573 1216.762695,751.069519 1216.785400,730.753113 
	C1216.786011,730.147644 1217.036743,729.542419 1217.239136,728.629028 
	C1226.835571,728.629028 1236.265381,728.629028 1245.837158,728.629028 
	C1245.837158,720.714844 1245.837158,713.163330 1245.837158,705.069580 
	C1235.997437,705.069580 1226.448242,705.069580 1216.550903,705.069580 
	C1216.550903,692.810608 1216.550903,681.094055 1216.550903,668.969238 
	C1206.656494,672.223083 1197.220703,675.326050 1187.045410,678.787476 
M169.315247,998.499939 
	C169.315247,1012.765991 169.315247,1027.031982 169.315247,1041.428711 
	C176.685883,1041.428711 183.434464,1041.428711 190.802551,1041.428711 
	C190.802551,1012.857483 190.802551,984.535095 190.802551,956.212708 
	C192.766998,957.398621 193.636429,958.885071 194.405960,960.421570 
	C207.286819,986.138672 220.138565,1011.870300 233.067947,1037.562988 
	C233.830872,1039.078979 235.153610,1041.423584 236.287567,1041.466064 
	C245.019379,1041.792847 253.768936,1041.645874 262.342438,1041.645874 
	C262.342438,1002.786865 262.342438,964.715027 262.342438,926.603516 
	C255.247543,926.603516 248.498535,926.603516 241.153839,926.603516 
	C241.153839,955.218140 241.153839,983.550476 241.153839,1011.882751 
	C240.763260,1012.008545 240.372681,1012.134338 239.982101,1012.260132 
	C239.127228,1010.784546 238.188019,1009.350891 237.430069,1007.827209 
	C224.611084,982.057861 211.837997,956.265686 198.957230,930.527344 
	C198.154526,928.923279 196.594086,926.573914 195.304642,926.520020 
	C186.732666,926.161377 178.138458,926.334229 169.315445,926.334229 
	C169.315445,950.548157 169.315445,974.024048 169.315247,998.499939 
M358.878021,1015.500000 
	C358.878021,1024.095337 358.878021,1032.690674 358.878021,1041.382324 
	C366.794434,1041.382324 374.033203,1041.382324 381.262024,1041.382324 
	C381.262024,1002.889465 381.262024,964.698486 381.262024,926.727539 
	C373.602142,926.727539 366.368622,926.727539 358.674286,926.727539 
	C358.674286,942.386719 358.674286,957.641479 358.674286,972.942871 
	C343.133118,972.942871 328.075958,972.942871 312.589569,972.942871 
	C312.589569,957.314880 312.589569,942.055237 312.589569,926.706421 
	C304.948608,926.706421 297.746918,926.706421 290.646606,926.706421 
	C290.646606,965.173706 290.646606,1003.251099 290.646606,1041.404785 
	C298.061768,1041.404785 305.144135,1041.404785 312.833862,1041.404785 
	C312.833862,1024.422607 312.833862,1007.708618 312.833862,991.130310 
	C328.492798,991.130310 343.537170,991.130310 358.877960,991.130310 
	C358.877960,999.216858 358.877960,1006.858459 358.878021,1015.500000 
M1013.321350,1039.796997 
	C1013.321350,999.069580 1013.321350,958.342163 1013.321350,917.618286 
	C1005.853149,917.618286 999.085938,917.618286 991.887390,917.618286 
	C991.887390,925.858032 991.887390,933.818726 991.887390,941.779480 
	C991.887390,949.598083 991.887390,957.416687 991.887390,966.539185 
	C989.588562,964.603516 988.576843,963.803589 987.622375,962.940186 
	C974.110840,950.717957 944.796509,952.396118 936.314819,973.251648 
	C929.683105,989.558594 929.506958,1005.650208 935.093201,1022.259338 
	C942.551575,1044.434692 967.681091,1047.869629 982.264404,1039.722412 
	C985.624084,1037.845581 988.613159,1035.305176 992.115112,1032.827881 
	C992.291870,1036.030640 992.442139,1038.754150 992.630310,1042.164429 
	C999.836182,1041.636841 1006.504883,1041.148560 1013.321350,1039.796997 
M856.759583,721.481812 
	C856.759583,716.200806 856.759583,710.919800 856.759583,705.513062 
	C847.043518,705.513062 837.819763,705.513062 828.507568,705.513062 
	C828.507568,748.321167 828.507568,790.856018 828.507568,833.406860 
	C839.152466,833.406860 849.526550,833.406860 860.139465,833.406860 
	C860.139465,815.414246 859.752869,797.761353 860.297791,780.137207 
	C860.582581,770.925293 861.658325,761.553467 863.878723,752.627441 
	C867.555115,737.848267 876.772949,732.054932 891.908813,733.521606 
	C894.980286,733.819275 898.015564,734.489685 901.201416,735.010193 
	C901.201416,724.314941 901.201416,713.871887 901.201416,703.057373 
	C876.714722,698.892029 865.024292,713.129211 856.759583,732.927734 
	C856.759583,729.442444 856.759583,725.957214 856.759583,721.481812 
M432.197815,962.864746 
	C428.590515,951.489014 435.318756,941.626892 447.412109,941.852417 
	C455.583954,942.004822 463.724548,943.834229 472.399994,944.982483 
	C472.916077,940.106567 473.515625,934.442139 474.169861,928.261169 
	C458.675201,924.104614 443.819946,922.525574 428.379700,927.665466 
	C406.773041,934.858032 403.169891,962.178040 411.858948,975.689697 
	C416.633453,983.114075 424.030975,986.814636 431.523010,990.438843 
	C437.802155,993.476440 444.321533,996.031982 450.517792,999.221863 
	C455.531342,1001.802917 457.736145,1006.192261 457.390350,1012.015015 
	C457.078918,1017.259155 454.604126,1021.064697 450.037506,1022.949524 
	C445.979431,1024.624390 441.372040,1026.458740 437.206726,1026.072144 
	C428.624481,1025.275513 420.175415,1023.043823 411.333557,1021.337463 
	C410.730225,1026.449341 409.999329,1032.641846 409.225220,1039.200806 
	C412.440826,1039.940552 415.309723,1040.618896 418.187012,1041.259399 
	C432.894196,1044.532715 447.447754,1045.284546 461.734711,1039.145264 
	C482.741577,1030.118408 488.408234,1002.019409 471.886505,986.227112 
	C467.467896,982.003479 461.418854,979.374207 455.884888,976.455505 
	C448.034424,972.314880 438.608063,971.035828 432.197815,962.864746 
M1284.215576,1043.657715 
	C1307.193604,1041.593506 1319.368408,1028.910522 1323.211426,1011.767639 
	C1327.241943,993.788574 1324.422729,976.705383 1309.161255,964.798767 
	C1293.821411,952.830933 1276.284302,951.892822 1258.951904,960.674377 
	C1242.772339,968.871826 1236.965820,983.379089 1237.143799,1000.766357 
	C1237.285767,1014.629028 1242.152100,1026.403442 1253.252197,1035.094727 
	C1262.055420,1041.987549 1272.422974,1043.820435 1284.215576,1043.657715 
M633.200012,973.716797 
	C626.206970,984.305237 624.748901,996.205383 626.761841,1008.203430 
	C632.576721,1042.863647 667.778748,1050.717163 691.935974,1038.520264 
	C716.853577,1025.939331 718.764160,993.140869 706.497925,973.677612 
	C692.000183,950.673340 651.354614,947.837830 633.200012,973.716797 
M1684.491089,1019.825806 
	C1679.841553,1026.150879 1672.868408,1028.967896 1666.239746,1026.872803 
	C1659.088135,1024.612305 1656.989624,1018.779358 1656.663696,1012.080444 
	C1656.211304,1002.786865 1655.876099,993.484009 1655.708618,984.181213 
	C1655.550537,975.403137 1655.674561,966.619995 1655.674561,957.695435 
	C1648.316040,957.695435 1641.452881,957.695435 1634.375488,957.695435 
	C1634.375488,976.696716 1634.174561,995.332703 1634.519897,1013.958557 
	C1634.603882,1018.492126 1635.969116,1023.195618 1637.653442,1027.462402 
	C1640.504639,1034.684448 1645.378906,1040.337769 1653.300049,1042.354248 
	C1666.427124,1045.696289 1677.954834,1042.729248 1687.689331,1033.173096 
	C1688.550293,1032.327881 1689.532593,1031.606445 1691.361816,1030.067505 
	C1691.361816,1034.560059 1691.361816,1037.939941 1691.361816,1041.463013 
	C1698.222046,1041.463013 1704.484985,1041.463013 1711.022217,1041.463013 
	C1711.022217,1013.388489 1711.022217,985.526001 1711.022217,957.588013 
	C1703.917847,957.588013 1697.153809,957.588013 1689.883179,957.588013 
	C1689.883179,959.466370 1689.883179,961.086060 1689.883179,962.705750 
	C1689.883057,974.027771 1689.989746,985.351135 1689.846069,996.671326 
	C1689.746948,1004.489807 1689.505127,1012.348572 1684.491089,1019.825806 
M752.972351,957.352356 
	C746.536316,957.352356 740.100281,957.352356 733.502136,957.352356 
	C733.502136,976.944153 733.325195,995.912476 733.639221,1014.872620 
	C733.708862,1019.078491 735.035522,1023.446045 736.619507,1027.404541 
	C739.507935,1034.623291 744.331299,1040.307739 752.254517,1042.339233 
	C765.388306,1045.706665 776.927612,1042.744995 786.676575,1033.186157 
	C787.540649,1032.338867 788.521973,1031.611206 790.352478,1030.064453 
	C790.352478,1034.561401 790.352478,1037.935059 790.352478,1041.459473 
	C797.220642,1041.459473 803.486694,1041.459473 809.995850,1041.459473 
	C809.995850,1013.367249 809.995850,985.490906 809.995850,957.614075 
	C802.856628,957.614075 796.084900,957.614075 788.882996,957.614075 
	C788.882996,970.696533 788.986206,983.496338 788.844116,996.293335 
	C788.759155,1003.938293 788.576111,1011.609863 784.386719,1018.495544 
	C780.199036,1025.378662 773.014465,1028.772827 765.794006,1027.070435 
	C759.803162,1025.658203 756.016357,1020.645508 755.714111,1012.152710 
	C755.127991,995.689575 755.016846,979.209778 754.643127,962.738403 
	C754.603577,960.992432 754.125916,959.256409 752.972351,957.352356 
M1413.798706,963.702820 
	C1396.281860,949.138062 1380.398804,954.246033 1364.602051,968.721619 
	C1364.602051,964.386108 1364.602051,961.007324 1364.602051,957.619873 
	C1357.574341,957.619873 1351.160889,957.619873 1344.741821,957.619873 
	C1344.741821,985.771240 1344.741821,1013.627380 1344.741821,1041.264771 
	C1352.062256,1041.264771 1358.962280,1041.264771 1366.115845,1041.264771 
	C1366.115845,1027.209106 1366.055908,1013.559753 1366.138428,999.911255 
	C1366.187378,991.804565 1367.497681,984.006653 1372.731812,977.384033 
	C1377.210693,971.716919 1383.365356,970.640320 1389.829468,971.979370 
	C1396.084595,973.275208 1398.157593,978.575439 1399.281250,984.203369 
	C1399.572266,985.660461 1399.623291,987.182678 1399.632812,988.675903 
	C1399.734253,1004.498962 1399.798584,1020.322266 1399.893433,1036.145386 
	C1399.903931,1037.892944 1400.040894,1039.639771 1400.117798,1041.355469 
	C1407.429443,1041.355469 1414.169312,1041.355469 1420.914307,1041.355469 
	C1421.100830,1040.585938 1421.314819,1040.113892 1421.315308,1039.641602 
	C1421.333496,1021.316711 1421.552368,1002.987915 1421.225952,984.668823 
	C1421.094849,977.310486 1419.160645,970.182129 1413.798706,963.702820 
M890.881897,992.884583 
	C890.881897,1008.984497 890.881897,1025.084473 890.881897,1041.279541 
	C898.303345,1041.279541 905.161926,1041.279541 912.245239,1041.279541 
	C912.245239,1021.761292 912.569275,1002.627258 912.095764,983.513062 
	C911.888062,975.125732 909.277771,967.070862 902.415161,961.316162 
	C891.685730,952.318665 872.249878,953.427063 861.555603,963.642212 
	C859.949951,965.175903 858.824036,967.211792 857.476196,969.015381 
	C856.878479,968.614441 856.280701,968.213501 855.682983,967.812622 
	C855.682983,964.443665 855.682983,961.074707 855.682983,957.581177 
	C848.651245,957.581177 842.239502,957.581177 835.687500,957.581177 
	C835.687500,985.686279 835.687500,1013.535645 835.687500,1041.339844 
	C842.969788,1041.339844 849.886841,1041.339844 857.115845,1041.339844 
	C857.115845,1027.368408 857.066467,1013.727478 857.134460,1000.087219 
	C857.174805,991.984680 858.427917,984.183044 863.619446,977.533386 
	C867.591187,972.445923 874.876221,970.077637 881.133484,971.986938 
	C887.265320,973.857971 889.325134,978.852661 890.281433,984.500854 
	C890.696045,986.949768 890.686951,989.470459 890.881897,992.884583 
M1107.362793,1004.503296 
	C1107.133789,997.024170 1107.243896,989.515808 1106.600342,982.072510 
	C1105.490112,969.232483 1098.128662,960.641418 1085.732178,957.039307 
	C1076.044800,954.224426 1066.285156,954.856201 1056.621704,957.010193 
	C1041.617554,960.354370 1041.638672,960.467590 1042.699585,975.720093 
	C1042.767700,976.700317 1042.967529,977.671448 1043.153931,978.983154 
	C1044.226685,978.347351 1045.064087,977.894226 1045.857666,977.374207 
	C1053.792480,972.174194 1062.540527,970.165771 1071.942017,970.679504 
	C1082.886353,971.277527 1088.704346,978.436584 1086.619019,989.322388 
	C1082.090820,989.322388 1077.399902,988.843384 1072.845093,989.427185 
	C1064.664917,990.475647 1056.211426,991.135254 1048.508179,993.797424 
	C1032.779297,999.233154 1027.711914,1022.033447 1038.881592,1034.219604 
	C1048.682007,1044.911865 1067.975220,1046.815552 1079.599243,1038.071899 
	C1082.556885,1035.847168 1085.105713,1033.078857 1087.779297,1030.618408 
	C1089.128418,1034.474365 1089.411133,1039.898438 1091.874634,1041.202271 
	C1095.261108,1042.994507 1100.298462,1041.668579 1104.628418,1041.677368 
	C1105.757202,1041.679688 1106.885986,1041.677612 1107.362305,1041.677612 
	C1107.362305,1029.336182 1107.362305,1017.419250 1107.362793,1004.503296 
M552.938721,1041.686157 
	C559.377563,1041.686157 565.816406,1041.686157 572.842346,1041.686157 
	C572.842346,1024.421631 572.842346,1007.718262 572.842346,990.605591 
	C586.018677,990.605591 598.604431,990.605591 611.318481,990.605591 
	C611.318481,984.643616 611.318481,979.110596 611.318481,973.161133 
	C598.366577,973.161133 585.779968,973.161133 573.020691,973.161133 
	C573.020691,963.194336 573.020691,953.654541 573.020691,943.577454 
	C586.558167,943.577454 599.775574,943.577454 613.107361,943.577454 
	C613.107361,937.614197 613.107361,932.193237 613.107361,926.614136 
	C592.131470,926.614136 571.425415,926.614136 550.707947,926.614136 
	C550.539673,927.371460 550.343750,927.841858 550.343506,928.312317 
	C550.322693,964.939026 550.301636,1001.565735 550.383484,1038.192261 
	C550.386047,1039.350098 551.461731,1040.505737 552.938721,1041.686157 
M1537.689453,1001.500061 
	C1537.689453,982.393188 1537.689453,963.286255 1537.689453,943.634277 
	C1548.834839,943.634277 1559.395752,943.634277 1570.119629,943.634277 
	C1570.119629,937.656799 1570.119629,932.231689 1570.119629,926.618958 
	C1540.811401,926.618958 1511.760498,926.618958 1482.564697,926.618958 
	C1482.564697,932.346924 1482.564697,937.764832 1482.564697,943.795044 
	C1493.524292,943.795044 1504.241455,943.795044 1515.374512,943.795044 
	C1515.374512,976.662476 1515.374512,1008.918701 1515.374512,1041.317993 
	C1523.016846,1041.317993 1530.219482,1041.317993 1537.689209,1041.317993 
	C1537.689209,1028.132324 1537.689209,1015.316223 1537.689453,1001.500061 
M1778.775269,994.637878 
	C1771.732544,992.182617 1764.684082,989.743591 1757.649658,987.265015 
	C1754.403809,986.121338 1752.243286,984.042419 1752.146240,980.372803 
	C1752.047974,976.655396 1753.739624,973.841797 1757.067627,972.414917 
	C1759.296753,971.459167 1761.873291,970.645935 1764.233032,970.788086 
	C1771.264893,971.211426 1778.266357,972.137817 1785.552246,972.896057 
	C1785.892700,969.603210 1786.226074,965.810913 1786.694580,962.035461 
	C1787.045654,959.205872 1786.076538,957.588806 1783.092407,957.340332 
	C1775.336060,956.694519 1767.573486,955.361572 1759.832397,955.486572 
	C1750.310059,955.640198 1741.173828,958.490112 1734.835449,966.037231 
	C1723.745728,979.241699 1729.722778,997.541870 1746.731445,1003.559265 
	C1752.190552,1005.490662 1757.795898,1007.015869 1763.226074,1009.019958 
	C1767.084961,1010.443970 1768.728882,1013.691528 1768.763428,1017.695801 
	C1768.796753,1021.557495 1767.089966,1024.580566 1763.444214,1025.914795 
	C1760.385498,1027.034180 1757.017212,1028.439697 1753.937256,1028.143799 
	C1746.494629,1027.428955 1739.140381,1025.793335 1731.549316,1024.494507 
	C1731.195068,1029.247070 1730.795288,1034.609131 1730.385986,1040.100220 
	C1742.383789,1043.083984 1753.954834,1045.199707 1765.773926,1042.620850 
	C1775.378906,1040.525024 1784.428223,1037.258057 1788.786011,1027.223755 
	C1794.198242,1014.761841 1790.970215,1003.749023 1778.775269,994.637878 
M1159.687866,992.500366 
	C1159.687866,986.058350 1159.687866,979.616272 1159.687866,972.571411 
	C1166.652344,972.571411 1173.043091,972.571411 1179.377441,972.571411 
	C1179.377441,967.202454 1179.377441,962.451172 1179.377441,957.094360 
	C1172.692505,957.094360 1166.299805,957.094360 1159.533447,957.094360 
	C1159.533447,948.899780 1159.533447,941.314880 1159.533447,933.272034 
	C1152.150391,935.675049 1145.280273,937.911072 1138.131958,940.237610 
	C1138.131958,945.921082 1138.131958,951.364990 1138.131958,957.403992 
	C1132.708252,957.403992 1127.653442,957.403992 1122.610107,957.403992 
	C1122.610107,962.772278 1122.610107,967.524048 1122.610107,972.881775 
	C1127.947266,972.881775 1133.002686,972.881775 1138.312256,972.881775 
	C1138.312256,988.306274 1138.262695,1003.118835 1138.327393,1017.930908 
	C1138.382568,1030.560547 1144.208130,1039.905151 1155.042725,1042.022705 
	C1162.365479,1043.453857 1170.157471,1042.616943 1177.732910,1042.461426 
	C1178.736084,1042.440796 1180.459351,1040.506104 1180.545776,1039.359619 
	C1180.878174,1034.948853 1180.680542,1030.498169 1180.680542,1025.689209 
	C1179.212646,1026.021973 1178.592773,1026.148560 1177.979980,1026.303589 
	C1165.298218,1029.510254 1159.749023,1025.178223 1159.692383,1011.993530 
	C1159.666016,1005.829224 1159.687744,999.664612 1159.687866,992.500366 
M1838.687866,945.516113 
	C1838.687866,941.583313 1838.687866,937.650513 1838.687866,933.219604 
	C1831.144409,935.676514 1824.274780,937.913940 1817.126831,940.242004 
	C1817.126831,945.927795 1817.126831,951.371460 1817.126831,957.410278 
	C1811.701782,957.410278 1806.647339,957.410278 1801.613525,957.410278 
	C1801.613525,962.780701 1801.613525,967.532471 1801.613525,972.888611 
	C1806.956543,972.888611 1812.010498,972.888611 1817.312256,972.888611 
	C1817.312256,988.314697 1817.262329,1003.128601 1817.327759,1017.942017 
	C1817.383545,1030.566895 1823.217041,1039.913330 1834.053711,1042.027222 
	C1841.377563,1043.455933 1849.169678,1042.617554 1856.745361,1042.459473 
	C1857.744873,1042.438599 1859.459961,1040.496704 1859.546387,1039.346802 
	C1859.877930,1034.938354 1859.680664,1030.489990 1859.680664,1025.591675 
	C1857.225586,1026.252563 1855.671631,1026.766724 1854.078491,1027.083862 
	C1845.488647,1028.793335 1841.042725,1026.013916 1839.291260,1017.408386 
	C1838.636597,1014.191528 1838.730225,1010.796143 1838.712036,1007.480896 
	C1838.649414,996.042114 1838.687988,984.602905 1838.687988,972.560669 
	C1845.663940,972.560669 1852.054199,972.560669 1858.371826,972.560669 
	C1858.371826,967.190979 1858.371826,962.439819 1858.371826,957.083008 
	C1851.680542,957.083008 1845.287720,957.083008 1838.687622,957.083008 
	C1838.687622,953.149414 1838.687622,949.827881 1838.687866,945.516113 
M1569.317505,965.588379 
	C1569.317505,990.827576 1569.317505,1016.066772 1569.317505,1041.392334 
	C1576.865479,1041.392334 1583.777344,1041.392334 1591.121948,1041.392334 
	C1591.121948,1030.652344 1590.959717,1020.193481 1591.171021,1009.742126 
	C1591.355103,1000.639404 1591.017578,991.398132 1595.794067,983.039978 
	C1598.585205,978.155701 1602.574341,975.343384 1608.286255,975.397217 
	C1611.822632,975.430664 1615.356689,975.691040 1619.121826,975.859863 
	C1619.121826,972.379700 1619.121704,969.229614 1619.121704,966.079529 
	C1619.121704,962.783752 1619.121826,959.487976 1619.121826,956.089050 
	C1612.155762,954.496033 1605.744873,954.806030 1600.760254,959.358521 
	C1596.276001,963.453918 1592.745972,968.594116 1588.704590,973.380493 
	C1588.704590,968.419800 1588.704590,963.066711 1588.704590,957.732300 
	C1581.890015,957.732300 1575.694092,957.732300 1569.317627,957.732300 
	C1569.317627,960.305420 1569.317627,962.464355 1569.317505,965.588379 
M1218.118774,1019.500000 
	C1218.118774,998.917542 1218.118774,978.335083 1218.118774,957.605225 
	C1210.574219,957.605225 1203.670654,957.605225 1196.710327,957.605225 
	C1196.710327,985.741150 1196.710327,1013.592468 1196.710327,1041.309814 
	C1204.012939,1041.309814 1210.922363,1041.309814 1218.118774,1041.309814 
	C1218.118774,1034.130249 1218.118774,1027.315063 1218.118774,1019.500000 
M1196.310547,929.533813 
	C1196.310547,933.138367 1196.310547,936.742859 1196.310547,940.393250 
	C1203.877441,940.393250 1210.792114,940.393250 1217.873169,940.393250 
	C1217.873169,933.678284 1217.873169,927.261108 1217.873169,920.706543 
	C1210.584839,920.706543 1203.556030,920.706543 1196.310669,920.706543 
	C1196.310669,923.590515 1196.310669,926.079346 1196.310547,929.533813 
z"/>
<path fill="#0273BC" opacity="1.000000" stroke="none" 
	d="
M469.999939,552.658447 
	C365.353271,552.658386 261.206604,552.658386 156.700821,552.658386 
	C156.700821,434.658722 156.700821,316.947083 156.700821,198.979919 
	C449.629120,198.979919 742.373535,198.979919 1035.388184,198.979919 
	C1035.388184,316.832428 1035.388184,434.425995 1035.388184,552.658569 
	C847.027222,552.658569 658.763611,552.658569 469.999939,552.658447 
M428.591675,277.103210 
	C418.167175,328.177185 407.742706,379.251160 397.318207,430.325134 
	C395.642273,428.279816 394.868530,426.300995 394.266174,424.271301 
	C375.780975,361.983551 357.281555,299.699890 338.924042,237.374466 
	C337.898590,233.893005 336.480927,232.746338 332.810791,232.773865 
	C308.815247,232.953842 284.817749,232.866440 260.820862,232.866425 
	C254.680557,232.866425 248.540268,232.866425 242.025360,232.866425 
	C221.602798,327.890869 201.243744,422.619904 180.835205,517.579102 
	C205.412247,517.579102 229.030548,517.579102 252.760956,517.579102 
	C266.063538,451.691071 279.327454,385.994659 292.591370,320.298279 
	C294.760712,323.856201 295.958679,327.267029 297.008331,330.722900 
	C315.504272,391.619263 334.001678,452.515228 352.407684,513.438782 
	C353.354950,516.574280 354.542786,517.927551 358.163940,517.904663 
	C387.159027,517.721191 416.155762,517.805054 445.152008,517.791199 
	C446.294403,517.790649 447.436768,517.630859 448.811035,517.527893 
	C469.002594,422.721985 489.169159,328.033691 509.379486,233.139740 
	C484.962524,233.139740 461.364899,233.139740 437.462677,233.139740 
	C434.543030,247.654541 431.663849,261.968170 428.591675,277.103210 
M496.156006,433.736847 
	C490.368042,461.606323 484.580078,489.475769 478.730713,517.640869 
	C504.599457,517.640869 529.558472,517.640869 554.819763,517.640869 
	C555.241394,515.984802 555.703918,514.416809 556.037598,512.821777 
	C563.903625,475.226868 571.825806,437.643341 579.503174,400.009857 
	C580.276428,396.219208 581.717957,395.301208 585.355530,395.320648 
	C612.346863,395.464966 639.339294,395.393707 666.331421,395.412079 
	C667.908325,395.413147 669.485168,395.604736 671.623230,395.744324 
	C663.122620,436.620087 654.744934,476.904968 646.321533,517.409424 
	C672.196533,517.409424 697.402954,517.409424 722.665771,517.409424 
	C742.482727,422.505402 762.223816,327.964752 781.978027,233.361481 
	C781.287048,233.162643 780.829895,232.916428 780.372437,232.915863 
	C756.546326,232.886856 732.720093,232.923187 708.894409,232.810760 
	C705.987366,232.797043 705.422668,234.102295 704.918335,236.585495 
	C699.326477,264.119751 693.610413,291.628784 687.897339,319.138336 
	C686.324158,326.713745 684.649048,334.268005 683.059937,341.649597 
	C652.419189,341.649597 622.461670,341.649597 592.074646,341.649597 
	C599.555847,305.354828 606.977234,269.350433 614.450928,233.092133 
	C588.514709,233.092133 563.409119,233.092133 538.122070,233.092133 
	C524.174805,299.819824 510.264923,366.368988 496.156006,433.736847 
M954.466187,370.018280 
	C950.045227,366.772217 945.984070,362.790161 941.135071,360.419708 
	C927.270325,353.641907 913.001953,347.694611 899.058044,341.071838 
	C890.689148,337.096954 881.880066,333.457153 874.593689,327.922516 
	C860.860962,317.491394 863.395874,298.338959 878.861328,290.608612 
	C882.097168,288.991180 885.620850,287.740784 889.153015,286.960022 
	C907.584595,282.886169 926.268555,282.699890 944.746826,285.732086 
	C958.065979,287.917725 971.071533,292.014252 984.737427,295.386871 
	C990.427246,277.900543 996.463562,259.349426 1002.661133,240.302567 
	C998.136475,238.746002 994.131287,237.174515 990.015564,235.985916 
	C972.629517,230.964996 954.734741,229.312851 936.767944,228.406174 
	C909.053040,227.007599 881.553284,227.985992 854.693665,236.101318 
	C813.715637,248.482346 790.545105,276.232422 787.631348,315.934601 
	C785.445190,345.722504 797.243286,367.725067 823.615967,381.400085 
	C835.523499,387.574554 848.140015,392.397430 860.505188,397.668793 
	C870.903198,402.101501 881.674622,405.865479 890.155579,413.732880 
	C901.910400,424.637268 902.038940,442.693970 889.587219,452.815155 
	C883.975708,457.376434 876.822021,461.056061 869.798828,462.691620 
	C837.058044,470.316132 805.071777,466.640930 774.005432,454.137695 
	C771.628967,453.181244 769.367310,451.939514 766.737610,450.679626 
	C760.725952,469.989166 754.876038,488.778961 748.985291,507.700073 
	C750.270996,508.189117 751.175293,508.611481 752.122986,508.882233 
	C783.464294,517.836670 815.236206,523.703247 848.030762,522.406982 
	C871.080933,521.495911 893.758728,518.528748 915.454468,510.235657 
	C940.154236,500.794373 960.249268,486.005035 970.406372,460.610168 
	C981.478210,432.928558 981.497986,393.354004 954.466187,370.018280 
z"/>
<path fill="#050505" opacity="1.000000" stroke="none" 
	d="
M541.238464,819.989197 
	C541.238464,797.663330 541.356689,775.833801 541.148193,754.007446 
	C541.101135,749.082153 540.242371,744.095032 539.167908,739.267578 
	C537.970520,733.887878 534.461914,730.268799 529.027039,728.683533 
	C514.912476,724.566711 501.907379,731.475891 498.115692,745.946289 
	C496.196930,753.268982 495.056396,760.983154 494.908661,768.546631 
	C494.489136,790.027893 494.761566,811.522644 494.761566,833.386658 
	C484.388672,833.386658 474.157349,833.386658 463.580475,833.386658 
	C463.580475,790.986755 463.580475,748.429993 463.580475,705.555420 
	C473.398468,705.555420 483.294403,705.555420 493.676941,705.555420 
	C493.676941,711.128723 493.676941,716.706299 493.676941,722.283875 
	C493.982300,722.559937 494.287689,722.835999 494.593048,723.112061 
	C504.242279,709.853271 516.888123,702.375488 533.231201,702.256714 
	C549.863159,702.135864 562.369751,709.181946 570.177307,724.666870 
	C572.257324,721.890503 573.847595,719.438965 575.758545,717.269958 
	C589.141724,702.079590 613.981689,697.612793 632.040955,706.956665 
	C642.585205,712.412231 646.277710,722.261536 648.677124,732.814270 
	C649.812866,737.809448 650.628113,742.996948 650.661926,748.103455 
	C650.849243,776.418091 650.751709,804.734680 650.751709,833.405884 
	C640.348572,833.405884 630.118103,833.405884 619.238464,833.405884 
	C619.238464,831.749756 619.238403,829.987244 619.238403,828.224792 
	C619.238403,804.230286 619.364685,780.234558 619.144531,756.242065 
	C619.093140,750.644043 618.217102,744.984070 617.080994,739.484741 
	C615.927429,733.901550 612.270447,730.244385 606.600464,728.645996 
	C591.356262,724.348511 579.002930,732.088196 575.023560,749.075256 
	C573.632385,755.013855 572.938904,761.235718 572.860413,767.340210 
	C572.599121,787.665527 572.761597,807.996338 572.761597,828.325012 
	C572.761597,829.958008 572.761536,831.591003 572.761536,833.490845 
	C562.172180,833.490845 551.943848,833.490845 541.238464,833.490845 
	C541.238464,829.060791 541.238464,824.773743 541.238464,819.989197 
z"/>
<path fill="#040404" opacity="1.000000" stroke="none" 
	d="
M174.315125,691.391663 
	C179.938858,673.751648 192.838455,664.838379 209.449234,660.216064 
	C230.195709,654.442932 250.491531,657.505615 271.177307,663.166077 
	C270.194824,672.553833 269.253418,681.549011 268.256897,691.070740 
	C255.888199,685.921143 243.687531,683.425842 230.935486,683.734131 
	C217.247696,684.065063 207.602188,692.728455 206.375702,705.566772 
	C205.459106,715.161316 210.908569,720.579773 218.477829,724.232239 
	C228.310806,728.977112 238.441666,733.108521 248.473022,737.437561 
	C262.766113,743.605835 275.056641,752.429504 278.968170,768.137268 
	C283.696533,787.125183 282.325836,805.745667 267.315643,820.508850 
	C258.004242,829.667114 245.870728,833.831726 233.221436,835.625732 
	C211.865524,838.654541 197.835999,836.113342 174.313477,829.811768 
	C175.336975,820.070984 176.368546,810.253479 177.362793,800.791138 
	C185.220535,803.450989 192.870392,806.577698 200.802658,808.592712 
	C211.268005,811.251343 221.829178,811.283936 232.110184,807.033020 
	C247.081360,800.842712 249.494766,787.331665 243.852722,778.029480 
	C241.051407,773.410950 235.726395,769.745178 230.761032,767.137817 
	C220.512711,761.756409 209.593460,757.666687 199.230530,752.484985 
	C191.334473,748.536804 184.091782,743.549805 179.036362,735.882812 
	C169.849731,721.950623 170.535110,707.060364 174.315125,691.391663 
z"/>
<path fill="#040404" opacity="1.000000" stroke="none" 
	d="
M307.409698,749.392090 
	C316.778564,713.561035 349.253723,699.151733 379.437897,702.783508 
	C413.537811,706.886414 434.877594,732.008301 435.851105,766.627136 
	C436.419617,786.843323 431.433594,804.661438 416.841492,819.271362 
	C402.729889,833.400085 385.019836,837.505249 366.068451,836.611328 
	C335.127930,835.151978 313.820801,817.045288 306.778534,786.898743 
	C303.901672,774.583435 304.697144,762.125549 307.409698,749.392090 
M399.702667,749.063049 
	C394.821960,735.625732 385.665955,728.286194 373.120697,727.754578 
	C358.331635,727.127930 348.458038,733.052002 342.520538,746.961609 
	C335.856171,762.574219 338.213318,778.227112 343.865326,793.512756 
	C347.811768,804.185730 358.137115,811.177124 368.724701,811.246582 
	C383.328827,811.342407 392.975098,805.752869 397.788147,793.790405 
	C403.560150,779.444519 403.724121,764.693542 399.702667,749.063049 
z"/>
<path fill="#050505" opacity="1.000000" stroke="none" 
	d="
M720.062927,802.917358 
	C733.674561,815.473633 749.230225,815.258850 765.212341,810.482605 
	C772.926941,808.177002 780.241333,804.532349 788.279663,801.274048 
	C788.279663,809.259033 788.384399,817.609375 788.131958,825.948853 
	C788.103943,826.871948 786.156372,827.985168 784.896667,828.585571 
	C766.996155,837.117310 748.210815,838.500854 728.933044,835.131348 
	C713.864502,832.497620 700.708313,826.370422 691.673706,813.380432 
	C685.060181,803.871521 681.853455,793.091003 680.741516,781.699158 
	C679.051575,764.385498 680.567322,747.572327 688.571289,731.684631 
	C698.210205,712.551941 714.074951,703.427185 734.937988,702.295715 
	C745.303589,701.733521 755.439636,703.204407 765.194946,707.059937 
	C774.562622,710.762268 781.671021,716.939453 786.408081,725.778931 
	C795.360168,742.483643 797.679382,760.582886 797.776001,779.678894 
	C768.685852,779.678894 739.947266,779.678894 710.765930,779.678894 
	C711.201721,788.758362 714.129761,796.240601 720.062927,802.917358 
M725.816040,729.046875 
	C715.304199,735.407715 711.766541,745.369568 710.718872,756.921875 
	C729.955627,756.921875 748.510071,756.921875 767.291870,756.921875 
	C766.907349,753.949646 766.683350,751.303406 766.208679,748.703003 
	C763.835754,735.705200 756.349670,727.276917 744.439880,726.221558 
	C738.584717,725.702637 732.496277,727.816284 725.816040,729.046875 
z"/>
<path fill="#050505" opacity="1.000000" stroke="none" 
	d="
M1128.995728,779.758972 
	C1105.047485,779.758972 1081.598145,779.758972 1058.180298,779.758972 
	C1057.202759,794.593628 1068.809204,808.980408 1084.045166,812.240479 
	C1097.264526,815.069092 1109.758301,812.313416 1121.871216,807.092224 
	C1126.237427,805.210266 1130.462036,803.000061 1135.376343,800.639221 
	C1135.376343,809.087036 1135.503418,817.175476 1135.231201,825.250427 
	C1135.192993,826.384155 1133.391724,827.835632 1132.081665,828.491394 
	C1117.713745,835.685181 1102.306152,837.628235 1086.535645,836.470032 
	C1079.648071,835.964172 1072.703125,834.590942 1066.065796,832.649048 
	C1049.515381,827.806702 1037.777710,817.138611 1032.203735,800.803467 
	C1024.645386,778.652832 1024.707642,756.370239 1034.222412,734.691589 
	C1045.304077,709.442688 1065.690308,700.753052 1091.585083,702.475586 
	C1104.685181,703.346985 1117.140625,706.684021 1126.748779,716.658936 
	C1132.905029,723.050171 1136.350952,730.884460 1139.044922,739.178223 
	C1143.091064,751.634644 1145.543579,769.699707 1144.275513,779.758972 
	C1139.398560,779.758972 1134.446533,779.758972 1128.995728,779.758972 
M1072.141113,729.394958 
	C1062.262451,735.882874 1058.675049,745.567017 1057.714844,757.245544 
	C1075.645142,757.245544 1093.092285,757.249878 1110.539429,757.235596 
	C1111.666870,757.234680 1112.794312,757.091064 1114.310913,756.987183 
	C1113.928223,754.123352 1113.666504,751.516846 1113.221313,748.942139 
	C1110.974121,735.949158 1103.576050,727.364807 1091.673828,726.290833 
	C1085.522095,725.735718 1079.112793,728.035339 1072.141113,729.394958 
z"/>
<path fill="#040404" opacity="1.000000" stroke="none" 
	d="
M926.079163,768.936340 
	C905.780212,749.910278 911.325439,719.134949 936.558350,707.887512 
	C948.489136,702.569458 960.969421,701.469116 973.654663,702.410828 
	C982.532166,703.069885 991.327271,704.838928 1000.642944,706.181946 
	C999.901001,714.790100 999.223389,722.651672 998.516785,730.849670 
	C994.126282,729.634705 989.924561,727.734009 985.611084,727.432617 
	C976.749878,726.813477 967.789185,726.534363 958.953918,727.213745 
	C955.835327,727.453552 952.201721,730.310120 950.130188,732.995605 
	C945.170410,739.425232 947.892944,747.309204 955.790283,750.222595 
	C963.706482,753.142822 971.815125,755.536621 979.791748,758.298767 
	C1006.764282,767.638977 1015.977051,798.085205 998.261597,819.946106 
	C990.523865,829.494385 979.338623,833.307800 967.825378,835.449951 
	C950.171570,838.734619 932.818054,835.867676 915.213623,831.422668 
	C915.874817,822.651428 916.520691,814.083191 917.122009,806.106323 
	C925.497131,808.366821 933.641846,810.937561 941.957825,812.700317 
	C949.572266,814.314331 957.165771,813.364624 964.407288,810.226990 
	C970.026367,807.792542 973.031921,803.498779 973.188049,797.468750 
	C973.337830,791.685974 971.131226,786.894531 965.432556,784.743347 
	C957.862610,781.885803 950.049805,779.663696 942.515442,776.722534 
	C936.990234,774.565674 931.744995,771.691650 926.079163,768.936340 
z"/>
<path fill="#050505" opacity="1.000000" stroke="none" 
	d="
M1187.415283,678.608215 
	C1197.220703,675.326050 1206.656494,672.223083 1216.550903,668.969238 
	C1216.550903,681.094055 1216.550903,692.810608 1216.550903,705.069580 
	C1226.448242,705.069580 1235.997437,705.069580 1245.837158,705.069580 
	C1245.837158,713.163330 1245.837158,720.714844 1245.837158,728.629028 
	C1236.265381,728.629028 1226.835571,728.629028 1217.239136,728.629028 
	C1217.036743,729.542419 1216.786011,730.147644 1216.785400,730.753113 
	C1216.762695,751.069519 1216.602051,771.387573 1216.817017,791.701660 
	C1216.967896,805.972046 1224.044922,812.613098 1237.129761,811.154724 
	C1240.355713,810.795166 1243.488525,809.599121 1247.368652,808.607544 
	C1247.368652,816.846375 1247.368652,825.205627 1247.368652,834.166260 
	C1232.995605,837.435120 1218.158569,839.011230 1203.701904,832.095032 
	C1192.984863,826.967896 1188.087402,817.614380 1186.308472,806.421204 
	C1185.556519,801.689819 1185.308716,796.837830 1185.284424,792.038330 
	C1185.178467,771.100586 1185.238770,750.161987 1185.238770,728.927673 
	C1177.226929,728.927673 1169.618286,728.927673 1161.625000,728.927673 
	C1161.625000,721.084106 1161.625000,713.520996 1161.625000,705.477905 
	C1169.137695,705.477905 1176.871338,705.477905 1185.238892,705.477905 
	C1185.238892,697.763489 1185.138916,690.504822 1185.320801,683.253296 
	C1185.358398,681.751221 1186.443237,680.275391 1187.415283,678.608215 
z"/>
<path fill="#0A77BE" opacity="1.000000" stroke="none" 
	d="
M169.315338,997.999878 
	C169.315445,974.024048 169.315445,950.548157 169.315445,926.334229 
	C178.138458,926.334229 186.732666,926.161377 195.304642,926.520020 
	C196.594086,926.573914 198.154526,928.923279 198.957230,930.527344 
	C211.837997,956.265686 224.611084,982.057861 237.430069,1007.827209 
	C238.188019,1009.350891 239.127228,1010.784546 239.982101,1012.260132 
	C240.372681,1012.134338 240.763260,1012.008545 241.153839,1011.882751 
	C241.153839,983.550476 241.153839,955.218140 241.153839,926.603516 
	C248.498535,926.603516 255.247543,926.603516 262.342438,926.603516 
	C262.342438,964.715027 262.342438,1002.786865 262.342438,1041.645874 
	C253.768936,1041.645874 245.019379,1041.792847 236.287567,1041.466064 
	C235.153610,1041.423584 233.830872,1039.078979 233.067947,1037.562988 
	C220.138565,1011.870300 207.286819,986.138672 194.405960,960.421570 
	C193.636429,958.885071 192.766998,957.398621 190.802551,956.212708 
	C190.802551,984.535095 190.802551,1012.857483 190.802551,1041.428711 
	C183.434464,1041.428711 176.685883,1041.428711 169.315247,1041.428711 
	C169.315247,1027.031982 169.315247,1012.765991 169.315338,997.999878 
z"/>
<path fill="#0977BE" opacity="1.000000" stroke="none" 
	d="
M358.877991,1015.000000 
	C358.877960,1006.858459 358.877960,999.216858 358.877960,991.130310 
	C343.537170,991.130310 328.492798,991.130310 312.833862,991.130310 
	C312.833862,1007.708618 312.833862,1024.422607 312.833862,1041.404785 
	C305.144135,1041.404785 298.061768,1041.404785 290.646606,1041.404785 
	C290.646606,1003.251099 290.646606,965.173706 290.646606,926.706421 
	C297.746918,926.706421 304.948608,926.706421 312.589569,926.706421 
	C312.589569,942.055237 312.589569,957.314880 312.589569,972.942871 
	C328.075958,972.942871 343.133118,972.942871 358.674286,972.942871 
	C358.674286,957.641479 358.674286,942.386719 358.674286,926.727539 
	C366.368622,926.727539 373.602142,926.727539 381.262024,926.727539 
	C381.262024,964.698486 381.262024,1002.889465 381.262024,1041.382324 
	C374.033203,1041.382324 366.794434,1041.382324 358.878021,1041.382324 
	C358.878021,1032.690674 358.878021,1024.095337 358.877991,1015.000000 
z"/>
<path fill="#0575BD" opacity="1.000000" stroke="none" 
	d="
M1013.247437,1040.228638 
	C1006.504883,1041.148560 999.836182,1041.636841 992.630310,1042.164429 
	C992.442139,1038.754150 992.291870,1036.030640 992.115112,1032.827881 
	C988.613159,1035.305176 985.624084,1037.845581 982.264404,1039.722412 
	C967.681091,1047.869629 942.551575,1044.434692 935.093201,1022.259338 
	C929.506958,1005.650208 929.683105,989.558594 936.314819,973.251648 
	C944.796509,952.396118 974.110840,950.717957 987.622375,962.940186 
	C988.576843,963.803589 989.588562,964.603516 991.887390,966.539185 
	C991.887390,957.416687 991.887390,949.598083 991.887390,941.779480 
	C991.887390,933.818726 991.887390,925.858032 991.887390,917.618286 
	C999.085938,917.618286 1005.853149,917.618286 1013.321350,917.618286 
	C1013.321350,958.342163 1013.321350,999.069580 1013.247437,1040.228638 
M982.288330,975.025452 
	C972.676331,968.343018 961.544006,971.005127 957.064819,981.666748 
	C952.172058,993.312744 951.907959,1005.293945 957.274414,1016.970642 
	C959.805542,1022.477966 963.779419,1026.592773 970.272705,1027.334717 
	C977.767151,1028.191040 983.248962,1024.770264 987.079529,1018.764038 
	C993.825745,1008.186340 993.758118,984.981506 982.288330,975.025452 
z"/>
<path fill="#050505" opacity="1.000000" stroke="none" 
	d="
M856.759583,721.976868 
	C856.759583,725.957214 856.759583,729.442444 856.759583,732.927734 
	C865.024292,713.129211 876.714722,698.892029 901.201416,703.057373 
	C901.201416,713.871887 901.201416,724.314941 901.201416,735.010193 
	C898.015564,734.489685 894.980286,733.819275 891.908813,733.521606 
	C876.772949,732.054932 867.555115,737.848267 863.878723,752.627441 
	C861.658325,761.553467 860.582581,770.925293 860.297791,780.137207 
	C859.752869,797.761353 860.139465,815.414246 860.139465,833.406860 
	C849.526550,833.406860 839.152466,833.406860 828.507568,833.406860 
	C828.507568,790.856018 828.507568,748.321167 828.507568,705.513062 
	C837.819763,705.513062 847.043518,705.513062 856.759583,705.513062 
	C856.759583,710.919800 856.759583,716.200806 856.759583,721.976868 
z"/>
<path fill="#0675BE" opacity="1.000000" stroke="none" 
	d="
M432.424377,963.178772 
	C438.608063,971.035828 448.034424,972.314880 455.884888,976.455505 
	C461.418854,979.374207 467.467896,982.003479 471.886505,986.227112 
	C488.408234,1002.019409 482.741577,1030.118408 461.734711,1039.145264 
	C447.447754,1045.284546 432.894196,1044.532715 418.187012,1041.259399 
	C415.309723,1040.618896 412.440826,1039.940552 409.225220,1039.200806 
	C409.999329,1032.641846 410.730225,1026.449341 411.333557,1021.337463 
	C420.175415,1023.043823 428.624481,1025.275513 437.206726,1026.072144 
	C441.372040,1026.458740 445.979431,1024.624390 450.037506,1022.949524 
	C454.604126,1021.064697 457.078918,1017.259155 457.390350,1012.015015 
	C457.736145,1006.192261 455.531342,1001.802917 450.517792,999.221863 
	C444.321533,996.031982 437.802155,993.476440 431.523010,990.438843 
	C424.030975,986.814636 416.633453,983.114075 411.858948,975.689697 
	C403.169891,962.178040 406.773041,934.858032 428.379700,927.665466 
	C443.819946,922.525574 458.675201,924.104614 474.169861,928.261169 
	C473.515625,934.442139 472.916077,940.106567 472.399994,944.982483 
	C463.724548,943.834229 455.583954,942.004822 447.412109,941.852417 
	C435.318756,941.626892 428.590515,951.489014 432.424377,963.178772 
z"/>
<path fill="#0675BE" opacity="1.000000" stroke="none" 
	d="
M1283.756836,1043.664551 
	C1272.422974,1043.820435 1262.055420,1041.987549 1253.252197,1035.094727 
	C1242.152100,1026.403442 1237.285767,1014.629028 1237.143799,1000.766357 
	C1236.965820,983.379089 1242.772339,968.871826 1258.951904,960.674377 
	C1276.284302,951.892822 1293.821411,952.830933 1309.161255,964.798767 
	C1324.422729,976.705383 1327.241943,993.788574 1323.211426,1011.767639 
	C1319.368408,1028.910522 1307.193604,1041.593506 1283.756836,1043.664551 
M1294.212524,1022.800720 
	C1304.093750,1011.130737 1304.095093,997.867371 1299.708496,984.325623 
	C1297.125122,976.351013 1290.969360,972.073242 1282.368286,971.654846 
	C1273.244385,971.211121 1266.772705,974.996948 1262.696167,983.234070 
	C1258.185425,992.348755 1259.095459,1001.661499 1261.476807,1010.959900 
	C1265.499512,1026.668335 1280.191895,1032.200684 1294.212524,1022.800720 
z"/>
<path fill="#0675BE" opacity="1.000000" stroke="none" 
	d="
M633.397766,973.415527 
	C651.354614,947.837830 692.000183,950.673340 706.497925,973.677612 
	C718.764160,993.140869 716.853577,1025.939331 691.935974,1038.520264 
	C667.778748,1050.717163 632.576721,1042.863647 626.761841,1008.203430 
	C624.748901,996.205383 626.206970,984.305237 633.397766,973.415527 
M687.720276,982.039856 
	C683.897156,974.517761 677.559143,971.529419 669.361206,971.645081 
	C661.419250,971.757080 655.735413,975.410950 652.155396,982.353516 
	C646.453674,993.410583 647.760925,1004.678650 652.192322,1015.600464 
	C655.496765,1023.744751 662.002869,1027.804443 671.116577,1027.368774 
	C679.757874,1026.955444 685.780884,1022.661499 688.527710,1014.777405 
	C692.218445,1004.184021 692.877747,993.343811 687.720276,982.039856 
z"/>
<path fill="#0776BE" opacity="1.000000" stroke="none" 
	d="
M1684.711426,1019.525024 
	C1689.505127,1012.348572 1689.746948,1004.489807 1689.846069,996.671326 
	C1689.989746,985.351135 1689.883057,974.027771 1689.883179,962.705750 
	C1689.883179,961.086060 1689.883179,959.466370 1689.883179,957.588013 
	C1697.153809,957.588013 1703.917847,957.588013 1711.022217,957.588013 
	C1711.022217,985.526001 1711.022217,1013.388489 1711.022217,1041.463013 
	C1704.484985,1041.463013 1698.222046,1041.463013 1691.361816,1041.463013 
	C1691.361816,1037.939941 1691.361816,1034.560059 1691.361816,1030.067505 
	C1689.532593,1031.606445 1688.550293,1032.327881 1687.689331,1033.173096 
	C1677.954834,1042.729248 1666.427124,1045.696289 1653.300049,1042.354248 
	C1645.378906,1040.337769 1640.504639,1034.684448 1637.653442,1027.462402 
	C1635.969116,1023.195618 1634.603882,1018.492126 1634.519897,1013.958557 
	C1634.174561,995.332703 1634.375488,976.696716 1634.375488,957.695435 
	C1641.452881,957.695435 1648.316040,957.695435 1655.674561,957.695435 
	C1655.674561,966.619995 1655.550537,975.403137 1655.708618,984.181213 
	C1655.876099,993.484009 1656.211304,1002.786865 1656.663696,1012.080444 
	C1656.989624,1018.779358 1659.088135,1024.612305 1666.239746,1026.872803 
	C1672.868408,1028.967896 1679.841553,1026.150879 1684.711426,1019.525024 
z"/>
<path fill="#0776BE" opacity="1.000000" stroke="none" 
	d="
M753.411926,957.434082 
	C754.125916,959.256409 754.603577,960.992432 754.643127,962.738403 
	C755.016846,979.209778 755.127991,995.689575 755.714111,1012.152710 
	C756.016357,1020.645508 759.803162,1025.658203 765.794006,1027.070435 
	C773.014465,1028.772827 780.199036,1025.378662 784.386719,1018.495544 
	C788.576111,1011.609863 788.759155,1003.938293 788.844116,996.293335 
	C788.986206,983.496338 788.882996,970.696533 788.882996,957.614075 
	C796.084900,957.614075 802.856628,957.614075 809.995850,957.614075 
	C809.995850,985.490906 809.995850,1013.367249 809.995850,1041.459473 
	C803.486694,1041.459473 797.220642,1041.459473 790.352478,1041.459473 
	C790.352478,1037.935059 790.352478,1034.561401 790.352478,1030.064453 
	C788.521973,1031.611206 787.540649,1032.338867 786.676575,1033.186157 
	C776.927612,1042.744995 765.388306,1045.706665 752.254517,1042.339233 
	C744.331299,1040.307739 739.507935,1034.623291 736.619507,1027.404541 
	C735.035522,1023.446045 733.708862,1019.078491 733.639221,1014.872620 
	C733.325195,995.912476 733.502136,976.944153 733.502136,957.352356 
	C740.100281,957.352356 746.536316,957.352356 753.411926,957.434082 
z"/>
<path fill="#0675BE" opacity="1.000000" stroke="none" 
	d="
M1414.023926,963.985474 
	C1419.160645,970.182129 1421.094849,977.310486 1421.225952,984.668823 
	C1421.552368,1002.987915 1421.333496,1021.316711 1421.315308,1039.641602 
	C1421.314819,1040.113892 1421.100830,1040.585938 1420.914307,1041.355469 
	C1414.169312,1041.355469 1407.429443,1041.355469 1400.117798,1041.355469 
	C1400.040894,1039.639771 1399.903931,1037.892944 1399.893433,1036.145386 
	C1399.798584,1020.322266 1399.734253,1004.498962 1399.632812,988.675903 
	C1399.623291,987.182678 1399.572266,985.660461 1399.281250,984.203369 
	C1398.157593,978.575439 1396.084595,973.275208 1389.829468,971.979370 
	C1383.365356,970.640320 1377.210693,971.716919 1372.731812,977.384033 
	C1367.497681,984.006653 1366.187378,991.804565 1366.138428,999.911255 
	C1366.055908,1013.559753 1366.115845,1027.209106 1366.115845,1041.264771 
	C1358.962280,1041.264771 1352.062256,1041.264771 1344.741821,1041.264771 
	C1344.741821,1013.627380 1344.741821,985.771240 1344.741821,957.619873 
	C1351.160889,957.619873 1357.574341,957.619873 1364.602051,957.619873 
	C1364.602051,961.007324 1364.602051,964.386108 1364.602051,968.721619 
	C1380.398804,954.246033 1396.281860,949.138062 1414.023926,963.985474 
z"/>
<path fill="#0675BE" opacity="1.000000" stroke="none" 
	d="
M890.876099,992.421570 
	C890.686951,989.470459 890.696045,986.949768 890.281433,984.500854 
	C889.325134,978.852661 887.265320,973.857971 881.133484,971.986938 
	C874.876221,970.077637 867.591187,972.445923 863.619446,977.533386 
	C858.427917,984.183044 857.174805,991.984680 857.134460,1000.087219 
	C857.066467,1013.727478 857.115845,1027.368408 857.115845,1041.339844 
	C849.886841,1041.339844 842.969788,1041.339844 835.687500,1041.339844 
	C835.687500,1013.535645 835.687500,985.686279 835.687500,957.581177 
	C842.239502,957.581177 848.651245,957.581177 855.682983,957.581177 
	C855.682983,961.074707 855.682983,964.443665 855.682983,967.812622 
	C856.280701,968.213501 856.878479,968.614441 857.476196,969.015381 
	C858.824036,967.211792 859.949951,965.175903 861.555603,963.642212 
	C872.249878,953.427063 891.685730,952.318665 902.415161,961.316162 
	C909.277771,967.070862 911.888062,975.125732 912.095764,983.513062 
	C912.569275,1002.627258 912.245239,1021.761292 912.245239,1041.279541 
	C905.161926,1041.279541 898.303345,1041.279541 890.881897,1041.279541 
	C890.881897,1025.084473 890.881897,1008.984497 890.876099,992.421570 
z"/>
<path fill="#0776BE" opacity="1.000000" stroke="none" 
	d="
M1107.362549,1005.002808 
	C1107.362305,1017.419250 1107.362305,1029.336182 1107.362305,1041.677612 
	C1106.885986,1041.677612 1105.757202,1041.679688 1104.628418,1041.677368 
	C1100.298462,1041.668579 1095.261108,1042.994507 1091.874634,1041.202271 
	C1089.411133,1039.898438 1089.128418,1034.474365 1087.779297,1030.618408 
	C1085.105713,1033.078857 1082.556885,1035.847168 1079.599243,1038.071899 
	C1067.975220,1046.815552 1048.682007,1044.911865 1038.881592,1034.219604 
	C1027.711914,1022.033447 1032.779297,999.233154 1048.508179,993.797424 
	C1056.211426,991.135254 1064.664917,990.475647 1072.845093,989.427185 
	C1077.399902,988.843384 1082.090820,989.322388 1086.619019,989.322388 
	C1088.704346,978.436584 1082.886353,971.277527 1071.942017,970.679504 
	C1062.540527,970.165771 1053.792480,972.174194 1045.857666,977.374207 
	C1045.064087,977.894226 1044.226685,978.347351 1043.153931,978.983154 
	C1042.967529,977.671448 1042.767700,976.700317 1042.699585,975.720093 
	C1041.638672,960.467590 1041.617554,960.354370 1056.621704,957.010193 
	C1066.285156,954.856201 1076.044800,954.224426 1085.732178,957.039307 
	C1098.128662,960.641418 1105.490112,969.232483 1106.600342,982.072510 
	C1107.243896,989.515808 1107.133789,997.024170 1107.362549,1005.002808 
M1054.499878,1011.617432 
	C1051.636353,1021.973450 1056.294678,1028.283203 1066.836548,1028.327881 
	C1080.231201,1028.384644 1089.288940,1016.455627 1086.716675,1001.701111 
	C1081.501343,1001.701111 1076.174438,1001.282043 1070.942261,1001.807373 
	C1064.414062,1002.462952 1058.124512,1004.177795 1054.499878,1011.617432 
z"/>
<path fill="#0B78BF" opacity="1.000000" stroke="none" 
	d="
M552.487915,1041.674316 
	C551.461731,1040.505737 550.386047,1039.350098 550.383484,1038.192261 
	C550.301636,1001.565735 550.322693,964.939026 550.343506,928.312317 
	C550.343750,927.841858 550.539673,927.371460 550.707947,926.614136 
	C571.425415,926.614136 592.131470,926.614136 613.107361,926.614136 
	C613.107361,932.193237 613.107361,937.614197 613.107361,943.577454 
	C599.775574,943.577454 586.558167,943.577454 573.020691,943.577454 
	C573.020691,953.654541 573.020691,963.194336 573.020691,973.161133 
	C585.779968,973.161133 598.366577,973.161133 611.318481,973.161133 
	C611.318481,979.110596 611.318481,984.643616 611.318481,990.605591 
	C598.604431,990.605591 586.018677,990.605591 572.842346,990.605591 
	C572.842346,1007.718262 572.842346,1024.421631 572.842346,1041.686157 
	C565.816406,1041.686157 559.377563,1041.686157 552.487915,1041.674316 
z"/>
<path fill="#0B78BF" opacity="1.000000" stroke="none" 
	d="
M1537.689331,1002.000122 
	C1537.689209,1015.316223 1537.689209,1028.132324 1537.689209,1041.317993 
	C1530.219482,1041.317993 1523.016846,1041.317993 1515.374512,1041.317993 
	C1515.374512,1008.918701 1515.374512,976.662476 1515.374512,943.795044 
	C1504.241455,943.795044 1493.524292,943.795044 1482.564697,943.795044 
	C1482.564697,937.764832 1482.564697,932.346924 1482.564697,926.618958 
	C1511.760498,926.618958 1540.811401,926.618958 1570.119629,926.618958 
	C1570.119629,932.231689 1570.119629,937.656799 1570.119629,943.634277 
	C1559.395752,943.634277 1548.834839,943.634277 1537.689453,943.634277 
	C1537.689453,963.286255 1537.689453,982.393188 1537.689331,1002.000122 
z"/>
<path fill="#0776BE" opacity="1.000000" stroke="none" 
	d="
M1779.099609,994.817017 
	C1790.970215,1003.749023 1794.198242,1014.761841 1788.786011,1027.223755 
	C1784.428223,1037.258057 1775.378906,1040.525024 1765.773926,1042.620850 
	C1753.954834,1045.199707 1742.383789,1043.083984 1730.385986,1040.100220 
	C1730.795288,1034.609131 1731.195068,1029.247070 1731.549316,1024.494507 
	C1739.140381,1025.793335 1746.494629,1027.428955 1753.937256,1028.143799 
	C1757.017212,1028.439697 1760.385498,1027.034180 1763.444214,1025.914795 
	C1767.089966,1024.580566 1768.796753,1021.557495 1768.763428,1017.695801 
	C1768.728882,1013.691528 1767.084961,1010.443970 1763.226074,1009.019958 
	C1757.795898,1007.015869 1752.190552,1005.490662 1746.731445,1003.559265 
	C1729.722778,997.541870 1723.745728,979.241699 1734.835449,966.037231 
	C1741.173828,958.490112 1750.310059,955.640198 1759.832397,955.486572 
	C1767.573486,955.361572 1775.336060,956.694519 1783.092407,957.340332 
	C1786.076538,957.588806 1787.045654,959.205872 1786.694580,962.035461 
	C1786.226074,965.810913 1785.892700,969.603210 1785.552246,972.896057 
	C1778.266357,972.137817 1771.264893,971.211426 1764.233032,970.788086 
	C1761.873291,970.645935 1759.296753,971.459167 1757.067627,972.414917 
	C1753.739624,973.841797 1752.047974,976.655396 1752.146240,980.372803 
	C1752.243286,984.042419 1754.403809,986.121338 1757.649658,987.265015 
	C1764.684082,989.743591 1771.732544,992.182617 1779.099609,994.817017 
z"/>
<path fill="#0A78BF" opacity="1.000000" stroke="none" 
	d="
M1159.687744,993.000244 
	C1159.687744,999.664612 1159.666016,1005.829224 1159.692383,1011.993530 
	C1159.749023,1025.178223 1165.298218,1029.510254 1177.979980,1026.303589 
	C1178.592773,1026.148560 1179.212646,1026.021973 1180.680542,1025.689209 
	C1180.680542,1030.498169 1180.878174,1034.948853 1180.545776,1039.359619 
	C1180.459351,1040.506104 1178.736084,1042.440796 1177.732910,1042.461426 
	C1170.157471,1042.616943 1162.365479,1043.453857 1155.042725,1042.022705 
	C1144.208130,1039.905151 1138.382568,1030.560547 1138.327393,1017.930908 
	C1138.262695,1003.118835 1138.312256,988.306274 1138.312256,972.881775 
	C1133.002686,972.881775 1127.947266,972.881775 1122.610107,972.881775 
	C1122.610107,967.524048 1122.610107,962.772278 1122.610107,957.403992 
	C1127.653442,957.403992 1132.708252,957.403992 1138.131958,957.403992 
	C1138.131958,951.364990 1138.131958,945.921082 1138.131958,940.237610 
	C1145.280273,937.911072 1152.150391,935.675049 1159.533447,933.272034 
	C1159.533447,941.314880 1159.533447,948.899780 1159.533447,957.094360 
	C1166.299805,957.094360 1172.692505,957.094360 1179.377441,957.094360 
	C1179.377441,962.451172 1179.377441,967.202454 1179.377441,972.571411 
	C1173.043091,972.571411 1166.652344,972.571411 1159.687866,972.571411 
	C1159.687866,979.616272 1159.687866,986.058350 1159.687744,993.000244 
z"/>
<path fill="#0A78BF" opacity="1.000000" stroke="none" 
	d="
M1838.687744,946.011230 
	C1838.687622,949.827881 1838.687622,953.149414 1838.687622,957.083008 
	C1845.287720,957.083008 1851.680542,957.083008 1858.371826,957.083008 
	C1858.371826,962.439819 1858.371826,967.190979 1858.371826,972.560669 
	C1852.054199,972.560669 1845.663940,972.560669 1838.687988,972.560669 
	C1838.687988,984.602905 1838.649414,996.042114 1838.712036,1007.480896 
	C1838.730225,1010.796143 1838.636597,1014.191528 1839.291260,1017.408386 
	C1841.042725,1026.013916 1845.488647,1028.793335 1854.078491,1027.083862 
	C1855.671631,1026.766724 1857.225586,1026.252563 1859.680664,1025.591675 
	C1859.680664,1030.489990 1859.877930,1034.938354 1859.546387,1039.346802 
	C1859.459961,1040.496704 1857.744873,1042.438599 1856.745361,1042.459473 
	C1849.169678,1042.617554 1841.377563,1043.455933 1834.053711,1042.027222 
	C1823.217041,1039.913330 1817.383545,1030.566895 1817.327759,1017.942017 
	C1817.262329,1003.128601 1817.312256,988.314697 1817.312256,972.888611 
	C1812.010498,972.888611 1806.956543,972.888611 1801.613525,972.888611 
	C1801.613525,967.532471 1801.613525,962.780701 1801.613525,957.410278 
	C1806.647339,957.410278 1811.701782,957.410278 1817.126831,957.410278 
	C1817.126831,951.371460 1817.126831,945.927795 1817.126831,940.242004 
	C1824.274780,937.913940 1831.144409,935.676514 1838.687866,933.219604 
	C1838.687866,937.650513 1838.687866,941.583313 1838.687744,946.011230 
z"/>
<path fill="#0977BE" opacity="1.000000" stroke="none" 
	d="
M1569.317627,965.105835 
	C1569.317627,962.464355 1569.317627,960.305420 1569.317627,957.732300 
	C1575.694092,957.732300 1581.890015,957.732300 1588.704590,957.732300 
	C1588.704590,963.066711 1588.704590,968.419800 1588.704590,973.380493 
	C1592.745972,968.594116 1596.276001,963.453918 1600.760254,959.358521 
	C1605.744873,954.806030 1612.155762,954.496033 1619.121826,956.089050 
	C1619.121826,959.487976 1619.121704,962.783752 1619.121704,966.079529 
	C1619.121704,969.229614 1619.121826,972.379700 1619.121826,975.859863 
	C1615.356689,975.691040 1611.822632,975.430664 1608.286255,975.397217 
	C1602.574341,975.343384 1598.585205,978.155701 1595.794067,983.039978 
	C1591.017578,991.398132 1591.355103,1000.639404 1591.171021,1009.742126 
	C1590.959717,1020.193481 1591.121948,1030.652344 1591.121948,1041.392334 
	C1583.777344,1041.392334 1576.865479,1041.392334 1569.317505,1041.392334 
	C1569.317505,1016.066772 1569.317505,990.827576 1569.317627,965.105835 
z"/>
<path fill="#0776BE" opacity="1.000000" stroke="none" 
	d="
M1218.118774,1019.999939 
	C1218.118774,1027.315063 1218.118774,1034.130249 1218.118774,1041.309814 
	C1210.922363,1041.309814 1204.012939,1041.309814 1196.710327,1041.309814 
	C1196.710327,1013.592468 1196.710327,985.741150 1196.710327,957.605225 
	C1203.670654,957.605225 1210.574219,957.605225 1218.118774,957.605225 
	C1218.118774,978.335083 1218.118774,998.917542 1218.118774,1019.999939 
z"/>
<path fill="#0B78BF" opacity="1.000000" stroke="none" 
	d="
M1196.310547,929.051025 
	C1196.310669,926.079346 1196.310669,923.590515 1196.310669,920.706543 
	C1203.556030,920.706543 1210.584839,920.706543 1217.873169,920.706543 
	C1217.873169,927.261108 1217.873169,933.678284 1217.873169,940.393250 
	C1210.792114,940.393250 1203.877441,940.393250 1196.310547,940.393250 
	C1196.310547,936.742859 1196.310547,933.138367 1196.310547,929.051025 
z"/>
<path fill="#FEFEFF" opacity="1.000000" stroke="none" 
	d="
M428.688171,276.692505 
	C431.663849,261.968170 434.543030,247.654541 437.462677,233.139740 
	C461.364899,233.139740 484.962524,233.139740 509.379486,233.139740 
	C489.169159,328.033691 469.002594,422.721985 448.811035,517.527893 
	C447.436768,517.630859 446.294403,517.790649 445.152008,517.791199 
	C416.155762,517.805054 387.159027,517.721191 358.163940,517.904663 
	C354.542786,517.927551 353.354950,516.574280 352.407684,513.438782 
	C334.001678,452.515228 315.504272,391.619263 297.008331,330.722900 
	C295.958679,327.267029 294.760712,323.856201 292.591370,320.298279 
	C279.327454,385.994659 266.063538,451.691071 252.760956,517.579102 
	C229.030548,517.579102 205.412247,517.579102 180.835205,517.579102 
	C201.243744,422.619904 221.602798,327.890869 242.025360,232.866425 
	C248.540268,232.866425 254.680557,232.866425 260.820862,232.866425 
	C284.817749,232.866440 308.815247,232.953842 332.810791,232.773865 
	C336.480927,232.746338 337.898590,233.893005 338.924042,237.374466 
	C357.281555,299.699890 375.780975,361.983551 394.266174,424.271301 
	C394.868530,426.300995 395.642273,428.279816 397.318207,430.325134 
	C407.742706,379.251160 418.167175,328.177185 428.688171,276.692505 
z"/>
<path fill="#FEFFFF" opacity="1.000000" stroke="none" 
	d="
M496.255493,433.327515 
	C510.264923,366.368988 524.174805,299.819824 538.122070,233.092133 
	C563.409119,233.092133 588.514709,233.092133 614.450928,233.092133 
	C606.977234,269.350433 599.555847,305.354828 592.074646,341.649597 
	C622.461670,341.649597 652.419189,341.649597 683.059937,341.649597 
	C684.649048,334.268005 686.324158,326.713745 687.897339,319.138336 
	C693.610413,291.628784 699.326477,264.119751 704.918335,236.585495 
	C705.422668,234.102295 705.987366,232.797043 708.894409,232.810760 
	C732.720093,232.923187 756.546326,232.886856 780.372437,232.915863 
	C780.829895,232.916428 781.287048,233.162643 781.978027,233.361481 
	C762.223816,327.964752 742.482727,422.505402 722.665771,517.409424 
	C697.402954,517.409424 672.196533,517.409424 646.321533,517.409424 
	C654.744934,476.904968 663.122620,436.620087 671.623230,395.744324 
	C669.485168,395.604736 667.908325,395.413147 666.331421,395.412079 
	C639.339294,395.393707 612.346863,395.464966 585.355530,395.320648 
	C581.717957,395.301208 580.276428,396.219208 579.503174,400.009857 
	C571.825806,437.643341 563.903625,475.226868 556.037598,512.821777 
	C555.703918,514.416809 555.241394,515.984802 554.819763,517.640869 
	C529.558472,517.640869 504.599457,517.640869 478.730713,517.640869 
	C484.580078,489.475769 490.368042,461.606323 496.255493,433.327515 
z"/>
<path fill="#FEFEFF" opacity="1.000000" stroke="none" 
	d="
M954.734375,370.249359 
	C981.497986,393.354004 981.478210,432.928558 970.406372,460.610168 
	C960.249268,486.005035 940.154236,500.794373 915.454468,510.235657 
	C893.758728,518.528748 871.080933,521.495911 848.030762,522.406982 
	C815.236206,523.703247 783.464294,517.836670 752.122986,508.882233 
	C751.175293,508.611481 750.270996,508.189117 748.985291,507.700073 
	C754.876038,488.778961 760.725952,469.989166 766.737610,450.679626 
	C769.367310,451.939514 771.628967,453.181244 774.005432,454.137695 
	C805.071777,466.640930 837.058044,470.316132 869.798828,462.691620 
	C876.822021,461.056061 883.975708,457.376434 889.587219,452.815155 
	C902.038940,442.693970 901.910400,424.637268 890.155579,413.732880 
	C881.674622,405.865479 870.903198,402.101501 860.505188,397.668793 
	C848.140015,392.397430 835.523499,387.574554 823.615967,381.400085 
	C797.243286,367.725067 785.445190,345.722504 787.631348,315.934601 
	C790.545105,276.232422 813.715637,248.482346 854.693665,236.101318 
	C881.553284,227.985992 909.053040,227.007599 936.767944,228.406174 
	C954.734741,229.312851 972.629517,230.964996 990.015564,235.985916 
	C994.131287,237.174515 998.136475,238.746002 1002.661133,240.302567 
	C996.463562,259.349426 990.427246,277.900543 984.737427,295.386871 
	C971.071533,292.014252 958.065979,287.917725 944.746826,285.732086 
	C926.268555,282.699890 907.584595,282.886169 889.153015,286.960022 
	C885.620850,287.740784 882.097168,288.991180 878.861328,290.608612 
	C863.395874,298.338959 860.860962,317.491394 874.593689,327.922516 
	C881.880066,333.457153 890.689148,337.096954 899.058044,341.071838 
	C913.001953,347.694611 927.270325,353.641907 941.135071,360.419708 
	C945.984070,362.790161 950.045227,366.772217 954.734375,370.249359 
z"/>
<path fill="#FEFEFE" opacity="1.000000" stroke="none" 
	d="
M399.857910,749.434631 
	C403.724121,764.693542 403.560150,779.444519 397.788147,793.790405 
	C392.975098,805.752869 383.328827,811.342407 368.724701,811.246582 
	C358.137115,811.177124 347.811768,804.185730 343.865326,793.512756 
	C338.213318,778.227112 335.856171,762.574219 342.520538,746.961609 
	C348.458038,733.052002 358.331635,727.127930 373.120697,727.754578 
	C385.665955,728.286194 394.821960,735.625732 399.857910,749.434631 
z"/>
<path fill="#FDFDFD" opacity="1.000000" stroke="none" 
	d="
M726.164673,728.892761 
	C732.496277,727.816284 738.584717,725.702637 744.439880,726.221558 
	C756.349670,727.276917 763.835754,735.705200 766.208679,748.703003 
	C766.683350,751.303406 766.907349,753.949646 767.291870,756.921875 
	C748.510071,756.921875 729.955627,756.921875 710.718872,756.921875 
	C711.766541,745.369568 715.304199,735.407715 726.164673,728.892761 
z"/>
<path fill="#FDFDFD" opacity="1.000000" stroke="none" 
	d="
M1072.480469,729.220032 
	C1079.112793,728.035339 1085.522095,725.735718 1091.673828,726.290833 
	C1103.576050,727.364807 1110.974121,735.949158 1113.221313,748.942139 
	C1113.666504,751.516846 1113.928223,754.123352 1114.310913,756.987183 
	C1112.794312,757.091064 1111.666870,757.234680 1110.539429,757.235596 
	C1093.092285,757.249878 1075.645142,757.245544 1057.714844,757.245544 
	C1058.675049,745.567017 1062.262451,735.882874 1072.480469,729.220032 
z"/>
<path fill="#FDFEFE" opacity="1.000000" stroke="none" 
	d="
M982.568726,975.273132 
	C993.758118,984.981506 993.825745,1008.186340 987.079529,1018.764038 
	C983.248962,1024.770264 977.767151,1028.191040 970.272705,1027.334717 
	C963.779419,1026.592773 959.805542,1022.477966 957.274414,1016.970642 
	C951.907959,1005.293945 952.172058,993.312744 957.064819,981.666748 
	C961.544006,971.005127 972.676331,968.343018 982.568726,975.273132 
z"/>
<path fill="#FDFEFE" opacity="1.000000" stroke="none" 
	d="
M1293.922363,1023.030334 
	C1280.191895,1032.200684 1265.499512,1026.668335 1261.476807,1010.959900 
	C1259.095459,1001.661499 1258.185425,992.348755 1262.696167,983.234070 
	C1266.772705,974.996948 1273.244385,971.211121 1282.368286,971.654846 
	C1290.969360,972.073242 1297.125122,976.351013 1299.708496,984.325623 
	C1304.095093,997.867371 1304.093750,1011.130737 1293.922363,1023.030334 
z"/>
<path fill="#FDFEFE" opacity="1.000000" stroke="none" 
	d="
M687.882935,982.388062 
	C692.877747,993.343811 692.218445,1004.184021 688.527710,1014.777405 
	C685.780884,1022.661499 679.757874,1026.955444 671.116577,1027.368774 
	C662.002869,1027.804443 655.496765,1023.744751 652.192322,1015.600464 
	C647.760925,1004.678650 646.453674,993.410583 652.155396,982.353516 
	C655.735413,975.410950 661.419250,971.757080 669.361206,971.645081 
	C677.559143,971.529419 683.897156,974.517761 687.882935,982.388062 
z"/>
<path fill="#FDFEFE" opacity="1.000000" stroke="none" 
	d="
M1054.674561,1011.254089 
	C1058.124512,1004.177795 1064.414062,1002.462952 1070.942261,1001.807373 
	C1076.174438,1001.282043 1081.501343,1001.701111 1086.716675,1001.701111 
	C1089.288940,1016.455627 1080.231201,1028.384644 1066.836548,1028.327881 
	C1056.294678,1028.283203 1051.636353,1021.973450 1054.674561,1011.254089 
z"/>
</svg>