<svg xmlns="http://www.w3.org/2000/svg" viewBox="0 0 2065 1233" xml:space="preserve"><path fill="#FFF" d="M1548 1234H1V1H2066v1232.999L1548 1234M470.5 552.659h564.888v-353.68H156.701v353.68H470.5m70.738 267.828v13.004h31.524v-5.166c0-20.329-.163-40.66.098-60.985.079-6.104.772-12.326 2.164-18.265 3.979-16.987 16.332-24.726 31.576-20.429 5.67 1.598 9.327 5.256 10.481 10.839 1.136 5.5 2.012 11.159 2.064 16.757.22 23.993.093 47.988.093 71.983v5.18h31.514c0-28.67.097-56.987-.09-85.302-.034-5.106-.85-10.294-1.985-15.289-2.4-10.552-6.092-20.402-16.636-25.857-18.06-9.344-42.9-4.877-56.282 10.313-1.911 2.169-3.502 4.62-5.582 7.397-7.807-15.485-20.314-22.531-36.946-22.41-16.343.118-28.989 7.596-38.638 20.855l-.916-.828v-16.729H463.58v127.832h31.182c0-21.864-.273-43.36.147-64.84.147-7.564 1.288-15.278 3.207-22.6 3.791-14.471 16.796-21.38 30.911-17.263 5.435 1.585 8.944 5.204 10.14 10.584 1.075 4.827 1.934 9.814 1.981 14.74.209 21.826.09 43.655.09 66.479m-366.987-128.7c-3.716 15.273-4.401 30.164 4.785 44.096 5.056 7.667 12.298 12.654 20.195 16.602 10.362 5.182 21.282 9.271 31.53 14.653 4.965 2.607 10.29 6.273 13.092 10.891 5.642 9.303 3.228 22.814-11.743 29.004-10.28 4.25-20.842 4.218-31.307 1.56-7.933-2.015-15.582-5.142-23.44-7.802l-3.05 29.02c23.523 6.302 37.553 8.844 58.908 5.815 12.65-1.794 24.783-5.959 34.095-15.117 15.01-14.763 16.38-33.384 11.652-52.372-3.911-15.707-16.202-24.531-30.495-30.7-10.031-4.328-20.162-8.46-29.995-13.205-7.57-3.652-13.019-9.07-12.102-18.665 1.226-12.839 10.872-21.502 24.56-21.833 12.752-.308 24.952 2.187 37.32 7.337l2.921-27.905c-20.685-5.66-40.981-8.723-61.728-2.95-16.61 4.622-29.51 13.536-35.198 31.572m133.05 58c-2.604 12.338-3.4 24.795-.522 37.11 7.042 30.147 28.349 48.254 59.29 49.713 18.95.894 36.66-3.21 50.772-17.34 14.593-14.61 19.579-32.428 19.01-52.644-.973-34.619-22.313-59.74-56.413-63.843-30.184-3.632-62.66 10.777-72.137 47.004m412.488 52.895c-5.66-6.442-8.587-13.925-9.023-23.004h87.01c-.097-19.096-2.416-37.195-11.368-53.9-4.737-8.84-11.845-15.017-21.213-18.72-9.755-3.855-19.891-5.325-30.257-4.763-20.863 1.131-36.728 10.256-46.367 29.389-8.004 15.887-9.52 32.7-7.83 50.014 1.112 11.392 4.32 22.173 10.933 31.681 9.034 12.99 22.19 19.118 37.259 21.751 19.278 3.37 38.063 1.986 55.964-6.545 1.26-.6 3.207-1.714 3.235-2.637.252-8.34.148-16.69.148-24.675-8.039 3.258-15.353 6.903-23.068 9.209-15.982 4.776-31.537 4.99-45.423-7.8m409.706-22.924h14.78c1.269-10.06-1.184-28.124-5.23-40.58-2.694-8.295-6.14-16.129-12.296-22.52-9.608-9.975-22.064-13.312-35.164-14.183-25.895-1.723-46.28 6.967-57.363 32.216-9.514 21.678-9.577 43.96-2.018 66.111 5.574 16.336 17.311 27.004 33.862 31.846 6.637 1.942 13.582 3.315 20.47 3.821 15.77 1.158 31.178-.785 45.546-7.979 1.31-.655 3.111-2.107 3.15-3.24.271-8.076.144-16.164.144-24.612-4.914 2.361-9.139 4.571-13.505 6.453-12.113 5.221-24.606 7.977-37.826 5.148-15.236-3.26-26.842-17.646-25.865-32.481h71.315m-203.12-10.622c5.37 2.555 10.615 5.429 16.14 7.586 7.535 2.94 15.348 5.163 22.918 8.02 5.698 2.152 7.905 6.943 7.755 12.726-.156 6.03-3.162 10.324-8.78 12.758-7.242 3.138-14.836 4.087-22.45 2.473-8.316-1.762-16.46-4.333-24.836-6.594l-1.908 25.317c17.604 4.445 34.958 7.312 52.611 4.027 11.514-2.142 22.699-5.956 30.437-15.504 17.715-21.86 8.502-52.307-18.47-61.647-7.977-2.762-16.086-5.156-24.002-8.076-7.897-2.914-10.62-10.798-5.66-17.227 2.072-2.686 5.705-5.542 8.824-5.782 8.835-.68 17.796-.4 26.657.219 4.314.301 8.515 2.202 12.906 3.417l2.126-24.668c-9.316-1.343-18.11-3.112-26.988-3.771-12.686-.942-25.166.158-37.097 5.477-25.233 11.247-30.778 42.022-10.183 61.25m260.67-90.35c-.602 1.487-1.687 2.963-1.724 4.465-.182 7.252-.082 14.51-.082 22.225h-23.614v23.45h23.614c0 21.234-.06 42.173.045 63.11.025 4.8.273 9.652 1.024 14.383 1.78 11.193 6.677 20.547 17.394 25.674 14.457 6.916 29.294 5.34 43.667 2.071v-25.558c-3.88.991-7.013 2.187-10.24 2.547-13.084 1.458-20.161-5.183-20.312-19.453-.215-20.314-.054-40.632-.032-60.949.001-.605.252-1.21.454-2.124h28.598v-23.56h-29.286v-36.1c-9.895 3.254-19.33 6.357-29.506 9.818M169.315 998.5v42.929h21.488v-85.216c1.964 1.186 2.833 2.672 3.603 4.209 12.88 25.717 25.733 51.448 38.662 77.141.763 1.516 2.086 3.86 3.22 3.903 8.731.327 17.48.18 26.054.18V926.604h-21.188v85.279l-1.172.377c-.855-1.475-1.794-2.91-2.552-4.433-12.819-25.77-25.592-51.561-38.473-77.3-.802-1.604-2.363-3.953-3.652-4.007-8.572-.359-17.167-.186-25.99-.186V998.5m189.563 17v25.882h22.384V926.728h-22.588v46.215H312.59v-46.237h-21.943v114.699h22.187V991.13h46.044v24.37m654.443 24.297V917.618h-21.434V966.54c-2.298-1.935-3.31-2.735-4.265-3.599-13.511-12.222-42.825-10.544-51.307 10.312-6.632 16.307-6.808 32.398-1.222 49.007 7.459 22.176 32.588 25.61 47.171 17.463 3.36-1.876 6.35-4.417 9.851-6.894l.515 9.336c7.206-.527 13.875-1.015 20.691-2.367M856.76 721.482v-15.969h-28.252v127.894h31.631c0-17.993-.386-35.646.159-53.27.285-9.212 1.36-18.584 3.58-27.51 3.677-14.779 12.895-20.572 28.03-19.105 3.072.297 6.108.968 9.293 1.488v-31.953c-24.486-4.165-36.177 10.072-44.441 29.87v-11.445M432.198 962.865c-3.607-11.376 3.12-21.238 15.214-21.013 8.172.153 16.313 1.982 24.988 3.13l1.77-16.72c-15.495-4.157-30.35-5.736-45.79-.597-21.607 7.193-25.21 34.513-16.521 48.025 4.774 7.424 12.172 11.125 19.664 14.749 6.28 3.037 12.799 5.593 18.995 8.783 5.013 2.58 7.218 6.97 6.872 12.793-.311 5.244-2.786 9.05-7.352 10.935-4.059 1.674-8.666 3.509-12.831 3.122-8.583-.796-17.032-3.028-25.873-4.735l-2.109 17.864c3.216.74 6.085 1.418 8.962 2.058 14.707 3.274 29.26 4.026 43.548-2.114 21.007-9.027 26.673-37.126 10.152-52.918-4.42-4.224-10.468-6.853-16.002-9.771-7.85-4.141-17.277-5.42-23.687-13.591m852.018 80.793c22.978-2.064 35.152-14.747 38.995-31.89 4.03-17.98 1.212-35.063-14.05-46.97-15.34-11.967-32.877-12.905-50.21-4.124-16.179 8.198-21.985 22.705-21.807 40.092.142 13.863 5.008 25.637 16.108 34.329 8.803 6.893 19.171 8.725 30.964 8.563M633.2 973.717c-6.993 10.588-8.451 22.488-6.438 34.486 5.815 34.66 41.017 42.514 65.174 30.317 24.918-12.58 26.828-45.38 14.562-64.842-14.498-23.005-55.143-25.84-73.298.039m1051.291 46.109c-4.65 6.325-11.623 9.142-18.251 7.047-7.152-2.26-9.25-8.094-9.576-14.793a911.3 911.3 0 0 1-.955-27.899c-.158-8.778-.034-17.561-.034-26.486h-21.3c0 19.002-.2 37.638.145 56.264.084 4.533 1.45 9.237 3.133 13.503 2.852 7.222 7.726 12.876 15.647 14.892 13.127 3.342 24.655.375 34.39-9.18.86-.846 1.843-1.568 3.672-3.106v11.395h19.66v-83.875h-21.139v5.118c0 11.322.107 22.645-.037 33.965-.1 7.819-.34 15.678-5.355 23.155m-931.519-62.474h-19.47c0 19.592-.177 38.56.137 57.52.07 4.206 1.397 8.574 2.98 12.533 2.889 7.218 7.712 12.903 15.636 14.934 13.133 3.368 24.673.406 34.422-9.153.864-.847 1.845-1.575 3.675-3.122v11.395h19.644v-83.845h-21.113c0 13.083.103 25.882-.039 38.68-.085 7.644-.268 15.316-4.457 22.202-4.188 6.883-11.373 10.277-18.593 8.574-5.99-1.412-9.778-6.424-10.08-14.917-.586-16.463-.697-32.943-1.07-49.415-.04-1.746-.518-3.482-1.672-5.386m660.827 6.35c-17.517-14.564-33.4-9.456-49.197 5.02V957.62h-19.86v83.645h21.374c0-14.056-.06-27.705.022-41.354.05-8.106 1.36-15.904 6.594-22.527 4.479-5.667 10.633-6.744 17.097-5.405 6.256 1.296 8.329 6.596 9.452 12.224.291 1.457.342 2.98.352 4.473.101 15.823.166 31.646.26 47.47.01 1.747.148 3.494.225 5.21h20.796c.187-.77.4-1.242.401-1.714.018-18.325.237-36.654-.089-54.973-.131-7.359-2.065-14.487-7.427-20.966m-522.917 29.182v48.395h21.363c0-19.519.324-38.653-.15-57.767-.207-8.387-2.817-16.442-9.68-22.197-10.73-8.997-30.165-7.889-40.86 2.326-1.605 1.534-2.731 3.57-4.079 5.373l-1.793-1.202V957.58h-19.995v83.759h21.428c0-13.972-.05-27.613.018-41.253.04-8.102 1.294-15.904 6.485-22.554 3.972-5.087 11.257-7.455 17.514-5.546 6.132 1.871 8.192 6.866 9.148 12.514.415 2.449.406 4.97.6 8.384m216.482 11.618c-.23-7.479-.12-14.987-.763-22.43-1.11-12.84-8.471-21.432-20.868-25.034-9.687-2.815-19.447-2.183-29.11-.029-15.004 3.344-14.983 3.458-13.922 18.71.068.98.268 1.951.454 3.263 1.073-.636 1.91-1.089 2.704-1.609 7.934-5.2 16.683-7.208 26.084-6.694 10.944.598 16.762 7.757 14.677 18.642-4.528 0-9.22-.479-13.774.105-8.18 1.049-16.634 1.708-24.337 4.37-15.729 5.436-20.796 28.236-9.626 40.423 9.8 10.692 29.093 12.596 40.717 3.852 2.958-2.225 5.507-4.993 8.18-7.454 1.35 3.856 1.632 9.28 4.096 10.584 3.386 1.793 8.423.467 12.753.475 1.13.003 2.258 0 2.734 0v-37.174m-554.423 37.183h19.903v-51.08h38.476V973.16h-38.297v-29.584h40.086v-16.963h-62.4c-.167.757-.363 1.228-.363 1.698-.021 36.627-.042 73.254.04 109.88.002 1.158 1.078 2.314 2.555 3.494m984.75-40.186v-57.866h32.43V926.62h-87.554v17.176h32.81v97.523h22.314V1001.5m241.086-6.862c-7.042-2.455-14.09-4.894-21.125-7.373-3.246-1.144-5.407-3.223-5.504-6.892-.098-3.718 1.594-6.531 4.922-7.958 2.229-.956 4.805-1.77 7.165-1.627 7.032.423 14.033 1.35 21.32 2.108.34-3.293.673-7.085 1.142-10.86.35-2.83-.618-4.447-3.603-4.696-7.756-.645-15.519-1.978-23.26-1.853-9.522.153-18.658 3.003-24.997 10.55-11.09 13.205-5.112 31.505 11.896 37.522 5.46 1.932 11.065 3.457 16.495 5.461 3.859 1.424 5.503 4.672 5.537 8.676.034 3.861-1.673 6.885-5.319 8.219-3.059 1.12-6.427 2.525-9.507 2.229-7.442-.715-14.797-2.35-22.388-3.65l-1.163 15.606c11.998 2.984 23.569 5.1 35.388 2.52 9.605-2.095 18.654-5.362 23.012-15.396 5.412-12.462 2.184-23.475-10.01-32.586m-619.088-2.138v-19.929h19.69v-15.477h-19.845v-23.822l-21.401 6.966v17.166h-15.522v15.478h15.702c0 15.424-.05 30.237.015 45.049.056 12.63 5.881 21.974 16.716 24.092 7.322 1.43 15.114.594 22.69.438 1.003-.02 2.726-1.955 2.813-3.101.332-4.411.135-8.862.135-13.67-1.468.332-2.088.459-2.701.614-12.682 3.206-18.231-1.126-18.288-14.31-.026-6.165-.004-12.33-.004-19.494m679-46.984V933.22l-21.561 7.022v17.168h-15.513v15.479h15.698c0 15.426-.05 30.24.016 45.053.056 12.625 5.889 21.971 16.726 24.085 7.324 1.429 15.116.59 22.691.432 1-.02 2.715-1.962 2.801-3.112.332-4.409.135-8.857.135-13.755-2.455.66-4.01 1.175-5.603 1.492-8.59 1.71-13.035-1.07-14.787-9.676-.654-3.216-.56-6.612-.579-9.927-.063-11.439-.024-22.878-.024-34.92h19.684v-15.478h-19.684v-11.567m-269.37 20.072v75.804h21.804c0-10.74-.162-21.199.049-31.65.184-9.103-.153-18.344 4.623-26.702 2.791-4.884 6.78-7.697 12.492-7.643 3.537.034 7.07.294 10.836.463v-19.77c-6.966-1.594-13.377-1.284-18.362 3.269-4.484 4.095-8.014 9.235-12.055 14.021v-15.648h-19.387v7.856m-351.2 53.912v-61.895h-21.408v83.705h21.409v-21.81m-21.808-89.966v10.86h21.562v-19.687h-21.562v8.827z"/><path fill="#0273BC" d="M470 552.658H156.7V198.98h878.688v353.679H470m-41.408-275.556-31.274 153.222c-1.676-2.045-2.45-4.024-3.052-6.054-18.485-62.287-36.984-124.571-55.342-186.897-1.025-3.481-2.443-4.628-6.113-4.6-23.996.18-47.993.092-71.99.092h-18.796l-61.19 284.713h71.926l39.83-197.28c2.17 3.557 3.368 6.968 4.417 10.424 18.496 60.896 36.994 121.792 55.4 182.716.947 3.135 2.135 4.489 5.756 4.466 28.995-.184 57.992-.1 86.988-.114 1.142 0 2.285-.16 3.659-.263l60.568-284.388h-71.916c-2.92 14.515-5.8 28.828-8.871 43.963m67.564 156.634-17.425 83.904h76.089c.421-1.656.884-3.224 1.218-4.82 7.866-37.594 15.788-75.178 23.465-112.811.773-3.79 2.215-4.709 5.853-4.69 26.99.145 53.983.074 80.975.092 1.577.001 3.154.193 5.292.332L646.322 517.41h76.344l59.312-284.048c-.691-.198-1.148-.445-1.606-.445-23.826-.03-47.652.007-71.478-.105-2.907-.014-3.471 1.291-3.976 3.774-5.592 27.535-11.308 55.044-17.02 82.553-1.574 7.576-3.249 15.13-4.838 22.512h-90.985c7.48-36.295 14.902-72.3 22.376-108.558h-76.329c-13.947 66.728-27.857 133.277-41.966 200.645m458.31-63.719c-4.42-3.246-8.482-7.228-13.33-9.598-13.866-6.778-28.134-12.725-42.078-19.348-8.369-3.975-17.178-7.615-24.464-13.15-13.733-10.43-11.198-29.583 4.267-37.313a44.943 44.943 0 0 1 10.292-3.649c18.432-4.074 37.116-4.26 55.594-1.228 13.319 2.186 26.325 6.282 39.99 9.655l17.924-55.084c-4.525-1.557-8.53-3.128-12.645-4.317-17.386-5.021-35.281-6.673-53.248-7.58-27.715-1.398-55.215-.42-82.074 7.695-40.978 12.381-64.149 40.131-67.063 79.834-2.186 29.788 9.612 51.79 35.985 65.465 11.907 6.175 24.524 10.997 36.89 16.269 10.397 4.433 21.169 8.196 29.65 16.064 11.754 10.904 11.883 28.961-.569 39.082-5.611 4.561-12.765 8.241-19.788 9.877-32.741 7.624-64.727 3.949-95.794-8.554-2.376-.957-4.638-2.198-7.267-3.458l-17.753 57.02c1.286.49 2.19.911 3.138 1.182 31.341 8.955 63.113 14.821 95.908 13.525 23.05-.911 45.728-3.878 67.423-12.171 24.7-9.442 44.795-24.231 54.952-49.626 11.072-27.681 11.092-67.256-15.94-90.592z"/><path fill="#050505" d="M541.238 819.99c0-22.327.119-44.156-.09-65.983-.047-4.925-.906-9.912-1.98-14.74-1.197-5.38-4.706-8.998-10.141-10.583-14.115-4.117-27.12 2.792-30.911 17.262-1.92 7.323-3.06 15.037-3.207 22.6-.42 21.482-.147 42.977-.147 64.84H463.58v-127.83h30.097v16.728l.916.828c9.65-13.259 22.295-20.737 38.638-20.855 16.632-.121 29.139 6.925 36.946 22.41 2.08-2.776 3.67-5.228 5.582-7.397 13.383-15.19 38.223-19.657 56.282-10.313 10.544 5.455 14.237 15.305 16.636 25.857 1.136 4.995 1.951 10.183 1.985 15.29.187 28.314.09 56.63.09 85.302h-31.514v-5.181c0-23.995.127-47.99-.093-71.983-.052-5.598-.928-11.258-2.064-16.757-1.154-5.583-4.81-9.24-10.48-10.839-15.245-4.297-27.598 3.442-31.577 20.43-1.392 5.938-2.085 12.16-2.164 18.264-.26 20.326-.098 40.656-.098 60.985v5.166h-31.524v-13.502z"/><path fill="#040404" d="M174.315 691.392c5.624-17.64 18.523-26.554 35.134-31.176 20.747-5.773 41.043-2.71 61.728 2.95l-2.92 27.905c-12.369-5.15-24.57-7.645-37.322-7.337-13.687.331-23.333 8.994-24.56 21.833-.916 9.594 4.534 15.013 12.103 18.665 9.833 4.745 19.964 8.877 29.995 13.206 14.293 6.168 26.584 14.992 30.495 30.7 4.729 18.987 3.358 37.608-11.652 52.37-9.312 9.16-21.445 13.324-34.095 15.118-21.355 3.029-35.385.487-58.908-5.814l3.05-29.02c7.858 2.659 15.507 5.786 23.44 7.8 10.465 2.66 21.026 2.692 31.307-1.559 14.971-6.19 17.385-19.701 11.743-29.004-2.802-4.618-8.127-8.284-13.092-10.891-10.248-5.382-21.168-9.471-31.53-14.653-7.897-3.948-15.14-8.935-20.195-16.602-9.186-13.932-8.5-28.823-4.72-44.491zM307.41 749.392c9.369-35.831 41.844-50.24 72.028-46.608 34.1 4.102 55.44 29.224 56.413 63.843.569 20.216-4.417 38.034-19.01 52.644-14.111 14.13-31.821 18.234-50.773 17.34-30.94-1.459-52.247-19.566-59.29-49.712-2.876-12.316-2.08-24.773.632-37.507m92.293-.329c-4.881-13.437-14.037-20.777-26.582-21.308-14.79-.627-24.663 5.297-30.6 19.207-6.665 15.612-4.308 31.265 1.344 46.55 3.947 10.674 14.272 17.665 24.86 17.735 14.604.095 24.25-5.494 29.063-17.457 5.772-14.345 5.936-29.096 1.915-44.727z"/><path fill="#050505" d="M720.063 802.917c13.612 12.557 29.167 12.342 45.15 7.566 7.714-2.306 15.028-5.95 23.067-9.209 0 7.985.104 16.335-.148 24.675-.028.923-1.976 2.036-3.235 2.637-17.9 8.531-36.686 9.915-55.964 6.545-15.068-2.633-28.225-8.76-37.26-21.75-6.613-9.51-9.82-20.29-10.931-31.682-1.69-17.314-.175-34.127 7.83-50.014 9.638-19.133 25.503-28.258 46.366-29.39 10.366-.561 20.502.91 30.257 4.765 9.368 3.702 16.476 9.88 21.213 18.719 8.952 16.705 11.271 34.804 11.368 53.9h-87.01c.436 9.08 3.364 16.562 9.297 23.238m5.753-73.87c-10.512 6.36-14.05 16.323-15.097 27.875h56.573c-.385-2.972-.609-5.619-1.083-8.219-2.373-12.998-9.86-21.426-21.77-22.481-5.854-.52-11.943 1.594-18.623 2.825zM1128.996 779.759h-70.816c-.977 14.835 10.63 29.221 25.865 32.481 13.22 2.83 25.713.073 37.826-5.148 4.366-1.882 8.591-4.092 13.505-6.453 0 8.448.127 16.536-.145 24.611-.038 1.134-1.84 2.586-3.15 3.241-14.367 7.194-29.775 9.137-45.545 7.979-6.888-.506-13.833-1.88-20.47-3.821-16.55-4.842-28.288-15.51-33.862-31.846-7.559-22.15-7.496-44.433 2.018-66.111 11.082-25.25 31.468-33.939 57.363-32.216 13.1.871 25.556 4.208 35.164 14.183 6.156 6.391 9.602 14.225 12.296 22.52 4.046 12.456 6.499 30.52 5.23 40.58h-15.28m-56.854-50.364c-9.879 6.488-13.466 16.172-14.426 27.85 17.93 0 35.377.005 52.824-.01 1.128 0 2.255-.144 3.772-.248-.383-2.864-.644-5.47-1.09-8.045-2.247-12.993-9.645-21.577-21.547-22.651-6.152-.555-12.561 1.744-19.533 3.104z"/><path fill="#040404" d="M926.08 768.936c-20.3-19.026-14.755-49.801 10.478-61.048 11.931-5.319 24.411-6.419 37.097-5.477 8.877.659 17.672 2.428 26.988 3.77l-2.126 24.669c-4.39-1.215-8.592-3.116-12.906-3.417-8.861-.62-17.822-.899-26.657-.22-3.119.24-6.752 3.097-8.824 5.783-4.96 6.43-2.237 14.313 5.66 17.227 7.916 2.92 16.025 5.314 24.002 8.076 26.972 9.34 36.185 39.786 18.47 61.647-7.738 9.548-18.923 13.362-30.437 15.504-17.653 3.285-35.007.418-52.611-4.027.66-8.772 1.307-17.34 1.908-25.317 8.375 2.26 16.52 4.832 24.836 6.594 7.614 1.614 15.208.665 22.45-2.473 5.618-2.434 8.624-6.728 8.78-12.758.15-5.783-2.057-10.574-7.755-12.726-7.57-2.857-15.383-5.08-22.918-8.02-5.525-2.157-10.77-5.031-16.436-7.787z"/><path fill="#050505" d="M1187.415 678.608c9.806-3.282 19.241-6.385 29.136-9.639v36.1h29.286v23.56h-28.598c-.202.913-.453 1.519-.454 2.124-.022 20.317-.183 40.635.032 60.949.15 14.27 7.228 20.911 20.313 19.453 3.226-.36 6.359-1.556 10.239-2.547v25.558c-14.373 3.27-29.21 4.845-43.667-2.071-10.717-5.127-15.615-14.48-17.394-25.674-.751-4.731-1-9.583-1.024-14.383-.106-20.937-.045-41.876-.045-63.11h-23.614v-23.45h23.614c0-7.715-.1-14.973.082-22.225.037-1.502 1.122-2.978 2.094-4.645z"/><path fill="#0A77BE" d="M169.315 998v-71.666c8.823 0 17.418-.173 25.99.186 1.29.054 2.85 2.403 3.652 4.007 12.881 25.739 25.654 51.53 38.473 77.3.758 1.524 1.697 2.958 2.552 4.433l1.172-.377v-85.28h21.188v115.043c-8.573 0-17.323.147-26.054-.18-1.134-.042-2.457-2.387-3.22-3.903-12.93-25.693-25.781-51.424-38.662-77.141-.77-1.537-1.639-3.023-3.603-4.21v85.217h-21.488v-43.43z"/><path fill="#0977BE" d="M358.878 1015v-23.87h-46.044v50.275h-22.187V926.706h21.943v46.237h46.084v-46.215h22.588v114.654h-22.384V1015z"/><path fill="#0575BD" d="M1013.247 1040.229c-6.742.92-13.41 1.408-20.617 1.935l-.515-9.336c-3.502 2.477-6.49 5.018-9.85 6.894-14.584 8.148-39.713 4.713-47.172-17.463-5.586-16.609-5.41-32.7 1.222-49.007 8.482-20.856 37.796-22.534 51.307-10.312.955.864 1.967 1.664 4.265 3.6v-48.922h21.434c0 40.724 0 81.452-.074 122.61m-30.959-65.203c-9.612-6.682-20.744-4.02-25.223 6.642-4.893 11.646-5.157 23.627.21 35.304 2.53 5.507 6.504 9.622 12.998 10.364 7.494.856 12.976-2.565 16.807-8.571 6.746-10.578 6.678-33.782-4.792-43.739z"/><path fill="#050505" d="M856.76 721.977v10.95c8.264-19.798 19.955-34.035 44.441-29.87v31.953c-3.185-.52-6.22-1.19-9.292-1.488-15.136-1.467-24.354 4.326-28.03 19.105-2.22 8.926-3.296 18.298-3.581 27.51-.545 17.624-.159 35.277-.159 53.27h-31.631V705.513h28.252v16.464z"/><path fill="#0675BE" d="M432.424 963.179c6.184 7.857 15.61 9.136 23.46 13.277 5.535 2.918 11.584 5.547 16.003 9.771 16.521 15.792 10.855 43.891-10.152 52.918-14.287 6.14-28.84 5.388-43.548 2.114-2.877-.64-5.746-1.318-8.962-2.058l2.109-17.864c8.841 1.707 17.29 3.939 25.873 4.735 4.165.387 8.772-1.448 12.83-3.122 4.567-1.885 7.042-5.69 7.353-10.935.346-5.823-1.859-10.212-6.872-12.793-6.196-3.19-12.716-5.746-18.995-8.783-7.492-3.624-14.89-7.325-19.664-14.75-8.69-13.511-5.086-40.831 16.52-48.024 15.44-5.14 30.296-3.56 45.79.596l-1.769 16.721c-8.675-1.148-16.816-2.977-24.988-3.13-12.093-.225-18.821 9.637-14.988 21.327zM1283.757 1043.665c-11.334.155-21.702-1.677-30.505-8.57-11.1-8.692-15.966-20.466-16.108-34.329-.178-17.387 5.628-31.894 21.808-40.092 17.332-8.781 34.87-7.843 50.21 4.125 15.26 11.906 18.08 28.99 14.05 46.969-3.844 17.143-16.018 29.826-39.455 31.897m10.456-20.864c9.88-11.67 9.882-24.934 5.495-38.475-2.583-7.975-8.739-12.253-17.34-12.671-9.124-.444-15.595 3.342-19.672 11.58-4.51 9.114-3.6 18.426-1.22 27.725 4.024 15.708 18.716 21.24 32.737 11.84zM633.398 973.416c17.957-25.578 58.602-22.743 73.1.262 12.266 19.463 10.356 52.261-14.562 64.842-24.157 12.197-59.36 4.344-65.174-30.317-2.013-11.998-.555-23.898 6.636-34.787m54.322 8.624c-3.823-7.522-10.16-10.51-18.359-10.395-7.942.112-13.626 3.766-17.206 10.709-5.701 11.057-4.394 22.325.037 33.246 3.305 8.145 9.81 12.204 18.925 11.769 8.64-.414 14.664-4.708 17.41-12.592 3.691-10.593 4.35-21.433-.807-32.737z"/><path fill="#0776BE" d="M1684.711 1019.525c4.794-7.176 5.036-15.035 5.135-22.854.144-11.32.037-22.643.037-33.965v-5.118h21.14v83.875h-19.661v-11.395c-1.83 1.538-2.812 2.26-3.673 3.105-9.734 9.556-21.262 12.523-34.389 9.181-7.921-2.016-12.795-7.67-15.647-14.892-1.684-4.266-3.05-8.97-3.133-13.503-.345-18.626-.145-37.262-.145-56.264h21.3c0 8.925-.124 17.708.034 26.486a911.3 911.3 0 0 0 .955 27.9c.326 6.698 2.424 12.531 9.576 14.792 6.628 2.095 13.602-.722 18.471-7.348zM753.412 957.434c.714 1.822 1.192 3.558 1.231 5.304.374 16.472.485 32.952 1.071 49.415.302 8.493 4.09 13.505 10.08 14.917 7.22 1.703 14.405-1.691 18.593-8.574 4.19-6.886 4.372-14.558 4.457-22.203.142-12.797.039-25.596.039-38.679h21.113v83.845h-19.644v-11.395c-1.83 1.547-2.811 2.275-3.675 3.122-9.75 9.559-21.289 12.52-34.422 9.153-7.924-2.031-12.747-7.716-15.635-14.934-1.584-3.959-2.911-8.327-2.98-12.532-.315-18.96-.138-37.929-.138-57.52 6.598 0 13.034 0 19.91.081z"/><path fill="#0675BE" d="M1414.024 963.985c5.137 6.197 7.07 13.325 7.202 20.684.326 18.319.107 36.648.09 54.973-.001.472-.215.944-.402 1.713h-20.796c-.077-1.715-.214-3.462-.225-5.21-.094-15.823-.159-31.646-.26-47.47-.01-1.492-.06-3.015-.352-4.472-1.123-5.628-3.196-10.928-9.452-12.224-6.464-1.339-12.618-.262-17.097 5.405-5.234 6.623-6.545 14.42-6.594 22.527-.082 13.649-.022 27.298-.022 41.354h-21.374V957.62h19.86v11.102c15.797-14.476 31.68-19.584 49.422-4.737zM890.876 992.422c-.189-2.952-.18-5.472-.595-7.921-.956-5.648-3.016-10.643-9.148-12.514-6.257-1.91-13.542.459-17.514 5.546-5.191 6.65-6.444 14.452-6.485 22.554-.068 13.64-.018 27.281-.018 41.253h-21.428V957.58h19.995v10.232l1.793 1.202c1.348-1.803 2.474-3.84 4.08-5.373 10.694-10.215 30.13-11.323 40.86-2.326 6.862 5.755 9.472 13.81 9.68 22.197.473 19.114.15 38.248.15 57.767h-21.364c0-16.196 0-32.296-.006-48.858z"/><path fill="#0776BE" d="M1107.363 1005.003v36.675c-.477 0-1.606.002-2.735 0-4.33-.01-9.367 1.317-12.753-.476-2.464-1.304-2.747-6.728-4.096-10.584-2.673 2.46-5.222 5.23-8.18 7.454-11.624 8.744-30.917 6.84-40.717-3.852-11.17-12.187-6.103-34.987 9.626-40.423 7.703-2.662 16.157-3.321 24.337-4.37 4.555-.584 9.246-.105 13.774-.105 2.085-10.885-3.733-18.044-14.677-18.642-9.401-.514-18.15 1.494-26.084 6.694-.794.52-1.631.973-2.704 1.61-.186-1.313-.386-2.284-.454-3.264-1.061-15.252-1.082-15.366 13.922-18.71 9.663-2.154 19.423-2.786 29.11.03 12.397 3.601 19.758 12.192 20.868 25.033.644 7.443.534 14.951.763 22.93m-52.863 6.614c-2.864 10.356 1.795 16.666 12.337 16.71 13.394.058 22.452-11.871 19.88-26.626-5.216 0-10.543-.419-15.775.106-6.528.656-12.817 2.37-16.442 9.81z"/><path fill="#0B78BF" d="M552.488 1041.674c-1.026-1.168-2.102-2.324-2.105-3.482-.081-36.626-.06-73.253-.04-109.88 0-.47.197-.94.365-1.698h62.4v16.963H573.02v29.584h38.297v17.445h-38.476v51.08c-7.026 0-13.464 0-20.354-.012zM1537.69 1002v39.318h-22.315v-97.523h-32.81v-17.176h87.555v17.015h-32.43V1002z"/><path fill="#0776BE" d="M1779.1 994.817c11.87 8.932 15.098 19.945 9.686 32.407-4.358 10.034-13.407 13.301-23.012 15.397-11.82 2.579-23.39.463-35.388-2.52.41-5.492.81-10.854 1.163-15.606 7.591 1.298 14.946 2.934 22.388 3.649 3.08.296 6.448-1.11 9.507-2.23 3.646-1.333 5.353-4.357 5.32-8.218-.035-4.004-1.679-7.252-5.538-8.676-5.43-2.004-11.035-3.53-16.495-5.46-17.008-6.018-22.985-24.318-11.896-37.523 6.339-7.547 15.475-10.397 24.997-10.55 7.741-.125 15.504 1.208 23.26 1.853 2.985.249 3.954 1.866 3.603 4.695-.469 3.776-.802 7.568-1.143 10.861-7.286-.758-14.287-1.685-21.319-2.108-2.36-.142-4.936.671-7.165 1.627-3.328 1.427-5.02 4.24-4.922 7.958.097 3.67 2.258 5.748 5.504 6.892 7.034 2.479 14.083 4.918 21.45 7.552z"/><path fill="#0A78BF" d="M1159.688 993c0 6.665-.022 12.83.004 18.994.057 13.184 5.606 17.516 18.288 14.31.613-.155 1.233-.282 2.7-.615 0 4.81.198 9.26-.134 13.67-.087 1.147-1.81 3.082-2.813 3.102-7.576.156-15.368.993-22.69-.438-10.835-2.118-16.66-11.462-16.716-24.092-.064-14.812-.015-29.625-.015-45.05h-15.702v-15.477h15.522v-17.166l21.401-6.966v23.822h19.844v15.477h-19.69v20.43zM1838.688 946.011v11.072h19.684v15.478h-19.684c0 12.042-.039 23.481.024 34.92.018 3.315-.075 6.71.58 9.927 1.75 8.606 6.197 11.385 14.786 9.676 1.594-.317 3.148-.831 5.603-1.492 0 4.898.197 9.346-.135 13.755-.086 1.15-1.801 3.092-2.8 3.112-7.576.159-15.368.997-22.692-.432-10.837-2.114-16.67-11.46-16.726-24.085-.066-14.813-.016-29.627-.016-45.053h-15.698V957.41h15.513v-17.168l21.56-7.022v12.791z"/><path fill="#0977BE" d="M1569.318 965.106v-7.374h19.387v15.648c4.041-4.786 7.571-9.926 12.055-14.021 4.985-4.553 11.396-4.863 18.362-3.27v19.77c-3.765-.168-7.3-.428-10.836-.462-5.712-.054-9.7 2.759-12.492 7.643-4.776 8.358-4.439 17.6-4.623 26.702-.211 10.451-.05 20.91-.05 31.65h-21.803v-76.286z"/><path fill="#0776BE" d="M1218.119 1020v21.31h-21.409v-83.705h21.409V1020z"/><path fill="#0B78BF" d="M1196.31 929.051v-8.344h21.563v19.686h-21.562v-11.342z"/><path fill="#FEFEFF" d="M428.688 276.693c2.976-14.725 5.855-29.038 8.775-43.553h71.916l-60.568 284.388c-1.374.103-2.517.263-3.659.263-28.996.014-57.993-.07-86.988.114-3.621.023-4.81-1.33-5.756-4.466-18.406-60.924-36.904-121.82-55.4-182.716-1.05-3.456-2.247-6.867-4.417-10.425l-39.83 197.281h-71.926l61.19-284.713h18.796c23.997 0 47.994.088 71.99-.092 3.67-.028 5.088 1.119 6.113 4.6 18.358 62.326 36.857 124.61 55.342 186.897.603 2.03 1.376 4.009 3.052 6.054 10.425-51.074 20.85-102.148 31.37-153.632z"/><path fill="#FEFFFF" d="M496.255 433.328c14.01-66.959 27.92-133.508 41.867-200.236h76.329L592.075 341.65h90.985c1.589-7.382 3.264-14.936 4.837-22.512 5.713-27.51 11.43-55.018 17.021-82.553.505-2.483 1.07-3.788 3.976-3.774 23.826.112 47.652.076 71.478.105.458 0 .915.247 1.606.445L722.666 517.41h-76.344l25.301-121.665c-2.138-.14-3.715-.33-5.292-.332-26.992-.018-53.984.053-80.975-.091-3.638-.02-5.08.898-5.853 4.689-7.677 37.633-15.6 75.217-23.465 112.812-.334 1.595-.797 3.163-1.218 4.819h-76.09c5.85-28.165 11.638-56.035 17.525-84.313z"/><path fill="#FEFEFF" d="M954.734 370.25c26.764 23.104 26.744 62.679 15.672 90.36-10.157 25.395-30.252 40.184-54.952 49.626-21.695 8.293-44.373 11.26-67.423 12.171-32.795 1.296-64.567-4.57-95.908-13.525-.948-.27-1.852-.693-3.138-1.182l17.753-57.02c2.63 1.26 4.891 2.501 7.267 3.458 31.067 12.503 63.053 16.178 95.794 8.554 7.023-1.636 14.177-5.316 19.788-9.877 12.452-10.121 12.323-28.178.569-39.082-8.481-7.868-19.253-11.631-29.65-16.064-12.366-5.272-24.983-10.094-36.89-16.269-26.373-13.675-38.17-35.677-35.985-65.465 2.914-39.703 26.085-67.453 67.063-79.834 26.86-8.115 54.359-9.093 82.074-7.695 17.967.907 35.862 2.559 53.248 7.58 4.115 1.189 8.12 2.76 12.645 4.317l-17.924 55.084c-13.665-3.373-26.671-7.47-39.99-9.655-18.478-3.032-37.162-2.846-55.594 1.228a44.943 44.943 0 0 0-10.292 3.649c-15.465 7.73-18 26.882-4.267 37.314 7.286 5.534 16.095 9.174 24.464 13.149 13.944 6.623 28.212 12.57 42.077 19.348 4.85 2.37 8.91 6.352 13.6 9.83z"/><path fill="#FEFEFE" d="M399.858 749.435c3.866 15.259 3.702 30.01-2.07 44.355-4.813 11.963-14.46 17.552-29.063 17.457-10.588-.07-20.913-7.061-24.86-17.734-5.652-15.286-8.009-30.939-1.344-46.551 5.937-13.91 15.81-19.834 30.6-19.207 12.545.531 21.701 7.87 26.737 21.68z"/><path fill="#FDFDFD" d="M726.165 728.893c6.331-1.077 12.42-3.19 18.275-2.671 11.91 1.055 19.396 9.483 21.769 22.481.474 2.6.698 5.247 1.083 8.219h-56.573c1.048-11.552 4.585-21.514 15.446-28.03zM1072.48 729.22c6.633-1.185 13.042-3.484 19.194-2.93 11.902 1.075 19.3 9.66 21.547 22.652.446 2.575.707 5.181 1.09 8.045-1.517.104-2.644.248-3.772.249-17.447.014-34.894.01-52.824.01.96-11.679 4.547-21.363 14.765-28.026z"/><path fill="#FDFEFE" d="M982.569 975.273c11.19 9.709 11.257 32.913 4.51 43.491-3.83 6.006-9.312 9.427-16.806 8.57-6.494-.741-10.467-4.856-12.999-10.363-5.366-11.677-5.102-23.658-.21-35.304 4.48-10.662 15.612-13.324 25.505-6.394zM1293.922 1023.03c-13.73 9.17-28.422 3.638-32.445-12.07-2.382-9.299-3.292-18.611 1.22-27.726 4.076-8.237 10.547-12.023 19.671-11.58 8.601.42 14.757 4.697 17.34 12.672 4.387 13.541 4.386 26.805-5.786 38.704zM687.883 982.388c4.995 10.956 4.335 21.796.645 32.39-2.747 7.883-8.77 12.177-17.411 12.59-9.114.436-15.62-3.623-18.925-11.768-4.431-10.921-5.738-22.19-.037-33.246 3.58-6.943 9.264-10.597 17.206-10.709 8.198-.116 14.536 2.873 18.522 10.743zM1054.675 1011.254c3.45-7.076 9.74-8.791 16.267-9.447 5.232-.525 10.56-.106 15.775-.106 2.572 14.755-6.486 26.684-19.88 26.627-10.542-.045-15.2-6.355-12.162-17.074z"/></svg>