<svg xmlns="http://www.w3.org/2000/svg" viewBox="0 0 604 604" xml:space="preserve"><path fill="#FEFEFF" d="M350 1h254.978v603.924H1.129V1c114.562 0 229.254 0 344.328.339-1.007 1.495-2.396 2.651-3.786 3.808.567.646 1.135 1.292 1.98 2.305.49.585.702.805.87 1.338 3.146-1.325 6.335-2.964 10.141-4.92L350 1M246.005 116.227l-.781.069c.223.268.446.536.798 1.32.31.143.62.285.99 1.235l1.952 10.892 4.32-6.802c-1.975-1.859-3.857-3.63-6.038-5.816-.308-.144-.615-.288-1.24-.898m157.509 266.889c3.61 1.577 6.713 1.814 8.151-2.357l-.781-1.868c-2.648 1.345-5.295 2.69-8.128 4.28.035-.105.07-.21.758-.055M203.068 135.238l-.838.23c.217.214.434.428.878 1.278l7.148 6.711 4.726-4.174c-4.276-1.376-7.913-2.547-11.914-4.045M265.031 9.685l-.596-.13c.197.146.394.292.619 1.146 1.797 3.857 4.601 6.118 9.15 6.094-1.629-8.23-2.725-8.99-9.173-7.11m-93.319 231.21 10.994-5.763-.622-2.19-13.338-.606-.135 1.472 3.659 1.924-4.937 2.842.476 1.09 4.132-.556.741 1.094c-.61.26-1.22.52-1.661.787l-.222.102s.126-.192.913-.197m123.186 311.031 11.472 3.549c-5.218-8.896-10.344-14.984-15.262-17.403.31 3.072 1.266 5.99 1.995 8.965.339 1.382.239 2.873-.218 4.582l-.69 1.787c.638-.428 1.276-.856 2.703-1.48M251.39 540.86c-1.958.504-3.476 1.088-5.596-.777-2.493-2.193-6.096-3.122-9.218-4.6l-1.461 1.793 8.215 10.78-1.93 5.182c4.397-3.74 11.557-4.928 10.691-12.355l.02-.095s-.015.342-.721.072m61.843-449.829c-1.89 1.377-3.284 1.274-4.95-.723-1.93-2.313-4.45-4.135-6.712-6.17l-1.363.878 5.01 13.397c-3.282 3.39-3.282 3.39-1.503 6.39 1.133-1.116 2.098-2.902 3.427-3.235 5.78-1.45 6.09-6.087 6.915-10.707l.07-.074s-.155.223-.894.244m9.719 450.896c.15.152.3.305.204 1.046l-.884 2.375 1.315.962 12.616-13.65c-7.071-.61-13.99-2.55-18.306 5.046l4.601.543-5.744 4.813.781 1.04c1.67-.892 3.34-1.782 5.417-2.175m-176.868-291.54.565-.12c-.233-.071-.467-.141-.52-1.05l-1.972-12.162 3.94-3.655c-2.497-.774-4.76-.971-6.387-2.092-2.696-1.856-5.778-1.471-7.338 1.254-1.202 2.097-2.805 3.964-4.23 5.933l-1.244-.614.937 3.268 5.238-2.582c1.008 1.98 1.554 4.022 2.836 5.36 2.33 2.434 3.256 6.98 8.175 6.46M293.94 94.112l.508.482c-.09-.242-.18-.484-.647-1.294l.761-4.368c-4.513.34-7.015-2.485-8.649-6.929-1.11-3.02-3.096-5.717-5.242-9.543-3.021 6.793-2.296 12.777-.647 19.08l-7.98 2.818c2.259 1.148 3.704 2.559 4.947 2.399 5.797-.746 11.54-1.926 16.95-2.645m-13.674 191.11c-2.522 1.775-4.91 4.396-8.596.153-1.217 3.045-2.502 5.18-2.879 7.465-.493 2.993-.27 6.103-.354 9.163l-1.488.253 3.283 2.078 2.65-6.01c6.375 2.54 12.06 6.706 19.607 3.479l-12.242-10.442c.2-2.327.38-4.423.835-6.526l.17-.17s-.365.244-.986.558m79.88 278.912-3.696 2.103-16.375-7.802-1.087 1.505c1.8 6.603 6.408 11.22 12.145 15.265l-4.62 5.845 4.208 3.626 2.801-5.68.27 1.426c2.796.226 6.457 1.67 8.208.425 3.696-2.626-.204-5.32-1.364-7.994-.577-1.333-.523-3.002-.502-4.515.022-1.57.35-3.137.87-4.494l.343-.044c-.198-.034-.396-.068-1.201.334m-183.9-443.723 20.127-13.195c-3.142-1.235-6.088-.526-7.985-1.626-6.23-3.615-13.002-3.59-18.494 1.134l6.613 2.29.061 1.33-8.173 2.873 1.134 3.309 7.996-2.163 1.97 2.598-4.515 1.95c.33.691.66 1.382 1.237 2.845-.162 2.047-1.035 4.38-.35 6.088 1.97 4.914 4.57 9.577 7.179 14.858l-4.974 4.135 4.287 3.491 3.217-4.75c6.624 4.396 10.543 4.823 14.045 1.913 1.211-5.021-9.658-6.326-3.376-13.314-1.205-.244-2.454-.464-3.686-.757-1.428-.34-3.18-.339-4.2-1.193-4.284-3.585-8.346-7.435-12.112-11.816m102.356-88.114c.72 1.31 1.627 2.557 2.097 3.952.381 1.128.635 3.359.264 3.518-4.145 1.784-1.188 4.622-.971 6.803.22 2.213 1.393 4.33 2.285 6.882l-8.031 4.196c.647 2.28 1.206 4.25 1.43 5.035 4.524-1.314 8.583-2.45 12.612-3.686 1.365-.419 3.2-.713 3.877-1.707 2.416-3.549 4.426-7.373 6.718-11.313-1.002 0-1.771-.229-2.285.036-4.05 2.089-5.723.058-7.339-3.49-1.564-3.434-3.812-6.614-6.144-9.606-.67-.858-2.674-.676-4.102-.933 0 0-.037.037-.41.313m166.728 330.57-7.157 1.823-14.152-16.281c-3.402 10.705 1.85 17.48 7.469 24.378l-6.673 4.654 4.107 5.449 4.266-6.415c7.775 7.998 15.386 10.395 20.95 6.581-1.94-2.055-3.785-4.147-5.779-6.087-2.138-2.08-4.415-4.017-6.677-6.056 1.65-2.992 2.995-5.428 4.523-8.05-.036.085-.072.17-.877.004M252.364 76.998l4.37-.293c-1.921-2.528-3.21-4.521-4.794-6.243-2.47-2.684-6.478-4.804-7.347-7.868-.872-3.073 1.303-7.01 2.251-11.028l-7.334 3.255-7.464-15.868c-.817 2.674-1.112 4.4-1.851 5.908-1.788 3.648-6.015 6.303-4.269 11.344.685 1.979.997 4.086 1.533 6.366h-7.208c1.292 8.204 3.519 11.325 9.149 12.796l1.64-7.274c2.057 1.73 3.568 3.31 5.36 4.45 4.734 3.015 9.97 4.303 15.964 4.455m-77.063 99.239c12.346 3.703 20.168 3.062 23.342-2.4-4.076-2.474-8.053-5.173-12.282-7.392-7.022-3.686-7.086-3.556-5.55-11.421.033-.17-.296-.411-.67-.898-1.511 1.35-2.872 2.803-4.468 3.918-1.212.847-2.693 1.692-4.107 1.791-3.78.266-7.588.086-11.384.168-3.245.07-3.856 1.888-2.05 4.16 2.797 3.517 5.964 6.741 9.697 10.894l-2.988 7.743 2.753 1.384c2.491-2.918 4.714-5.521 7.707-7.947m-36.314-52.502-6.664-3.598c-.256.18-.781.526-1.28.907-3.091 2.36-8.312 3.838-6.752 8.815 1.212 3.867-.688 5.096-2.867 6.794-1.505 1.173-3.116 2.208-4.659 3.29l4.737 5.917 6.215-8.828c10.399 12.874 19.39 16.93 24.608 12.448-2.343-4.302-4.085-8.948-7.05-12.6-4.275-5.267-4.835-9.805.055-15.044-1.891.492-3.783.984-6.343 1.899m293.52 419.17c8.336-2.636 13.694-7.19 16.12-13.834l-5.982 1.45c-2.702-1.956-4.426-3.72-6.521-4.608-3.635-1.542-3.965-3.55-1.813-6.496.693-.95 1.324-1.945 2.363-3.48-1.568.343-2.472.326-3.13.72-3.623 2.174-5.89.654-8.152-2.363-2.022-2.695-4.621-4.958-6.966-7.41l-1.223.666c.004 6.032-2.468 12.457 4.109 17.65l-7.478 6.51 3.837 2.985 5.37-4.949 10.424 9.315-7.509 5.038.871 1.215c1.643-.748 3.286-1.497 5.68-2.41M139.242 220.007l1.391 4.744c3.66-3.475 7.292-5.884 9.458-9.24 2.75-4.26 5.611-4.241 9.414-2.29.647.331 1.338.578 3.206 1.375l-3.668-6.916 12.266-15.1-.97-1.371c-8.16.521-15.903 2.085-21.384 10.168l-7.478-5.826-2.813 2.58 6.85 5.537-1.6.15c-1.549 5.122-3.098 10.244-4.672 16.19m230.572 326.64c-1.29 5.893 1.717 10.434 7.25 10.84l1.406-5.564c7.351 5.859 12.974 7.382 20.796 5.596-1.807-2.187-3.142-4.66-5.196-6.123-5.612-3.998-6.432-8.547-2.666-14.154.1-.15-.163-.543-.32-1.01l-6.63 3.007-6.327-13.466c-1.464 7.61-7.13 13.419-2.261 21.163-2.437-.212-3.866-.337-6.052-.289m-113.44-391.734c-7.477-1.106-14.504-.165-20.948 4.163-1.899 1.275-4.2 1.949-6.317 2.898 2.47.34 4.97.534 7.399 1.062 2.018.439 5.41.977 5.613 1.99.4 1.988-.68 4.502-1.729 6.493-1.29 2.45-3.43 4.561.151 8.434 4.94-3.386 10.776-6.036 14.653-10.418 3.999-4.52 8.07-7.402 14.232-8.566-4.086-1.96-8.173-3.92-13.053-6.056m90.194 278.002-4.839-1.25c.207 1.963-.159 4.245.727 5.828 2.666 4.767 5.82 9.261 9.372 14.774l-3.611 5.988 2.805 2.58 4.188-7.09c6.768 2.824 12.793 6.914 20.42 2.05-2.69-2.485-4.635-4.844-7.084-6.416-4.268-2.74-8.193-5.287-5.233-11.665l-4.974 3.16c-3.777-2.604-7.437-5.127-11.771-7.959m-49.665-311.763-17.047 2.442c4.01 3.595 4.033 5.37-.154 5.853-1.975.227-3.962.35-5.93.616-.323.044-.58.582-1.146 1.19l3.6 1.43-2.785 4.946 10.828-3.94.66 1.352-4.574 7.625 1.62 1.81c5.285-2.829 11.905-4.557 15.43-8.836 2.784-3.38 5.52-5.616 9.417-7.064l.122-1.452-9.565-3.005c.07-.597.191-1.648-.476-2.967M447.446 456.19l-6.2-2.414c.642 2.564.559 4.644 1.553 5.79 4.183 4.817 8.688 9.355 13.6 14.55l-4.609 7.805 5.34.526 16.353-19.309-3.647-.625 1.195-5.28-7.618 4.855c-5.32-1.953-10.28-3.773-15.967-5.898M203.882 77.853h4.488c-3.56-1.99-5.9-3.869-8.563-4.66-4.551-1.354-9.728-3.588-13.834-2.473-3.07.833-5.05.332-7.51-.324-1.344-.357-2.64-.89-3.908-1.326l-1.234 5.692c1.332.096 2.625.213 3.92.281 6.724.353 7.012.363 6.663 7.17-.325 6.332 1.287 11.482 7.147 15.243 2.57-5.794 5.18-11.68 8.235-18.563a147.15 147.15 0 0 1 4.596-1.04m178.795 256.11c4.806.108 7.985 2.95 11.002 6.278 1.134 1.25 2.796 2.689 4.31 2.801 4.81.358 9.666.133 15.665.133l-6.19-5.626c8.166-16.27 8.166-16.27 5.264-20.255-1.66 5.12-5.735 7.568-8.956 5.617-1.095.86-2.499 1.459-3.093 2.513-3.826 6.787-8.438 8.877-14.77 1.886-1.568 2.52-2.71 4.355-3.232 6.653M311.56 487.002c-1.516-1.014-2.97-2.147-4.572-3-1.111-.591-2.428-.797-3.654-1.174-.181 1.293-.934 2.875-.45 3.833 2.88 5.702 6.044 11.26 9.63 17.81l-6.103 6.584 6.46 1.784-.667-1.3 19.03-13.74-3.75-4.942-5.357 1.531a1007.887 1007.887 0 0 0-10.567-7.386m-77.227-291.77c-4.154.178-3.878-2.448-2.631-5.91l-7.884 3.435-20.112-11.51c0 2.189-.696 4.427.121 5.669 3.503 5.322 7.452 10.351 11.795 16.241l-5.508 6.979.383 1.46c2.156-.465 4.79-.3 6.384-1.508 5.924-4.49 11.507-9.432 17.452-14.856M421.352 421.1l-6.137-.337-2.773-5.388c-3.97 1.888-9.83 1.59-9.695 8.454.012.636-2.004 1.506-3.2 1.922-1.526.531-3.175.712-5.013 1.094l1.516 5.417 8.06-3.693c5.748 13.754 10.467 18.387 15.89 15.836-.319-.92-.732-1.828-.945-2.78-1.113-4.978-2.812-9.953-2.917-14.958-.038-1.803 3.799-3.687 5.213-5.567m-42.574-8.01 4.34-3.925c1.828.989 3.48 2.472 5.303 2.728 2.754.387 5.628-.082 8.45-.187-1.283-2.361-2.09-5.233-3.954-6.972-3.295-3.073-2.2-4.747.942-7.493h-6.828c-1.837-1.783-4.056-4.005-6.352-6.144-2.279-2.122-4.637-4.159-7.58-6.788-.418 1.933-1.216 3.336-.844 4.276 2.26 5.714 4.786 11.323 7.52 17.655l-4.126 3.38c.894 1.086 1.688 2.052 3.129 3.47m70.63 10.734c.375 1.294.414 2.94 1.256 3.744.478.456 2.605-.104 3.415-.84 2.686-2.436 5.849-4.774 7.465-7.863 2.55-4.878 4.887-9.55 10.771-11.889-6.02-.947-12.036-2.12-17.303-.636-5.946 1.674-11.219 5.738-16.784 8.762l.592 1.732c1.723-.271 3.442-.732 5.17-.767 2.207-.045 4.42.254 6.632.404-.307 2.198-.613 4.396-1.214 7.353M191.077 559.22c2.75 2.424 5.089 5.736 9.34 4.724 3.12-4.959-4.879-11.037 4.022-15.685-5.748.4-7.279-1.375-8.008-5.379-.802-4.402-3.202-8.514-5.31-13.757-5.831 7.651-3.872 15.028-2.206 22.692l-6.956 1.58 1.523 5.002 5.867-2.914c.553 1.268.945 2.167 1.728 3.737m217.063-73.875 4.284 8.83-4.887 3.414 3.653 5.007 3.467-6.009 12.065 7.526 1.462-.864c-.668-3.068-.526-6.709-2.194-9.071-2.484-3.52-3.893-6.729-1.137-11.82l-5.686 3.116c-4.178-6.192-8.522-8.374-13.5-7.033.786 2.048 1.575 4.1 2.473 6.904m-56.31-64.172c6.263-.222 11.487-2.4 15.59-8.331-3.983.756-5.07-1.035-6.53-3.93-2.822-5.593-6.79-10.607-10.284-15.862-4.952 8.992-1.992 16.696 1.242 24.874l-8.661 3.257c.804 1.314 1.869 1.953 2.77 1.773 1.732-.347 3.37-1.159 5.873-1.78m-38.944-119.301-2.068-3.584-3.52 16.791h-5.027l6.97 10.536c1.08-3.107 1.538-4.418 1.548-4.449l16.398 3.92.737-1.435c-2.196-2.398-5.093-4.475-6.379-7.29-1.131-2.477-.46-5.777-.583-8.628l-4.425 1.806a377.644 377.644 0 0 1-3.65-7.667m-28.452 237.514 2.397-.12c-2.344-5.725-12.025-8.061-4.83-17.294l-6.303 2.697c-1.75-3.475-3.42-6.788-5.798-11.512l-3.601 17.008h-4.977l6.712 10.625 2.326-5.847.182 1.62c4.4.892 8.8 1.784 13.892 2.823M170.683 251.905l-4.828-4.396 1.677 16.267-4.983 1.871 10.403 7.622v-5.561c2.97.304 5.696.859 8.406.784 2.821-.078 5.625-.764 8.75-1.23-3.379-5.212-14.662-3.999-9.937-15.522l-5.446 4.498c-1.329-1.396-2.467-2.592-4.042-4.333m25 1.784-3.19 1.978 4.664 3.461 3.081-5.776c9.513 6.331 15.525 7.307 18.378 4.24l-10.258-12.258.605-4.391h-9.186c-1.252 1.964-6.356 3.99-2.46 9.101.346.454-.748 2.005-1.634 3.645M313.591 50.988l-2.599 2.126 3.803 3.55 2.88-4.847c6.08 3.952 9.597 4.153 13.153.667-2.486-3.799-8.87-6.135-4.715-13.307-5.14 4.32-7.524 1.234-10.306-1.657-2.299-2.389-5.15-4.246-8.365-6.827-1.338 7.408 2.72 11.748 5.855 16.473.607.915.59 2.244.294 3.822m-92.873 480.365 4.856-8.27-5.556.852c-2.542-4.11-4.743-8.014-7.339-11.635-.704-.981-2.605-1.104-3.957-1.62-.183 1.622-.564 3.259-.449 4.86.045.618 1.219 1.154 1.648 1.528-3.926 4.767.562 8.393.92 12.858l-6.438 3.44.983 4.033c4.552-1.251 8.475-2.248 12.335-3.447.987-.307 1.775-1.253 2.997-2.599m22.271-381.682h5.926l.487-1.286-8.493-9.604 2.145-4.776c-1.29-.212-2.371-.714-2.733-.397-2.926 2.564-4.396.712-6.424-1.447-2.507-2.67-5.629-4.76-8.485-7.102l-1.171.92c.22 6.292 3.764 11.128 8.136 15.975l-4.732 4.471 2.2 2.702 3.416-4.118c3.552 1.828 6.233 3.206 9.728 4.662m25.804 170.021-3.596-6.166c-3.773 7.33-2.058 14.04-1.686 20.55-2.43 1.265-4.683 2.436-6.934 3.606l.827 1.343 6.998-2.068c2.122 4.81 4.658 8.704 10.216 9.342l.694-15.182-2.405-.145c-1.37-3.79-2.596-7.176-4.114-11.28m-4.794 264.646c1.4-.02 3.17.505 4.136-.152 5.007-3.405 9.81-7.111 15.616-11.4l-7.868-1.05c-1.254-5.631-8.018-7.287-16.956-4.017.632.79 1.147 1.624 1.84 2.264 1.266 1.17 2.636 2.227 3.963 3.332-1.497 1.048-3.187 1.912-4.43 3.205-.937.973-1.301 2.496-2.411 4.788l7.82-2.147c.099 1.03.321 1.577.152 1.945-.41.894-1 1.704-1.862 3.232m-12.635-285.246c-4.068.169-7.012-1.019-8.925-5.168-1.217-2.638-3.948-4.578-6-6.832l-1.339.334v14.38l-7.959 2.578c3.116 5.242 7.333-.406 10.496 1.788 3.214 2.23 6.85 3.85 11.388 6.331-.353-5.676-2.322-10.522 2.339-13.411m70.506 68.576-4.815-3.943c-.424 7.998 2.815 13.29 7.059 18.482l-3.654 5.613 1.045.827 4.856-4.313c4.79 4.565 8.99 6.056 13.209 4.894-.414-5.787-8.38-8.162-6.89-13.465-2.225-1.202-4.09-1.947-5.637-3.115-1.709-1.291-3.125-2.97-5.173-4.98m49.27-289.413c.11-4.144-5.022-9.238 1.17-11.384l-13.236-10.549L357.728 68l-5.196 3.513.439 1.72c5.326-3.052 7.468-.48 9.643 3.852 1.64 3.266 4.156 6.634 9.12 7.27a387.94 387.94 0 0 0-.594-6.1m58.677 20.448 4.181.492c-.325-6.753-4.2-12.706-.802-18.53-1.29-.752-2.824-1.273-3.83-2.307-2.195-2.258-8.166-1.944-8.25.829-.16 5.247-4.308 4.401-7.188 5.787l1.044 3.855 5.22-2.674c3.277 4.382 6.17 8.25 9.625 12.548M267.889 253.727l-5.077-13.398c-4.322 6.417-4.814 12.008-2.838 17.012-.532 3.289-6.63 1.147-4.58 6.165l4.659-1.913 10.565 9.875c3.503-6.364-6.279-12.422 3.107-17.362-2.503 0-3.825 0-5.836-.38m50.935 45.94c.62 1.149 1.238 2.298 2.647 4.915l3.423-6.312c7.266 9.103 11.9 11.62 16.686 9.51l-7.263-13.483 2.751-4.59c-2.098-.438-3.7-.712-5.266-1.12-1.313-.342-3.167-1.593-3.766-1.129-1.838 1.422-4.739 3.808-4.435 5.22.915 4.256-1.633 5.226-4.777 6.988m-50.271-183.777 17.63-12.42c-4.538-1.089-7.701-.964-11.105-2.911-4.339-2.482-10.087-.218-15.66 2.751l7.721 2.48.041 1.368-8.121 3.112c2.44 6.137 7.273-2.753 9.905 1.96l-3.842 4.12.509.583c.745-.274 1.49-.549 2.922-1.043m154.014 338.175c-1.02.505-2.77.843-2.93 1.544-.607 2.66-.7 5.438-.978 8.1l-4.8 2.963c2.512.846 5.068-.217 6.429.633 1.734 1.084 2.261 3.926 3.748 5.626 1.94 2.218 4.312 4.06 6.671 6.222 3.637-6.47-5.831-13.027 2.679-18.022-5.98 1.368-7.063-4.235-10.819-7.066m-79.966 19.638c-.089 1.545-.846 3.576-.141 4.544 2.028 2.788 4.509 5.3 7.074 7.63 2.293 2.085 3.575 3.803.685 6.439-.655.597-.348 2.25-.44 3.046 3.288-1.905 6.065-3.297 8.584-5.058 1.377-.963 2.927-2.391 3.32-3.892.676-2.583.509-5.387.702-8.189l-3.49 1.644c-5.886-2.302-10.73-4.197-16.294-6.164M142.648 108.93c1.053-2.977 2.164-5.935 3.143-8.936.965-2.956 1.797-5.955 2.77-9.212-2.926-1.424-15.266 1.956-21.548 7.004-.547.44-.379 1.771-.659 3.337 1.412-.69 2.03-.92 2.57-1.268 3.63-2.346 6.388-2.623 7.583 2.589.573 2.498 1.722 4.884 2.777 7.246.997 2.231 2.14 2.603 3.364-.76m223.823 387.95-5.396 2.447c2.163 1.993 2.163 1.993-4.183 4.693l1.838 4.664 6.529-3.176.58.87-2.819 5.376c9.337.04 12.122-8.383 18.31-12.81-5.053.284-8.769-5.04-14.859-2.064m69.175 8.06-.564 3.362 8.394-4.251-3.362 6.574c9.712.638 11.72-9.04 18.626-12.548-2.845-.515-5.457-.48-7.566-1.493-2.946-1.414-11.249-.883-11.157 1.432.217 5.476-4.646 3.265-6.583 5.576.565.363 1.078.692 2.212 1.348m-59.734-397.85-1.329-11.017c.82-.63 2.07-1.593 3.621-2.788-2.16-.245-3.803-.315-5.397-.636-4.159-.837-9.176-4.147-9.867 3.97-.064.755-2.148 1.295-3.237 2.02-.657.439-1.203 1.044-2.083 1.826.964.443 1.556.91 1.756.779 4.736-3.11 6.679-.707 8.725 3.59 1.485 3.116 4.455 5.525 6.763 8.25l1.109-.857c0-1.442 0-2.885-.061-5.138m-154.319 41.487c-7.295-2.468-21.976 3.067-21.911 8.261 7.309-2.826 8.159-2.375 10.473 5.153.58 1.89 1.5 3.675 2.824 6.852 1.739-4.346 2.993-7.16 3.991-10.06 1.161-3.374.748-7.493 4.623-10.206m-31.026 133.645-7.746 4.16 1.053 2.677 7.216-2.283c2.439 5.072 3.72 10.887 11.007 10.628v-18.47c-3.045.849-6.92 1.929-11.53 3.288m27.293 272.03 1.682 15.705-5.594 2.413c4.563 2.69 14.45-1.035 19.542-7.049-4.182-.164-3.99-.285-6.185-3.784-2.251-3.588-4.931-6.908-7.775-10.831-.718 1.503-1.06 2.218-1.67 3.545m73.213-245.012c-3.05-1.449-11.936 3.843-12.218 7.448l3.357 1.739-4.243 3.947.601 1.505 6.73-3.08c-.391 1.925-.665 3.27-.94 4.614l1.54.955 13.87-19.15c-3.729 1.204-6.017 1.942-8.697 2.022m-42.975-268.72 1.168 2.72 5.109-2.297c2.565 7.62 6.321 11.334 11.129 11.19l-3.226-12.87c1.4-1.21 2.827-2.441 3.827-3.304l-8.379-3.457c-.487.286-3.747 1.301-3.763 2.364-.06 4.163-3.179 3.956-5.865 5.654m-49.119 1.894-5.455 1.831c-1.303 4.82 3.482 2.045 4.413 3.846l7.478 10.345c3.17-4.104-1.608-10.412 6.648-11.696-7.89-2.385-3.93-8.695-6.73-14.423-2.51 3.734-4.391 6.532-6.354 10.097m269.226 392.046-4.552 6.482 5.342-1.115c2.324 4.313 4.379 8.52 9.227 10.156 2.46-5.576-5.374-10.717.472-15.76l-3.537-.563-2.064-9.475-1.635-.355c-1.105 3.258-2.21 6.517-3.253 10.63m-43.063-317.412-1.74-3.486 3.511-10.086-1.742-1.14c-3.316 3.346-6.633 6.691-10.36 10.449l-4.592-.37-.151 1.106 3.525 1.494 1.174 11.967 1.901.082c1.168-2.307 2.095-4.787 3.59-6.859.948-1.315 2.739-2.022 4.884-3.157m-44.637 366.527 10.323 13.12c2.367-7.357-3.825-13.727 1.86-19.45l-.558-1.251-19.694 5.378c.06.568.118 1.137.176 1.705 2.384.235 4.768.47 7.893.498M143.226 177.102l-4.992 1.037 1.065 3.403c4.271-2.798 6.47-1.706 8.276 2.828.923 2.318 4.158 3.715 6.43 5.595 2.93-6.198-3.844-13.122 4.61-16.722-5.746-2.175-12.061-1.101-15.389 3.86m248.445 273.563.58 3.833 1.334-.155 2.55-3.438c6.098 4.524 6.908 4.687 11.009 2.555l-7.06-9.528c-5.78 2.62-6.41-6.316-11.577-7.397-1.542 4.196.67 7.02 2.852 9.983.697.947.613 2.469.312 4.147m6.917-335.464c6.146-2.246 7.125-7.309 7.053-13.253l-3.551 1.927-11.485-6.904-1.136 1.468 7.576 13.449c-1.09 2.149-5.586 4.337-.163 7.165.46-1.16.874-2.201 1.706-3.852m40.327 313.515-4.647-8.483-1.48.38v14.023l-4.253 1.368.77 3.43 2.423-1.03 6.427 4.227 3.157-7.841 2.035-1.045c-1.357-1.344-2.83-2.803-4.432-5.03m6.15-80.019 4.806-7.173c-.199-.28-1.658-1.432-1.862-2.775-.66-4.365-3.84-2.828-6.046-2.609-2.563.255-5.042 1.347-8.107 2.235-1.484 4.821 4.43.774 5.24 3.045.333 5.095-2.22 10.805 3.354 14.952.859-2.592 1.58-4.77 2.614-7.675M401.3 55.875c-1.181 1.62-2.363 3.238-3.892 5.333l3.3.59 1.425 12.443c3.658-3.966 3.16-10.67 10.894-9.051-6.419-5.064 1.581-6.067 1.063-10.038l-9.581 1.945c-.564-.347-1.583-.974-3.209-1.222m4.863 501.215c.764.36 1.667 1.167 2.262.982 1.173-.363 2.22-1.928 3.241-1.858 6.608.453 7.351-5.073 9.188-7.658-2.05-1.69-3.81-2.787-5.093-4.29-1.498-1.754-2.508-3.916-3.893-5.78-.374-.503-1.355-.796-2.024-.746-.405.03-1.086 1.326-1.069 1.34 3.195 2.57-.049 5.767.858 8.542 1.035 3.17.894 5.865-3.024 6.98-.318.09-.365 1.135-.446 2.488M259.058 94.011c-1.693-.677-3.424-1.274-5.073-2.047-3.799-1.782-7.558-3.65-11.333-5.483l-.864 1.129c1.636 2.757 3.15 5.596 4.935 8.254 3.021 4.501-4.302 4.205-3.588 7.796 3.198-.635 6.362-.85 9.195-1.932 3.532-1.348 7.313-2.914 6.728-7.717m123.574 268.44c.522 3.714 8.482 6.268 1.209 11.052l2.813 3.083c3.93-4.853 10.95-7.653 9.192-13.877-2.965-.998-5.102-1.448-6.972-2.414-2.54-1.314-4.876-3.023-7.3-4.563l-.988 1.287c.813 1.63 1.626 3.259 2.046 5.432M197.992 98.146v3.626c4.474-3.069 6.577-1.94 8.22 2.424.835 2.213 3.663 3.674 5.938 5.801 2.48-6.327-3.519-13.134 5.86-16.607-6.604-.324-11.702-1.094-15.542 3.681-.64.795-2.46.64-4.475 1.075m184.3 358.19c-2.46-3.548-3.3-.838-3.188 1.135.234 4.163 1.087 8.29 1.73 12.735l-5.008 2.69c7.428 1.106 12.513-.957 16.852-6.54h-3.76c-2.247-3.44-4.215-6.456-6.625-10.02M316.433 122.39c2.823-1.86 5.644-3.724 8.471-5.578 2.195-1.44 4.399-2.866 6.937-4.518-5.306-5.15-12.686-3.238-19.323-4.356 5.905 4.248 5.902 4.247 3.613 12.799-.082.306 0 .656.302 1.653m11.072-52.25.975-2.159-6.895-1.092c-.793 1.375-1.874 2.847-2.518 4.49-.574 1.466-.615 3.134-.986 4.691-.28 1.177-.71 2.318-1.073 3.475l1.359.388 3.151-3.31c3.937 2.676 7.308 5.986 12.857 4.738-2.625-3.888-4.89-7.242-6.87-11.22M197.758 216.998l-6.389-8.575-1.638.447 2.129 14.198-4.062 2.61.618 1.622 14.73-4.177.628-3.35c-1.905-.706-3.787-1.403-6.016-2.775m25.497-1.996c-.935 1.054-1.96 2.044-2.776 3.183-.62.863-.972 1.916-1.823 3.666l5.064-2.036c3.235 3.362 3.424 9.57 9 9.664v-14.558c-.148-.026-2.172.153-2.54-.543-2.313-4.373-4.448-1.434-6.925.624m137.296 136.353 2.014-1.56c-6.764-6.967-10.458-.039-14.943 4.697 1.708-.124 3.416-.247 5.13-.363 5.459 9.406 5.459 9.406 9.076 8.525-.552-3.546-1.104-7.088-1.277-11.3m-195.54 203.33-6.438-8.196-1.641.692 1.53 13.124-4.79 3.271c10.455.596 13.273-.314 16.32-4.388-1.601-1.277-3.17-2.53-4.98-4.503m67.049-311.09v9.423c-3.349 2.18-3.349 2.18-2.184 5.104 4.555-2.802 11.796-2.386 12.407-9.985-6.756 1.094-4.893-7.965-10.415-9.099 0 1.303 0 2.517.192 4.557m-10.63-74.733h-6.128c2.265 4.145 10.114 5.399 4.128 10.606l1.47 5.317c5.316-3.87 9.634-8.489 10.801-14.557-3.482-.472-6.44-.873-10.272-1.366m270.594 253.733-.652-6.39c.857-.804 1.871-1.754 2.986-2.797-2.901-.663-5.42-1.383-7.99-1.756-1.113-.162-2.751-.006-3.42.7-1.767 1.863-3.135 4.106-4.91 6.539l4.852-.953 7.503 11.243 1.631-.588v-5.998M334.984 64.252l5.727 7.845.91-.718v-15.2c-8.67-1.02-8.67-1.02-13.45 6.209 2.095.83 5.06-3.298 6.814 1.864m66.806 341.683 5.582-2.655-1.584 5.397 1.407 1.18 11.469-10.463-.353-1.425c-3.485-.426-7.195-1.776-10.388-1-2.779.676-4.974 3.751-7.045 5.452.118 1.259.208 2.222.912 3.514m-25.05-99.402-4.746 2.914.306.828 4.824-.893 7.801 10.404.881-.724v-14.94c-1.3-.286-3.412-1.201-5.436-1.037-1.33.108-2.534 1.773-3.63 3.448m-31.175 204.766.873-4.887c-4.206-.603-10.233-3.478-11.636 3.583l11.013 13.07c0-4.77 0-7.859-.25-11.766m54.549-9.184-9.982 1.956.278 1.424 4.001 1.385-6.49 2.917.3 1.299c3.273-1.356 5.147 3.935 8.871 1.164 3.124-2.324 6.547-4.246 10.102-6.515a882.47 882.47 0 0 1-7.08-3.63M255.088 209.36l-5.358 2.547c2.213 1.664 4.553 2.892 6.139 4.761 1.643 1.938 2.556 4.495 4.338 7.802l4.855-16.25c-2.503.253-5.851.591-9.974 1.14m-5.238 70.921c.939.54 2.273 1.78 2.754 1.508 3.653-2.059 7.138-4.413 11.371-7.121-13.15-3.428-13.15-3.428-17.764.003l3.74 1.824-5.857 2.98.486 1.143c1.549-.257 3.097-.513 5.27-.337m64.325 68.786-2.654 2.483c.858.082 1.811-.042 2.55.3.922.426 1.655 1.252 2.491 1.877 1.583 1.182 3.18 2.343 5.711 4.203v-8.976l-6.656-12.389c-3.314 4.004-1.76 7.9-1.442 12.502m36.433-312.273c-4.159-6.274-11.7-3.453-17.425-6.202 1.188 2.134 3.883 3.713 4.098 5.58.26 2.25-1.582 4.745-2.968 8.296 6.46-2.748 11.534-4.906 16.295-7.674m-110.115 77.247 2.275-2.589c-5.867-.926-11.342-5.623-16.705.514l3.204 1.813-5.477 2.868.539 1.197 5.452-1.009-1.171 2.934.848.913c3.469-2.108 6.937-4.217 11.035-6.64m66.77 457.224 5.492 11.192c4.743-4.429 1.25-13.428 9.833-16.105-7.238-1.942-12.307 1.248-17.426 4.243.446.2.892.4 2.102.67m-65 8.799c1.518 2.463 2.806 5.254 6.134 4.88 2.418-4.196-3.026-9.582 2.934-12.475-6.944-3.892-11.089 3.255-16.985 4.485 1.09.867 2.277 1.208 3.477 1.492 1.376.326 2.765.603 4.44 1.618M362.57 293.907l-9.997 5.109c1.57.615 2.997 1.726 3.761 1.378 3.053-1.39 3.876.407 5.29 2.528 1.237 1.855 3.455 3.056 5.705 4.934l.89-14.207c-1.063 0-2.988 0-5.649.258m-212.46 220.715 4.623.277 7.95 7.611 1.427-1.055v-12.392c-5.232-1.02-10.429.585-14 5.559m152.792 14.866 1.226-14.114-15.087 5.269-.082 1.793 5.154.394c3.07 2.603 5.605 4.752 8.789 6.658M372.516 335l-1.521-4.85-1.315.002-4.711 12.108 2.024-.349 7.373 9.287c.913-5.606-.21-13.361-1.85-16.198M240.801 522.51c1.018 1.109 2.08 2.18 3.046 3.334 1.666 1.994 3.272 4.038 4.903 6.061l1.067-.777-.708-13.718c-5.797-3.652-8.76 1.112-12.084 6.113a56.146 56.146 0 0 0 3.776-1.013M459.34 101.053l4.949 3.706c2.326-5.024-2.56-10.354 3.704-13.46l-1.106-1.454-15.81 5.566-.141 1.338c1.04.347 2.397 1.294 3.065.94 3.243-1.721 4.062.508 5.339 3.364m-169.74 13.21 14.16-2.21c-4.305-3.745-7.29-8.574-13.57-7.08l1.7 3.382-5.716.85.285 1.41 3.814.565c-.534 1.207-.943 2.131-.673 3.083m88.064 303.927-10.271 4.965.729 1.185 5.076-1.466 4.137 11.084 6.48-16.186c-1.35.061-3.383.154-6.151.418m64.817-303.332 7.605-2.848c-2.685-4.465-10.224-7.59-17.735-5.755 11.759 1.864 2.698 6.876 3.031 11.203 2.443-.869 4.41-1.568 7.1-2.6M345.68 84.88l-11.816 6.24-.094 1.71c8.104-4.22 6.788 2.727 8.808 6.889l7.788-14.238a186.15 186.15 0 0 1-4.686-.6M139.025 528.557l5.883 2.184-2.4 5.928.892 1.13 13.104-8.221c-5.152-4.943-10.969-3.52-17.48-1.02M469.66 375.623l-2.885-9.849c-6.116-2.071-12.348-.094-11.504 4.342 8.721-2.806 9.127 7.529 15.367 9.726-.294-1.376-.524-2.451-.978-4.219m-113.95 14.22 3.542-.617-.707 4.8 1.097.278 2.832-5.312 1.087 3.579 1.364-.036 1.403-14.58c-5.756 2.507-9.882 5.349-10.617 11.888m-8.418 143.805 1.043 2.47c1.168-1.005 3.11-1.843 3.372-3.045 1.21-5.56 4.966-6.82 9.876-6.757 1.477.018 2.959-.329 4.985-.574-9.809-5.777-14.96-4.427-18.335 4.299-.353.912-.47 1.916-.94 3.607m-1.41-161.93-3.978 1.455c2.957 1.942 5.436 3.632 8.04 5.099.133.074 1.501-1.705 2.028-2.754.732-1.458 1.211-3.042 1.519-3.842l-5.963-10.425-1.356.195c0 3.164 0 6.327-.29 10.272m-53.563-17.912 3.245-6.23c-6.804-2.736-10.581 3.027-15.889 5.92 8.056-2.958 6.115 4.76 8.95 8.203 1.346-2.759 2.416-4.951 3.694-7.893m202.867 96.205-6.374-11.24c-.951 2.618-2.223 4.971-2.588 7.458-.346 2.35.121 4.695-3.29 4.876-.34.018-.62 1.2-.926 1.842.664.302 1.435.992 1.977.844a97.76 97.76 0 0 0 11.201-3.78m-311.69 60.709c-5.585-2.098-3.214 6.273-7.948 5.688 6.455 3.232 12.171 2.637 18.393-1.658-3.734-1.538-6.726-2.771-10.446-4.03m39.587-415.824 11.601-2.848c-2.924-8.939-9.67-4.014-14.912-4.6l-.196 2.877 3.706.4c-.364 1.528-.673 2.821-.2 4.17m-51.274 129.92 9.28-1.589c.078-.432.154-.864.23-1.296l-11.311-7.756-.917 1.283 2.27 3.609-5.346-.788-.663 1.131 4.537 2.801c-.91.496-1.675.91-2.976 1.618 1.675.378 2.882.65 4.896.987m269.867 177.699c2.216 2.855 2.497-.048 2.867-1.144 1.254-3.714 2.262-7.51 3.638-12.213l-14.58 4.126-.195 1.523c5.384-.423 8.553 1.414 8.27 7.708m-176.81 96.26c1.369 1.374 2.97 2.59 4.047 4.164 1.276 1.864 2.101 4.037 3.772 7.376l4.338-13.476H262.76l-.156 1.047c.515.261 1.03.522 2.262.888m-1.816-408.219 11.17-9.889c-7.372-3.014-12.21.195-17.31 4.708l6.568-.346c-.266 1.999-.456 3.426-.428 5.527m-19.53 101.271c-.037.659-.366 1.65-.06 1.919 1.403 1.233 4.038 2.12 4.215 3.408.19 1.394-1.852 3.094-3.29 5.201 4.499-.489 8.477-.973 10.732-5.015.512-.917.32-3.35.017-3.43-3.582-.94-7.247-1.567-11.614-2.083m220.463 196.12-1.376-3.375-4.339 9.186-4.388 2.955c4.817.683 9.647 3.303 11.988-.629-.78-3.17-1.301-5.287-1.885-8.137m-93.624-342.61 1.964 3.492h-5.299l-.111.884 4.135 1.832-2.83 1.644.76 1.509 12.468-1.35.621-1.835c-3.686-2.165-7.372-4.329-11.708-6.175m-19.972 495.666-5.14 1.609 4.49 1.92-3.639 2.121 2.798 4.72 11.784-8.85c-3.919-.663-6.727-1.137-10.293-1.52M250.717 235.54l6.766 1.78.623-1.674-13.716-10.615-1.451 1.182c.997 1.834 2.007 3.662 2.986 5.506.474.893 1.016 1.779 1.298 2.735.274.928.254 1.943.363 2.919.772-.64 1.543-1.282 3.131-1.833m236.049 236.02-6.388-10.792-1.962 11.058-3.556 3.162 1.084 1.701c3.442-1.561 6.884-3.123 10.822-5.128M374.167 572.09l5.38 6.235 1.073-13.987-12.66 5.108.23 1.129c1.872.276 3.742.552 5.977 1.515m72.426-435.543-1.788 10.986 7.563 4.222c2.474-6.855-1.693-11.164-5.775-15.208m-44.086-42.984c.662-5.993-1.782-10.224-7.049-13.074l-.877 10.169c1.422.613 2.937 1.238 4.426 1.919 1.058.484 2.08 1.044 3.5.986M93.113 489.344l2.972.953-3.28 1.238.956 1.22h13.01l.644-1.504-11.23-7.3-.984 1.363 1.693 2.606-4.573-.432c.045.56.09 1.12.792 1.856m233.26-153.38-3.898 6.055 1.335 1.76c4.616-6.418 10.073-10.276 18.078-6.378-7.012-9.483-10.01-6.54-15.516-1.438M468.198 491.02l9.219-5.61c-5.122-3.078-9.609-4.071-14.281.027l3.756 1.36-5.196 2.654c2.346.649 4.025 1.113 6.502 1.569M340.822 108.565l3.065 4.208-.987 6.557 11.438-7.929c-.2-.218-.576-1.02-1.07-1.101-3.896-.64-7.814-1.142-12.446-1.735M223.617 271.54c-1.695-4.64-6.83-4.45-9.389-7.877l-.936.918 4.463 11.467c.618-.176 1.89-.807 3.176-.838 1.543-.036 3.098.439 6.132.936-1.505-2.177-2.168-3.135-3.446-4.606m-57.843-127.205 3.251.307v-6.711l-10.617-4.855-.845.73 5.822 10.436c-.017.002.887-.086 2.389.093m130.865 226.02c6.284 3.719 8.417-1.998 11.795-4.787-4.48-1.636-8.853-3.946-13.437-.332l3.307 1.98-5.589 2.95c1.94.318 2.616.43 3.924.188M491.202 129.81l-5.753-7.447-1.263.557 1.507 9.597-2.85 2.098.56 1.5c3.396-1.051 6.973-1.743 10.1-3.325 1.293-.655 1.212-3-2.301-2.98m-58.546-63.805c3.523 1.312 5.735.081 6.585-3.05L432 53.253l-1.89.738 2.333 9.866-3.07 2.14.418.746a38.342 38.342 0 0 1 2.865-.738M344.104 50.36c6.194.296 5.137 5.708 6.348 10.34l7.537-12.711c-4.826.554-9.28 1.065-13.885 2.371M134.818 171.682l.37-2.582c-3.153-1.259-5.904-2.353-8.647-3.467-.115-.047-.156-.275-.232-.418.01.152.022.305.125 1.706l2.93 11.498c1.803-1.995 3.637-4.023 5.454-6.737m125.54 378.432-8.248 2.452c1.83.984 3.983 1.43 4.497 2.597.646 1.47-.046 3.53-.16 5.336l1.024.366 8.095-8.935c-1.43-.58-2.934-1.188-5.208-1.816m95.798-234.37 3.828 13.27c1.333-1.252 3.056-2.234 3.755-3.703.726-1.523 1.273-4.381.469-5.139-2.068-1.948-4.927-3.058-8.052-4.429m.137 21-6.278-8.277-3.21 14.777c3.508-2.277 6.276-4.074 9.488-6.5M292.028 71.82l1.558 3.501-1.044 1.097c4.905 2.411 8.655-.87 13.267-2.875-5.058-1.552-8.993-6.007-13.781-1.723m75.597 301.168 8.794 6.037v-9.198l-5.172-3.942c-1.32 2.358-2.485 4.44-3.622 7.103m-60.874-89.875-3.641-7.01-4.218 10.121 2.35-2.976 2.969 10.427 2.113-1.802c0-2.721 0-5.442.427-8.76m18.26 275.357-.777 4.424 11.153-5.342-.429-1.663-12.092-2.748c.901 2.344 1.36 3.538 2.145 5.33m-32.11-226.994-5.636 5.933c1.165.647 2.572 1.593 2.68 1.464 3.581-4.321 7.857-1.406 12.999-.861-2.925-3.849-5.65-6.105-10.043-6.536M135.08 428.63l9.414-11.213-11.009 2.711c-.292 1.999-.801 3.735-.711 5.439.067 1.271-2.651 4.341 2.306 3.063M327.226 92.328l-2.516-5.572-1.265.176c-.315 3.422-.63 6.844-.953 10.373l6.096 4.804 1.075-7.779c-.629-.332-1.458-.77-2.437-2.002M448.558 450.79l10.673-6.623-11.752-5.014c.813 2.886 1.748 4.913 1.846 6.98.073 1.537-.94 3.125-.767 4.657M212.81 231.58l1.68-1.037c-5.525-4.593-9.206-1.326-13.136 3.286l4.249.366v4.41c2.882-2.837 4.782-4.706 7.207-7.025m186.062 117.883 2.263-1.042-.15-1.221H389.08l1.22 7.726c2.759-1.735 5.39-3.39 8.571-5.463M133.708 479.76l-4.02 4.455 12.71.892c-.669-5.293-4.125-6.747-8.213-7.383-.12-.019-.395.953-.477 2.036m129.275-351.937 4.3-2.632-7.574-9.19-1.105.171v12.267c.46-.062 2.048-.276 4.379-.616m-136.574 61.962-5.063 3.141c5.415-1.574 5.076 3.414 6.873 6.537l5.663-10.798c-2.475.252-4.67.477-7.473 1.12m341.02 345.736 5.569-9.726-1.02-1.532c-3.447 1.573-6.894 3.145-10.334 4.732-.024.011.048.23.077.363 4.697-.793 3.883 3.425 5.708 6.163m-29.656-413.542c-4.245-4.313-4.291 1.79-6.589 2.54l7.67 8.734.834-.717c-.422-3.416-.844-6.832-1.915-10.557M157.56 468.444l-.724-.612c-.91 3.067-2.872 6.305-2.408 9.148.393 2.416 3.584 4.376 5.537 6.538l1.309-.899c-1.151-4.51-2.302-9.02-3.714-14.175m67.207 75.964 2.815-2.053c-6.13-2.604-10.336 1.183-14.914 3.003 4.021 5.99 7.546 2.549 11.108-.287.128-.102.283-.17.991-.663M426.34 410.742c.79-.194 2.024-.138 2.298-.624 1.47-2.608 2.703-5.351 4.02-8.055-5.04-1.099-7.68-.117-12.122 5.016 4.338-2.195 5.354-.09 5.804 3.663m-249.025 124.21-1.618-5.955-6.265 12.974 11.852-3.535c-1.993-1.512-2.844-2.159-3.969-3.484M282.678 270.27l-4.001.922 2.732 12.05c1.824-3.258 2.88-5.22 4.008-7.14 1.627-2.774 1.773-5.014-2.74-5.832M131.952 440.534l-4.397 5.446 7.674 3.723V436.42c-1.494 1.771-2.218 2.63-3.277 4.114m181.127 94.49-9.812.13.008 1.472 3.776 1.573-2.49 3.554c3.707-1.01 6.327-1.422 8.614-2.527.688-.333.448-2.59-.096-4.202m74.02-467.6-4.176-4.831v12.076c2.148-.758 6.843 2.673 7.484-2.377a276.418 276.418 0 0 1-3.307-4.867m75.927 56.284-1.825-2.755c-.998 2.844-2.034 5.147-2.527 7.56-.168.826.932 2.689 1.613 2.772 2.666.328 5.397.134 8.211.134a486.583 486.583 0 0 1-5.472-7.711M119.262 470.662l-3.287 4.449.521.927 9.215-2.695c-1.604-3.787-2.83-6.681-4.224-9.976-.85 2.51-1.527 4.506-2.225 7.295m164.986 95.041c4.542-1.514 4.542-1.514-.39-8.014l-3.396 1.603-1.277 6.995c1.422-.114 2.89-.23 5.063-.584M109.35 191.19l3.643 4.207c.305-5.624-.993-10.186-4.296-15.686l-1.695 10.184c.44.141 1.217.39 2.348 1.295m175.427 408.967c1.176-1.44 3.582-3.836 3.326-4.166-1.557-2.009-3.721-3.547-5.683-5.241l-.81.994 1.428 4.582-5.939 2.548c2.387.515 4.707 1.015 7.678 1.283M156 78.456c1.389-1.524 2.778-3.047 4.055-4.45l-11.559-4.227c.793 2.021 2.206 3.155 3.326 4.528.68.833 1.278 2.043 1.259 3.071-.034 1.851-.24 1.848 2.92 1.078m52.122 37.698-9.251-2.715 4.75 7.163 9.349-1.584c-1.7-1.09-2.908-1.866-4.848-2.864m-20.896 84.136v2.977l8.639-1.801.275-1.129-13.455-5.747-.636.861c1.519 1.43 3.038 2.86 5.177 4.84m301.714 164.162 3.951-4.475-11.72-4.172c.89 3.72 7.034 4.31 4.305 9.184 1.006.005 2.012.01 3.464-.537M168.51 289.33c-.552-3.143-2.78-4.278-9.542-3.96 5.595 2.094 1.822 3.499 1.135 4.625 3.048 4.727 5.448 1.917 8.407-.665m300.748 214.462-2.193-6.35c-.37 0-.74.002-1.11.004l-2.37 11.395c2.613-.478 6.609.96 5.673-5.049m38.838-376.6-.51 2.373-3.33-1.024c1.626 4.845 4.078 7.54 10.419 5.582-2.304-2.64-4.127-4.73-6.579-6.931m-31.223 18.46c-1.098-5.417-4.893-2.858-7.345-3.074l1.096 8.937c2.288-1.82 4.35-3.46 6.249-5.863m-93.29 372.435-4.994-4.16-.683.65 4.591 9.675 6.005-3.204c-2.051-1.06-3.287-1.7-4.92-2.96M111.925 155.522c-.038.16-.11.322-.103.48.007.145.1.287.155.43l7.228-4.224c-5.612-4.402-8.205-1.996-10.05 2.77.859 0 1.646 0 2.77.544M98.869 421.561l.787 3.843 6.58-6.113-10.448-3.116c1.624 2.408 2.375 3.522 3.081 5.386M464.2 69.658l-8.5-2.209 3.72 9.282c1.705-2.245 3.281-4.321 4.78-7.073M338.048 351.62l-6.537-1.043-.257 4.243c.445.203 1.497 1.078 2.542 1.071 1.598-.011 3.292-.422 4.726-1.117.447-.217.185-1.899-.474-3.154m149.59 44.648 2.484.745c-5.11-6.77-8.723-6.5-12.62.276 3.004-.419 6.181-.862 10.137-1.02M255.92 304.623l.593 8.467 8.159-5.585c-3.435-1.448-5.827-2.457-8.752-2.882M128.632 498.06l-1.65.963 5.32 6.111 2.786-8.696c-2.338.55-4.063.957-6.456 1.622m249.01-414.768.585 7.361 7.822-5.22c-3.635-1.174-6.117-1.976-8.407-2.141m-230.55 382.383 3.432-3.6-7.072-3.46 1.001 9.61c.98-.878 1.573-1.41 2.64-2.55m113.99-328.423 1.006-5.122-6.438 2.732 3.836 6.462c.582-1.342 1.027-2.368 1.595-4.072m-28.992 355.85c.128.518.134 1.407.404 1.497 2.725.904 5.494 1.677 8.394 2.53l-3.034-6.448c-1.964.73-3.612 1.343-5.764 2.421m5.4-226.827-4.714 1.44 5.17 6.181.948-.457c-.212-2.348-.424-4.695-1.403-7.164m131.123 332.7-6.26-3.036 4.087 7.751c4.01-2.033 4.216-2.34 2.173-4.716M158.581 501.83l4.46-2.065-8.036-2.242v8.61a464.93 464.93 0 0 1 3.576-4.303m-46.961-48.586 1.604 5.421c.878-2.894 5.609-5.283.715-8.576-.96.945-2.004 1.97-2.32 3.155m93.843-325.22c4.465.46 4.783.243 5.937-4.86l-8.789 3.197c1.218.579 1.804.857 2.852 1.663m97.54 168.56-2.91-1.76 1.779 8.35 5.25-4.295c-1.56-.808-2.553-1.322-4.119-2.294m-8.22 268.56v3.635l1.089.042 1.922-4.995c1.525.31 2.752.558 4.375.886-3.6-4.626-4.317-4.606-7.387.432m196.667-167.671s-.087-.008 0 0m-101.941-93s.001.04 0 0M154.493 496.526s-.001-.04 0 0z"/><path fill="#195896" d="m343.373 7.085-1.702-1.938c1.39-1.157 2.78-2.313 4.249-3.808C347.067 1 348.133 1 349.6 1c1.546.706 2.692 1.411 5.062 2.87-3.806 1.956-6.995 3.595-9.975 4.652.205-1.14.2-1.699.194-2.257l-1.508.82z"/><path fill="#0B4E90" d="M252.18 76.724c-5.81.122-11.046-1.166-15.78-4.18-1.792-1.14-3.303-2.72-5.36-4.451l-1.64 7.274c-5.63-1.47-7.857-4.592-9.15-12.796h7.21c-.537-2.28-.85-4.387-1.534-6.366-1.746-5.041 2.48-7.696 4.269-11.344.739-1.508 1.034-3.234 1.851-5.908l7.464 15.868 7.334-3.255c-.948 4.017-3.123 7.955-2.251 11.028.87 3.064 4.878 5.184 7.347 7.868 1.584 1.722 2.873 3.715 4.793 6.243-2.21.149-3.29.22-4.554.02z"/><path fill="#08B5DD" d="M174.916 176.148c-2.608 2.515-4.83 5.118-7.322 8.036l-2.753-1.384 2.988-7.743c-3.733-4.153-6.9-7.377-9.697-10.895-1.806-2.27-1.195-4.088 2.05-4.159 3.796-.082 7.605.098 11.384-.168 1.414-.1 2.895-.944 4.107-1.79 1.596-1.116 2.957-2.568 4.467-3.919.375.487.704.728.67.898-1.535 7.865-1.471 7.735 5.551 11.42 4.229 2.22 8.206 4.919 12.282 7.394-3.174 5.46-10.996 6.102-23.727 2.31z"/><path fill="#094C8F" d="M139.322 123.524c2.225-.704 4.117-1.196 6.008-1.688-4.89 5.239-4.33 9.777-.055 15.044 2.965 3.652 4.707 8.298 7.05 12.6-5.218 4.482-14.21.426-24.608-12.448l-6.215 8.828c-1.92-2.4-3.183-3.977-4.737-5.917 1.543-1.082 3.154-2.117 4.659-3.29 2.179-1.698 4.079-2.927 2.867-6.794-1.56-4.977 3.661-6.455 6.752-8.815.499-.381 1.024-.726 1.28-.907 2.077 1.121 4.37 2.36 6.999 3.387z"/><path fill="#0C7CC1" d="M432.132 542.986c-2.019.831-3.662 1.58-5.305 2.328l-.87-1.215 7.508-5.038-10.424-9.315-5.37 4.95-3.837-2.987 7.478-6.508c-6.577-5.194-4.105-11.62-4.109-17.651l1.223-.667c2.345 2.453 4.944 4.716 6.966 7.411 2.263 3.017 4.529 4.537 8.153 2.363.657-.394 1.56-.377 3.129-.72-1.04 1.535-1.67 2.53-2.363 3.48-2.152 2.947-1.822 4.954 1.813 6.496 2.095.888 3.82 2.652 6.52 4.608l5.984-1.45c-2.427 6.644-7.785 11.198-16.496 13.915z"/><path fill="#0A4D90" d="M139.254 219.596c1.562-5.534 3.111-10.656 4.66-15.779l1.6-.149-6.85-5.537 2.813-2.58 7.478 5.826c5.48-8.083 13.224-9.647 21.384-10.168l.97 1.371-12.266 15.1 3.668 6.916c-1.868-.797-2.559-1.044-3.206-1.376-3.803-1.95-6.664-1.97-9.414 2.292-2.166 3.355-5.797 5.764-9.458 9.239-.64-2.187-1.016-3.465-1.379-5.155z"/><path fill="#0A7BC1" d="m446.025 363.05-4.339 7.864c2.262 2.04 4.54 3.976 6.677 6.056 1.994 1.94 3.84 4.032 5.779 6.087-5.564 3.814-13.175 1.417-20.95-6.58l-4.266 6.414-4.107-5.449 6.673-4.654c-5.619-6.897-10.871-13.673-7.469-24.378l14.152 16.28c2.44-.62 4.798-1.221 7.525-1.717.369.105.325.077.325.077z"/><path fill="#0EB7DE" d="M370.193 546.562c1.807.038 3.236.163 5.673.375-4.87-7.744.797-13.554 2.261-21.163l6.327 13.466 6.63-3.007c.157.467.42.86.32 1.01-3.766 5.607-2.946 10.156 2.666 14.154 2.054 1.463 3.389 3.936 5.196 6.123-7.822 1.786-13.445.263-20.796-5.596l-1.406 5.564c-5.533-.406-8.54-4.947-6.871-10.926z"/><path fill="#087AC0" d="M256.772 155.002c4.483 2.048 8.57 4.008 12.656 5.968-6.161 1.164-10.233 4.047-14.232 8.566-3.877 4.382-9.713 7.032-14.653 10.418-3.58-3.873-1.441-5.984-.15-8.434 1.048-1.99 2.127-4.505 1.728-6.493-.204-1.013-3.595-1.551-5.613-1.99-2.429-.528-4.93-.723-7.4-1.062 2.118-.95 4.42-1.623 6.318-2.898 6.444-4.328 13.471-5.269 21.346-4.075z"/><path fill="#0B78BF" d="M346.906 433.071c3.997 2.677 7.657 5.2 11.434 7.803l4.974-3.16c-2.96 6.379.965 8.927 5.233 11.666 2.45 1.572 4.393 3.931 7.084 6.415-7.627 4.865-13.652.775-20.42-2.05l-4.188 7.09c-1.03-.946-1.924-1.77-2.805-2.58l3.61-5.987c-3.55-5.513-6.705-10.007-9.371-14.774-.886-1.583-.52-3.865-.727-5.828 1.613.416 3.226.833 5.176 1.405z"/><path fill="#0A4D90" d="M297.299 121.286c.272 1.186.15 2.237.08 2.834l9.566 3.005-.122 1.452c-3.896 1.448-6.633 3.685-9.417 7.064-3.525 4.279-10.145 6.007-15.43 8.835l-1.62-1.809 4.573-7.625-.66-1.351-10.827 3.94 2.785-4.946c-1.118-.445-2.207-.878-3.6-1.43.566-.61.823-1.147 1.146-1.19 1.968-.267 3.955-.39 5.93-.617 4.187-.483 4.165-2.258.154-5.853 6.42-.92 11.733-1.681 17.442-2.309zM447.809 456.343c5.324 1.973 10.284 3.793 15.604 5.746l7.618-4.856-1.195 5.28 3.647.626-16.352 19.31-5.34-.527 4.607-7.804c-4.911-5.196-9.416-9.734-13.599-14.552-.994-1.145-.911-3.225-1.552-5.79 2.698 1.052 4.449 1.733 6.562 2.567z"/><path fill="#08B5DD" d="M203.51 77.902c-2.126.477-3.88.907-4.224.991l-8.235 18.563c-5.86-3.76-7.472-8.911-7.147-15.244.35-6.806.061-6.816-6.663-7.169-1.295-.068-2.588-.185-3.92-.281l1.234-5.692c1.268.437 2.564.969 3.907 1.326 2.462.656 4.441 1.157 7.511.324 4.106-1.115 9.283 1.119 13.834 2.472 2.663.792 5.003 2.67 8.563 4.661-2.391 0-3.44 0-4.86.049z"/><path fill="#0C7CC1" d="M382.368 333.731c.832-2.066 1.973-3.901 3.54-6.421 6.333 6.99 10.945 4.901 14.771-1.886.594-1.054 1.998-1.652 3.093-2.513 3.22 1.95 7.296-.496 8.956-5.617 2.902 3.984 2.902 3.984-5.265 20.255 1.722 1.565 3.49 3.17 6.191 5.626-5.999 0-10.854.225-15.666-.133-1.513-.112-3.175-1.551-4.309-2.801-3.017-3.328-6.196-6.17-11.311-6.51z"/><path fill="#0C4F90" d="M311.87 487.186a1851.67 1851.67 0 0 1 10.256 7.202l5.357-1.53 3.75 4.94-19.03 13.74.667 1.301-6.46-1.784 6.102-6.584c-3.585-6.55-6.75-12.108-9.63-17.81-.483-.958.27-2.54.451-3.833 1.226.377 2.543.583 3.654 1.174 1.602.853 3.056 1.986 4.883 3.184z"/><path fill="#21C1F1" d="M234.215 195.558c-5.828 5.098-11.41 10.04-17.335 14.53-1.594 1.208-4.228 1.043-6.384 1.508l-.383-1.46 5.508-6.979c-4.343-5.89-8.292-10.919-11.795-16.241-.817-1.242-.12-3.48-.12-5.668l20.11 11.509 7.885-3.436c-1.247 3.463-1.523 6.089 2.514 6.237z"/><path fill="#0B78BF" d="M421.678 421.117c-1.741 1.864-5.578 3.748-5.54 5.551.105 5.005 1.804 9.98 2.917 14.957.213.953.626 1.862.944 2.781-5.422 2.55-10.141-2.082-15.89-15.836l-8.059 3.693-1.516-5.417c1.838-.382 3.487-.563 5.014-1.094 1.195-.416 3.211-1.286 3.199-1.922-.134-6.864 5.726-6.566 9.695-8.454.94 1.829 1.883 3.659 2.773 5.388 2.173.12 4.154.228 6.463.353z"/><path fill="#0D5091" d="M279.05 31.947c1.392.295 3.397.113 4.066.971 2.332 2.992 4.58 6.172 6.144 9.606 1.616 3.548 3.288 5.579 7.339 3.49.514-.265 1.283-.036 2.285-.036-2.292 3.94-4.302 7.764-6.718 11.313-.676.994-2.512 1.288-3.877 1.707-4.029 1.235-8.088 2.372-12.613 3.686l-1.43-5.035 8.032-4.196c-.892-2.551-2.065-4.67-2.285-6.882-.217-2.18-3.174-5.02.971-6.803.37-.16.117-2.39-.264-3.518-.47-1.395-1.378-2.641-1.954-3.75.498.173.855.143 1.211.113l-.907-.666z"/><path fill="#0EB7DE" d="M378.453 412.865c-1.117-1.192-1.911-2.158-2.805-3.244l4.127-3.38c-2.735-6.332-5.26-11.941-7.52-17.655-.373-.94.425-2.343.842-4.276 2.944 2.63 5.302 4.666 7.58 6.788 2.297 2.139 4.516 4.361 6.353 6.144h6.828c-3.141 2.746-4.237 4.42-.942 7.493 1.864 1.74 2.671 4.61 3.955 6.972-2.823.105-5.697.574-8.45.187-1.825-.256-3.476-1.74-5.305-2.728-1.288 1.165-2.813 2.545-4.663 3.7z"/><path fill="#0CB6DE" d="M175.87 121.04c4.143 3.753 8.205 7.603 12.488 11.188 1.02.854 2.773.853 4.201 1.193 1.232.293 2.48.513 3.686.757-6.282 6.988 4.587 8.293 3.376 13.314-3.502 2.91-7.421 2.483-14.045-1.913l-3.217 4.75-4.287-3.491 4.974-4.135c-2.61-5.281-5.209-9.944-7.18-14.858-.684-1.708.19-4.04.197-6.47-.154-.384-.192-.335-.192-.335z"/><path fill="#0AB6DD" d="M449.555 423.445c.453-2.577.76-4.775 1.066-6.973-2.211-.15-4.425-.449-6.632-.404-1.728.035-3.447.496-5.17.767l-.592-1.732c5.565-3.024 10.838-7.088 16.784-8.762 5.267-1.484 11.282-.311 17.303.636-5.884 2.34-8.22 7.011-10.771 11.889-1.616 3.089-4.78 5.427-7.465 7.864-.81.735-2.937 1.295-3.415.839-.842-.803-.88-2.45-1.108-4.124z"/><path fill="#0B78BF" d="M190.881 558.885c-.587-1.235-.98-2.134-1.532-3.402-1.91.95-3.753 1.864-5.867 2.914l-1.523-5.002 6.956-1.58c-1.666-7.664-3.625-15.04 2.206-22.692 2.108 5.243 4.508 9.355 5.31 13.757.729 4.004 2.26 5.78 8.008 5.379-8.901 4.648-.903 10.726-4.022 15.685-4.251 1.012-6.59-2.3-9.536-5.06z"/><path fill="#0CB6DE" d="M408.086 484.969c-.844-2.429-1.633-4.48-2.42-6.528 4.979-1.34 9.323.84 13.5 7.033l5.687-3.115c-2.756 5.09-1.347 8.299 1.137 11.819 1.668 2.362 1.526 6.003 2.194 9.071l-1.462.864-12.065-7.526-3.467 6.009-3.653-5.007 4.887-3.414c-1.712-3.529-2.998-6.18-4.338-9.206z"/><path fill="#0A4D90" d="M360.678 563.635c-.194 1.567-.522 3.133-.544 4.704-.021 1.513-.075 3.182.502 4.515 1.16 2.675 5.06 5.368 1.364 7.994-1.751 1.244-5.412-.2-8.207-.425l-.27-1.427-2.802 5.681-4.208-3.626 4.62-5.845c-5.737-4.045-10.344-8.662-12.145-15.265l1.087-1.505 16.375 7.802c.585-.333 2.14-1.218 3.975-2.33.28-.228.253-.273.253-.273z"/><path fill="#0AB6DD" d="M351.417 421.175c-2.09.62-3.728 1.432-5.46 1.779-.901.18-1.966-.459-2.77-1.773l8.66-3.257c-3.233-8.178-6.193-15.882-1.24-24.874 3.492 5.255 7.461 10.27 10.283 15.863 1.46 2.894 2.548 4.685 6.53 3.929-4.103 5.932-9.327 8.11-16.003 8.333z"/><path fill="#0E5091" d="M313.012 302.208a664.673 664.673 0 0 0 3.525 7.332l4.425-1.806c.122 2.851-.548 6.151.583 8.629 1.286 2.814 4.183 4.891 6.379 7.29-.246.477-.492.955-.737 1.434l-16.398-3.92-1.549 4.45-6.97-10.537h5.028l3.52-16.791c1.174 2.035 1.621 2.81 2.194 3.919z"/><path fill="#0F7EC2" d="M284.089 539.314c-4.747-.966-9.146-1.858-13.546-2.75l-.182-1.62c-.55 1.384-1.1 2.768-2.326 5.847l-6.712-10.625h4.977c1.16-5.483 2.232-10.54 3.6-17.008l5.799 11.512 6.304-2.697c-7.196 9.233 2.485 11.569 4.829 17.293-.971.05-1.684.085-2.743.048z"/><path fill="#0F5192" d="M170.901 252.178c1.357 1.468 2.495 2.664 3.824 4.06l5.446-4.498c-4.725 11.523 6.558 10.31 9.938 15.521-3.126.467-5.93 1.153-8.751 1.231-2.71.075-5.437-.48-8.406-.784v5.561c-3.876-2.84-6.65-4.871-10.403-7.622l4.983-1.87-1.677-16.268c2.138 1.947 3.483 3.172 5.046 4.669z"/><path fill="#0CB6DE" d="M195.914 253.39c.655-1.34 1.749-2.892 1.403-3.346-3.896-5.11 1.208-7.137 2.46-9.101h9.186l-.605 4.391 10.258 12.259c-2.853 3.066-8.865 2.09-18.378-4.24l-3.081 5.775-4.665-3.46c1.218-.756 2.205-1.368 3.422-2.278z"/><path fill="#0D5091" d="M313.875 50.768c.012-1.358.029-2.687-.578-3.602-3.136-4.725-7.193-9.065-5.855-16.473 3.215 2.581 6.066 4.438 8.365 6.827 2.782 2.891 5.166 5.977 10.306 1.657-4.156 7.172 2.229 9.508 4.715 13.307-3.556 3.486-7.073 3.285-13.152-.667l-2.881 4.846-3.803-3.549c.919-.751 1.759-1.439 2.883-2.346z"/><path fill="#13B8DF" d="M220.546 531.7c-1.05.999-1.838 1.945-2.825 2.252-3.86 1.199-7.783 2.196-12.335 3.447l-.983-4.033 6.438-3.44c-.358-4.465-4.846-8.09-.92-12.858-.43-.374-1.603-.91-1.648-1.528-.115-1.601.266-3.238.449-4.86 1.352.516 3.253.639 3.957 1.62 2.596 3.62 4.797 7.525 7.339 11.635l5.556-.852a1206.962 1206.962 0 0 0-5.028 8.617z"/><path fill="#0C7CC1" d="M242.582 149.633c-3.088-1.418-5.769-2.796-9.32-4.624l-3.417 4.118-2.2-2.702 4.732-4.471c-4.372-4.847-7.916-9.683-8.136-15.976l1.171-.919c2.856 2.341 5.978 4.433 8.485 7.102 2.028 2.159 3.498 4.01 6.424 1.447.362-.317 1.442.185 2.733.397l-2.145 4.776 8.493 9.604-.487 1.286c-1.975 0-3.95 0-6.333-.038z"/><path fill="#0B78BF" d="M268.939 320.05c1.372 3.746 2.597 7.133 3.968 10.922l2.405.145-.694 15.182c-5.558-.638-8.094-4.532-10.216-9.342l-6.998 2.068-.827-1.343 6.934-3.606c-.372-6.51-2.087-13.22 1.686-20.55 1.517 2.6 2.556 4.383 3.742 6.525z"/><path fill="#0E5091" d="M264.17 583.996c.69-1.186 1.282-1.996 1.691-2.89.169-.368-.053-.915-.151-1.945l-7.821 2.147c1.11-2.292 1.474-3.815 2.41-4.788 1.244-1.293 2.934-2.157 4.431-3.205-1.327-1.105-2.697-2.161-3.963-3.332-.693-.64-1.208-1.473-1.84-2.264 8.938-3.27 15.702-1.614 16.956 4.019l7.868 1.047c-5.806 4.29-10.609 7.996-15.616 11.4-.967.658-2.737.133-3.964-.19z"/><path fill="#24C2F1" d="M175.94 120.988c-.3-.694-.63-1.385-.96-2.075l4.516-1.951-1.971-2.598-7.996 2.163-1.134-3.309 8.173-2.874-.06-1.33-6.614-2.29c5.492-4.723 12.263-4.748 18.494-1.133 1.897 1.1 4.843.39 7.985 1.626-6.709 4.399-13.418 8.797-20.314 13.51-.188.313-.15.264-.119.261z"/><path fill="#0B78BF" d="M251.673 299.22c-4.97 2.761-3.001 7.607-2.648 13.283-4.538-2.48-8.174-4.101-11.388-6.33-3.163-2.195-7.38 3.453-10.496-1.79l7.96-2.577v-14.38l1.338-.334c2.052 2.254 4.783 4.194 6 6.832 1.913 4.15 4.857 5.337 9.234 5.295z"/><path fill="#0D5091" d="M322.122 367.918c1.796 1.76 3.212 3.439 4.921 4.73 1.546 1.168 3.412 1.913 5.636 3.115-1.49 5.303 6.477 7.678 6.89 13.465-4.219 1.162-8.418-.33-13.208-4.894l-4.856 4.313-1.045-.827 3.654-5.613c-4.244-5.193-7.483-10.484-7.059-18.482a384.892 384.892 0 0 1 5.067 4.193z"/><path fill="#0A7BC1" d="M371.194 78.661c.202 2.007.349 3.608.54 5.693-4.964-.636-7.48-4.004-9.12-7.27-2.175-4.332-4.317-6.904-9.643-3.853l-.439-1.719L357.728 68l1.346-11.677 13.235 10.55c-6.19 2.145-1.059 7.239-1.115 11.79z"/><path fill="#0F5192" d="M429.535 98.487c-3.174-4.083-6.066-7.95-9.343-12.333l-5.22 2.674-1.044-3.855c2.88-1.386 7.028-.54 7.187-5.787.085-2.773 6.056-3.087 8.252-.829 1.005 1.034 2.538 1.555 3.829 2.307-3.399 5.824.477 11.777.802 18.53-1.356-.16-2.769-.326-4.463-.707z"/><path fill="#24C2F1" d="M268.234 253.916c1.666.19 2.988.19 5.491.19-9.386 4.94.396 10.998-3.107 17.362l-10.565-9.875-4.658 1.913c-2.05-5.018 4.047-2.876 4.579-6.165-1.976-5.004-1.484-10.595 2.838-17.012 1.913 5.048 3.495 9.223 5.422 13.587z"/><path fill="#21C1F1" d="M319.039 299.433c2.929-1.53 5.477-2.5 4.562-6.756-.304-1.412 2.597-3.798 4.435-5.22.599-.464 2.453.787 3.766 1.129 1.566.408 3.168.682 5.266 1.12l-2.751 4.59 7.263 13.483c-4.787 2.11-9.42-.407-16.686-9.51l-3.423 6.312c-1.41-2.617-2.028-3.766-2.432-5.148z"/><path fill="#0A7BC1" d="m280.808 284.842-.561 6.52 12.242 10.44c-7.547 3.228-13.232-.937-19.607-3.478l-2.65 6.01-3.283-2.078 1.488-.253c.085-3.06-.14-6.17.354-9.163.377-2.285 1.662-4.42 2.88-7.465 3.685 4.243 6.073 1.622 8.888-.328.293-.177.249-.205.249-.205z"/><path fill="#0F5192" d="M268.21 115.998a185.69 185.69 0 0 0-2.58.933l-.508-.582 3.842-4.12c-2.632-4.714-7.465 4.176-9.905-1.961l8.121-3.112-.04-1.369-7.723-2.479c5.574-2.97 11.322-5.233 15.661-2.751 3.404 1.947 6.567 1.822 11.104 2.91-6.399 4.509-12.014 8.465-17.973 12.531z"/><path fill="#115293" d="M294.291 93.806c-5.762 1.025-11.504 2.205-17.301 2.951-1.243.16-2.688-1.251-4.947-2.399l7.98-2.817c-1.65-6.304-2.374-12.288.647-19.08 2.146 3.825 4.132 6.523 5.242 9.542 1.634 4.444 4.136 7.27 8.65 6.929-.283 1.618-.523 2.993-.545 4.636.217.268.274.238.274.238z"/><path fill="#0E7DC1" d="M422.797 454.325c3.526 2.57 4.61 8.172 10.589 6.804-8.51 4.995.958 11.552-2.679 18.022-2.359-2.162-4.73-4.004-6.671-6.222-1.487-1.7-2.014-4.542-3.748-5.626-1.36-.85-3.917.213-6.43-.633l4.801-2.962c.278-2.663.37-5.441.978-8.101.16-.701 1.91-1.039 3.16-1.282z"/><path fill="#21C1F1" d="M342.96 473.737c5.205 1.93 10.05 3.826 15.936 6.128l3.489-1.644c-.193 2.802-.026 5.606-.703 8.19-.392 1.5-1.942 2.928-3.32 3.89-2.518 1.762-5.295 3.154-8.584 5.06.093-.796-.214-2.45.441-3.047 2.89-2.636 1.608-4.354-.685-6.438-2.565-2.332-5.046-4.843-7.074-7.631-.705-.968.052-2.999.5-4.508z"/><path fill="#0F7EC2" d="M142.493 109.253c-1.07 3.041-2.212 2.67-3.209.438-1.055-2.362-2.204-4.748-2.777-7.246-1.195-5.212-3.953-4.935-7.584-2.59-.54.35-1.157.578-2.569 1.269.28-1.566.112-2.897.66-3.337 6.281-5.048 18.62-8.428 21.546-7.004-.972 3.257-1.804 6.256-2.769 9.212-.979 3.001-2.09 5.96-3.298 9.258z"/><path fill="#0EB7DE" d="M366.828 496.773c5.733-2.868 9.45 2.456 14.502 2.172-6.188 4.427-8.973 12.85-18.31 12.81l2.818-5.376-.58-.87-6.528 3.176-1.838-4.664c6.346-2.7 6.346-2.7 4.183-4.693 1.915-.868 3.656-1.657 5.753-2.555z"/><path fill="#11B8DE" d="M435.336 504.778c-.824-.493-1.337-.822-1.902-1.185 1.937-2.311 6.8-.1 6.583-5.576-.092-2.315 8.21-2.846 11.157-1.432 2.11 1.013 4.721.978 7.566 1.493-6.906 3.508-8.914 13.186-18.626 12.548.99-1.937 1.821-3.563 3.362-6.574l-8.394 4.25c.23-1.373.397-2.367.254-3.524zM375.942 107.496c.03 1.847.03 3.29.03 4.732l-1.108.856c-2.308-2.724-5.278-5.133-6.763-8.25-2.046-4.296-3.99-6.698-8.725-3.59-.2.132-.792-.335-1.756-.778.88-.782 1.426-1.387 2.083-1.825 1.09-.726 3.173-1.266 3.237-2.02.69-8.118 5.708-4.808 9.867-3.97 1.594.32 3.238.39 5.397.635l-3.62 2.788c.476 3.953.902 7.485 1.358 11.422z"/><path fill="#115293" d="M221.638 148.95c-3.92 2.34-3.507 6.459-4.668 9.832-.998 2.902-2.252 5.715-3.99 10.061-1.325-3.177-2.244-4.963-2.825-6.852-2.314-7.528-3.164-7.98-10.473-5.153-.065-5.194 14.616-10.729 21.956-7.889z"/><path fill="#0C4F90" d="M190.935 282.083c4.242-1.22 8.117-2.3 11.162-3.15v18.471c-7.287.259-8.568-5.556-11.007-10.628l-7.216 2.283-1.053-2.676a559.926 559.926 0 0 1 8.114-4.3z"/><path fill="#117BC0" d="M217.995 553.945c.476-1.021.817-1.736 1.535-3.24 2.844 3.924 5.524 7.244 7.775 10.832 2.195 3.5 2.003 3.62 6.185 3.784-5.092 6.014-14.98 9.739-19.542 7.049l5.594-2.413c-.581-5.431-1.132-10.569-1.547-16.012z"/><path fill="#115293" d="M291.269 309.569c2.484-.41 4.772-1.148 8.5-2.352l-13.868 19.15-1.54-.955.94-4.613c-2.505 1.145-4.618 2.112-6.73 3.08l-.602-1.506 4.243-3.947-3.357-1.739c.282-3.605 9.168-8.897 12.414-7.118m-8.33 8.072-.39-1.185c-.25.092-.725.229-.717.27.098.485.267.957 1.107.915z"/><path fill="#24C2F1" d="M146.031 249.961c-4.866.945-5.792-3.6-8.122-6.034-1.282-1.338-1.828-3.38-2.836-5.36l-5.238 2.582-.937-3.268 1.244.614c1.425-1.97 3.028-3.836 4.23-5.933 1.56-2.725 4.642-3.11 7.338-1.254 1.627 1.12 3.89 1.318 6.388 2.092l-3.941 3.655c.657 4.055 1.315 8.109 1.903 12.558-.07.395-.029.348-.029.348z"/><path fill="#1280C3" d="M248.246 40.16c2.538-1.339 5.656-1.132 5.717-5.295.016-1.063 3.276-2.078 3.763-2.364l8.379 3.457-3.827 3.303 3.226 12.87c-4.808.145-8.564-3.57-11.13-11.189l-5.108 2.296c-.413-.96-.79-1.84-1.02-3.078z"/><path fill="#14B9DF" d="M199.02 42.03c1.922-3.182 3.803-5.98 6.313-9.714 2.8 5.728-1.16 12.038 6.73 14.423-8.256 1.284-3.478 7.592-6.648 11.696l-7.478-10.345c-.931-1.801-5.716.974-4.413-3.846 2.033-.682 3.744-1.257 5.496-2.214z"/><path fill="#17BADF" d="M468.174 434.032c1.073-3.686 2.179-6.945 3.284-10.203l1.635.355 2.064 9.475 3.537.563c-5.846 5.043 1.987 10.184-.472 15.76-4.848-1.636-6.903-5.843-9.227-10.156l-5.342 1.115c1.749-2.49 3.15-4.486 4.52-6.91z"/><path fill="#0E7DC1" d="M424.776 117.125c-1.779 1.057-3.57 1.764-4.518 3.08-1.495 2.07-2.422 4.55-3.59 6.858l-1.901-.082-1.174-11.967-3.525-1.494.151-1.105 4.593.369 10.36-10.448 1.741 1.139-3.511 10.086c.54 1.082 1.14 2.284 1.374 3.564zM380.135 483.677c-2.755-.131-5.139-.366-7.523-.601l-.176-1.705 19.694-5.378.559 1.252c-5.686 5.722.506 12.092-1.861 19.45-3.722-4.73-7.022-8.926-10.693-13.018z"/><path fill="#135494" d="M143.603 176.962c2.95-4.82 9.266-5.894 15.013-3.72-8.455 3.6-1.682 10.525-4.61 16.723-2.273-1.88-5.508-3.277-6.431-5.595-1.806-4.534-4.005-5.626-8.276-2.828l-1.065-3.403c1.792-.372 3.392-.704 5.369-1.177zM391.958 450.456c.014-1.468.098-2.99-.599-3.937-2.183-2.964-4.394-5.787-2.852-9.983 5.167 1.081 5.797 10.018 11.577 7.397l7.06 9.528c-4.101 2.132-4.911 1.969-11.009-2.555l-2.55 3.438-1.333.155c-.194-1.277-.387-2.555-.294-4.043z"/><path fill="#13B8DF" d="M398.378 115.507c-.622 1.346-1.035 2.386-1.496 3.547-5.423-2.828-.928-5.016.163-7.165l-7.576-13.45 1.136-1.467 11.485 6.904 3.551-1.927c.072 5.944-.907 11.007-7.263 13.558z"/><path fill="#165695" d="M438.979 429.1c1.537 1.843 3.01 3.302 4.368 4.646l-2.035 1.045-3.157 7.841-6.427-4.228-2.424 1.03-.769-3.43 4.253-1.367v-14.023l1.48-.38c1.549 2.828 3.098 5.655 4.71 8.866z"/><path fill="#0E5091" d="M444.908 349.06c-.877 2.541-1.6 4.72-2.458 7.312-5.574-4.147-3.02-9.857-3.354-14.952-.81-2.271-6.724 1.776-5.24-3.045 3.065-.888 5.544-1.98 8.107-2.235 2.206-.219 5.386-1.756 6.046 2.609.204 1.343 1.663 2.496 1.862 2.775-1.711 2.554-3.259 4.863-4.963 7.536z"/><path fill="#115293" d="M401.603 55.685c1.322.438 2.34 1.065 2.905 1.412l9.58-1.945c.52 3.97-7.48 4.974-1.062 10.038-7.733-1.619-7.236 5.085-10.894 9.05l-1.425-12.442-3.3-.59c1.53-2.095 2.71-3.714 4.196-5.523z"/><path fill="#11B8DE" d="M406.116 556.714c.127-.977.174-2.022.492-2.112 3.918-1.115 4.059-3.81 3.024-6.98-.907-2.775 2.337-5.972-.858-8.542-.017-.014.664-1.31 1.069-1.34.67-.05 1.65.243 2.024.745 1.385 1.865 2.395 4.027 3.893 5.781 1.284 1.503 3.042 2.6 5.093 4.29-1.837 2.585-2.58 8.111-9.188 7.658-1.02-.07-2.068 1.495-3.24 1.858-.596.185-1.5-.623-2.309-1.358z"/><path fill="#21C1F1" d="M259.441 94.01c.202 4.804-3.579 6.37-7.111 7.718-2.833 1.082-5.997 1.297-9.195 1.932-.714-3.591 6.61-3.295 3.588-7.796-1.784-2.658-3.3-5.497-4.935-8.254l.864-1.129c3.775 1.833 7.534 3.7 11.333 5.483 1.649.773 3.38 1.37 5.456 2.047z"/><path fill="#1280C3" d="M382.829 362.18c-.617-1.902-1.43-3.532-2.243-5.161l.989-1.287c2.423 1.54 4.759 3.249 7.3 4.563 1.869.966 4.006 1.416 6.97 2.414 1.76 6.224-5.261 9.024-9.191 13.877l-2.813-3.083c7.273-4.784-.687-7.338-1.012-11.324z"/><path fill="#0F7EC2" d="M198.363 98.07c1.645-.36 3.466-.204 4.105-.999 3.84-4.775 8.938-4.005 15.541-3.681-9.378 3.473-3.378 10.28-5.859 16.607-2.275-2.127-5.103-3.588-5.937-5.801-1.644-4.363-3.748-5.493-8.22-2.424 0-1.686 0-2.656.37-3.702z"/><path fill="#26C3F1" d="m322.545 541.429-5.01 2.672-.78-1.04 5.743-4.812-4.601-.543c4.315-7.596 11.235-5.656 18.306-5.046l-12.616 13.65-1.315-.962a44.86 44.86 0 0 1 1.15-2.853c-.113-.674-.495-.87-.877-1.066z"/><path fill="#135494" d="M382.514 456.61c2.19 3.29 4.158 6.306 6.404 9.747h3.76c-4.338 5.582-9.423 7.645-16.851 6.54l5.007-2.691c-.642-4.444-1.495-8.572-1.73-12.735-.11-1.973.73-4.683 3.41-.861z"/><path fill="#1782C4" d="M316.284 122.057c-.154-.664-.235-1.014-.153-1.32 2.29-8.552 2.292-8.551-3.613-12.8 6.637 1.12 14.017-.792 19.323 4.357-2.538 1.652-4.742 3.078-6.937 4.518-2.827 1.854-5.648 3.718-8.62 5.245z"/><path fill="#0EB7DE" d="M327.363 70.452c2.123 3.667 4.387 7.021 7.012 10.91-5.55 1.247-8.92-2.063-12.857-4.738l-3.151 3.309-1.359-.388c.363-1.157.793-2.298 1.073-3.475.371-1.557.412-3.225.986-4.692.644-1.642 1.725-3.114 2.518-4.49l6.895 1.093-1.117 2.471z"/><path fill="#157EC2" d="M313.911 90.955c-.68 4.526-.99 9.164-6.77 10.613-1.328.333-2.293 2.119-3.425 3.236-1.78-3-1.78-3 1.502-6.391l-5.01-13.397 1.363-.877c2.263 2.034 4.781 3.856 6.712 6.169 1.666 1.997 3.06 2.1 5.31.694.36-.029.318-.047.318-.047zM197.931 217.337c2.056 1.034 3.938 1.731 5.843 2.437l-.629 3.35-14.73 4.177-.617-1.621 4.062-2.61-2.129-14.199 1.638-.447a676.576 676.576 0 0 1 6.562 8.913z"/><path fill="#1581C3" d="M223.386 214.64c2.346-1.695 4.481-4.634 6.793-.26.369.695 2.393.516 2.54.542v14.558c-5.575-.094-5.764-6.302-9-9.664l-5.063 2.036c.85-1.75 1.204-2.803 1.822-3.666.817-1.14 1.842-2.129 2.908-3.545z"/><path fill="#115293" d="M360.361 351.69c.363 3.877.915 7.419 1.467 10.965-3.617.88-3.617.88-9.079-8.529-1.711.12-3.419.243-5.127.367 4.485-4.736 8.18-11.664 14.943-4.696-.457.354-1.236.956-2.204 1.893z"/><path fill="#0EB7DE" d="M252.04 541.065c.917 7.245-6.243 8.432-10.64 12.173l1.93-5.182-8.215-10.78 1.461-1.793c3.122 1.478 6.725 2.407 9.218 4.6 2.12 1.865 3.638 1.281 5.938.892.341.114.307.09.307.09z"/><path fill="#14B9DF" d="M165.132 555.045c1.69 1.613 3.259 2.866 4.86 4.143-3.047 4.074-5.865 4.984-16.32 4.388l4.79-3.27-1.53-13.125 1.641-.692c2.147 2.732 4.293 5.464 6.559 8.556z"/><path fill="#157EC2" d="M231.965 243.182c-.096-1.627-.096-2.84-.096-4.144 5.522 1.134 3.66 10.193 10.415 9.099-.611 7.6-7.852 7.183-12.407 9.985-1.165-2.924-1.165-2.924 2.184-5.104 0-3.416 0-6.42-.096-9.836z"/><path fill="#0F7EC2" d="M221.867 168.908c3.395.447 6.353.848 9.835 1.32-1.167 6.068-5.485 10.687-10.802 14.557l-1.469-5.317c5.986-5.207-1.863-6.461-4.128-10.606 2.481 0 4.304 0 6.564.046z"/><path fill="#0E7DC1" d="M492.024 423.023v5.57l-1.631.588-7.503-11.243-4.852.953c1.775-2.433 3.143-4.676 4.91-6.54.669-.705 2.307-.861 3.42-.7 2.57.374 5.089 1.094 7.99 1.757-1.115 1.043-2.129 1.993-2.986 2.797.227 2.225.44 4.307.652 6.818z"/><path fill="#195896" d="M334.826 63.88c-1.596-4.79-4.56-.663-6.655-1.492 4.78-7.23 4.78-7.23 13.45-6.21v15.2l-.91.72c-1.909-2.616-3.817-5.231-5.885-8.218z"/><path fill="#13B8DF" d="M401.484 405.77c-.397-1.127-.487-2.09-.605-3.35 2.07-1.7 4.266-4.775 7.045-5.45 3.193-.777 6.903.573 10.388 1l.353 1.424-11.469 10.464-1.407-1.18 1.584-5.398c-2.543 1.21-4.063 1.932-5.89 2.49z"/><path fill="#135494" d="M376.659 306.18c1.178-1.322 2.382-2.987 3.712-3.095 2.024-.164 4.136.75 5.436 1.037v14.94l-.88.724-7.802-10.404-4.824.893-.306-.828c1.582-.972 3.164-1.943 4.664-3.268z"/><path fill="#0F5192" d="M345.691 511.708c.125 3.498.125 6.587.125 11.356l-11.013-13.069c1.403-7.061 7.43-4.186 11.636-3.583-.261 1.462-.567 3.175-.748 5.296z"/><path fill="#26C3F1" d="M400.474 502.312c2.26 1.163 4.16 2.13 6.72 3.433-3.554 2.269-6.977 4.191-10.101 6.515-3.724 2.77-5.598-2.52-8.871-1.164l-.3-1.299 6.49-2.917-4.001-1.385-.278-1.424c3.327-.652 6.654-1.304 10.341-1.76zM255.475 209.255a537.35 537.35 0 0 1 9.587-1.035l-4.855 16.25c-1.782-3.307-2.695-5.864-4.338-7.802-1.586-1.869-3.926-3.097-6.139-4.761 1.413-.672 3.386-1.61 5.745-2.652z"/><path fill="#157EC2" d="M249.538 280.065c-1.861.04-3.41.296-4.958.553l-.486-1.143 5.856-2.98-3.74-1.824c4.616-3.431 4.616-3.431 17.765-.003-4.233 2.708-7.718 5.062-11.37 7.121-.482.272-1.816-.968-3.067-1.724z"/><path fill="#0EB7DE" d="M314.309 348.673c-.453-4.208-2.006-8.104 1.308-12.108l6.656 12.39v8.975c-2.53-1.86-4.128-3.021-5.71-4.203-.837-.625-1.57-1.45-2.493-1.877-.738-.342-1.691-.218-2.549-.3.885-.828 1.77-1.655 2.788-2.877z"/><path fill="#24C2F1" d="M350.765 37.099c-4.918 2.463-9.993 4.621-16.452 7.369 1.386-3.55 3.229-6.045 2.968-8.297-.215-1.866-2.91-3.445-4.098-5.58 5.724 2.75 13.266-.071 17.582 6.508z"/><path fill="#13B8DF" d="M240.179 114.199c-3.784 2.266-7.252 4.375-10.72 6.483l-.85-.913 1.172-2.934-5.452 1.009-.54-1.197 5.478-2.868-3.204-1.813c5.363-6.137 10.838-1.44 16.705-.514-.877.999-1.576 1.794-2.59 2.747z"/><path fill="#0F7EC2" d="M306.882 571.231c-.828-.235-1.274-.435-1.72-.635 5.12-2.995 10.188-6.185 17.426-4.243-8.584 2.677-5.09 11.676-9.833 16.105-1.856-3.784-3.674-7.488-5.873-11.227z"/><path fill="#135494" d="M242.118 579.706c-1.53-.656-2.918-.933-4.294-1.259-1.2-.284-2.387-.625-3.477-1.492 5.896-1.23 10.04-8.377 16.985-4.485-5.96 2.893-.516 8.279-2.934 12.476-3.328.373-4.616-2.418-6.28-5.24z"/><path fill="#2BC4F1" d="M362.94 293.778c2.292-.13 4.217-.13 5.28-.13l-.89 14.208c-2.25-1.878-4.468-3.08-5.705-4.934-1.414-2.12-2.237-3.918-5.29-2.528-.764.348-2.191-.763-3.761-1.378 4.002-2.045 7-3.577 10.366-5.238z"/><path fill="#187FC2" d="M149.923 514.324c3.76-4.676 8.956-6.281 14.188-5.261v12.392l-1.426 1.055-7.95-7.61c-.922-.056-2.773-.167-4.812-.576z"/><path fill="#26C3F1" d="M302.578 529.61c-2.859-2.028-5.393-4.177-8.464-6.78l-5.154-.394.082-1.793 15.087-5.269c-.46 5.297-.843 9.706-1.55 14.235z"/><path fill="#135494" d="M372.564 335.396c1.591 2.44 2.715 10.196 1.802 15.802l-7.373-9.287-2.024.349 4.71-12.108 1.316-.002c.507 1.617 1.014 3.233 1.57 5.246z"/><path fill="#0CB6DE" d="M293.44 551.35c-.098-1.441.002-2.932-.337-4.314-.729-2.975-1.684-5.893-1.995-8.965 4.918 2.419 10.044 8.507 15.262 17.403-4.498-1.391-7.985-2.47-12.03-3.648-.67-.225-.785-.35-.9-.476z"/><path fill="#187FC2" d="M240.441 522.648a82.957 82.957 0 0 1-3.416.875c3.325-5 6.287-9.765 12.084-6.113l.708 13.718c-.355.26-.711.518-1.067.777-1.63-2.023-3.237-4.067-4.903-6.06-.965-1.155-2.028-2.226-3.406-3.197z"/><path fill="#0EB7DE" d="M459.187 100.719c-1.124-2.522-1.943-4.751-5.186-3.03-.668.354-2.025-.593-3.065-.94l.142-1.338 15.81-5.566 1.105 1.454c-6.264 3.106-1.378 8.436-3.704 13.46-1.684-1.26-3.317-2.483-5.102-4.04z"/><path fill="#157EC2" d="M289.26 114.25c.07-.939.479-1.863 1.013-3.07l-3.814-.565-.285-1.41 5.715-.85-1.699-3.381c6.28-1.495 9.265 3.334 13.57 7.078-4.967.776-9.563 1.493-14.5 2.197z"/><path fill="#26C3F1" d="M378.031 418.105c2.4-.179 4.434-.272 5.785-.333l-6.48 16.186-4.138-11.084-5.076 1.466-.73-1.185c3.425-1.655 6.848-3.31 10.64-5.05z"/><path fill="#1280C3" d="M442.12 115.024c-2.329.866-4.295 1.565-6.738 2.434-.333-4.327 8.728-9.34-3.031-11.203 7.51-1.835 15.05 1.29 17.735 5.755-2.482.93-5.043 1.889-7.966 3.014z"/><path fill="#135494" d="M346.07 84.954c1.943.254 3.495.434 4.296.527l-7.788 14.238c-2.02-4.162-.704-11.108-8.808-6.888l.094-1.711c3.939-2.08 7.878-4.16 12.207-6.166z"/><path fill="#1581C3" d="M139.345 528.304c6.19-2.245 12.007-3.668 17.16 1.275l-13.105 8.22-.891-1.129 2.4-5.928c-2.145-.796-4.015-1.49-5.564-2.438z"/><path fill="#2BC4F1" d="M469.771 375.97c.342 1.422.572 2.497.866 3.873-6.24-2.197-6.646-12.532-15.367-9.726-.844-4.436 5.388-6.413 11.504-4.342 1.037 3.542 1.961 6.696 2.997 10.195z"/><path fill="#1782C4" d="M355.731 389.53c.714-6.225 4.84-9.067 10.596-11.573l-1.403 14.579-1.364.036-1.087-3.579-2.832 5.312-1.097-.278.707-4.8c-1.209.21-2.375.414-3.52.302z"/><path fill="#1581C3" d="M347.415 533.284c.348-1.326.465-2.33.818-3.242 3.375-8.726 8.526-10.076 18.335-4.3-2.026.246-3.508.593-4.985.575-4.91-.063-8.666 1.198-9.876 6.757-.262 1.202-2.204 2.04-3.372 3.045-.348-.823-.695-1.647-.92-2.835zM346.028 371.328c.145-3.554.145-6.717.145-9.88l1.356-.196 5.963 10.425c-.308.8-.787 2.384-1.52 3.842-.526 1.05-1.894 2.828-2.026 2.754-2.605-1.467-5.084-3.157-8.04-5.099 1.851-.677 2.914-1.066 4.122-1.846z"/><path fill="#24C2F1" d="M292.216 354.182c-1.174 2.567-2.244 4.76-3.59 7.518-2.835-3.442-.894-11.161-8.95-8.203 5.308-2.893 9.085-8.656 15.89-5.92-1.127 2.161-2.186 4.195-3.35 6.605z"/><path fill="#195896" d="M494.945 450.279c-3.808 1.37-7.36 2.531-10.96 3.513-.541.148-1.312-.542-1.976-.844.307-.642.585-1.824.926-1.842 3.411-.18 2.944-2.526 3.29-4.876.365-2.487 1.637-4.84 2.588-7.457 2.221 3.917 4.298 7.578 6.132 11.506z"/><path fill="#13B8DF" d="M183.86 510.734c3.356 1.246 6.348 2.479 10.082 4.017-6.222 4.295-11.938 4.89-18.393 1.658 4.734.585 2.363-7.786 8.311-5.675z"/><path fill="#1782C4" d="M222.692 94.868c-.083-1.321.226-2.614.59-4.141l-3.706-.4.196-2.879c5.241.587 11.988-4.338 14.912 4.6-3.678.904-7.64 1.876-11.992 2.82z"/><path fill="#1DBBE0" d="M171.405 224.784c-1.61-.305-2.818-.577-4.493-.955l2.976-1.618-4.537-2.8c.22-.378.442-.755.663-1.132l5.345.788-2.269-3.61.917-1.282 11.312 7.756-.23 1.296c-3.094.53-6.187 1.06-9.684 1.557z"/><path fill="#117BC0" d="M441.581 402.14c.377-5.92-2.792-7.756-8.176-7.333l.195-1.523 14.58-4.126c-1.376 4.702-2.384 8.5-3.638 12.213-.37 1.096-.65 3.999-2.96.77z"/><path fill="#17BADF" d="M264.506 498.722c-.874-.314-1.388-.575-1.903-.836l.156-1.047h14.263l-4.338 13.476c-1.67-3.339-2.496-5.512-3.772-7.376-1.078-1.574-2.678-2.79-4.406-4.217z"/><path fill="#1280C3" d="M262.94 90.218c.08-1.764.271-3.191.537-5.19l-6.568.346c5.1-4.513 9.938-7.722 17.31-4.708-3.848 3.407-7.51 6.648-11.28 9.552z"/><path fill="#195896" d="m170.852 240.983 1.83-.781-.74-1.094-4.133.557-.476-1.09 4.937-2.843-3.66-1.924.136-1.472 13.338.606.622 2.19c-3.665 1.92-7.33 3.841-11.397 5.793-.402.031-.457.058-.457.058z"/><path fill="#157EC2" d="M243.88 191.73c4.006.612 7.671 1.238 11.253 2.18.303.08.495 2.512-.017 3.43-2.255 4.041-6.233 4.525-10.732 5.014 1.438-2.107 3.48-3.807 3.29-5.201-.177-1.288-2.812-2.175-4.215-3.408-.306-.269.023-1.26.422-2.016z"/><path fill="#1581C3" d="M464.013 388.312c.553 2.484 1.074 4.601 1.854 7.771-2.34 3.932-7.17 1.312-11.988.629l4.388-2.955 4.34-9.186c.636 1.562 1.005 2.468 1.406 3.741z"/><path fill="#2BC4F1" d="M370.683 45.178c4.011 2.005 7.697 4.17 11.383 6.334l-.621 1.834-12.468 1.35-.76-1.508 2.83-1.644-4.135-1.832.111-.884h5.3c-.822-1.46-1.394-2.476-1.64-3.65z"/><path fill="#157EC2" d="M350.766 540.957c3.186.429 5.994.903 9.913 1.566l-11.784 8.85-2.798-4.72 3.639-2.12-4.49-1.921c2.283-.715 3.712-1.162 5.52-1.655m-2.298 6.766.906.894c-.094-.414-.188-.828-.906-.894m-1.418-.122.653.25c-.06-.214-.122-.43-.653-.25z"/><path fill="#1280C3" d="M250.31 235.495c-1.18.596-1.952 1.237-2.724 1.878-.11-.976-.09-1.99-.363-2.919-.282-.956-.824-1.842-1.298-2.735-.98-1.844-1.989-3.672-2.986-5.506l1.45-1.182 13.717 10.615-.623 1.673c-2.255-.593-4.51-1.186-7.174-1.824z"/><path fill="#1581C3" d="M486.518 471.783c-3.69 1.783-7.132 3.345-10.574 4.906l-1.084-1.7 3.556-3.163 1.962-11.058c2.633 4.45 4.51 7.621 6.14 11.015z"/><path fill="#26C3F1" d="M373.985 571.747c-2.053-.62-3.923-.895-5.794-1.171l-.23-1.13 12.66-5.107-1.074 13.987c-2.305-2.671-3.842-4.453-5.562-6.579z"/><path fill="#1DBBE0" d="M446.899 136.294c3.776 4.298 7.943 8.607 5.47 15.462l-7.564-4.222c.6-3.685 1.194-7.336 2.094-11.24z"/><path fill="#1C5A98" d="M402.316 93.856c-1.23-.234-2.251-.794-3.309-1.278-1.489-.681-3.004-1.306-4.426-1.92l.877-10.168c5.267 2.85 7.711 7.08 6.858 13.366z"/><path fill="#1782C4" d="M92.785 489.255c-.373-.648-.419-1.207-.464-1.767l4.573.432-1.693-2.606.983-1.362 11.23 7.299-.643 1.504h-13.01l-.956-1.22 3.28-1.238c-1.416-.454-2.194-.704-3.3-1.042z"/><path fill="#157EC2" d="M326.67 335.746c5.208-4.885 8.206-7.828 15.218 1.655-8.005-3.898-13.462-.04-18.078 6.379l-1.335-1.76c1.299-2.02 2.598-4.038 4.195-6.274z"/><path fill="#165695" d="M467.799 491.024c-2.078-.46-3.757-.924-6.103-1.573l5.196-2.654-3.756-1.36c4.672-4.098 9.159-3.105 14.28-.028-3.239 1.972-6.228 3.791-9.617 5.615z"/><path fill="#2BC4F1" d="M341.182 108.59c4.272.568 8.19 1.07 12.087 1.71.493.08.868.883 1.07 1.101l-11.44 7.929.988-6.557c-1.35-1.854-2.208-3.03-2.705-4.184z"/><path fill="#187FC2" d="M223.925 271.797c.97 1.214 1.633 2.172 3.138 4.349-3.034-.497-4.589-.972-6.132-.936-1.286.03-2.558.662-3.176.838l-4.463-11.467.936-.918c2.559 3.428 7.694 3.237 9.697 8.134z"/><path fill="#115293" d="M165.475 144.2c-1.203-.044-2.107.044-2.09.042l-5.822-10.436.845-.73 10.617 4.855v6.711c-1.084-.102-2.168-.205-3.55-.441z"/><path fill="#11B8DE" d="M296.323 370.53c-.992.065-1.668-.046-3.608-.364l5.589-2.95-3.307-1.98c4.584-3.614 8.957-1.304 13.437.332-3.378 2.789-5.511 8.506-12.111 4.962z"/><path fill="#1C5A98" d="M491.595 129.883c3.12-.094 3.2 2.252 1.908 2.907-3.127 1.582-6.704 2.274-10.1 3.325l-.56-1.5 2.85-2.098-1.507-9.597 1.263-.557c1.918 2.482 3.835 4.964 6.146 7.52z"/><path fill="#17BADF" d="M432.316 66.054a54.183 54.183 0 0 0-2.525.689l-.419-.746 3.071-2.14-2.333-9.866 1.89-.738 7.24 9.702c-.85 3.131-3.06 4.362-6.924 3.1z"/><path fill="#14B9DF" d="M344.18 49.962c4.529-.908 8.983-1.42 13.809-1.973l-7.537 12.71c-1.21-4.63-.154-10.043-6.273-10.737z"/><path fill="#1280C3" d="M134.827 172.025c-1.826 2.37-3.66 4.399-5.464 6.394l-2.93-11.498-.124-1.706c.076.143.117.371.232.418 2.743 1.114 5.494 2.208 8.647 3.467-.045.31-.207 1.446-.361 2.925z"/><path fill="#195896" d="M260.744 550.123c1.888.619 3.392 1.228 4.822 1.807l-8.095 8.935-1.025-.366c.115-1.806.807-3.865.16-5.336-.513-1.167-2.666-1.613-4.496-2.597 2.877-.855 5.563-1.654 8.634-2.443z"/><path fill="#187FC2" d="M356.447 315.706c2.834 1.408 5.693 2.518 7.76 4.466.805.758.258 3.616-.468 5.14-.7 1.468-2.422 2.45-3.755 3.703-1.231-4.269-2.53-8.77-3.537-13.309z"/><path fill="#1782C4" d="M356.07 337.058c-2.99 2.111-5.757 3.908-9.265 6.185l3.21-14.777c2.19 2.886 4.234 5.581 6.056 8.592z"/><path fill="#187FC2" d="M291.82 71.531c4.996-3.995 8.93.46 13.989 2.012-4.612 2.005-8.362 5.286-13.267 2.875l1.044-1.097c-.52-1.167-1.039-2.334-1.766-3.79z"/><path fill="#26C3F1" d="M367.61 372.697c1.152-2.372 2.317-4.454 3.637-6.812l5.172 3.942v9.198c-3.143-2.158-5.968-4.097-8.808-6.328z"/><path fill="#195896" d="M306.537 283.411c-.213 3.02-.213 5.74-.213 8.462l-2.113 1.802-2.968-10.427-2.351 2.976 4.218-10.121c1.372 2.642 2.506 4.826 3.427 7.308z"/><path fill="#26C3F1" d="M324.848 558.171c-.622-1.492-1.08-2.686-1.982-5.03l12.092 2.748.43 1.663-11.154 5.342c.414-2.354.595-3.39.614-4.723z"/><path fill="#195896" d="M293.176 331.272c4.118.636 6.843 2.892 9.768 6.74-5.142-.544-9.418-3.46-13 .862-.107.13-1.514-.817-2.679-1.464 2.003-2.108 3.82-4.02 5.911-6.138z"/><path fill="#1B85C5" d="M134.807 428.883c-4.683 1.025-1.965-2.045-2.032-3.316-.09-1.704.419-3.44.711-5.439l11.01-2.711c-3.682 4.384-6.548 7.799-9.69 11.466z"/><path fill="#1581C3" d="M327.301 92.725c.904.835 1.733 1.273 2.362 1.605-.331 2.4-.65 4.712-1.075 7.78l-6.096-4.805.953-10.373c.421-.06.843-.118 1.265-.176.839 1.857 1.678 3.715 2.591 5.97z"/><path fill="#1B85C5" d="M448.207 450.807c.178-1.549 1.19-3.137 1.118-4.674-.098-2.067-1.033-4.094-1.846-6.98l11.752 5.014c-3.992 2.477-7.332 4.55-11.024 6.64z"/><path fill="#34C6F2" d="M212.547 231.804a1175.499 1175.499 0 0 0-6.944 6.8v-4.41l-4.249-.366c3.93-4.612 7.61-7.88 13.137-3.286-.58.358-1.13.697-1.944 1.262z"/><path fill="#1782C4" d="M398.598 349.671c-2.906 1.864-5.538 3.519-8.298 5.254l-1.219-7.726h11.903l.15 1.221c-.753.347-1.508.695-2.536 1.251z"/><path fill="#17BADF" d="M133.648 479.473c.142-.796.417-1.768.537-1.749 4.088.636 7.544 2.09 8.212 7.383l-12.708-.892c1.879-2.083 2.949-3.269 3.959-4.742z"/><path fill="#13B8DF" d="M262.612 127.886c-1.96.277-3.548.49-4.008.553v-12.267l1.105-.172 7.575 9.191a84.08 84.08 0 0 1-4.672 2.695z"/><path fill="#187FC2" d="M126.714 189.576c2.499-.434 4.693-.659 7.168-.911l-5.663 10.798c-1.797-3.123-1.458-8.11-6.873-6.537 1.688-1.047 3.376-2.094 5.368-3.35z"/><path fill="#195896" d="M467.17 535.298c-1.566-2.515-.752-6.733-5.449-5.94-.03-.133-.101-.352-.077-.363 3.44-1.587 6.887-3.16 10.334-4.732l1.02 1.532c-1.857 3.242-3.713 6.484-5.828 9.503z"/><path fill="#1581C3" d="M438.097 122.133c.747 3.57 1.169 6.987 1.59 10.403-.277.24-.555.478-.833.717l-7.67-8.734c2.298-.75 2.344-6.853 6.913-2.386z"/><path fill="#157EC2" d="M157.69 468.766c1.282 4.833 2.433 9.343 3.584 13.853l-1.31.899c-1.952-2.162-5.143-4.122-5.536-6.538-.464-2.843 1.498-6.081 2.408-9.148.242.204.483.408.854.934z"/><path fill="#2BC4F1" d="M224.484 544.613c-.425.289-.58.356-.708.458-3.562 2.836-7.087 6.277-11.108.287 4.578-1.82 8.785-5.607 14.914-3.003l-3.098 2.258zM426.267 410.392c-.377-3.402-1.393-5.508-5.73-3.313 4.441-5.133 7.081-6.115 12.122-5.016-1.318 2.704-2.55 5.447-4.021 8.055-.274.486-1.507.43-2.37.274z"/><path fill="#1782C4" d="M177.452 535.292c.988.985 1.84 1.632 3.832 3.144l-11.852 3.535 6.265-12.974c.65 2.393 1.134 4.174 1.755 6.295z"/><path fill="#2BC4F1" d="M283.06 270.187c4.13.9 3.984 3.14 2.357 5.914-1.128 1.921-2.184 3.883-4.008 7.14l-2.732-12.049c.773-.178 2.387-.55 4.383-1.005zM132.119 440.222c.891-1.172 1.615-2.03 3.11-3.802v13.283l-7.675-3.723c1.714-2.123 3.056-3.784 4.565-5.758z"/><path fill="#165695" d="M313.442 535.143c.18 1.494.42 3.75-.268 4.083-2.287 1.105-4.907 1.518-8.614 2.527l2.49-3.554-3.776-1.573-.008-1.473c3.27-.043 6.541-.086 10.176-.01z"/><path fill="#1280C3" d="M387.295 67.745a452.091 452.091 0 0 0 3.111 4.547c-.64 5.05-5.336 1.619-7.484 2.377V62.593c2.023 2.34 3.1 3.586 4.373 5.152z"/><path fill="#1DBBE0" d="M463.21 124.023a868.046 868.046 0 0 0 5.288 7.397c-2.814 0-5.545.194-8.211-.134-.681-.083-1.781-1.946-1.613-2.772.493-2.413 1.53-4.716 2.527-7.56.798 1.204 1.311 1.98 2.01 3.069z"/><path fill="#34C6F2" d="M119.272 470.266c.688-2.393 1.364-4.389 2.215-6.899l4.224 9.976-9.215 2.695-.52-.927c1.095-1.483 2.19-2.966 3.296-4.845z"/><path fill="#1782C4" d="M283.896 565.821c-1.82.235-3.29.352-4.71.466.445-2.441.851-4.671 1.276-6.995l3.396-1.603c4.932 6.5 4.932 6.5.038 8.132zM109.174 190.862c-.954-.577-1.731-.826-2.171-.967l1.695-10.184c3.303 5.5 4.601 10.062 4.296 15.686-1.215-1.402-2.429-2.805-3.82-4.535zM284.453 600.273c-2.646-.384-4.966-.884-7.353-1.399l5.939-2.548-1.427-4.582.81-.994c1.96 1.694 4.125 3.232 5.682 5.24.256.33-2.15 2.726-3.651 4.283zM155.788 78.742c-2.947.484-2.741.487-2.707-1.364.019-1.028-.578-2.238-1.259-3.071-1.12-1.373-2.533-2.507-3.326-4.528l11.56 4.228c-1.278 1.402-2.667 2.925-4.268 4.735z"/><path fill="#1B85C5" d="M264.938 10.06c6.541-2.255 7.637-1.496 9.267 6.735-4.55.024-7.354-2.237-9.188-6.433-.037-.339-.08-.302-.08-.302z"/><path fill="#288CC8" d="M208.49 116.266c1.573.886 2.78 1.661 4.48 2.752l-9.348 1.584-4.75-7.163c3.118.915 6.185 1.815 9.617 2.827z"/><path fill="#1B85C5" d="M186.917 200.016c-1.83-1.704-3.348-3.135-4.867-4.565l.636-.86 13.455 5.746-.275 1.129-8.639 1.801c0-.976 0-1.977-.31-3.251z"/><path fill="#187FC2" d="M488.718 364.729c-1.23.27-2.235.266-3.24.261 2.728-4.874-3.417-5.464-4.306-9.184l11.72 4.172a967.375 967.375 0 0 0-4.174 4.75z"/><path fill="#195896" d="M168.264 289.562c-2.713 2.351-5.113 5.161-8.161.434.687-1.126 4.46-2.53-1.135-4.625 6.763-.318 8.99.817 9.296 4.19z"/><path fill="#1782C4" d="M469.47 504.085c.724 5.717-3.272 4.28-5.884 4.757l2.369-11.395 1.11-.005c.731 2.117 1.462 4.234 2.404 6.643z"/><path fill="#22BDE1" d="M508.41 127.25c2.138 2.145 3.96 4.233 6.265 6.874-6.34 1.958-8.793-.737-10.418-5.582l3.329 1.024c.163-.761.337-1.567.825-2.316z"/><path fill="#34C6F2" d="M476.954 146.035c-1.98 2.021-4.042 3.661-6.33 5.481l-1.096-8.937c2.452.216 6.247-2.343 7.426 3.456z"/><path fill="#1581C3" d="M383.78 518.399c1.435.95 2.671 1.59 4.722 2.65-2.473 1.32-4.608 2.46-6.005 3.204l-4.591-9.675.683-.65c1.664 1.386 3.329 2.773 5.192 4.471z"/><path fill="#22BDE1" d="M111.756 155.251c-.955-.272-1.742-.272-2.601-.272 1.845-4.766 4.438-7.172 10.05-2.77l-7.228 4.224c-.055-.143-.148-.285-.155-.43-.007-.158.065-.32-.066-.752z"/><path fill="#1DBBE0" d="M98.892 421.186c-.73-1.489-1.48-2.603-3.104-5.01l10.449 3.115-6.58 6.113c-.337-1.64-.562-2.741-.765-4.218z"/><path fill="#157EC2" d="M464.24 69.995c-1.539 2.415-3.115 4.491-4.82 6.736l-3.72-9.282c2.8.728 5.65 1.468 8.54 2.546z"/><path fill="#1DBBE0" d="M338.409 351.743c.298 1.133.56 2.815.113 3.032-1.434.695-3.128 1.106-4.726 1.117-1.045.007-2.097-.868-2.542-1.071l.257-4.243c2.008.32 4.272.682 6.898 1.165z"/><path fill="#22BDE1" d="M487.25 396.127c-3.567.3-6.744.744-9.748 1.163 3.897-6.776 7.51-7.045 12.62-.276-1.092-.328-1.788-.536-2.872-.887z"/><path fill="#1B85C5" d="M256.187 304.332c2.658.717 5.05 1.726 8.485 3.174l-8.16 5.585c-.22-3.153-.406-5.81-.325-8.759z"/><path fill="#14B9DF" d="M128.966 497.932c2.06-.536 3.784-.942 6.122-1.493l-2.787 8.696-5.32-6.11c.048-.028.85-.496 1.985-1.093z"/><path fill="#22BDE1" d="m203.432 135.566 11.55 3.717-4.726 4.174c-2.784-2.613-4.966-4.662-7.122-7.163.027-.452.298-.728.298-.728z"/><path fill="#2BC4F1" d="M377.546 82.975c2.386.483 4.868 1.285 8.503 2.46l-7.822 5.219c-.23-2.894-.407-5.127-.681-7.68z"/><path fill="#1B85C5" d="m247.546 117.541 5.738 5.4-4.32 6.802c-.671-3.747-1.312-7.32-1.832-11.42.12-.527.414-.782.414-.782z"/><path fill="#187FC2" d="M146.857 465.98c-.83.835-1.425 1.368-2.404 2.246l-1-9.61 7.071 3.46c-1.475 1.548-2.453 2.574-3.667 3.903z"/><path fill="#1581C3" d="M261.02 137.592c-.506 1.365-.951 2.391-1.533 3.733l-3.836-6.462 6.438-2.732c-.422 2.148-.714 3.635-1.068 5.46z"/><path fill="#34C6F2" d="M232.342 492.87c1.9-.845 3.548-1.457 5.512-2.188l3.034 6.447c-2.9-.852-5.669-1.625-8.394-2.53-.27-.089-.276-.978-.152-1.728z"/><path fill="#288CC8" d="M237.875 266.337c.595 2.408.807 4.755 1.019 7.103l-.948.457-5.17-6.181c1.575-.481 3.145-.96 5.099-1.38zM368.979 598.966c1.678 2.384 1.471 2.692-2.538 4.725l-4.087-7.751c2.148 1.042 4.204 2.038 6.625 3.026z"/><path fill="#1C5A98" d="M158.342 502.105a749.617 749.617 0 0 0-3.337 4.029v-8.611l8.035 2.242c-2.373 1.1-3.416 1.582-4.698 2.34z"/><path fill="#1B85C5" d="M111.256 453.165c.68-1.106 1.722-2.131 2.683-3.076 4.894 3.293.163 5.682-.715 8.576-.535-1.807-1.07-3.614-1.968-5.5zM205.231 127.76c-.817-.542-1.403-.82-2.62-1.4l8.788-3.195c-1.154 5.102-1.472 5.32-6.168 4.595z"/><path fill="#288CC8" d="M303.288 296.814c1.28.743 2.272 1.257 3.833 2.065l-5.25 4.295-1.779-8.35c1.265.765 2.088 1.263 3.196 1.99z"/><path fill="#1B85C5" d="m402.943 382.925 7.942-4.034.781 1.868c-1.438 4.17-4.542 3.934-8.46 2.247-.308-.11-.263-.08-.263-.08z"/><path fill="#22BDE1" d="M294.857 564.783c2.994-4.676 3.71-4.696 7.31-.07l-4.374-.886c-.68 1.764-1.3 3.38-1.922 4.995l-1.09-.042c0-1.211 0-2.423.076-3.997z"/><path fill="#0CB6DE" d="M293.946 551.924c-.475.625-1.113 1.053-1.751 1.481.23-.595.46-1.19.968-1.92.392-.01.506.116.783.439z"/><path fill="#22BDE1" d="M203.02 135.976c-.356-.08-.573-.294-.79-.508.28-.077.559-.153 1.02-.066.182.164-.09.44-.23.574z"/><path fill="#0A4D90" d="M360.729 563.69c.222.043.42.077.618.11-.114.015-.229.03-.506-.06-.163-.105-.137-.06-.112-.05z"/><path fill="#22BDE1" d="M491.405 397.47c-.044-.004.043.004 0 0z"/><path fill="#1B85C5" d="M265.003 10.008a6.579 6.579 0 0 0-.568-.452c.199.043.398.086.55.317-.047.187-.005.15.018.135zM402.88 382.875c-.052.085-.088.191-.03.174.093-.124.048-.153.03-.174zM247.103 117.92c-.46-.019-.77-.161-1.038-.664.043-.36.258-.563.258-.563.308.144.615.288 1.073.64.15.208-.144.463-.293.587z"/><path fill="#0EB7DE" d="M252.085 541.11c.01.02.026-.322.026-.322s-.02.095-.046.186.008.115.02.135z"/><path fill="#0A7BC1" d="M446.085 363.099c.052-.065.088-.15.032-.142-.092.093-.048.121-.032.142z"/><path fill="#1B85C5" d="M246 116.998c-.33-.166-.553-.434-.776-.702.26-.023.52-.046.94.164.159.233-.056.436-.163.538z"/><path fill="#157EC2" d="M313.962 90.992c.01.018.166-.205.166-.205s-.07.074-.144.121c-.073.047-.032.065-.022.084z"/><path fill="#135494" d="M389.508 304.494c0 .02-.001-.02 0 0z"/><path fill="#195896" d="M170.916 240.928c.01-.03-.117.163-.117.163s.222-.102.137-.105c-.084-.003-.03-.03-.02-.058z"/><path fill="#24C2F1" d="M145.97 250.032c.212.094.446.164.679.234-.188.04-.376.08-.591-.092-.027-.213-.068-.166-.088-.142z"/><path fill="#1C5A98" d="M154.492 496.506c0-.02.001.02 0 0z"/><path fill="#0A7BC1" d="M280.87 284.89c.017.02.381-.225.381-.225s-.17.17-.306.174c-.137.003-.093.031-.075.05z"/><path fill="#115293" d="M294.205 93.852c.062.258.152.5.242.742-.17-.16-.339-.321-.332-.635.176-.153.119-.123.09-.107z"/><path fill="#FEFEFF" d="M343.65 7.452c.226-.64.729-.914 1.231-1.187.005.558.01 1.117-.15 1.943-.378.049-.59-.17-1.08-.756zM279.032 31.966c.32.203.623.425.925.647-.356.03-.713.06-1.025-.25.045-.341.082-.378.1-.397zM282.594 317.9c-.495-.217-.664-.689-.762-1.175-.008-.04.466-.177.716-.269.13.395.26.79.046 1.443zM322.749 541.678c.178-.053.56.143.797.523-.294.031-.444-.122-.797-.523zM348.78 547.549c.406.24.5.654.594 1.068-.302-.298-.604-.596-.594-1.068zM347.284 547.404c.297.018.358.233.42.448-.218-.084-.436-.168-.42-.448z"/></svg>