<svg xmlns="http://www.w3.org/2000/svg" viewBox="0 0 2053 1160" xml:space="preserve"><path fill="#FFF" d="M1504 1161H1V1H2054v1160H1504m-210.5-658.343h666.356V149.152h-878.613v353.505H1293.5m28.961 182.694c1.26 6.96 3.473 13.9 3.604 20.881.451 23.992.174 47.997.174 71.996v5.174h31.512c0-28.683.098-57.007-.09-85.329-.034-5.107-.85-10.295-1.985-15.292-2.44-10.745-6.29-20.687-17.102-26.098-17.84-8.93-42.14-4.538-55.515 10.257-2.038 2.255-3.723 4.828-5.903 7.69-7.83-15.499-20.357-22.518-36.99-22.371-16.317.144-28.969 7.612-38.61 20.891l-.942-.902v-16.662h-29.993V783.52h31.14v-5.112c0-20-.362-40.01.179-59.995.217-8.023 1.597-16.239 3.9-23.933 4.166-13.918 16.518-19.892 30.333-15.773 5.248 1.564 8.683 5.127 9.947 10.22 1.188 4.79 1.988 9.808 2.028 14.733.197 24.832.09 49.666.09 74.499v5.266h31.524c0-22.652-.159-44.97.074-67.284.1-9.494 1.395-18.906 6.257-27.383 7.563-13.188 27.107-15.368 36.368-3.408m-440.219 86.021-.973 8.564c19.881 5.33 39.679 9.113 60.132 5.504 12.112-2.137 23.739-6.02 32.696-14.72 15.266-14.829 16.635-33.593 11.81-52.76-3.956-15.71-16.32-24.456-30.601-30.596-9.734-4.186-19.6-8.101-29.131-12.707-5.492-2.654-10.972-6.053-12.386-12.798-2.695-12.866 4.916-24.636 17.96-27.005 5.63-1.023 11.654-1.301 17.298-.503 8.723 1.233 17.274 3.681 26.371 5.72.785-8.02 1.695-16.4 2.303-24.802.068-.93-1.414-2.612-2.457-2.887-19.818-5.224-39.78-7.67-59.957-2.01-34.143 9.574-48.508 49.51-27.348 77.615 4.597 6.105 11.786 10.767 18.635 14.549 10.117 5.587 21.245 9.329 31.448 14.78 5.052 2.7 10.536 6.636 13.132 11.462 5.503 10.23 1.948 22.754-12.391 28.316-16.32 6.33-31.936 2.72-47.266-3.797-2.332-.991-4.605-2.121-7.05-3.254-.785 7.225-1.504 13.832-2.225 21.33m260.515-55.753c-.681-16.449-5.309-31.437-16.83-43.64-14.079-14.915-31.981-20.69-51.915-19.605-26.176 1.424-45.96 13.278-56.63 38.075-4.765 11.074-5.586 22.84-5.137 34.74.494 13.107 4.506 25.053 11.912 35.862 21.046 30.72 66.646 31.833 91.245 15.09 20.768-14.134 28.6-34.934 27.355-60.522m250.193 37.015c5.105 12.835 13.696 22.657 26.685 27.424 8.46 3.105 17.495 5.299 26.448 6.254 15.916 1.697 31.5-.606 46.04-7.842 1.304-.648 3.073-2.126 3.111-3.27.27-8.07.144-16.154.144-24.564-4.955 2.378-9.193 4.587-13.567 6.478-12.12 5.24-24.63 7.955-37.845 5.117-15.22-3.267-27.054-18.065-25.686-32.563h86.1c1.052-10.629-.812-28.682-5.384-40.092-3.162-7.894-6.94-15.953-12.236-22.486-8.695-10.728-21.72-13.625-34.852-14.575-25.904-1.873-46.517 6.843-57.556 31.906-9.763 22.165-9.568 44.802-1.402 68.213m342.082-18.99c2.216 16.75 8.18 31.538 22.56 41.62 9.61 6.74 20.62 9.752 32.175 10.903 16.995 1.692 33.504.03 49.058-7.57 1.356-.663 3.348-1.993 3.386-3.07.284-8.203.155-16.42.155-24.88-5.058 2.418-9.301 4.666-13.713 6.516-14.124 5.92-28.542 8.987-43.503 3.166-12.257-4.77-21.384-18.892-19.726-30.746h86.332c.035-16.543-2.019-32.205-8.082-47.213-5.434-13.451-14.662-23.176-28.804-26.809-8.253-2.12-17.038-3.333-25.536-3.112-20.853.545-36.822 9.772-46.562 28.877-8.325 16.33-9.79 33.594-7.74 52.318m-91.974 28.201-18.894-6.277-1.952 25.851c17.587 4.447 34.933 7.309 52.582 4.036 11.512-2.134 22.697-5.946 30.442-15.476 17.7-21.78 8.503-52.332-18.384-61.666-8.128-2.822-16.431-5.17-24.464-8.233-8.62-3.288-10.324-13.164-3.419-19.313 2.02-1.799 4.803-3.473 7.393-3.754 6.548-.708 13.245-1.237 19.769-.625 6.505.61 12.873 2.694 19.41 4.156l2.117-24.349c-9.247-1.338-18.033-3.131-26.903-3.779-16.379-1.196-31.964 1.083-46.155 10.645-17.773 11.976-19.778 48.641 4.443 59.501 4.517 2.026 9.223 3.645 13.892 5.31 6.382 2.276 12.885 4.229 19.2 6.67 5.821 2.25 8.315 7.04 8.044 13.062-.278 6.194-3.465 10.262-9.358 12.809-8.89 3.842-17.837 3.099-27.763 1.432m304.198 23.901 7.13-1.643v-25.865c-17.967 7.174-28.071 2.31-30.423-14.007-.189-1.31-.193-2.653-.194-3.98-.012-19.15-.013-38.298.004-57.447.001-1.269.177-2.537.296-4.14h28.791V655.11h-29.256v-36.211l-31.645 10.586v26.07h-23.475v23.268h23.755c0 21.418-.06 42.364.045 63.309.025 4.799.253 9.655 1.025 14.381 2.414 14.785 10.236 25.543 25.414 28.308 8.979 1.636 18.424.714 28.533.927M352.425 876.315h-13.4v85.612c-1.985-1.203-2.897-2.686-3.668-4.237-12.814-25.774-25.586-51.569-38.473-77.306-.79-1.579-2.422-3.82-3.74-3.874-8.435-.353-16.892-.18-25.459-.18v115.038h21.262v-85.203c1.867 1.324 2.763 2.838 3.548 4.407 12.876 25.722 25.711 51.464 38.668 77.145.787 1.56 2.465 3.726 3.805 3.781 8.426.347 16.873.176 25.307.176V876.315h-7.85M479.682 934.5v-57.89h-22.836v46.375h-46.223v-46.384h-21.905v114.732H410.8v-50.318h46.046v50.296h22.836V934.5m589.24 59.015c8.05-1.222 14.916-4.873 21.12-11.417l.556 9.29h20.361V867.637h-21.24v48.656c-2.008-1.642-3.115-2.473-4.14-3.394-13.529-12.174-42.714-10.45-51.346 10.384-4.882 11.782-5.993 23.741-4.529 36.068 1.01 8.497 3.728 16.592 9.198 23.373 7.512 9.312 17.923 11.304 30.02 10.793m530.642-309.903 8.562 1.333v-31.54c-19.298-4.83-32.144 3.9-44.394 30.852v-28.667H1535.6V783.49h31.54v-5.173c0-16.156-.323-32.322.132-48.465.241-8.579.9-17.359 3.021-25.624 3.736-14.563 11.898-22.683 29.272-20.614M563.977 986.453c11.518-7.055 16.876-22.173 13.107-36.832-3.154-12.273-12.358-18.325-23.161-22.886-6.573-2.776-13.334-5.316-19.443-8.924-8.065-4.763-8.923-15.537-1.607-21.457 3.223-2.608 8.118-4.487 12.206-4.402 7.994.166 15.954 1.944 24.343 3.113.408-4.133 1.112-8.875 1.193-13.627.023-1.353-1.529-3.645-2.76-3.967-13.011-3.401-26.135-4.778-39.336-.868-21.172 6.272-30.633 29.578-19.752 48.773 4.46 7.87 12.281 11.444 19.929 15.132 6.134 2.958 12.479 5.488 18.55 8.564 5.013 2.54 7.405 6.763 7.153 12.632-.235 5.471-2.93 8.972-7.48 11.456-6.286 3.43-13.06 4.082-19.862 2.642-6.233-1.32-12.293-3.457-18.683-5.307l-2.095 18.788c4.949 1.062 9.438 2.149 13.974 2.977 14.924 2.725 29.473 2.28 43.724-5.808m804.82 6.221c11.478 2.273 22.609 1.06 32.873-4.518 23.95-13.017 26.12-45.677 13.624-64.701-10.697-16.286-35.077-22.908-53.911-15.024-22.237 9.309-28.853 29.2-25.467 50.278 2.914 18.146 13.866 29.674 32.882 33.965m-605.816.831c9.642.778 18.992-.57 27.497-5.2 24.013-13.07 26.371-45.37 13.96-64.643-10.644-16.531-35.318-23.147-54.27-15.138-22.081 9.33-28.885 29.47-25.159 50.39 3.7 20.773 15.493 30.953 37.972 34.591m969.344-41.012c1.018 8.192 1.172 16.617 3.303 24.509 2.058 7.621 7.601 13.295 15.715 15.36 13.135 3.345 24.667.347 34.39-9.235.852-.839 1.839-1.54 3.686-3.07v11.373h19.549v-83.8h-21.086c0 13.102.105 25.906-.04 38.707-.085 7.643-.274 15.312-4.476 22.191-4.196 6.87-11.393 10.254-18.603 8.535-5.984-1.426-9.75-6.43-10.053-14.936-.585-16.46-.72-32.935-1.032-49.403-.033-1.738-.005-3.477-.005-5.029h-21.348v44.798m-872.662 22.637c-4.307-3.09-5.78-7.615-5.97-12.576-.442-11.625-.755-23.256-.995-34.887-.136-6.611-.024-13.227-.024-19.964h-21.299c0 19.006-.201 37.642.145 56.267.084 4.533 1.45 9.236 3.135 13.501 2.854 7.22 7.729 12.871 15.65 14.886 13.126 3.339 24.652.371 34.384-9.184.861-.845 1.843-1.566 3.672-3.104v11.396h19.664v-83.88h-20.508c-.26.543-.517.831-.519 1.12-.053 11.984.07 23.971-.183 35.95-.12 5.621-.432 11.338-1.577 16.818-2.708 12.949-13.588 18.918-25.575 13.657m632.649-69.802c-11.73-.631-21.031 4.428-29.69 14.15v-11.87h-19.907v83.694h21.4c0-14.012-.06-27.655.023-41.297.048-7.92 1.254-15.566 6.227-22.141 3.946-5.217 10.83-7.631 17.379-6.019 5.075 1.25 8.68 6.027 9.569 12.738.174 1.316.31 2.649.318 3.975.1 15.65.174 31.3.251 46.951.01 1.925.001 3.85.001 5.907h20.933c.219-.7.49-1.162.49-1.625.019-18.484.49-36.984-.126-55.447-.593-17.776-9.553-27.165-26.868-29.016M960.77 927.335c4.855-5.845 11.242-7.03 18.032-4.965 6.816 2.073 8.28 8.236 8.682 14.375.447 6.803.355 13.646.386 20.473.052 11.295.014 22.59.014 34.115h21.176c0-19.96.32-39.59-.156-59.199-.192-7.886-3.023-15.369-9.41-20.76-10.54-8.9-29.905-8.009-40.518 1.871-1.754 1.633-3.037 3.773-4.537 5.679l-1.524-1.073-.467-10.115h-19.771v83.613h21.439c0-13.967-.056-27.613.021-41.257.045-7.922 1.208-15.59 6.633-22.757m223.198 54.63c1.184-1.182 2.456-2.387 2.894.462.303 1.964.03 4.056.573 5.929.364 1.252 1.66 3.112 2.625 3.167 5.413.307 10.853.148 15.619.148 0-6.512.096-12.327-.02-18.138-.274-13.808-.235-27.64-1.102-41.414-.81-12.872-8.406-21.462-20.799-25.072-9.691-2.824-19.456-2.194-29.125-.04-15.021 3.344-15 3.458-13.934 18.716.069.981.27 1.953.457 3.262 1.068-.634 1.909-1.091 2.707-1.613 7.94-5.198 16.692-7.215 26.1-6.692 10.954.61 16.806 7.845 14.625 18.641-4.535 0-9.222-.444-13.792.1-7.703.916-15.509 1.816-22.952 3.878-13.84 3.835-19.906 19.715-15.369 33.297 3.59 10.748 12.788 15.025 23.007 16.677 11.117 1.797 20.662-1.859 28.486-11.308M647.311 931.5v59.931h22.491v-50.815h38.51v-17.48H670.05V893.5h40.017v-16.817h-62.756V931.5m966 38v21.93h22.493v-97.936h32.26v-16.81h-87.434v17.242h32.68V969.5m266.895 16.24c8.549-6.876 10.003-16.222 8.266-26.14-1.474-8.415-7.38-13.53-15.215-16.37-5.765-2.09-11.612-3.955-17.421-5.926-3.245-1.1-6.104-3.145-5.499-6.7.475-2.788 2.156-5.866 4.262-7.726 1.758-1.553 4.942-2.192 7.439-2.073 7.045.334 14.061 1.266 21.453 1.998.332-2.738.69-6.165 1.178-9.574.546-3.817-.587-5.87-4.874-6.04-3.448-.138-6.843-1.344-10.299-1.626-12.176-.99-23.926-.037-34.117 7.865-11.575 8.975-10.132 30.473 2.905 37.007 6.023 3.02 12.694 4.752 19.082 7.036 7.117 2.544 9.58 5.284 9.387 10.539-.183 5.03-3.23 8.014-10.217 9.851-1.264.333-2.662.603-3.925.414-7.589-1.132-15.157-2.407-23.04-3.684l-1.228 15.585c17.825 4.167 35.036 6.553 51.863-4.436m-643.893-39.24c0 7.33-.08 14.662.02 21.992.164 12.066 5.85 21.238 16.31 23.35 7.466 1.506 15.42.71 23.152.609.976-.013 2.669-1.99 2.755-3.152.328-4.4.132-8.84.132-13.661-2 .491-3.108.756-4.213 1.037-9.814 2.494-14.913-.487-16.393-10.285-.714-4.73-.353-9.63-.375-14.454-.042-9.603-.012-19.205-.012-29.408h19.667v-15.477h-19.872V883.33c-6.618 2.11-12.79 3.934-18.827 6.133-1.072.39-2.164 2.3-2.238 3.568-.267 4.594-.105 9.214-.105 14.417h-15.681v15.478h15.68V946.5m680.538-56.967c-.513 1.59-1.388 3.163-1.467 4.775-.209 4.236-.07 8.49-.07 13.149h-15.595v15.458h15.594v5.815c0 13.15-.068 26.3.02 39.45.084 12.69 6.347 22.145 17.381 24.104 7.042 1.25 14.474.443 21.722.229 1.107-.033 3.012-1.783 3.093-2.85.348-4.539.148-9.118.148-13.873-16.454 3.607-20.987-.054-20.988-15.95v-37.347h19.658v-15.455h-19.862V883.33a2685.942 2685.942 0 0 1-19.634 6.203M1667.32 926.5v64.913h21.8c0-10.7-.157-21.146.048-31.585.177-8.936-.14-17.996 4.333-26.275 2.864-5.3 7.046-8.312 13.188-8.17 3.383.078 6.761.32 10.427.501 0-5.918.012-11.558-.014-17.198-.004-.813-.196-1.625-.293-2.374-11.674-3.538-19.451 1.113-30.015 18.464v-17.083h-19.474v18.807m-361.852 65.176h9.363V907.58h-21.143v84.098h11.78M1294.154 870.5l-1.133 19.82h21.763v-19.98c-6.805 0-13.275 0-20.63.16z"/><path fill="#0273BC" d="M1293 502.657h-211.757V149.152h878.613v353.505H1293m65.875-302.32c-.188.64-.423 1.269-.555 1.919-10.456 51.493-20.9 102.989-31.358 154.481-1.596 7.86-3.263 15.704-4.898 23.556-1.382-1.266-1.84-2.476-2.207-3.713-18.692-62.912-37.41-125.817-55.979-188.766-1.133-3.84-2.725-5.092-6.823-5.06-28.324.213-56.651.112-84.977.112h-5.194l-61.09 284.57h71.88l39.822-196.93c1.67 1.821 2.226 3.54 2.75 5.267 18.936 62.317 37.901 124.625 56.72 186.977 1.134 3.76 2.547 5.209 6.754 5.174 28.158-.233 56.318-.121 84.478-.121h5.348l60.628-284.647h-71.89a2216.884 2216.884 0 0 0-3.409 17.182m83.806 79.827-39.196 187.353h76.381l25.418-121.808h91.142l-25.403 122.09c24.832 0 49.149.05 73.464-.152 1.203-.01 3.126-2.05 3.46-3.444 2.205-9.213 4.098-18.5 6.034-27.776 15.19-72.75 30.368-145.504 45.542-218.258 2.424-11.623 4.806-23.255 7.216-34.922h-76.303l-22.451 108.199h-91.087c7.5-36.341 14.903-72.221 22.365-108.385h-76.387c-6.682 32.169-13.341 64.222-20.195 97.103m336.998-94.086c-38.836 12.438-63.772 36.533-67.205 79.172-2.301 28.573 8.015 50.642 33.233 64.56 12.022 6.635 25.14 11.257 37.589 17.155 10.168 4.817 20.498 9.512 29.973 15.5 7.748 4.898 10.919 13.066 10.094 22.517-1.25 14.325-10.452 21.786-22.867 25.988-23.045 7.798-46.56 6.566-70.07 2.537-13.448-2.304-26.483-6.083-38.838-12.99l-17.817 57.176c1.572.542 2.782 1.014 4.024 1.38 38.034 11.195 76.683 16.483 116.318 11.846 21.61-2.528 42.511-7.51 61.927-17.829 46.266-24.588 51.934-73.999 42.029-104.946-6.475-20.23-21.368-32.998-39.667-41.982-12.354-6.066-25.405-10.696-37.918-16.46-7.357-3.387-14.878-6.941-21.257-11.818-12.724-9.727-11.272-27.871 2.455-36.061 3.646-2.175 7.814-3.806 11.956-4.76 18.398-4.242 37.102-4.352 55.576-1.4 13.454 2.15 26.583 6.34 40.31 9.733l17.994-55.265c-5.854-1.84-11.138-3.807-16.575-5.16-23.923-5.95-48.34-7.1-72.851-7.028-19.559.058-38.848 2.212-58.413 8.135z"/><path fill="#050505" d="M1322.246 685.032c-9.046-11.64-28.59-9.46-36.153 3.727-4.862 8.477-6.158 17.889-6.257 27.383-.233 22.314-.074 44.632-.074 67.284h-31.524v-5.266c0-24.833.107-49.667-.09-74.499-.04-4.925-.84-9.942-2.028-14.734-1.264-5.092-4.7-8.655-9.947-10.22-13.815-4.118-26.167 1.856-30.333 15.774-2.303 7.694-3.683 15.91-3.9 23.933-.541 19.985-.179 39.995-.179 59.995v5.112h-31.14V655.586h29.993v16.662l.943.902c9.64-13.279 22.292-20.747 38.609-20.891 16.633-.147 29.16 6.872 36.99 22.37 2.18-2.861 3.865-5.434 5.903-7.689 13.374-14.795 37.674-19.186 55.515-10.257 10.811 5.41 14.663 15.353 17.102 26.098 1.134 4.997 1.951 10.185 1.985 15.292.188 28.322.09 56.646.09 85.329h-31.513v-5.174c0-24 .278-48.004-.173-71.996-.131-6.98-2.345-13.922-3.82-21.2z"/><path fill="#040404" d="M882.243 770.927c.72-7.052 1.439-13.659 2.225-20.884 2.444 1.133 4.717 2.263 7.049 3.254 15.33 6.517 30.946 10.127 47.266 3.797 14.339-5.562 17.894-18.087 12.391-28.316-2.596-4.826-8.08-8.763-13.132-11.462-10.203-5.451-21.331-9.193-31.448-14.78-6.849-3.782-14.038-8.444-18.635-14.55-21.16-28.103-6.795-68.04 27.348-77.615 20.178-5.658 40.139-3.213 59.957 2.011 1.043.275 2.525 1.957 2.457 2.887-.608 8.402-1.518 16.782-2.303 24.802-9.097-2.039-17.648-4.487-26.37-5.72-5.645-.798-11.668-.52-17.299.503-13.044 2.37-20.655 14.139-17.96 27.005 1.414 6.745 6.894 10.144 12.386 12.798 9.531 4.606 19.397 8.521 29.13 12.707 14.282 6.14 26.646 14.886 30.601 30.596 4.826 19.167 3.457 37.931-11.809 52.76-8.957 8.7-20.584 12.583-32.696 14.72-20.453 3.61-40.25-.174-60.132-5.504.34-2.997.657-5.78.974-9.009zM1142.757 716.107c1.245 25.1-6.587 45.901-27.355 60.036-24.599 16.742-70.199 15.628-91.245-15.09-7.406-10.81-11.418-22.756-11.912-35.864-.449-11.9.372-23.665 5.137-34.739 10.67-24.797 30.454-36.65 56.63-38.075 19.934-1.084 37.836 4.69 51.915 19.604 11.521 12.204 16.149 27.192 16.83 44.128m-89.984 31.434c12.9 19.12 40.261 19 50.507-1.039 8.32-16.274 8.679-33.848 1.876-51.042-4.473-11.307-13.423-16.947-25.43-17.683-13.103-.803-22.93 4.557-28.786 16.37-8.812 17.778-5.872 35.353 1.833 53.394z"/><path fill="#050505" d="M1392.768 752.295c-7.984-23.071-8.18-45.708 1.584-67.873 11.04-25.063 31.652-33.78 57.556-31.906 13.132.95 26.157 3.847 34.852 14.575 5.295 6.533 9.074 14.592 12.236 22.486 4.572 11.41 6.436 29.463 5.384 40.092h-86.1c-1.368 14.498 10.466 29.296 25.686 32.563 13.216 2.838 25.726.123 37.845-5.117 4.374-1.891 8.612-4.1 13.567-6.478 0 8.41.126 16.494-.144 24.565-.038 1.143-1.807 2.62-3.11 3.27-14.54 7.235-30.125 9.538-46.041 7.84-8.953-.954-17.988-3.148-26.448-6.253-12.989-4.767-21.58-14.59-26.867-27.764m42.122-74.274c-12.003 5.85-15.899 16.422-17.222 28.82h56.623c-.402-3.048-.626-5.697-1.115-8.295-2.412-12.803-9.685-20.923-21.398-22.309-5.246-.62-10.75.949-16.888 1.784zM1734.962 733.202c-1.98-18.281-.515-35.544 7.81-51.875 9.74-19.105 25.71-28.332 46.562-28.877 8.498-.221 17.283.992 25.536 3.112 14.142 3.633 23.37 13.358 28.804 26.809 6.063 15.008 8.117 30.67 8.082 47.213h-86.332c-1.658 11.854 7.469 25.977 19.726 30.746 14.96 5.821 29.379 2.755 43.503-3.166 4.412-1.85 8.655-4.098 13.713-6.517 0 8.462.129 16.678-.155 24.88-.038 1.078-2.03 2.408-3.386 3.07-15.554 7.601-32.063 9.263-49.058 7.57-11.554-1.15-22.565-4.161-32.176-10.901-14.378-10.083-20.343-24.871-22.629-42.064m86.107-28.374c-.84-8.419-3.001-16.46-9.093-22.601-7.41-7.471-21.793-8.647-32.13-3.194-8.88 4.686-15.857 18.104-14.462 28.208 17.892 0 35.828.017 53.764-.063.689-.003 1.373-.935 1.921-2.35z"/><path fill="#040404" d="M1643.473 761.96c9.51 1.553 18.459 2.296 27.348-1.546 5.893-2.547 9.08-6.615 9.358-12.809.27-6.023-2.223-10.812-8.043-13.062-6.316-2.441-12.82-4.394-19.201-6.67-4.67-1.665-9.375-3.284-13.892-5.31-24.22-10.86-22.216-47.525-4.443-59.5 14.191-9.563 29.776-11.842 46.155-10.646 8.87.648 17.656 2.441 26.903 3.779l-2.117 24.349c-6.537-1.462-12.905-3.546-19.41-4.156-6.524-.612-13.221-.083-19.769.625-2.59.28-5.373 1.955-7.393 3.754-6.905 6.149-5.2 16.025 3.419 19.313 8.033 3.063 16.336 5.411 24.464 8.233 26.887 9.334 36.085 39.885 18.384 61.666-7.745 9.53-18.93 13.342-30.442 15.476-17.649 3.273-34.995.41-52.582-4.036l1.952-25.85c6.44 2.139 12.667 4.208 19.309 6.39z"/><path fill="#050505" d="M1946.82 785.755c-9.673-.221-19.118.701-28.097-.935-15.178-2.765-23-13.523-25.414-28.308-.772-4.726-1-9.582-1.025-14.381-.106-20.945-.045-41.891-.045-63.31h-23.755v-23.266h23.475v-26.07l31.645-10.587v36.211h29.256v23.556h-28.79c-.12 1.603-.296 2.871-.297 4.14-.017 19.149-.016 38.297-.004 57.446 0 1.328.005 2.671.194 3.98 2.352 16.318 12.456 21.182 30.423 14.008v25.865c-2.011.463-4.57 1.053-7.567 1.65z"/><path fill="#0A77BE" d="M352.905 876.315h7.37v115.359c-8.434 0-16.881.17-25.307-.176-1.34-.055-3.018-2.22-3.805-3.781-12.957-25.681-25.792-51.423-38.668-77.145-.785-1.57-1.681-3.083-3.548-4.407v85.203h-21.262V876.33c8.567 0 17.024-.173 25.459.18 1.318.055 2.95 2.295 3.74 3.874 12.887 25.737 25.659 51.532 38.473 77.306.771 1.551 1.683 3.034 3.668 4.237v-85.612h13.88z"/><path fill="#0977BE" d="M479.682 935v56.31h-22.836v-50.295H410.8v50.318h-22.082V876.6h21.905v46.384h46.223V876.61h22.836V935z"/><path fill="#0575BD" d="M1068.486 993.58c-11.66.447-22.072-1.545-29.584-10.857-5.47-6.781-8.189-14.876-9.198-23.373-1.464-12.327-.353-24.286 4.529-36.068 8.632-20.834 37.817-22.558 51.347-10.384 1.024.921 2.131 1.752 4.14 3.394v-48.656h21.24V991.39h-20.362l-.556-9.29c-6.204 6.543-13.07 10.194-21.556 11.48m18.158-27.75c4.324-11.948 4.484-23.777-1.65-35.153-3.437-6.375-8.916-9.608-16.435-9.045-6.73.505-11.166 4.038-13.582 10.075-4.36 10.894-4.882 22.02-.695 33.057 2.452 6.463 6.438 11.748 14.062 12.547 8.625.904 14.136-3.593 18.3-11.481z"/><path fill="#050505" d="M1599.142 683.535c-16.952-1.99-25.114 6.129-28.85 20.692-2.12 8.265-2.78 17.045-3.021 25.624-.455 16.143-.132 32.309-.132 48.465v5.173h-31.54V655.591h28.133v28.667c12.25-26.951 25.096-35.681 44.394-30.853v31.541c-2.855-.444-5.709-.888-8.984-1.41z"/><path fill="#0675BE" d="M563.656 986.624c-13.93 7.915-28.48 8.36-43.403 5.636-4.536-.828-9.025-1.915-13.974-2.977l2.095-18.788c6.39 1.85 12.45 3.987 18.683 5.307 6.802 1.44 13.576.788 19.861-2.642 4.55-2.484 7.246-5.985 7.481-11.456.252-5.87-2.14-10.091-7.154-12.632-6.07-3.076-12.415-5.606-18.55-8.564-7.647-3.688-15.467-7.262-19.928-15.132-10.88-19.195-1.42-42.501 19.752-48.773 13.201-3.91 26.325-2.533 39.335.868 1.232.322 2.784 2.614 2.761 3.967-.08 4.752-.785 9.494-1.193 13.627-8.389-1.169-16.35-2.947-24.343-3.113-4.088-.085-8.983 1.794-12.206 4.402-7.316 5.92-6.458 16.694 1.607 21.457 6.109 3.608 12.87 6.148 19.443 8.924 10.803 4.561 20.007 10.613 23.161 22.886 3.769 14.66-1.59 29.777-13.428 37.003zM1368.378 992.63c-18.596-4.248-29.548-15.776-32.462-33.922-3.386-21.078 3.23-40.97 25.467-50.278 18.834-7.884 43.214-1.262 53.911 15.024 12.496 19.024 10.325 51.684-13.624 64.7-10.264 5.58-21.395 6.792-33.292 4.476m2.615-16.597c12.481 3.414 21.75.265 25.976-10.07 4.607-11.267 5.261-22.996-.5-34.25-6.55-12.793-25.442-13.753-33.702-1.995-4.578 6.516-5.71 13.757-5.04 21.35.863 9.82 2.97 19.168 13.266 24.965zM762.54 993.433c-22.037-3.567-33.83-13.747-37.53-34.52-3.726-20.92 3.078-41.06 25.159-50.39 18.952-8.01 43.626-1.393 54.27 15.138 12.411 19.274 10.053 51.573-13.96 64.644-8.505 4.629-17.855 5.977-27.938 5.128m-3.265-17.752c12.451 4.091 22.347.772 26.804-9.892 4.222-10.1 4.65-20.714.866-31.147-6.27-17.285-27.071-15.045-34.25-6.47-9.953 11.887-7.227 40.486 6.58 47.51z"/><path fill="#0776BE" d="M1732.326 951.993v-44.299h21.348c0 1.552-.028 3.29.005 5.029.312 16.468.447 32.944 1.032 49.403.303 8.507 4.069 13.51 10.053 14.936 7.21 1.72 14.407-1.665 18.603-8.535 4.202-6.879 4.39-14.548 4.477-22.191.144-12.801.04-25.605.04-38.707h21.085v83.8h-19.55v-11.374c-1.846 1.53-2.833 2.232-3.684 3.07-9.724 9.583-21.256 12.581-34.39 9.237-8.115-2.066-13.658-7.74-15.716-15.361-2.131-7.892-2.285-16.317-3.303-25.008zM859.968 975.388c11.683 5.002 22.563-.967 25.27-13.916 1.146-5.48 1.459-11.197 1.578-16.818.254-11.979.13-23.966.183-35.95.002-.289.26-.577.52-1.12h20.507v83.88h-19.664v-11.396c-1.829 1.538-2.811 2.259-3.672 3.104-9.732 9.555-21.258 12.523-34.384 9.184-7.921-2.015-12.796-7.666-15.65-14.886-1.685-4.265-3.051-8.968-3.135-13.501-.346-18.625-.145-37.26-.145-56.267h21.299c0 6.737-.112 13.353.024 19.964.24 11.631.553 23.262.996 34.887.188 4.96 1.662 9.486 6.273 12.835z"/><path fill="#0675BE" d="M1492.762 905.328c16.866 1.85 25.826 11.239 26.42 29.015.616 18.463.144 36.963.125 55.447 0 .463-.271.926-.49 1.625h-20.933c0-2.057.009-3.982 0-5.907-.078-15.65-.152-31.3-.252-46.95-.009-1.327-.144-2.66-.318-3.976-.889-6.711-4.494-11.488-9.57-12.738-6.549-1.612-13.432.802-17.378 6.019-4.973 6.575-6.18 14.221-6.227 22.141-.083 13.642-.023 27.285-.023 41.297h-21.4v-83.694h19.908v11.87c8.658-9.722 17.958-14.781 30.138-14.149zM960.548 927.633c-5.203 6.87-6.366 14.537-6.41 22.459-.078 13.644-.022 27.29-.022 41.257h-21.439v-83.613h19.771l.467 10.115 1.524 1.073c1.5-1.906 2.783-4.046 4.537-5.679 10.613-9.88 29.978-10.771 40.518-1.872 6.387 5.392 9.218 12.875 9.41 20.761.476 19.61.156 39.238.156 59.199h-21.176c0-11.525.038-22.82-.014-34.115-.031-6.827.06-13.67-.386-20.473-.403-6.14-1.866-12.302-8.682-14.375-6.79-2.064-13.177-.88-18.254 5.263z"/><path fill="#0876BE" d="M1183.7 982.257c-7.556 9.157-17.1 12.813-28.218 11.016-10.22-1.652-19.417-5.929-23.007-16.677-4.537-13.582 1.528-29.462 15.37-33.297 7.442-2.062 15.248-2.962 22.95-3.878 4.57-.544 9.258-.1 13.793-.1 2.181-10.796-3.67-18.031-14.625-18.64-9.408-.524-18.16 1.493-26.1 6.69-.798.523-1.639.98-2.707 1.614-.187-1.31-.388-2.28-.457-3.262-1.066-15.258-1.087-15.372 13.934-18.717 9.669-2.153 19.434-2.783 29.125.04 12.393 3.611 19.99 12.2 20.8 25.073.866 13.774.827 27.606 1.101 41.414.116 5.81.02 11.626.02 18.138-4.766 0-10.206.159-15.62-.148-.965-.055-2.26-1.915-2.624-3.167-.544-1.873-.27-3.965-.573-5.929-.438-2.849-1.71-1.644-3.162-.17m-5.203-30.584c-6.059.719-12.315.73-18.125 2.344-6.55 1.818-9.974 9.275-8.64 16.113.898 4.608 6.438 8.138 12.863 8.197 13.646.125 22.306-11.059 20.22-26.654h-6.318z"/><path fill="#0B78BF" d="M647.31 931v-54.317h62.757V893.5H670.05v29.635h38.262v17.481h-38.51v50.815h-22.491V931zM1613.31 969v-75.074h-32.68v-17.241h87.435v16.809h-32.261v97.935h-22.493V969z"/><path fill="#0776BE" d="M1879.933 985.98c-16.555 10.749-33.766 8.363-51.591 4.196l1.228-15.585c7.883 1.277 15.451 2.552 23.04 3.684 1.263.189 2.66-.081 3.925-.414 6.988-1.837 10.034-4.82 10.217-9.851.192-5.255-2.27-7.995-9.387-10.54-6.388-2.283-13.059-4.016-19.082-7.035-13.037-6.534-14.48-28.032-2.905-37.007 10.191-7.902 21.941-8.855 34.117-7.865 3.456.282 6.85 1.488 10.299 1.625 4.287.171 5.42 2.224 4.874 6.041-.488 3.41-.846 6.836-1.178 9.574-7.392-.732-14.408-1.664-21.453-1.998-2.497-.119-5.681.52-7.44 2.073-2.105 1.86-3.786 4.938-4.26 7.725-.606 3.556 2.253 5.6 5.498 6.701 5.809 1.971 11.656 3.835 17.421 5.926 7.835 2.84 13.74 7.955 15.215 16.37 1.737 9.918.283 19.264-8.538 26.38z"/><path fill="#0A78BF" d="M1236.312 946v-23.075h-15.68v-15.478h15.68c0-5.203-.161-9.823.106-14.417.074-1.268 1.166-3.178 2.238-3.568 6.036-2.199 12.209-4.024 18.827-6.133v23.722h19.872v15.477h-19.667c0 10.203-.03 19.805.012 29.408.022 4.823-.339 9.724.375 14.454 1.48 9.798 6.579 12.779 16.393 10.285 1.105-.281 2.214-.546 4.213-1.037 0 4.821.196 9.26-.132 13.66-.086 1.163-1.779 3.14-2.755 3.153-7.731.1-15.686.897-23.151-.61-10.46-2.11-16.147-11.283-16.312-23.35-.1-7.329-.019-14.66-.019-22.491zM1917.245 889.435c6.515-2.049 12.634-4 19.24-6.105v23.708h19.86v15.455h-19.657v37.348c.001 15.895 4.534 19.556 20.988 15.949 0 4.755.2 9.334-.148 13.872-.081 1.068-1.986 2.818-3.093 2.85-7.248.215-14.68 1.021-21.722-.228-11.034-1.959-17.297-11.415-17.381-24.104-.088-13.15-.02-26.3-.02-39.45v-5.815h-15.594v-15.458h15.594c0-4.66-.138-8.913.07-13.149.08-1.612.955-3.185 1.863-4.873z"/><path fill="#0877BE" d="M1667.32 926v-18.306h19.474v17.083c10.564-17.351 18.341-22.002 30.015-18.464.097.75.289 1.561.293 2.374.026 5.64.014 11.28.014 17.198-3.666-.182-7.044-.423-10.427-.501-6.142-.142-10.324 2.87-13.188 8.17-4.473 8.28-4.156 17.339-4.333 26.275-.205 10.439-.048 20.885-.048 31.585h-21.8v-65.413z"/><path fill="#0776BE" d="M1304.981 991.677h-11.293V907.58h21.143v84.098h-9.85z"/><path fill="#0B78BF" d="M1294.596 870.419c6.913-.08 13.383-.08 20.188-.08v19.98h-21.763c.373-6.532.753-13.176 1.575-19.9z"/><path fill="#FEFEFF" d="M1358.936 199.916c1.14-5.785 2.219-11.147 3.348-16.76h71.89l-60.628 284.647h-5.348c-28.16 0-56.32-.112-84.478.12-4.207.036-5.62-1.412-6.755-5.173-18.818-62.352-37.783-124.66-56.719-186.977-.524-1.728-1.08-3.446-2.75-5.267-13.25 65.53-26.502 131.06-39.822 196.93h-71.88l61.09-284.57h5.194c28.326 0 56.653.1 84.977-.113 4.098-.03 5.69 1.22 6.823 5.061 18.569 62.949 37.287 125.854 55.979 188.766.367 1.237.825 2.447 2.207 3.713 1.635-7.852 3.302-15.696 4.898-23.556 10.459-51.492 20.902-102.988 31.358-154.481.132-.65.368-1.28.616-2.34zM1442.778 279.751c6.757-32.467 13.416-64.52 20.098-96.69h76.387l-22.365 108.386h91.087l22.451-108.2h76.303c-2.41 11.668-4.792 23.3-7.216 34.923-15.174 72.754-30.353 145.507-45.542 218.258-1.936 9.275-3.83 18.563-6.034 27.776-.334 1.394-2.257 3.434-3.46 3.444-24.315.203-48.632.152-73.464.152l25.403-122.09h-91.142l-25.418 121.808h-76.381c13.097-62.604 26.146-124.979 39.293-187.767zM1780.072 186c19.172-5.844 38.461-7.998 58.02-8.056 24.511-.072 48.928 1.078 72.851 7.028 5.437 1.353 10.721 3.32 16.575 5.16l-17.994 55.265c-13.727-3.393-26.856-7.583-40.31-9.733-18.474-2.952-37.178-2.842-55.576 1.4-4.142.954-8.31 2.585-11.956 4.76-13.727 8.19-15.179 26.334-2.455 36.061 6.38 4.877 13.9 8.431 21.257 11.819 12.513 5.763 25.564 10.393 37.918 16.459 18.3 8.984 33.192 21.752 39.667 41.982 9.905 30.947 4.237 80.358-42.03 104.946-19.415 10.319-40.316 15.301-61.926 17.83-39.635 4.636-78.284-.652-116.318-11.847-1.242-.366-2.452-.838-4.024-1.38l17.817-57.176c12.355 6.907 25.39 10.686 38.838 12.99 23.51 4.03 47.025 5.261 70.07-2.537 12.415-4.202 21.616-11.663 22.867-25.988.825-9.451-2.346-17.62-10.094-22.516-9.475-5.99-19.805-10.684-29.973-15.5-12.45-5.899-25.567-10.52-37.59-17.156-25.217-13.918-35.533-35.987-33.232-64.56 3.433-42.639 28.369-66.734 67.598-79.25z"/><path fill="#FEFEFE" d="M1052.593 747.217c-7.525-17.717-10.465-35.292-1.653-53.07 5.855-11.813 15.683-17.173 28.785-16.37 12.008.736 20.958 6.376 25.431 17.683 6.803 17.194 6.444 34.768-1.876 51.042-10.246 20.038-37.608 20.16-50.687.715z"/><path fill="#FDFDFD" d="M1435.266 677.891c5.762-.705 11.266-2.274 16.512-1.654 11.713 1.386 18.986 9.506 21.398 22.309.49 2.598.713 5.247 1.115 8.296h-56.623c1.323-12.399 5.219-22.972 17.598-28.95zM1821.139 705.286c-.618.957-1.302 1.889-1.99 1.892-17.937.08-35.873.063-53.765.063-1.395-10.104 5.583-23.522 14.463-28.208 10.336-5.453 24.718-4.277 32.13 3.194 6.091 6.141 8.251 14.182 9.162 23.059z"/><path fill="#FDFEFE" d="M1086.483 966.182c-4.003 7.536-9.514 12.033-18.14 11.129-7.623-.8-11.609-6.084-14.06-12.547-4.188-11.037-3.666-22.163.694-33.057 2.416-6.037 6.853-9.57 13.582-10.075 7.519-.563 12.998 2.67 16.435 9.045 6.134 11.376 5.974 23.205 1.489 35.505zM1370.636 975.858c-9.94-5.622-12.046-14.97-12.91-24.79-.668-7.593.463-14.834 5.04-21.35 8.261-11.758 27.153-10.798 33.703 1.996 5.761 11.253 5.107 22.982.5 34.248-4.226 10.336-13.495 13.485-26.333 9.896zM758.922 975.514c-13.453-6.856-16.179-35.455-6.227-47.342 7.18-8.575 27.98-10.815 34.25 6.47 3.786 10.433 3.357 21.047-.865 31.147-4.457 10.664-14.353 13.983-27.158 9.725zM1178.992 951.673h5.822c2.087 15.595-6.573 26.78-20.22 26.654-6.424-.059-11.964-3.59-12.863-8.197-1.333-6.838 2.09-14.295 8.64-16.113 5.811-1.614 12.067-1.625 18.621-2.344z"/></svg>