<svg xmlns="http://www.w3.org/2000/svg" viewBox="0 0 2053 1160" xml:space="preserve"><path d="M1504 1161H1V1H2054v1160H1504m-274.5-658h731.193V148.394h-880.385v354.604H1229.5M290 931.5v-21.453c1.576 1.258 2.313 2.529 2.968 3.84 12.35 24.704 24.665 49.427 37.098 74.09.789 1.566 2.437 3.772 3.757 3.822 8.92.339 17.86.177 26.778.177V876.307h-22.76v82.629c-1.477-1.382-2.204-2.833-2.924-4.288-12.309-24.892-24.59-49.798-36.99-74.645-.78-1.563-2.445-3.754-3.77-3.804-8.919-.338-17.857-.176-26.751-.176v115.663H290V931.5m135.51-8.5H411.85v-46.633h-23.43v115.306h23.781V941.3h43.946v50.423h23.52V876.415h-23.87V923H425.51m686.49-1.5v-54.224h-22.973v46.185c-13.34-8.502-13.344-8.692-29.923-8.392-10.593.192-18.831 5.044-23.916 14.49-8.105 15.056-8.93 31.056-5.066 47.341 6.398 26.968 30.447 32.909 51.408 23.138 2.874-1.34 5.35-3.533 8.282-5.514l.411 7.142H1112V921.5m-605.01-28.85c-3.94 11.052-5.137 21.974.819 32.846 4.758 8.685 13.144 12.459 21.402 16.443 5.752 2.775 11.73 5.095 17.39 8.037 6.975 3.626 9.065 11.203 5.217 17.46-3.004 4.883-13.96 9.523-19.573 8.175-8.037-1.93-16.05-3.965-24.789-6.132-.431 5.232-.767 11.561-1.556 17.833-.347 2.754.785 3.431 3.022 3.693 1.129.132 2.245.397 3.356.649 12.697 2.877 25.592 3.882 38.306 1.15 12.663-2.72 23.388-8.557 26.872-22.685 4.464-18.103-.019-33.371-18.065-41.974-7.958-3.794-16.07-7.267-24.013-11.093-5.269-2.539-7.263-7.03-6.307-12.73.812-4.842 6.514-10.585 11.398-11.239 7.159-.958 14.263-.666 21.187 1.77 2.54.894 5.193 1.461 8.249 2.302l2.311-19.455c-10.322-3.791-20.494-3.825-30.73-3.742-14.59.118-26.55 5.01-34.497 18.691m838.498 25.361c-1.173 1.376-2.547 2.628-3.489 4.147-7.819 12.605-9.732 26.049-6.184 40.5 3.792 15.444 13.186 25.64 28.316 29.682 6.71 1.793 14.083 1.773 21.118 1.53 12.327-.426 22.187-6.169 29.76-15.885 8.818-11.312 9.386-24.65 7.682-37.76-1.931-14.853-10.144-25.99-24.384-32.203-7.066-3.083-14.373-2.937-21.794-3.08-12.069-.234-22.062 4.2-31.025 13.07m-537.375 10.46c-2.62-6.406-6.828-11.448-12.403-15.603-9.883-7.366-21.083-8.481-32.839-7.9-13.384.66-24.302 6.354-31.737 17.187-8.375 12.202-9.915 25.955-6.354 40.418 3.796 15.416 13.114 25.638 28.262 29.726 6.39 1.724 13.38 1.52 20.107 1.626 9.944.156 18.371-3.948 25.79-10.354 14.932-12.892 16.135-37.336 9.174-55.1m358.771 65.466 18.895-9.983 1.607 7.673H1206c0-12.96.122-25.544-.043-38.125-.11-8.434.047-16.958-1.141-25.267-1.355-9.475-7.08-16.23-15.959-20.383-8.237-3.855-16.878-3.727-25.41-2.69-7.553.918-14.954 3.158-22.378 4.995-.818.202-1.945 1.62-1.906 2.424.286 5.876.833 11.74 1.342 18.16 7.388-4.908 14.993-8.652 23.995-9.08 12.357-.59 19.911 3.236 20.225 17.34-7.8 0-15.632-.457-23.391.098-14.473 1.035-27.536 6.356-30.94 23.863-2.036 10.474 3.19 21.877 12.541 27.143 7.383 4.157 15.143 3.987 23.948 3.832M1465 949.629c-.119-6.875 1.417-13.31 4.904-19.289 3.164-5.425 10.162-8.876 15.624-7.545 7.583 1.848 11.368 6.992 11.45 15.93.093 10.16.022 20.32.022 30.48v22.427h22.99c0-20.333.29-40.306-.167-60.262-.149-6.473-2.407-12.767-6.903-18.01-8.447-9.847-19.646-9.971-30.659-7.695-6.385 1.32-12.145 5.664-18.122 8.615l-.344-6.973h-21.42v84.412H1465v-42.09M932 947.5v44.21h23v-5.157c0-12.824-.527-25.679.227-38.458.364-6.165 2.729-12.345 4.963-18.223 1.593-4.191 9.122-8.572 15.378-7.053 7.708 1.872 11.393 7.104 11.42 16.45.044 15.655.012 31.31.013 46.965v5.384h22.988c0-20.35.291-40.325-.167-60.283-.15-6.473-2.414-12.764-6.925-18-8.463-9.824-19.66-9.933-30.666-7.658-6.38 1.318-12.134 5.67-18.09 8.617l-.352-6.977H932V947.5M896.533 992h12.17v-84.62H886c0 14.521.5 28.688-.226 42.792-.326 6.326-2.49 12.78-4.946 18.71-2.343 5.659-8.203 7.817-13.85 7.816-5.309 0-9.807-2.978-11.326-8.62-.884-3.288-1.543-6.746-1.58-10.135-.166-15.155-.072-30.313-.072-45.47v-5.163h-22.588c-.17.762-.367 1.23-.367 1.7-.025 19.654-.42 39.32.132 58.958.25 8.935 3.945 17.305 12.107 21.963 12.132 6.923 24.493 5.897 36.346-1.26 2.446-1.478 4.62-3.405 7.196-5.331l.426 8.66h9.28M1732 922.504c0 14.657-.26 29.32.092 43.969.231 9.608 4.159 17.543 12.045 23.679 6.793 5.284 27.631 5.188 34.424-.17 2.89-2.28 6.027-4.246 9.271-6.507.148 2.99.276 5.578.4 8.116h21.467v-84.206H1787c0 14.525.5 28.693-.227 42.797-.326 6.326-2.49 12.78-4.948 18.709-2.346 5.656-8.207 7.808-13.856 7.808-5.314-.001-9.801-2.991-11.321-8.628-.887-3.287-1.539-6.746-1.576-10.135-.165-15.155-.072-30.313-.072-45.47v-5.154h-23v15.192M677.602 923h-6.345v-29.061h39.332v-17.642H646.34v115.284h24.866v-50.752h37.505V923h-31.109m952.761 69h5.85v-98.16h32.415v-17.416h-88.3v17.785h31.828V992h18.207m258.574-17.038c.253-1.444.56-2.88.752-4.332 1.682-12.711-2.36-22.308-14.448-27.58-5.813-2.534-11.966-4.293-17.976-6.374-3.61-1.25-7.067-2.846-6.183-7.492.83-4.362 4.092-7.074 8.323-7.054 8.014.038 16.024.837 24.865 1.37.45-3.758 1.182-8.878 1.552-14.023.055-.756-1.5-2.176-2.493-2.377-13.839-2.792-27.807-4.396-41.294 1.084-8.125 3.3-14.198 9.28-14.947 18.632-.857 10.695.666 20.658 12.385 25.271 6.364 2.506 12.873 4.647 19.318 6.949 6.587 2.352 8.877 7.665 5.633 13.074-2.059 3.432-10.737 6.499-15.356 5.408-6.596-1.557-13.189-3.132-20.179-4.793-.281 4.558-.483 9.48-.925 14.38-.28 3.102.949 4.661 3.995 4.891 8.861.669 17.728 1.94 26.584 1.863 13.34-.116 24.359-4.997 30.394-18.897m-630.008-91.731c-.607-.256-1.318-.862-1.803-.715-7.325 2.206-14.62 4.512-22.39 6.94v17.76h-15.327v15.988h15.395c.08 1.555.165 2.69.19 3.827.341 15.097.648 30.195 1.016 45.291.202 8.298 5.822 16.932 12.697 19.522 10.317 3.887 20.703 3.112 31.346.691l-1.396-17.963c-1.274.355-2.61.74-3.952 1.1-10.215 2.743-15.697-1.487-15.704-12.126-.006-9.662-.001-19.323-.001-28.985v-11.686h18.636v-15.987h-18.65c0-7.877 0-15.328-.057-23.657m661.748 3.879-6.91 2.61v17.457h-15.376v15.991h15.41c.08 1.55.168 2.682.194 3.815.34 15.1.578 30.203 1.04 45.299.276 8.958 4.617 15.882 12.696 19.422 10.083 4.42 20.652 3.28 31.592.777-.475-3.277-1.06-6.168-1.27-9.086-.211-2.906-.047-5.839-.047-9.044-1.78.546-3.02.965-4.279 1.307-10.203 2.776-15.718-1.466-15.726-12.092-.006-9.33-.001-18.66-.001-27.99v-12.693h18.638v-15.991h-18.678v-25.005c-5.907 1.834-11.19 3.474-17.283 5.223m-236.437 19.897h-16.9v84.577H1690c0-9.394-.262-18.382.076-27.348.31-8.197.389-16.567 2.171-24.501 2.021-9 7.355-14.925 18.532-13.677 2.314.258 4.56 1.124 7.22 1.807V903.855c-6.91 1.28-13.508 1.087-18.5 3.825-5.046 2.768-8.501 8.439-12.502 12.677 0-2.971.149-6.46-.083-9.924-.078-1.165-1.123-2.266-2.674-3.426M1301.538 907h-9.143v84.712h23.295V907h-14.152M1316 882.454V870.43h-23.698v20.223H1316v-8.2z"/><path fill="#0172BC" d="M1229 503h-148.692V148.394h880.385v354.604H1229m37.741-305.228c-1.11-3.66-2.529-7.261-3.242-10.997-.656-3.44-2.46-3.984-5.555-3.973-28.995.101-57.99.102-86.985-.002-3.01-.01-4.326.76-4.994 3.888-18.563 86.842-37.236 173.66-55.878 260.484-1.442 6.72-2.787 13.462-4.213 20.365h71.79l39.805-196.884c1.583 1.517 2.156 2.997 2.616 4.511 19.022 62.65 38.05 125.297 57.003 187.968.972 3.216 2.141 4.81 6.04 4.782 28.66-.214 57.323-.112 85.985-.127 1.46 0 2.919-.161 4.496-.255l60.573-284.382h-71.899l-40.127 197.006-1.331-.082c-17.956-60.509-35.913-121.018-54.084-182.302m169.042 115.466-32.313 154.304h76.397l25.41-121.787h91.134l-25.387 122.039c24.958 0 49.278.051 73.596-.157 1.168-.01 3.051-2.152 3.364-3.573 3.823-17.378 7.421-34.805 11.065-52.223 12.533-59.904 25.067-119.808 37.586-179.716 3.394-16.242 6.733-32.496 10.141-48.958h-76.323l-22.487 108.373h-91.081l22.386-108.457h-76.384c-8.988 43.114-17.975 86.219-27.104 130.155m336.867 159.198c6.804-.478 13.63-.748 20.408-1.471 21.991-2.347 43.218-7.39 62.945-17.86 46.711-24.79 51.84-74.565 42.076-104.946-6.501-20.23-21.373-33.005-39.67-41.996-12.354-6.072-25.387-10.745-37.935-16.444-6.932-3.149-14.013-6.407-20.113-10.868-14.56-10.648-12.632-30.15 3.445-38.368 3.073-1.571 6.466-2.724 9.845-3.452 20.625-4.444 41.405-4.252 62.003-.374 11.288 2.125 22.254 5.962 33.752 9.133l18.059-55.5c-4.45-1.54-8.252-3.476-12.266-4.135-16.546-2.719-33.083-5.9-49.759-7.328-26.465-2.266-52.925-1.45-78.864 5.293-42.649 11.087-70.867 37.115-74.12 80.962-1.996 26.924 6.442 48.853 30.216 62.72 12.842 7.49 27.035 12.64 40.494 19.106 10.145 4.874 20.521 9.484 29.996 15.475 7.92 5.008 11.088 13.318 10.147 22.98-1.374 14.11-10.53 21.382-22.71 25.582-21.003 7.24-42.587 6.61-64.192 3.534-15.509-2.208-30.582-6.076-44.824-13.94l-17.881 57.364c32.23 9.53 64.547 15.715 98.948 14.533z"/><path fill="#0072BC" d="M290 932v59.686h-22.594V876.023c8.894 0 17.832-.162 26.752.176 1.324.05 2.99 2.24 3.77 3.804 12.4 24.847 24.68 49.753 36.99 74.645.719 1.455 1.446 2.906 2.923 4.288v-82.629h22.76v115.67c-8.918 0-17.858.161-26.778-.178-1.32-.05-2.968-2.256-3.757-3.821-12.433-24.664-24.747-49.387-37.098-74.091-.655-1.311-1.392-2.582-2.968-3.84V932zM426.008 923h29.79v-46.585h23.87v115.307h-23.52v-50.423h-43.946v50.374h-23.78V876.367h23.43V923h14.156zM1112 922v69.666h-21.777l-.41-7.142c-2.933 1.98-5.41 4.174-8.283 5.514-20.961 9.77-45.01 3.83-51.408-23.138-3.864-16.285-3.039-32.285 5.066-47.34 5.085-9.447 13.323-14.3 23.916-14.491 16.58-.3 16.583-.11 29.923 8.392v-46.185H1112V922m-33.595 52.07c1.205-1.05 2.663-1.915 3.575-3.176 8.958-12.385 9.037-25.471 2.518-38.814-2.93-5.998-8.002-9.676-14.765-9.833-6.473-.15-12.172 4.856-14.69 11.888-3.293 9.19-4.058 18.587-.888 27.841 3.832 11.184 12.092 18.29 24.25 12.094zM507.032 892.263c7.904-13.294 19.864-18.187 34.454-18.305 10.236-.083 20.408-.05 30.73 3.742l-2.311 19.455c-3.056-.84-5.71-1.408-8.25-2.302-6.923-2.436-14.027-2.728-21.186-1.77-4.884.654-10.586 6.397-11.398 11.238-.956 5.7 1.038 10.192 6.307 12.73 7.943 3.827 16.055 7.3 24.013 11.094 18.046 8.603 22.53 23.871 18.065 41.974-3.484 14.128-14.21 19.966-26.872 22.686-12.714 2.73-25.609 1.726-38.306-1.151-1.111-.252-2.227-.517-3.356-.65-2.237-.26-3.369-.938-3.022-3.692.789-6.272 1.125-12.601 1.556-17.833 8.74 2.167 16.752 4.201 24.789 6.132 5.614 1.348 16.569-3.292 19.573-8.176 3.848-6.256 1.758-13.833-5.217-17.459-5.66-2.942-11.638-5.262-17.39-8.037-8.258-3.984-16.644-7.758-21.402-16.443-5.956-10.872-4.76-21.794-.777-33.233zM1345.743 917.757c8.707-8.617 18.7-13.05 30.77-12.817 7.42.144 14.727-.002 21.793 3.081 14.24 6.214 22.453 17.35 24.384 32.203 1.704 13.11 1.136 26.448-7.682 37.76-7.573 9.716-17.433 15.46-29.76 15.885-7.035.243-14.408.263-21.118-1.53-15.13-4.043-24.524-14.238-28.316-29.681-3.548-14.452-1.635-27.896 6.184-40.501.942-1.52 2.316-2.771 3.745-4.4m53.186 39.187c-.315-6.426.176-13.021-1.136-19.236-1.968-9.325-8.501-14.745-18.11-15.268-6.9-.375-12.456 2.37-16.425 8.636-7.782 12.282-5.298 24.29-.055 36.45 3.403 7.891 16.716 11.862 25.073 6.766 6.335-3.863 8.788-9.832 10.653-17.348zM808.346 928.782c6.727 17.453 5.524 41.897-9.408 54.79-7.419 6.405-15.846 10.51-25.79 10.353-6.727-.106-13.718.098-20.107-1.626-15.148-4.088-24.466-14.31-28.262-29.726-3.56-14.463-2.021-28.216 6.354-40.418 7.435-10.833 18.353-16.527 31.737-17.188 11.756-.58 22.956.535 32.839 7.901 5.575 4.155 9.783 9.197 12.637 15.914M788 954.202c-.345-5.591.055-11.356-1.2-16.735-2.178-9.323-8.87-14.612-18.32-15.097-6.826-.351-12.432 2.593-16.383 8.873-7.174 11.401-5.143 22.713-.903 34.276 4.03 10.99 19.471 14.999 29.056 6.659 5.123-4.459 6.824-10.615 7.75-17.976zM1166.438 993.962c-8.36.13-16.12.3-23.503-3.857-9.351-5.266-14.577-16.669-12.54-27.143 3.403-17.507 16.466-22.828 30.939-23.863 7.76-.555 15.59-.098 23.39-.098-.313-14.104-7.867-17.93-20.224-17.34-9.002.428-16.607 4.172-23.995 9.08-.509-6.42-1.056-12.284-1.342-18.16-.039-.804 1.088-2.222 1.906-2.424 7.424-1.837 14.825-4.077 22.379-4.995 8.531-1.037 17.172-1.165 25.41 2.69 8.878 4.154 14.603 10.908 15.958 20.383 1.188 8.309 1.03 16.833 1.141 25.267.165 12.58.043 25.165.043 38.125h-18.615l-1.607-7.673c-6.12 3.234-12.508 6.608-19.34 10.008m-13.367-31.076c-1.869 6.493 1.063 12.64 6.895 14.014 15.923 3.75 25.224-8.571 24.262-24.896-3.454 0-6.934-.134-10.398.043-2.605.134-5.245.447-7.772 1.07-5.381 1.327-10.178 3.634-12.987 9.769zM1465 950.114v41.605h-22.625v-84.412h21.42l.344 6.973c5.977-2.951 11.737-7.295 18.122-8.615 11.013-2.276 22.212-2.152 30.659 7.696 4.496 5.242 6.754 11.536 6.903 18.01.457 19.955.167 39.928.167 60.26H1497v-22.426c0-10.16.071-20.32-.022-30.48-.082-8.938-3.867-14.082-11.45-15.93-5.462-1.33-12.46 2.12-15.624 7.545-3.487 5.978-5.023 12.414-4.904 19.774zM932 947v-39.683h21.789l.351 6.977c5.957-2.947 11.71-7.299 18.091-8.617 11.006-2.275 22.203-2.166 30.666 7.658 4.51 5.236 6.776 11.527 6.925 18 .458 19.958.167 39.933.167 60.283h-22.988v-5.384c0-15.655.031-31.31-.013-46.965-.027-9.346-3.712-14.578-11.42-16.45-6.256-1.52-13.785 2.862-15.378 7.053-2.234 5.878-4.599 12.058-4.963 18.223-.754 12.78-.228 25.634-.228 38.458v5.158H932V947zM896.042 992h-8.79l-.426-8.66c-2.575 1.926-4.75 3.853-7.196 5.33-11.853 7.158-24.214 8.184-36.346 1.26-8.162-4.657-11.856-13.027-12.107-21.962-.551-19.638-.157-39.304-.132-58.958 0-.47.196-.938.367-1.7H854v5.162c0 15.158-.094 30.316.072 45.471.037 3.39.696 6.847 1.58 10.135 1.519 5.642 6.017 8.62 11.326 8.62 5.647.001 11.507-2.157 13.85-7.816 2.456-5.93 4.62-12.384 4.946-18.71.725-14.104.226-28.27.226-42.791h22.703V992h-12.66zM1732 922.005v-14.693h23v5.154c0 15.157-.093 30.315.072 45.47.037 3.39.69 6.848 1.576 10.135 1.52 5.637 6.007 8.627 11.321 8.628 5.649 0 11.51-2.152 13.856-7.808 2.459-5.928 4.622-12.383 4.948-18.709.726-14.104.227-28.272.227-42.797h22.699v84.206h-21.466l-.4-8.116c-3.245 2.261-6.382 4.227-9.272 6.506-6.793 5.359-27.631 5.455-34.424.17-7.886-6.135-11.814-14.07-12.045-23.678-.351-14.649-.092-29.312-.092-44.468zM678.092 923h30.619v17.829h-37.505v50.752H646.34V876.297h64.25v17.642h-39.333V923h6.835zM1629.88 992h-17.724v-97.791h-31.827v-17.785h88.299v17.417h-32.416V992h-6.333zM1888.815 975.353c-5.913 13.51-16.931 18.39-30.272 18.506-8.855.076-17.723-1.194-26.584-1.863-3.046-.23-4.275-1.79-3.995-4.891.442-4.9.644-9.822.925-14.38 6.99 1.661 13.583 3.236 20.18 4.793 4.618 1.091 13.296-1.976 15.355-5.408 3.244-5.41.954-10.722-5.633-13.074-6.445-2.302-12.954-4.443-19.318-6.949-11.72-4.613-13.242-14.576-12.385-25.27.749-9.353 6.822-15.332 14.947-18.633 13.487-5.48 27.455-3.876 41.294-1.084.994.2 2.548 1.62 2.493 2.377-.37 5.145-1.101 10.265-1.552 14.023-8.84-.533-16.85-1.332-24.865-1.37-4.23-.02-7.493 2.692-8.323 7.054-.884 4.646 2.573 6.242 6.183 7.492 6.01 2.081 12.163 3.84 17.976 6.375 12.087 5.271 16.13 14.868 14.448 27.579-.193 1.452-.499 2.888-.874 4.723zM1258.957 883.67c.029 7.89.029 15.341.029 23.218h18.65v15.987H1259v11.686c0 9.662-.005 19.323.001 28.985.007 10.639 5.489 14.87 15.704 12.126 1.342-.36 2.678-.745 3.952-1.1l1.396 17.963c-10.643 2.42-21.029 3.196-31.346-.69-6.875-2.591-12.495-11.225-12.697-19.523-.368-15.096-.675-30.194-1.015-45.29-.026-1.137-.112-2.273-.191-3.828h-15.395v-15.987h15.326v-17.76c7.771-2.43 15.066-4.735 22.39-6.941.486-.147 1.197.459 1.832 1.154zM1921.082 887.056c5.688-1.695 10.971-3.335 16.878-5.17v25.006h18.678v15.99H1938v12.694c0 9.33-.005 18.66.001 27.99.008 10.626 5.523 14.868 15.726 12.092 1.26-.342 2.499-.76 4.279-1.307 0 3.205-.164 6.138.046 9.044.211 2.918.796 5.81 1.271 9.086-10.94 2.503-21.509 3.642-31.592-.777-8.08-3.54-12.42-10.464-12.695-19.422-.463-15.096-.7-30.199-1.041-45.299-.026-1.133-.113-2.265-.194-3.815h-15.41v-15.99h15.376v-17.459c2.664-1.006 4.787-1.807 7.315-2.663zM1684.714 907.022c1.077 1.145 2.122 2.246 2.2 3.41.232 3.465.083 6.954.083 9.925 4-4.238 7.456-9.91 12.503-12.677 4.99-2.738 11.59-2.544 18.5-3.825V927.865c-2.66-.683-4.907-1.549-7.221-1.807-11.177-1.248-16.51 4.677-18.532 13.677-1.782 7.934-1.862 16.304-2.17 24.501-.339 8.966-.077 17.954-.077 27.348h-22.66v-84.577c5.697 0 11.298 0 17.374.015zM1302.03 907h13.66v84.712h-23.295V907h9.634zM1316 882.94v7.714h-23.698v-20.223H1316v12.51z"/><path fill="#FEFEFF" d="M1266.849 198.16c18.063 60.895 36.02 121.404 53.976 181.913l1.33.082c13.36-65.586 26.72-131.173 40.128-197.006h71.899l-60.573 284.382c-1.577.094-3.037.255-4.496.255-28.662.015-57.324-.087-85.985.127-3.899.029-5.068-1.566-6.04-4.782-18.953-62.67-37.98-125.318-57.003-187.968-.46-1.514-1.033-2.994-2.616-4.51l-39.806 196.883h-71.789c1.426-6.903 2.77-13.644 4.213-20.365 18.642-86.824 37.315-173.642 55.878-260.484.668-3.128 1.984-3.898 4.994-3.888 28.995.104 57.99.103 86.985.002 3.094-.01 4.9.533 5.555 3.973.713 3.736 2.132 7.337 3.35 11.385zM1435.854 312.821c9.058-43.52 18.045-86.625 27.033-129.739h76.384l-22.386 108.457h91.081l22.487-108.373h76.323c-3.408 16.462-6.747 32.716-10.141 48.958-12.519 59.908-25.053 119.812-37.586 179.716-3.644 17.418-7.242 34.845-11.065 52.223-.313 1.421-2.196 3.563-3.364 3.573-24.318.208-48.638.157-73.596.157l25.387-122.039h-91.134l-25.41 121.787h-76.397c10.81-51.623 21.562-102.964 32.384-154.72zM1772.172 472.436c-33.923 1.18-66.24-5.005-98.47-14.534l17.88-57.365c14.243 7.865 29.316 11.733 44.825 13.941 21.605 3.077 43.189 3.707 64.192-3.534 12.18-4.2 21.336-11.472 22.71-25.582.941-9.662-2.226-17.972-10.147-22.98-9.475-5.991-19.85-10.6-29.996-15.475-13.46-6.466-27.652-11.616-40.494-19.106-23.774-13.867-32.212-35.796-30.215-62.72 3.252-43.847 31.47-69.875 74.119-80.962 25.939-6.742 52.399-7.56 78.864-5.293 16.676 1.428 33.213 4.61 49.76 7.328 4.013.659 7.816 2.596 12.265 4.135l-18.059 55.5c-11.498-3.171-22.464-7.008-33.752-9.133-20.598-3.878-41.378-4.07-62.003.374-3.379.728-6.772 1.881-9.845 3.452-16.077 8.218-18.006 27.72-3.445 38.368 6.1 4.46 13.18 7.72 20.113 10.868 12.548 5.7 25.581 10.372 37.935 16.444 18.297 8.991 33.169 21.765 39.67 41.996 9.764 30.38 4.635 80.156-42.076 104.946-19.727 10.47-40.954 15.513-62.945 17.86-6.778.723-13.604.993-20.886 1.472z"/><path d="M1078.132 974.334c-11.885 5.932-20.145-1.174-23.977-12.358-3.17-9.254-2.405-18.65.887-27.84 2.52-7.033 8.218-12.039 14.69-11.889 6.764.157 11.836 3.835 14.766 9.833 6.519 13.343 6.44 26.429-2.518 38.814-.912 1.26-2.37 2.127-3.848 3.44zM1398.794 957.366c-1.73 7.094-4.183 13.063-10.518 16.926-8.357 5.096-21.67 1.125-25.073-6.766-5.243-12.16-7.727-24.168.055-36.45 3.97-6.265 9.524-9.011 16.425-8.636 9.609.523 16.142 5.943 18.11 15.268 1.312 6.215.82 12.81 1.001 19.658zM787.999 954.663c-.925 6.9-2.626 13.056-7.749 17.515-9.585 8.34-25.026 4.33-29.056-6.66-4.24-11.562-6.27-22.874.903-34.275 3.951-6.28 9.557-9.224 16.382-8.873 9.452.485 16.143 5.774 18.32 15.097 1.256 5.379.856 11.144 1.2 17.196zM1153.218 962.528c2.662-5.777 7.459-8.084 12.84-9.411 2.527-.623 5.167-.936 7.772-1.07 3.464-.177 6.944-.043 10.398-.043.962 16.325-8.34 28.647-24.262 24.896-5.832-1.374-8.764-7.521-6.748-14.372z"/></svg>