<svg xmlns="http://www.w3.org/2000/svg" viewBox="0 0 2065 1233" xml:space="preserve"><path d="M1548 1234H1V1H2066V1234L1548 1234M155 221.5v331.194h880.605V198.307H155.001V221.5m58.532 735.537c-4.54-9.13-8.996-18.303-13.7-27.348-.786-1.512-2.605-3.465-4.01-3.517-8.77-.322-17.557-.162-26.458-.162v115.714h22.733V960.07c1.512 1.35 2.249 2.783 2.97 4.223 12.31 24.556 24.59 49.125 36.984 73.637.795 1.573 2.415 3.815 3.723 3.865 8.927.341 17.874.179 26.826.179V926.31H239.82v82.631l-1.019.19c-8.292-17.145-16.585-34.29-25.268-52.095m142.658 34.001c.603 1.466 1.715 2.927 1.73 4.4.136 13.321.08 26.645.08 39.969v6.327h23.675V926.407h-23.863v46.21H313.86v-46.253h-23.438v115.309h23.783v-50.665c14.077 0 27.556 0 41.986.03M1014 975.5v-58.225h-22.969v47.086c-8.94-8.785-19.132-10.056-29.924-9.383-10.58.66-18.829 5.134-23.917 14.577-8.111 15.054-8.927 31.057-5.068 47.34 6.39 26.96 30.428 32.919 51.404 23.144 2.875-1.34 5.352-3.532 8.286-5.513l.41 7.141H1014V975.5m-605.653-4.702c3.46 9.476 10.962 14.912 19.511 19.118 7.052 3.469 14.396 6.345 21.422 9.86 7.256 3.63 9.488 11.442 5.486 17.761-2.892 4.565-13.961 9.493-19.186 8.254-8.199-1.945-16.34-4.136-24.98-6.344-.453 3.959-.74 9.026-1.676 13.97-1.043 5.52 1.076 7.424 6.426 8.42 12.616 2.347 25.268 3.616 37.845 1.027 12.927-2.662 23.808-8.529 27.294-22.834 4.414-18.11.03-33.273-18.192-41.909-6.052-2.868-12.476-4.958-18.5-7.876-5.25-2.543-11.275-4.893-11.743-12.025-.74-11.29 9.597-16.742 19.14-15.515 7.094.911 14.114 2.394 21.741 3.723l2.345-19.03c-5.2-1.202-9.745-2.78-14.393-3.195-6.118-.546-12.335-.48-18.48-.151-28.663 1.536-39.54 20.886-34.06 46.746m892.586-12.355c-7.958-4.294-16.632-3.664-25.164-3.385-13.341.435-24.267 6.293-31.675 17.19-8.326 12.246-9.86 25.964-6.282 40.423 3.818 15.428 13.184 25.638 28.322 29.671 6.71 1.788 14.08 1.77 21.115 1.527 12.324-.426 22.286-6.09 29.728-15.902 7.258-9.568 8.73-20.616 8.067-32.274-.952-16.738-7.668-29.629-24.11-37.25m-603.35 4.456c-1.368-.908-2.713-1.854-4.108-2.718-8.721-5.4-18.403-5.542-28.2-5.195-13.579.48-24.643 6.227-32.175 17.261-8.35 12.23-9.869 25.964-6.289 40.427 3.82 15.43 13.202 25.596 28.327 29.685 6.39 1.728 13.397 1.507 20.129 1.56 9.919.078 18.535-3.79 25.722-10.476 10.22-9.508 13.48-21.511 13.174-35.278-.316-14.214-4.843-25.987-16.58-35.266m370.086 8.226c14.708 1.069 18.767 5.722 18.756 17.875-6.306 0-12.648-.396-18.918.112-6.157.5-12.506 1.128-18.306 3.08-16.89 5.686-21.874 27.235-12.908 40.344 9.306 13.605 34.408 15.796 46.347 4.314 1.56-1.5 3.098-3.023 4.799-4.685l1.924 9.482H1108c0-12.935.122-25.515-.043-38.09-.11-8.435.033-16.956-1.136-25.27-1.335-9.489-7.035-16.285-15.92-20.415-8.053-3.744-16.512-3.86-24.905-2.733-7.715 1.035-15.288 3.178-22.88 5.01-.826.198-1.987 1.594-1.949 2.384.284 5.887.83 11.762 1.198 16.41 7.97-2.394 16.264-4.885 25.305-7.818M1397.571 955c-12.012-1.525-22.476 1.718-31.345 11.104l-.46-8.727h-21.491v84.263H1367c0-14.497-.499-28.66.226-42.762.325-6.327 2.502-12.771 4.929-18.718 2.325-5.7 8.186-7.823 13.825-7.868 5.593-.044 9.956 3.327 11.639 8.995.83 2.795 1.298 5.8 1.322 8.716.126 15.492.06 30.985.06 46.478v5.223H1422c0-15.412.099-30.534-.046-45.653-.063-6.6.003-13.3-1.097-19.767-1.924-11.306-9.75-20.268-23.286-21.284m-496.734 3.382c-15.885-6.67-30.487-5.12-43.63 7.489l-.435-8.51h-21.505v84.284H858c0-14.493-.498-28.66.227-42.762.325-6.33 2.502-12.776 4.929-18.724 2.326-5.701 8.19-7.82 13.83-7.867 5.602-.046 9.955 3.335 11.637 9.004a31.966 31.966 0 0 1 1.319 8.718c.126 15.496.06 30.994.06 46.491v5.188H913V1036c0-16.497-.075-32.994.026-49.49.067-10.923-2.869-20.471-12.19-28.128m-133.54 67.726c-4.294-.093-7.359-2.332-8.717-6.163-1.293-3.645-2.397-7.573-2.466-11.397-.274-15.325-.113-30.658-.113-45.988v-5.277h-22.416c-.239.57-.47.862-.47 1.156-.047 19.993-.506 40 .092 59.975.261 8.711 4.035 16.946 12.035 21.51 11.948 6.814 24.169 5.974 35.928-1.008 2.602-1.545 4.931-3.55 7.65-5.535l.42 8.214h21.45v-84.197h-22.688c0 7.549.125 14.704-.03 21.854-.217 9.933.315 20.015-1.239 29.752-1.718 10.77-7.04 17.508-19.436 17.104M1712 1000.5v-43.208h-23c0 14.737.49 29.212-.23 43.626-.308 6.157-2.462 12.491-5.018 18.188-2.469 5.503-8.306 7.728-14.013 7.585-5.33-.133-9.698-3.25-11.234-8.806-.865-3.127-1.408-6.446-1.44-9.685-.147-15.156-.065-30.313-.065-45.47v-5.335h-22.99c0 20.701-.277 41.014.16 61.312.142 6.562 3.49 12.358 7.619 17.738 7.557 9.847 30.013 9.466 38.55 3.676 3.077-2.087 6.083-4.278 9.457-6.657l.414 8.22H1712V1000.5m-1163-40v81.236h25.07V990.79h37.622v-17.954h-37.41V943.89h39.46v-17.57H549v34.18m1019.24-34.492h-85.883v18.081h31.682v97.525h24.082V943.93h32.861c0-5.56.081-10.53-.08-15.492-.027-.817-1.115-1.6-2.661-2.43m209.623 29.386c-11.146-.107-22.414-2.263-33.225 2.557-8.324 3.711-14.609 9.255-15.524 18.69-1.058 10.902.764 20.957 12.618 25.62 6.363 2.504 12.925 4.501 19.362 6.824 6.697 2.416 9.342 9.679 4.675 14.07-3.855 3.626-9.174 5.293-14.516 4.361-6.682-1.164-13.229-3.1-20.01-4.745-.118.936-.168 2.407-.503 3.81-2.925 12.271-1.785 14.121 10.297 16.524.314.063.596.35.904.368 10.369.637 20.823 1.91 30.925-1.568 11.003-3.789 18.06-11.149 19.096-23.196.921-10.73-2.518-19.66-12.531-24.567-6.39-3.131-13.389-5.023-20.126-7.44-3.567-1.28-7.09-2.79-6.23-7.469.805-4.385 4.048-7.112 8.277-7.1 8.011.024 16.02.825 25.115 1.368.132-2.328.191-6.014.584-9.664.722-6.705.806-6.705-5.937-7.811-.816-.134-1.658-.112-3.251-.632m62.143-1.153v-22.403l-24.252 7.627v17.724h-15.361v15.983h15.407c.08 1.548.168 2.68.194 3.813.34 15.094.733 30.187.982 45.283.144 8.766 7.069 17.695 14.554 20.123 9.948 3.226 19.508 2.056 29.534.233l-1.43-18.137c-1.364.409-2.607.81-3.866 1.155-10.22 2.794-15.759-1.43-15.768-12.02-.007-7.662-.001-15.323-.001-22.985v-17.88h18.667V957c-5.127 0-9.935.127-14.727-.083-1.324-.058-2.603-1.123-3.933-2.675m-686.893 88.35c9.638 3.187 19.198 2.045 29.249-.133-.497-3.198-1.103-5.926-1.302-8.684-.214-2.975-.048-5.977-.048-9.26-1.512.366-2.747.623-3.957.965-10.585 2.993-16.05-1.094-16.055-12.034-.005-10.996-.001-21.993-.001-32.99v-7.659h18.595v-15.991h-18.738v-24.958l-24.082 7.645v17.727h-15.451v15.992H1138c0 16.867-.11 33.126.044 49.383.085 9.055 6.285 17.166 15.069 19.997m450.083-65.256 16.532-.94v-20.804c-14.525-3.253-24.03 3.035-30.947 15.181V957.37h-19.354v84.298H1592c0-4.624-.09-8.927.017-13.225.285-11.423.211-22.881 1.16-34.252.545-6.528 2.858-12.88 10.02-16.856M1195 996.5v45.193h23.604v-84.386H1195V996.5m22.198-76.461h-21.863v20.58h24.058c-.436-7.083-.847-13.756-2.195-20.58z"/><path fill="#0172BC" d="M155 221v-22.693h880.605v354.387H155.001V221m515.978 177.839c-3.186 15.285-6.397 30.566-9.554 45.857-4.836 23.423-9.636 46.853-14.82 70.728.188.734.377 1.468 1.47 2.343 24.609-.053 49.217-.106 74.282-.087.347-.15.462-.407.57-1.547l59.086-282.893h-76.37l-22.507 108.45c-30.43 0-60.234 0-90.027-.73a30.664 30.664 0 0 1-.206-2.975l21.521-104.852h-76.327c-2.745 13.178-5.45 26.193-8.165 39.206-13.757 65.918-27.532 131.832-41.264 197.755-3.251 15.608-6.364 31.244-9.556 47.411.32.065.64.13 1.885.275 24.309-.027 48.617-.054 73.444.055.16-.288.318-.575.781-1.582 8.297-39.731 16.594-79.462 25.27-119.509.26-.242.375-.54.777-1.142 0 0 .48-.14 1.396.207 29.475.031 58.95.062 88.642.516 0 0 .037.474-.269 1.056.01.22.02.438-.059 1.458M508.853 232.766c-.3-.008-.6-.017-1.825.075-21.662.007-43.324.098-64.984-.065-3.52-.027-4.777.911-5.458 4.475-3.483 18.228-7.33 36.386-11.03 54.573-7.594 37.319-15.168 74.642-22.767 111.96-1.773 8.707-3.613 17.401-5.423 26.102-1.414-.908-1.957-1.83-2.256-2.825a15149.29 15149.29 0 0 1-14.67-49.112c-13.937-47.024-27.876-94.048-41.713-141.102-.892-3.034-2.16-4.094-5.45-4.075-26.492.158-52.985.089-79.479.089H242.06l-61.267 284.718h71.932l39.923-197.254 1.266.042c2.731 9.641 5.301 19.331 8.223 28.914 8.684 28.487 17.557 56.916 26.259 85.397 7.982 26.124 15.838 52.287 23.746 78.433.827 2.732 1.497 4.842 5.467 4.811 29.324-.23 58.65-.123 87.976-.136.978 0 1.956-.15 2.922-.23.218-.626.429-1.071.528-1.54 6.377-29.947 12.746-59.895 19.113-89.844 6.672-31.381 13.34-62.764 20.014-94.145 5.276-24.805 10.583-49.603 15.827-74.415 1.724-8.154 3.297-16.34 4.864-24.846m332.687 8.258c-.758.338-1.513.684-2.274 1.014-36.622 15.878-56.106 50.833-51.256 91.051 2.378 19.722 12.606 34.72 29.431 44.546 11.56 6.75 24.171 11.705 36.342 17.399 10.222 4.782 20.864 8.806 30.654 14.342 20.837 11.783 17.796 39.689-2.96 49.326-11.874 5.513-24.54 7.433-37.205 8.015-10.996.505-22.162-.976-33.149-2.392-15.343-1.977-30.198-6.008-44.331-13.792l-17.76 56.957c.623.336 1.025.643 1.48.786 26.46 8.343 53.629 13.087 81.26 14.52 11.492.597 23.224-.216 34.626-1.893 14.877-2.188 29.963-4.548 44.203-9.164 39.04-12.655 63.355-38.231 66.402-80.866 2.195-30.705-8.762-55.062-35.903-70.391-13.394-7.566-28.102-12.777-42.043-19.418-8.515-4.056-17.464-7.804-24.863-13.462-12.715-9.722-10.844-28.084 2.973-36.013 3.687-2.116 7.87-3.756 12.032-4.596 26.371-5.323 52.509-3.675 78.317 3.575 5.656 1.59 11.109 3.9 16.867 5.952l18.232-56.06c-3.315-1.256-6.204-2.48-9.175-3.454-21.81-7.149-44.543-7.863-67.12-8.789-13.024-.534-26.135 1.146-39.21 1.765-15.643.74-30.442 4.933-45.57 11.042z"/><path fill="#0072BC" d="M213.728 957.367c8.488 17.475 16.78 34.62 25.073 51.764l1.019-.189v-82.631h22.78v115.663c-8.951 0-17.898.162-26.825-.179-1.308-.05-2.928-2.292-3.723-3.865-12.394-24.512-24.675-49.081-36.983-73.637-.722-1.44-1.459-2.873-2.971-4.223v81.654h-22.733V926.01c8.9 0 17.688-.16 26.458.162 1.405.052 3.224 2.005 4.01 3.517 4.704 9.045 9.16 18.218 13.895 27.678zM355.716 991.023c-13.955-.015-27.434-.015-41.511-.015v50.665h-23.783V926.364h23.438v46.253h43.953v-46.21h23.863v115.327h-23.675v-6.327c0-13.324.056-26.648-.08-39.97-.015-1.472-1.127-2.933-2.205-4.414zM1014 976v65.667h-21.778l-.41-7.141c-2.934 1.98-5.411 4.173-8.286 5.513-20.976 9.775-45.015 3.816-51.404-23.143-3.859-16.284-3.043-32.287 5.068-47.34 5.088-9.444 13.336-13.919 23.917-14.578 10.792-.673 20.984.598 29.924 9.383v-47.086H1014V976m-23.997 31.355c2.26-9.208.622-17.85-3.943-25.998-3.086-5.51-7.836-9.113-14.175-9.058-5.436.046-10.331 2.572-12.824 7.74-6.51 13.5-7.193 26.926 1.399 39.968 4.088 6.206 12.872 8.845 20.01 4.097 5.807-3.864 7.821-9.715 9.533-16.75zM408.206 970.413c-5.339-25.475 5.538-44.825 34.2-46.361 6.146-.33 12.363-.395 18.481.151 4.648.415 9.193 1.993 14.393 3.195l-2.345 19.03c-7.627-1.329-14.647-2.812-21.74-3.723-9.544-1.227-19.881 4.224-19.14 15.515.467 7.132 6.491 9.482 11.741 12.025 6.025 2.918 12.449 5.008 18.501 7.876 18.222 8.636 22.606 23.798 18.192 41.91-3.486 14.304-14.367 20.17-27.294 22.833-12.577 2.59-25.229 1.32-37.845-1.028-5.35-.995-7.47-2.9-6.426-8.418.935-4.945 1.223-10.012 1.675-13.97 8.641 2.207 16.782 4.398 24.981 6.343 5.225 1.24 16.294-3.689 19.186-8.254 4.002-6.319 1.77-14.13-5.486-17.76-7.026-3.516-14.37-6.392-21.422-9.86-8.55-4.207-16.05-9.643-19.652-19.504zM1301.246 958.669c16.13 7.395 22.846 20.286 23.798 37.024.664 11.658-.809 22.706-8.067 32.274-7.442 9.812-17.404 15.476-29.728 15.902-7.035.244-14.405.261-21.115-1.527-15.138-4.033-24.504-14.243-28.322-29.67-3.578-14.46-2.044-28.178 6.282-40.425 7.408-10.896 18.334-16.754 31.675-17.19 8.532-.278 17.206-.908 25.477 3.612m-.593 49.128c-.226-6.744.44-13.671-.892-20.19-1.907-9.33-8.616-14.689-18.17-15.207-6.897-.374-12.487 2.474-16.394 8.763-7.757 12.487-5.4 24.677.364 36.863 2.319 4.903 10.74 9.567 15.975 8.898 10.517-1.343 16.985-7.481 19.117-19.127zM697.938 962.986c11.383 9.192 15.91 20.965 16.226 35.18.305 13.766-2.954 25.769-13.174 35.277-7.187 6.686-15.803 10.554-25.722 10.476-6.732-.053-13.74.168-20.13-1.56-15.124-4.09-24.506-14.255-28.326-29.685-3.58-14.463-2.061-28.196 6.289-40.427 7.532-11.034 18.596-16.78 32.175-17.261 9.797-.347 19.479-.206 28.2 5.195 1.395.864 2.74 1.81 4.462 2.805m-47.96 38.716c1.36 5.18 2.074 10.646 4.21 15.482 4.935 11.171 22.927 13.4 30.647 2.036 7.066-10.4 6.93-22.155 3.177-33.575-3-9.126-10.173-13.67-18.558-13.59-12.11.113-23.338 16.629-19.476 29.647zM1067.296 971.346c-8.667 2.712-16.96 5.203-24.931 7.598-.368-4.65-.914-10.524-1.198-16.41-.038-.791 1.123-2.187 1.949-2.386 7.592-1.831 15.165-3.974 22.88-5.01 8.393-1.125 16.852-1.01 24.906 2.734 8.884 4.13 14.584 10.926 15.919 20.415 1.17 8.314 1.026 16.835 1.136 25.27.165 12.575.043 25.155.043 38.09h-18.636l-1.924-9.482c-1.701 1.662-3.239 3.185-4.799 4.685-11.94 11.482-37.04 9.29-46.347-4.314-8.966-13.11-3.983-34.658 12.908-40.343 5.8-1.953 12.149-2.581 18.306-3.08 6.27-.509 12.612-.113 18.918-.113.011-12.153-4.048-16.806-19.13-17.654m-7.418 54.617c16.987 6.27 26.96-7.014 26.623-24.805-7.546 1.086-15.128 1.426-22.267 3.384-10.463 2.868-12.737 13.583-4.356 21.421zM1398.004 955c13.103 1.016 20.929 9.978 22.853 21.284 1.1 6.467 1.034 13.168 1.097 19.767.145 15.12.046 30.24.046 45.653h-23v-5.223c0-15.493.067-30.986-.06-46.478a31.928 31.928 0 0 0-1.321-8.716c-1.683-5.668-6.046-9.039-11.64-8.995-5.638.045-11.5 2.169-13.824 7.868-2.427 5.947-4.604 12.39-4.93 18.718-.724 14.101-.225 28.265-.225 42.762h-22.725v-84.263h21.492l.46 8.727c8.868-9.386 19.332-12.629 31.777-11.104zM901.103 958.645c9.054 7.394 11.99 16.942 11.923 27.864-.1 16.497-.026 32.994-.026 49.491v5.693h-23v-5.188c0-15.497.067-30.995-.059-46.49a31.966 31.966 0 0 0-1.32-8.719c-1.68-5.669-6.034-9.05-11.636-9.004-5.64.047-11.504 2.166-13.83 7.867-2.427 5.948-4.604 12.394-4.93 18.724-.724 14.103-.226 28.269-.226 42.762h-22.732v-84.283h21.505l.434 8.509c13.144-12.61 27.746-14.159 43.897-7.226zM767.648 1026.302c12.043.21 17.366-6.528 19.084-17.298 1.554-9.737 1.022-19.819 1.238-29.752.156-7.15.03-14.305.03-21.854h22.69v84.197h-21.452l-.418-8.214c-2.72 1.986-5.05 3.99-7.651 5.535-11.76 6.982-23.98 7.822-35.928 1.007-8-4.563-11.774-12.798-12.035-21.51-.598-19.974-.14-39.98-.092-59.974 0-.294.231-.586.47-1.156H756v5.277c0 15.33-.16 30.663.113 45.988.069 3.824 1.173 7.752 2.466 11.397 1.358 3.83 4.423 6.07 9.07 6.357zM1712 1001v40.684h-21.79l-.414-8.22c-3.374 2.38-6.38 4.57-9.457 6.657-8.537 5.79-30.993 6.17-38.55-3.676-4.13-5.38-7.477-11.176-7.618-17.738-.438-20.298-.16-40.61-.16-61.312H1657v5.335c0 15.157-.082 30.314.065 45.47.032 3.239.575 6.558 1.44 9.685 1.536 5.557 5.904 8.673 11.234 8.806 5.707.143 11.544-2.082 14.013-7.585 2.556-5.697 4.71-12.031 5.018-18.188.72-14.414.23-28.889.23-43.626h23V1001zM549 960v-33.68h64.742v17.57h-39.46v28.945h37.41v17.954H574.07v50.947H549V960zM1568.715 926.023c1.072.814 2.16 1.598 2.187 2.415.161 4.962.08 9.932.08 15.492h-32.86v97.684h-24.083v-97.525h-31.682v-18.081c28.719 0 57.301 0 86.358.015zM1778.245 955.63c1.212.284 2.054.262 2.87.396 6.743 1.106 6.66 1.106 5.937 7.811-.393 3.65-.452 7.336-.584 9.664-9.094-.543-17.104-1.344-25.115-1.367-4.229-.013-7.472 2.714-8.278 7.1-.86 4.679 2.664 6.188 6.231 7.468 6.737 2.417 13.736 4.309 20.126 7.44 10.013 4.907 13.452 13.836 12.53 24.567-1.035 12.047-8.092 19.407-19.095 23.196-10.102 3.478-20.556 2.205-30.925 1.568-.308-.019-.59-.305-.904-.368-12.082-2.403-13.222-4.253-10.297-16.524.335-1.403.385-2.874.504-3.81 6.78 1.645 13.327 3.58 20.009 4.745 5.342.932 10.661-.735 14.516-4.36 4.667-4.392 2.022-11.655-4.675-14.071-6.437-2.323-12.999-4.32-19.362-6.824-11.854-4.663-13.676-14.718-12.618-25.62.915-9.435 7.2-14.979 15.524-18.69 10.81-4.82 22.079-2.664 33.606-2.322zM1840.023 954.716c1.314 1.077 2.593 2.142 3.917 2.2 4.792.21 9.6.083 14.727.083v15.759H1840v17.88c0 7.66-.006 15.322.001 22.983.01 10.592 5.549 14.815 15.768 12.021 1.26-.344 2.502-.746 3.866-1.155l1.43 18.137c-10.026 1.823-19.586 2.993-29.534-.233-7.485-2.428-14.41-11.357-14.554-20.123-.249-15.096-.642-30.19-.982-45.283-.026-1.133-.113-2.265-.194-3.813h-15.407V957.19h15.361v-17.724l24.252-7.627c0 7.82 0 15.112.016 22.878zM1152.783 1042.361c-8.453-2.6-14.653-10.712-14.738-19.767-.155-16.257-.044-32.516-.044-49.383h-16.677v-15.992h15.45v-17.727c8.005-2.54 15.722-4.99 24.083-7.645v24.958h18.738v15.991H1161v7.66c0 10.996-.004 21.993.001 32.99.005 10.939 5.47 15.026 16.055 12.033 1.21-.342 2.445-.599 3.957-.965 0 3.283-.166 6.285.048 9.26.199 2.758.805 5.486 1.302 8.684-10.051 2.178-19.611 3.32-29.58-.097zM1602.894 977.585c-6.859 3.726-9.172 10.078-9.717 16.606-.949 11.37-.875 22.829-1.16 34.252-.107 4.298-.017 8.601-.017 13.225h-22.572V957.37h19.354v13.402c6.917-12.146 16.422-18.434 30.947-15.18v20.803c-5.748.327-11.14.633-16.835 1.19zM1195 996v-38.693h23.604v84.386H1195V996zM1217.666 920.115c.88 6.748 1.29 13.42 1.727 20.504h-24.058v-20.58c7.379 0 14.62 0 22.331.076z"/><path fill="#FEFEFF" d="M508.928 233.1c-1.642 8.172-3.215 16.358-4.939 24.512-5.244 24.812-10.55 49.61-15.827 74.415-6.674 31.381-13.342 62.764-20.014 94.145-6.367 29.949-12.736 59.897-19.113 89.844-.1.469-.31.914-.528 1.54-.966.08-1.944.23-2.922.23-29.326.013-58.652-.094-87.976.136-3.97.031-4.64-2.079-5.467-4.81-7.908-26.147-15.764-52.31-23.746-78.434-8.702-28.481-17.575-56.91-26.26-85.397-2.92-9.583-5.491-19.273-8.222-28.914l-1.266-.042-39.923 197.254h-71.932L242.06 232.86h11.738c26.494 0 52.987.07 79.48-.089 3.288-.02 4.557 1.04 5.45 4.075 13.836 47.054 27.775 94.078 41.711 141.102a15149.29 15149.29 0 0 0 14.671 49.112c.299.995.842 1.917 2.256 2.825 1.81-8.7 3.65-17.395 5.423-26.102 7.599-37.318 15.173-74.641 22.766-111.96 3.7-18.187 7.548-36.345 11.031-54.573.681-3.564 1.938-4.502 5.458-4.475 21.66.163 43.322.072 65.682.128.866.108 1.034.152 1.202.196z"/><path fill="#FFF" d="M581.748 395.463s-.479.139-.952.357c-.543.56-.613.9-.684 1.24-8.296 39.731-16.593 79.462-25.243 119.623-.637.538-.834.734-.947 1.016-24.308.027-48.616.054-73.495-.137-.787-.395-1.03-.523-1.3-.6 3.177-15.624 6.29-31.26 9.54-46.868 13.733-65.923 27.508-131.837 41.265-197.755 2.715-13.013 5.42-26.028 8.165-39.206h76.327c-7.22 35.18-14.37 70.016-21.755 105.488-.013 1.447.209 2.258.43 3.069h90.037l22.507-108.45h76.37c-19.702 94.332-39.394 188.612-59.389 283.322-.565.552-.705.757-.723 1.045-24.609.054-49.217.107-74.253-.244-.51-1.065-.593-1.726-.675-2.387 4.816-23.427 9.616-46.857 14.452-70.28a6967.803 6967.803 0 0 1 9.742-46.373c.24-.628.343-.744.334-.85-.022-.228-.101-.45-.157-.674 0 0-.037-.474-.442-.994-1.228-.615-2.05-.79-2.873-.79-27.62-.017-55.239-.021-82.858.002-1.141.001-2.282.29-3.423.446z"/><path fill="#FEFFFF" d="M841.898 240.889c14.77-5.974 29.57-10.168 45.212-10.907 13.075-.619 26.186-2.299 39.21-1.765 22.577.926 45.31 1.64 67.12 8.789 2.971.974 5.86 2.198 9.175 3.453l-18.232 56.061c-5.758-2.053-11.211-4.363-16.867-5.952-25.808-7.25-51.946-8.898-78.317-3.575-4.161.84-8.345 2.48-12.032 4.596-13.817 7.93-15.688 26.29-2.973 36.013 7.4 5.658 16.348 9.406 24.863 13.462 13.94 6.64 28.649 11.852 42.043 19.418 27.14 15.33 38.098 39.686 35.903 70.391-3.047 42.635-27.362 68.211-66.402 80.866-14.24 4.616-29.326 6.976-44.203 9.164-11.402 1.677-23.134 2.49-34.626 1.893-27.631-1.433-54.8-6.177-81.26-14.52-.455-.143-.857-.45-1.48-.786l17.76-56.957c14.133 7.784 28.988 11.815 44.331 13.792 10.987 1.416 22.153 2.897 33.15 2.392 12.664-.582 25.33-2.502 37.204-8.015 20.756-9.637 23.797-37.543 2.96-49.326-9.79-5.536-20.432-9.56-30.654-14.342-12.171-5.694-24.783-10.649-36.342-17.399-16.825-9.825-27.053-24.824-29.431-44.546-4.85-40.218 14.634-75.173 51.256-91.051.761-.33 1.516-.676 2.632-1.15z"/><path fill="#81A8D9" d="M582.207 395.636c.682-.328 1.823-.618 2.964-.619 27.619-.023 55.238-.019 82.858-.003.822 0 1.645.176 2.764.58-29.178.277-58.653.246-88.586.042z"/><path fill="#3D8AC9" d="M593.104 341.325c-.226-.446-.448-1.257-.454-2.303.297.489.378 1.213.454 2.303z"/><path fill="#BACCEA" d="M646.79 515.2c.265.437.348 1.098.405 2.092-.213-.4-.402-1.134-.406-2.092z"/><path fill="#81A8D9" d="M580.302 396.902c-.12-.182-.049-.523.278-.958.287.26.172.558-.278.958zM671.19 397.09c.21-.067.29.155.31.383.01.106-.093.222-.289.45-.153-.104-.163-.323-.02-.833z"/><path fill="#3C89C9" d="M508.89 232.933c-.13.123-.298.079-.7-.079.064-.105.363-.096.7.079z"/><path fill="#BBCDEA" d="M479.12 517.234c.277-.195.52-.067.845.287-.213.113-.533.049-.845-.287zM554.182 517.767c-.147-.35.05-.546.535-.725.042.218-.117.505-.535.725z"/><path fill="#BACCEA" d="M722.129 517.644c-.21-.325-.07-.53.382-.692.308.321.193.577-.382.692z"/><path d="M989.994 1007.783c-1.703 6.606-3.717 12.457-9.524 16.32-7.138 4.75-15.922 2.11-20.01-4.096-8.592-13.042-7.91-26.468-1.399-39.968 2.493-5.168 7.388-7.694 12.824-7.74 6.34-.055 11.089 3.549 14.175 9.058 4.565 8.149 6.204 16.79 3.934 26.426zM1300.401 1008.156c-1.88 11.287-8.348 17.425-18.865 18.768-5.235.669-13.656-3.995-15.975-8.898-5.763-12.186-8.121-24.376-.364-36.863 3.907-6.289 9.497-9.137 16.394-8.763 9.554.518 16.263 5.876 18.17 15.208 1.333 6.518.666 13.445.64 20.548zM649.938 1001.263c-3.822-12.58 7.406-29.095 19.516-29.209 8.385-.078 15.559 4.465 18.558 13.591 3.753 11.42 3.89 23.174-3.177 33.575-7.72 11.363-25.712 9.135-30.647-2.036-2.136-4.836-2.85-10.302-4.25-15.92zM1059.527 1025.796c-8.03-7.67-5.756-18.386 4.707-21.254 7.139-1.958 14.721-2.298 22.267-3.384.337 17.791-9.636 31.076-26.974 24.638z"/></svg>