<svg version="1.1" id="Layer_1" xmlns="http://www.w3.org/2000/svg" xmlns:xlink="http://www.w3.org/1999/xlink" x="0px" y="0px"
	 width="100%" viewBox="0 0 2065 1233" enable-background="new 0 0 2065 1233" xml:space="preserve">
<path fill="#000000" opacity="1.000000" stroke="none" 
	d="
M1548.000000,1234.000000 
	C1032.000122,1234.000000 516.500305,1234.000000 1.000346,1234.000000 
	C1.000231,823.000305 1.000231,412.000549 1.000115,1.000622 
	C689.332825,1.000414 1377.665649,1.000414 2065.999023,1.000207 
	C2065.999268,411.999390 2065.999268,822.998779 2065.999512,1233.999023 
	C1893.500000,1234.000000 1721.000000,1234.000000 1548.000000,1234.000000 
M155.000824,221.500031 
	C155.000824,331.913879 155.000824,442.327728 155.000824,552.693604 
	C449.047668,552.693604 742.305420,552.693604 1035.605347,552.693604 
	C1035.605347,434.344635 1035.605347,316.302155 1035.605347,198.307022 
	C741.953186,198.307022 448.695557,198.307022 155.000824,198.307022 
	C155.000824,205.905640 155.000824,213.202850 155.000824,221.500031 
M213.532593,957.036926 
	C208.993271,947.906982 204.536606,938.734070 199.833435,929.689331 
	C199.047318,928.177429 197.227539,926.224243 195.822952,926.172485 
	C187.053192,925.849854 178.265656,926.009766 169.364990,926.009766 
	C169.364990,964.932312 169.364990,1003.307495 169.364990,1041.723633 
	C176.991241,1041.723633 184.249161,1041.723633 192.097900,1041.723633 
	C192.097900,1014.326233 192.097900,987.197998 192.097900,960.069763 
	C193.610321,961.419617 194.346603,962.852905 195.068695,964.293335 
	C207.377289,988.848694 219.658249,1013.418030 232.051804,1037.930420 
	C232.846710,1039.502686 234.466995,1041.744995 235.775223,1041.795044 
	C244.702347,1042.136353 253.648727,1041.973755 262.600708,1041.973755 
	C262.600708,1002.998413 262.600708,964.622986 262.600708,926.310669 
	C254.938049,926.310669 247.678558,926.310669 239.819641,926.310669 
	C239.819641,954.057495 239.819641,981.499939 239.819641,1008.942383 
	C239.480240,1009.005432 239.140839,1009.068481 238.801437,1009.131470 
	C230.508728,991.986633 222.216034,974.841736 213.532593,957.036926 
M356.190948,991.038147 
	C356.794067,992.504272 357.905914,993.965210 357.920929,995.437317 
	C358.056763,1008.759399 358.000702,1022.083313 358.000854,1035.406738 
	C358.000854,1037.498535 358.000854,1039.590454 358.000854,1041.733887 
	C366.311981,1041.733887 373.899323,1041.733887 381.676147,1041.733887 
	C381.676147,1003.111572 381.676147,964.755920 381.676147,926.406799 
	C373.638397,926.406799 365.930908,926.406799 357.812988,926.406799 
	C357.812988,942.064331 357.812988,957.318909 357.812988,972.617432 
	C343.016327,972.617432 328.647339,972.617432 313.859802,972.617432 
	C313.859802,956.984985 313.859802,941.730164 313.859802,926.364014 
	C305.725433,926.364014 298.019684,926.364014 290.421783,926.364014 
	C290.421783,965.085815 290.421783,1003.442200 290.421783,1041.672607 
	C298.436981,1041.672607 306.026764,1041.672607 314.204895,1041.672607 
	C314.204895,1024.644897 314.204895,1007.936768 314.204895,991.007629 
	C328.282288,991.007629 341.761444,991.007629 356.190948,991.038147 
M1014.000000,975.500000 
	C1014.000000,956.099060 1014.000000,936.698120 1014.000000,917.274658 
	C1006.002075,917.274658 998.749939,917.274658 991.031006,917.274658 
	C991.031006,932.749146 991.031006,947.958862 991.031006,964.360657 
	C982.090576,955.576111 971.898804,954.304810 961.106873,954.977600 
	C950.526062,955.637268 942.278442,960.111877 937.190125,969.555298 
	C929.078796,984.609192 928.263000,1000.611572 932.122192,1016.895508 
	C938.511414,1043.854736 962.550110,1049.813599 983.525818,1040.038818 
	C986.400635,1038.699097 988.878174,1036.506836 991.811584,1034.525635 
	C991.956116,1037.038574 992.085205,1039.283325 992.222290,1041.667480 
	C999.519287,1041.667480 1006.570068,1041.667480 1014.000000,1041.667480 
	C1014.000000,1019.724792 1014.000000,998.112366 1014.000000,975.500000 
M408.347412,970.798157 
	C411.807434,980.273804 419.308533,985.710083 427.858398,989.916199 
	C434.909668,993.384949 442.254242,996.261169 449.280487,999.776367 
	C456.535980,1003.406250 458.768066,1011.218323 454.765594,1017.537231 
	C451.874268,1022.101990 440.804962,1027.030396 435.580261,1025.791260 
	C427.381165,1023.846375 419.240479,1021.655396 410.599060,1019.447144 
	C410.146576,1023.405579 409.859467,1028.472900 408.924286,1033.417603 
	C407.880524,1038.936401 409.999817,1040.841064 415.349640,1041.836426 
	C427.966431,1044.183594 440.617767,1045.453125 453.195343,1042.863525 
	C466.122162,1040.201904 477.002899,1034.335327 480.489288,1020.030334 
	C484.903290,1001.919189 480.518829,986.757446 462.297058,978.121216 
	C456.244965,975.252808 449.821106,973.163086 443.796204,970.244690 
	C438.546478,967.701721 432.522095,965.351868 432.054321,958.220337 
	C431.313721,946.929077 441.651337,941.477600 451.194733,942.704529 
	C458.287964,943.616272 465.307739,945.099365 472.935120,946.428162 
	C473.671722,940.450684 474.462769,934.031250 475.280243,927.397644 
	C470.079590,926.196167 465.535370,924.618042 460.887268,924.203186 
	C454.768677,923.656921 448.552185,923.722229 442.406067,924.051636 
	C413.743744,925.588013 402.867401,944.938049 408.347412,970.798157 
M1300.933350,958.442505 
	C1292.974976,954.148621 1284.300537,954.779053 1275.768921,955.057678 
	C1262.427612,955.493408 1251.502319,961.351257 1244.094482,972.247437 
	C1235.768311,984.494324 1234.234131,998.211792 1237.812256,1012.671204 
	C1241.629761,1028.098877 1250.996460,1038.309448 1266.133789,1042.342163 
	C1272.844482,1044.130005 1280.214233,1044.112549 1287.248657,1043.869263 
	C1299.573120,1043.442993 1309.535278,1037.779297 1316.977417,1027.967407 
	C1324.234985,1018.399109 1325.707764,1007.351196 1325.044312,995.693054 
	C1324.091797,978.955139 1317.375977,966.063965 1300.933350,958.442505 
M697.583984,962.898865 
	C696.216003,961.991028 694.871399,961.045349 693.476318,960.181335 
	C684.754944,954.780334 675.073364,954.638977 665.276123,954.985840 
	C651.697021,955.466675 640.633118,961.213440 633.100525,972.247131 
	C624.750793,984.477722 623.232239,998.211243 626.812195,1012.673645 
	C630.631897,1028.104248 640.013794,1038.269653 655.138916,1042.359497 
	C661.528931,1044.087280 668.536072,1043.865723 675.267517,1043.918945 
	C685.186829,1043.997314 693.802673,1040.128662 700.989563,1033.442749 
	C711.209839,1023.934998 714.469421,1011.931824 714.163879,998.165161 
	C713.848389,983.950500 709.320740,972.178467 697.583984,962.898865 
M1067.670044,971.124695 
	C1082.377930,972.193909 1086.437378,976.846802 1086.426025,989.000000 
	C1080.120483,989.000000 1073.777710,988.604187 1067.508179,989.112427 
	C1061.350708,989.611572 1055.002197,990.240356 1049.202271,992.192627 
	C1032.311279,997.878052 1027.328125,1019.426819 1036.294312,1032.535522 
	C1045.600098,1046.140869 1070.701904,1048.332153 1082.641479,1036.850464 
	C1084.201416,1035.350464 1085.738770,1033.827393 1087.439697,1032.165405 
	C1088.209595,1035.959961 1088.814331,1038.940063 1089.363647,1041.647217 
	C1096.167847,1041.647217 1102.421265,1041.647217 1108.000000,1041.647217 
	C1108.000000,1028.711670 1108.121948,1016.132080 1107.957275,1003.556274 
	C1107.846924,995.122314 1107.990112,986.600891 1106.820801,978.287231 
	C1105.486206,968.798218 1099.785522,962.002014 1090.901733,957.872009 
	C1082.847900,954.127930 1074.389160,954.012512 1065.995850,955.138794 
	C1058.281006,956.173950 1050.708496,958.316956 1043.115845,960.148071 
	C1042.289551,960.347351 1041.129272,961.742798 1041.167358,962.533081 
	C1041.450562,968.420166 1041.997314,974.294617 1042.364502,978.943726 
	C1050.335449,976.549316 1058.628540,974.058167 1067.670044,971.124695 
M1397.571289,954.999817 
	C1385.559326,953.475464 1375.095459,956.718445 1366.226074,966.103760 
	C1366.040649,962.581665 1365.904663,959.998169 1365.766602,957.376831 
	C1358.380371,957.376831 1351.333008,957.376831 1344.275024,957.376831 
	C1344.275024,985.670715 1344.275024,1013.586792 1344.275024,1041.639526 
	C1351.927979,1041.639526 1359.302246,1041.639526 1366.999634,1041.639526 
	C1366.999634,1027.143188 1366.501465,1012.979370 1367.225830,998.878296 
	C1367.550903,992.550903 1369.728394,986.106750 1372.154541,980.159912 
	C1374.479614,974.460693 1380.340820,972.337036 1385.979858,972.292480 
	C1391.573486,972.248291 1395.935791,975.619019 1397.618896,981.287170 
	C1398.448975,984.082275 1398.916992,987.087463 1398.940796,990.002502 
	C1399.067017,1005.494568 1399.000488,1020.988220 1399.000610,1036.481323 
	C1399.000732,1038.232422 1399.000610,1039.983521 1399.000610,1041.704102 
	C1407.036499,1041.704102 1414.293213,1041.704102 1422.000000,1041.704102 
	C1422.000000,1026.291748 1422.098755,1011.170227 1421.954346,996.050964 
	C1421.891357,989.451782 1421.956909,982.750549 1420.856567,976.284180 
	C1418.932617,964.978210 1411.107422,956.016418 1397.571289,954.999817 
M900.836731,958.381531 
	C884.952087,951.712097 870.350098,953.261597 857.206360,965.870972 
	C857.039551,962.604492 856.908081,960.029602 856.771851,957.361572 
	C849.417297,957.361572 842.367615,957.361572 835.267456,957.361572 
	C835.267456,985.645142 835.267456,1013.566284 835.267456,1041.645020 
	C842.913818,1041.645020 850.289307,1041.645020 857.999451,1041.645020 
	C857.999451,1027.151855 857.501160,1012.985840 858.225586,998.882568 
	C858.550720,992.553406 860.728088,986.107422 863.154846,980.159058 
	C865.480774,974.458008 871.344604,972.339172 876.985291,972.292297 
	C882.586609,972.245544 886.940247,975.627441 888.621887,981.296204 
	C889.451355,984.092285 889.917236,987.098328 889.940979,990.014343 
	C890.066956,1005.510437 890.000549,1021.008118 890.000854,1036.505249 
	C890.000916,1038.254272 890.000854,1040.003418 890.000854,1041.693115 
	C898.056396,1041.693115 905.314758,1041.693115 913.000000,1041.693115 
	C913.000000,1039.593994 913.000000,1037.797119 913.000000,1036.000122 
	C913.000000,1019.503174 912.925232,1003.005737 913.026428,986.509460 
	C913.093445,975.587463 910.157349,966.038879 900.836731,958.381531 
M767.296082,1026.107666 
	C763.002014,1026.015015 759.937134,1023.775574 758.578674,1019.944885 
	C757.286072,1016.300049 756.181824,1012.371521 756.113403,1008.547668 
	C755.839355,993.222595 756.000000,977.889771 755.999939,962.559814 
	C755.999939,960.804321 755.999939,959.048828 755.999939,957.282898 
	C747.992737,957.282898 740.735596,957.282898 733.584351,957.282898 
	C733.344971,957.852600 733.114624,958.145386 733.113953,958.438660 
	C733.066528,978.432373 732.607788,998.438965 733.206055,1018.413879 
	C733.466980,1027.125366 737.240601,1035.359985 745.240784,1039.923096 
	C757.188538,1046.738037 769.409912,1045.898438 781.168701,1038.916382 
	C783.770935,1037.371338 786.100342,1035.366699 788.819702,1033.380615 
	C788.976440,1036.455200 789.108276,1039.041870 789.238342,1041.594604 
	C796.681458,1041.594604 803.728333,1041.594604 810.689697,1041.594604 
	C810.689697,1013.267212 810.689697,985.346252 810.689697,957.397583 
	C802.996582,957.397583 795.620300,957.397583 788.000732,957.397583 
	C788.000732,964.946594 788.126221,972.102295 787.970398,979.251831 
	C787.753906,989.185120 788.285889,999.266907 786.732422,1009.003540 
	C785.014038,1019.773682 779.691406,1026.511597 767.296082,1026.107666 
M1712.000000,1000.500000 
	C1712.000000,986.089111 1712.000000,971.678223 1712.000000,957.291748 
	C1703.971802,957.291748 1696.716553,957.291748 1689.000000,957.291748 
	C1689.000000,972.028992 1689.489746,986.503662 1688.769653,1000.917908 
	C1688.462036,1007.074707 1686.308105,1013.409363 1683.751953,1019.106384 
	C1681.283203,1024.609253 1675.445923,1026.833740 1669.738892,1026.690918 
	C1664.409302,1026.557739 1660.040894,1023.441650 1658.504883,1017.885437 
	C1657.640015,1014.757507 1657.096680,1011.438904 1657.065308,1008.199829 
	C1656.918457,993.044495 1657.000000,977.887024 1657.000000,962.730286 
	C1657.000000,960.958740 1657.000000,959.187256 1657.000000,957.395142 
	C1648.995117,957.395142 1641.621338,957.395142 1634.010620,957.395142 
	C1634.010620,978.096375 1633.733032,998.409485 1634.170532,1018.707214 
	C1634.311890,1025.269043 1637.659180,1031.064819 1641.788574,1036.445190 
	C1649.345703,1046.291626 1671.801880,1045.911133 1680.338501,1040.121460 
	C1683.415771,1038.034424 1686.422363,1035.843384 1689.796021,1033.463745 
	C1689.941040,1036.340088 1690.070190,1038.902832 1690.210449,1041.684204 
	C1697.485596,1041.684204 1704.535034,1041.684204 1712.000000,1041.684204 
	C1712.000000,1028.081787 1712.000000,1014.790894 1712.000000,1000.500000 
M549.000000,960.500000 
	C549.000000,987.560181 549.000000,1014.620422 549.000000,1041.736450 
	C557.644470,1041.736450 565.562988,1041.736450 574.070068,1041.736450 
	C574.070068,1024.780273 574.070068,1008.075928 574.070068,990.789429 
	C587.028259,990.789429 599.405151,990.789429 611.691650,990.789429 
	C611.691650,984.599243 611.691650,979.011658 611.691650,972.834595 
	C599.018494,972.834595 586.642334,972.834595 574.281372,972.834595 
	C574.281372,962.983398 574.281372,953.732117 574.281372,943.889771 
	C587.592896,943.889771 600.634155,943.889771 613.742310,943.889771 
	C613.742310,937.703125 613.742310,932.116150 613.742310,926.319946 
	C592.125305,926.319946 570.766846,926.319946 549.000000,926.319946 
	C549.000000,937.590210 549.000000,948.545105 549.000000,960.500000 
M1568.240723,926.007507 
	C1539.658081,926.007507 1511.075562,926.007507 1482.357178,926.007507 
	C1482.357178,932.262817 1482.357178,937.967712 1482.357178,944.089478 
	C1492.963867,944.089478 1503.219238,944.089478 1514.039307,944.089478 
	C1514.039307,976.861938 1514.039307,1009.216980 1514.039307,1041.614014 
	C1522.324097,1041.614014 1530.028931,1041.614014 1538.121338,1041.614014 
	C1538.121338,1008.995178 1538.121338,976.760193 1538.121338,943.929688 
	C1549.217529,943.929688 1559.928589,943.929688 1570.982300,943.929688 
	C1570.982300,938.369507 1571.063232,933.399963 1570.901978,928.438293 
	C1570.875366,927.620544 1569.787476,926.837280 1568.240723,926.007507 
M1777.863647,955.393860 
	C1766.717896,955.287048 1755.449829,953.130981 1744.638550,957.951172 
	C1736.314819,961.662354 1730.030151,967.206116 1729.114746,976.641479 
	C1728.057129,987.543152 1729.879150,997.597717 1741.732666,1002.261292 
	C1748.096313,1004.765015 1754.657593,1006.762146 1761.094727,1009.084900 
	C1767.791504,1011.501343 1770.437012,1018.763733 1765.769531,1023.155334 
	C1761.915283,1026.781494 1756.596436,1028.447510 1751.253540,1027.516357 
	C1744.572266,1026.351929 1738.025391,1024.416016 1731.244751,1022.770508 
	C1731.126221,1023.706909 1731.075562,1025.177734 1730.741089,1026.581055 
	C1727.816406,1038.852417 1728.956421,1040.702148 1741.037964,1043.105347 
	C1741.351807,1043.167725 1741.634399,1043.454224 1741.941650,1043.473145 
	C1752.310791,1044.110474 1762.764771,1045.382935 1772.866577,1041.904663 
	C1783.869873,1038.116211 1790.927490,1030.756348 1791.962524,1018.709473 
	C1792.884399,1007.978149 1789.444702,999.049500 1779.431885,994.142273 
	C1773.042480,991.010803 1766.043335,989.118713 1759.306396,986.702087 
	C1755.738525,985.422302 1752.215942,983.912903 1753.075317,979.233276 
	C1753.880737,974.848145 1757.124146,972.121460 1761.352539,972.133850 
	C1769.364380,972.157349 1777.373779,972.958374 1786.467529,973.501038 
	C1786.600464,971.172974 1786.659180,967.487000 1787.052246,963.837036 
	C1787.774292,957.132263 1787.857910,957.132263 1781.115234,956.025696 
	C1780.298828,955.891785 1779.456665,955.914429 1777.863647,955.393860 
M1840.007324,954.241028 
	C1840.007324,946.949829 1840.007324,939.658630 1840.007324,931.837769 
	C1831.706299,934.448425 1823.968628,936.881836 1815.755371,939.464905 
	C1815.755371,945.312439 1815.755371,951.051758 1815.755371,957.188965 
	C1810.269043,957.188965 1805.338379,957.188965 1800.394043,957.188965 
	C1800.394043,962.669006 1800.394043,967.712585 1800.394043,973.172119 
	C1805.713745,973.172119 1810.645020,973.172119 1815.801147,973.172119 
	C1815.881592,974.719910 1815.969116,975.851501 1815.994629,976.984558 
	C1816.335083,992.078735 1816.728027,1007.172119 1816.976807,1022.267883 
	C1817.121216,1031.033813 1824.045776,1039.963379 1831.530640,1042.390869 
	C1841.478760,1045.617310 1851.039185,1044.446655 1861.065063,1042.624268 
	C1860.569702,1036.340942 1860.108643,1030.492554 1859.635132,1024.486694 
	C1858.271484,1024.895752 1857.028320,1025.297729 1855.769165,1025.641968 
	C1845.549927,1028.435791 1840.010498,1024.212524 1840.001099,1013.621094 
	C1839.994385,1005.959778 1840.000000,998.298523 1840.000000,990.637207 
	C1840.000000,984.873596 1840.000000,979.110046 1840.000000,972.757812 
	C1846.727539,972.757812 1852.783813,972.757812 1858.667480,972.757812 
	C1858.667480,967.220886 1858.667480,962.297241 1858.667480,956.998779 
	C1853.539673,956.998779 1848.732300,957.126282 1843.939819,956.915833 
	C1842.616455,956.857788 1841.337402,955.793152 1840.007324,954.241028 
M1153.114014,1042.591431 
	C1162.751587,1045.777588 1172.311768,1044.636230 1182.363037,1042.457764 
	C1181.865601,1039.260254 1181.260010,1036.531738 1181.061279,1033.773804 
	C1180.846680,1030.799072 1181.012695,1027.796753 1181.012695,1024.514160 
	C1179.500977,1024.880249 1178.266113,1025.136719 1177.055542,1025.479004 
	C1166.471191,1028.471924 1161.006348,1024.384521 1161.001099,1013.445374 
	C1160.995850,1002.448730 1161.000000,991.452026 1161.000000,980.455383 
	C1161.000000,978.041809 1161.000000,975.628235 1161.000000,972.796021 
	C1167.746094,972.796021 1173.676270,972.796021 1179.594727,972.796021 
	C1179.594727,967.311279 1179.594727,962.265869 1179.594727,956.804565 
	C1173.263672,956.804565 1167.334106,956.804565 1160.856567,956.804565 
	C1160.856567,948.350281 1160.856567,940.315369 1160.856567,931.846863 
	C1152.495728,934.501221 1144.778809,936.951111 1136.774536,939.492249 
	C1136.774536,945.435364 1136.774536,951.030090 1136.774536,957.218506 
	C1131.299316,957.218506 1126.240845,957.218506 1121.323730,957.218506 
	C1121.323730,962.759338 1121.323730,967.684204 1121.323730,973.210693 
	C1126.691528,973.210693 1131.748291,973.210693 1138.001221,973.210693 
	C1138.001221,990.078064 1137.890381,1006.337097 1138.044556,1022.593567 
	C1138.130493,1031.649048 1144.330078,1039.760254 1153.114014,1042.591431 
M1603.197021,977.334778 
	C1608.588867,977.028381 1613.980713,976.721985 1619.729004,976.395325 
	C1619.729004,970.279114 1619.729004,962.898132 1619.729004,955.591187 
	C1605.203979,952.338440 1595.699097,958.625916 1588.781738,970.772278 
	C1588.781738,966.332642 1588.781738,961.893005 1588.781738,957.369995 
	C1582.044434,957.369995 1575.672119,957.369995 1569.427734,957.369995 
	C1569.427734,985.764832 1569.427734,1013.787659 1569.427734,1041.668457 
	C1577.114014,1041.668457 1584.368774,1041.668457 1591.999512,1041.668457 
	C1591.999512,1037.044312 1591.909790,1032.741333 1592.016968,1028.443237 
	C1592.301514,1017.019897 1592.228394,1005.561890 1593.177124,994.191040 
	C1593.721802,987.662659 1596.035400,981.310547 1603.197021,977.334778 
M1195.000000,996.500000 
	C1195.000000,1011.584229 1195.000000,1026.668457 1195.000000,1041.693237 
	C1203.385376,1041.693237 1210.977539,1041.693237 1218.604492,1041.693237 
	C1218.604492,1013.341980 1218.604492,985.299316 1218.604492,957.306641 
	C1210.613037,957.306641 1203.020508,957.306641 1195.000000,957.306641 
	C1195.000000,970.239075 1195.000000,982.869507 1195.000000,996.500000 
M1217.197876,920.039001 
	C1209.955933,920.039001 1202.713989,920.039001 1195.334839,920.039001 
	C1195.334839,927.256531 1195.334839,933.940979 1195.334839,940.619385 
	C1203.357788,940.619385 1211.040161,940.619385 1219.392822,940.619385 
	C1218.956543,933.535706 1218.545532,926.863098 1217.197876,920.039001 
z"/>
<path fill="#0172BC" opacity="1.000000" stroke="none" 
	d="
M155.000824,221.000046 
	C155.000824,213.202850 155.000824,205.905640 155.000824,198.307022 
	C448.695557,198.307022 741.953186,198.307022 1035.605347,198.307022 
	C1035.605347,316.302155 1035.605347,434.344635 1035.605347,552.693604 
	C742.305420,552.693604 449.047668,552.693604 155.000824,552.693604 
	C155.000824,442.327728 155.000824,331.913879 155.000824,221.000046 
M670.979309,398.838501 
	C667.792725,414.124115 664.582458,429.404846 661.425049,444.696472 
	C656.588745,468.118958 651.788818,491.548920 646.604797,515.423767 
	C646.793152,516.157715 646.981506,516.891663 648.075684,517.767273 
	C672.683960,517.713989 697.292236,517.660767 722.356750,517.680237 
	C722.704285,517.529053 722.819153,517.273315 722.927856,516.132996 
	C742.619446,421.852448 762.311096,327.571930 782.013428,233.240356 
	C756.199646,233.240356 730.981140,233.240356 705.643372,233.240356 
	C698.089355,269.639008 690.605286,305.700439 683.136169,341.689728 
	C652.705444,341.689728 622.902466,341.689728 593.109375,340.959564 
	C593.028015,340.235229 592.946716,339.510864 592.902710,337.985413 
	C600.053101,303.148956 607.203491,268.312531 614.424438,233.132660 
	C588.748474,233.132660 563.501038,233.132660 538.096558,233.132660 
	C535.352295,246.311356 532.647400,259.326111 529.931763,272.338593 
	C516.174988,338.256714 502.400360,404.171112 488.667938,470.094330 
	C485.416718,485.701965 482.303741,501.338409 479.112366,517.505432 
	C479.432373,517.569885 479.752411,517.634277 480.997253,517.779846 
	C505.305664,517.752808 529.614075,517.725769 554.440918,517.834900 
	C554.600159,517.547180 554.759399,517.259521 555.222229,516.252747 
	C563.518982,476.521912 571.815674,436.791046 580.491211,396.744324 
	C580.752380,396.502472 580.867249,396.204285 581.268982,395.602020 
	C581.268982,395.602020 581.748169,395.462830 582.665100,395.809296 
	C612.140137,395.840149 641.615112,395.871002 671.307373,396.324677 
	C671.307373,396.324677 671.343811,396.798615 671.038025,397.381256 
	C671.047791,397.600372 671.057556,397.819489 670.979309,398.838501 
M508.852692,232.766251 
	C508.553223,232.757736 508.253754,232.749222 507.027649,232.841110 
	C485.366058,232.847626 463.703827,232.938522 442.043518,232.775787 
	C438.523560,232.749344 437.266998,233.687424 436.586060,237.251205 
	C433.103180,255.479187 429.255646,273.637360 425.555115,291.823914 
	C417.961639,329.142914 410.387787,366.465881 402.789032,403.783813 
	C401.015961,412.491486 399.175598,421.185455 397.366211,429.885712 
	C395.951782,428.978302 395.408661,428.056091 395.109955,427.060516 
	C390.199768,410.695892 385.293945,394.329834 380.439148,377.948669 
	C366.502777,330.924500 352.564056,283.900940 338.727417,236.847427 
	C337.835052,233.812836 336.566162,232.752548 333.277649,232.772171 
	C306.785370,232.930191 280.291687,232.860611 253.798462,232.860565 
	C249.989929,232.860550 246.181396,232.860565 242.059937,232.860565 
	C221.611862,327.886078 201.230133,422.603271 180.792786,517.578918 
	C205.400757,517.578918 229.017975,517.578918 252.724869,517.578918 
	C266.058685,451.699310 279.353516,386.012238 292.648346,320.325165 
	C293.070343,320.339111 293.492340,320.353088 293.914337,320.367065 
	C296.645020,330.008087 299.215240,339.698029 302.136505,349.280945 
	C310.820587,377.767792 319.693817,406.196930 328.395905,434.678345 
	C336.377686,460.802368 344.234039,486.964722 352.142487,513.111145 
	C352.968811,515.843079 353.639221,517.953064 357.608704,517.921997 
	C386.932739,517.691895 416.259430,517.799072 445.585266,517.786194 
	C446.563171,517.785767 447.541016,517.635620 448.507294,517.556213 
	C448.725281,516.929749 448.935516,516.484680 449.035309,516.016052 
	C455.412109,486.069336 461.780853,456.120880 468.148346,426.172180 
	C474.820435,394.790771 481.487823,363.408356 488.162445,332.027466 
	C493.438354,307.222443 498.744598,282.423828 503.989380,257.612244 
	C505.713074,249.457779 507.286407,241.271515 508.852692,232.766251 
M841.539856,241.024109 
	C840.781921,241.362381 840.027100,241.707809 839.265625,242.037933 
	C802.643677,257.915588 783.159607,292.871216 788.009705,333.089417 
	C790.388062,352.811279 800.615845,367.809692 817.441101,377.634979 
	C829.000305,384.385132 841.612000,389.339691 853.782776,395.033691 
	C864.004700,399.815887 874.646545,403.839813 884.437134,409.376129 
	C905.273560,421.158508 902.232544,449.064789 881.476807,458.701599 
	C869.603027,464.214630 856.937073,466.134949 844.272461,466.716766 
	C833.276123,467.221924 822.109558,465.740997 811.122986,464.325043 
	C795.780151,462.347656 780.925476,458.316864 766.791748,450.532928 
	C760.772339,469.838623 754.909058,488.643738 749.032898,507.490051 
	C749.654724,507.825928 750.057434,508.132782 750.511658,508.276001 
	C776.971863,516.619202 804.140747,521.362671 831.772461,522.796448 
	C843.264404,523.392761 854.996338,522.579773 866.397827,520.902832 
	C881.274780,518.714661 896.360535,516.354675 910.601257,511.738617 
	C949.641113,499.084106 973.955811,473.507965 977.003113,430.873077 
	C979.197693,400.167755 968.240601,375.811432 941.100342,360.481781 
	C927.705566,352.915985 912.997620,347.704773 899.057190,341.064240 
	C890.542480,337.008270 881.593384,333.259735 874.193726,327.601837 
	C861.478699,317.879700 863.350342,299.518372 877.167053,291.589355 
	C880.854492,289.473236 885.037598,287.833191 889.198730,286.993256 
	C915.570129,281.670258 941.707886,283.317810 967.516174,290.568237 
	C973.171875,292.157104 978.625000,294.467133 984.382507,296.520294 
	C990.497437,277.718445 996.495911,259.274841 1002.615356,240.459167 
	C999.299866,239.203796 996.411072,237.979736 993.440308,237.005981 
	C971.630432,229.857101 948.896667,229.142578 926.319458,228.217255 
	C913.295776,227.683472 900.184509,229.363419 887.109619,229.981598 
	C871.467468,230.721146 856.667542,234.914551 841.539856,241.024109 
z"/>
<path fill="#0072BC" opacity="1.000000" stroke="none" 
	d="
M213.727966,957.366882 
	C222.216034,974.841736 230.508728,991.986633 238.801437,1009.131470 
	C239.140839,1009.068481 239.480240,1009.005432 239.819641,1008.942383 
	C239.819641,981.499939 239.819641,954.057495 239.819641,926.310669 
	C247.678558,926.310669 254.938049,926.310669 262.600708,926.310669 
	C262.600708,964.622986 262.600708,1002.998413 262.600708,1041.973755 
	C253.648727,1041.973755 244.702347,1042.136353 235.775223,1041.795044 
	C234.466995,1041.744995 232.846710,1039.502686 232.051804,1037.930420 
	C219.658249,1013.418030 207.377289,988.848694 195.068695,964.293335 
	C194.346603,962.852905 193.610321,961.419617 192.097900,960.069763 
	C192.097900,987.197998 192.097900,1014.326233 192.097900,1041.723633 
	C184.249161,1041.723633 176.991241,1041.723633 169.364990,1041.723633 
	C169.364990,1003.307495 169.364990,964.932312 169.364990,926.009766 
	C178.265656,926.009766 187.053192,925.849854 195.822952,926.172485 
	C197.227539,926.224243 199.047318,928.177429 199.833435,929.689331 
	C204.536606,938.734070 208.993271,947.906982 213.727966,957.366882 
z"/>
<path fill="#0072BC" opacity="1.000000" stroke="none" 
	d="
M355.715759,991.022888 
	C341.761444,991.007629 328.282288,991.007629 314.204895,991.007629 
	C314.204895,1007.936768 314.204895,1024.644897 314.204895,1041.672607 
	C306.026764,1041.672607 298.436981,1041.672607 290.421783,1041.672607 
	C290.421783,1003.442200 290.421783,965.085815 290.421783,926.364014 
	C298.019684,926.364014 305.725433,926.364014 313.859802,926.364014 
	C313.859802,941.730164 313.859802,956.984985 313.859802,972.617432 
	C328.647339,972.617432 343.016327,972.617432 357.812988,972.617432 
	C357.812988,957.318909 357.812988,942.064331 357.812988,926.406799 
	C365.930908,926.406799 373.638397,926.406799 381.676147,926.406799 
	C381.676147,964.755920 381.676147,1003.111572 381.676147,1041.733887 
	C373.899323,1041.733887 366.311981,1041.733887 358.000854,1041.733887 
	C358.000854,1039.590454 358.000854,1037.498535 358.000854,1035.406738 
	C358.000702,1022.083313 358.056763,1008.759399 357.920929,995.437317 
	C357.905914,993.965210 356.794067,992.504272 355.715759,991.022888 
z"/>
<path fill="#0072BC" opacity="1.000000" stroke="none" 
	d="
M1014.000000,976.000000 
	C1014.000000,998.112366 1014.000000,1019.724792 1014.000000,1041.667480 
	C1006.570068,1041.667480 999.519287,1041.667480 992.222290,1041.667480 
	C992.085205,1039.283325 991.956116,1037.038574 991.811584,1034.525635 
	C988.878174,1036.506836 986.400635,1038.699097 983.525818,1040.038818 
	C962.550110,1049.813599 938.511414,1043.854736 932.122192,1016.895508 
	C928.263000,1000.611572 929.078796,984.609192 937.190125,969.555298 
	C942.278442,960.111877 950.526062,955.637268 961.106873,954.977600 
	C971.898804,954.304810 982.090576,955.576111 991.031006,964.360657 
	C991.031006,947.958862 991.031006,932.749146 991.031006,917.274658 
	C998.749939,917.274658 1006.002075,917.274658 1014.000000,917.274658 
	C1014.000000,936.698120 1014.000000,956.099060 1014.000000,976.000000 
M990.003174,1007.354553 
	C992.263672,998.146851 990.625183,989.505859 986.060181,981.357361 
	C982.973633,975.847778 978.224121,972.244019 971.885132,972.298645 
	C966.448730,972.345459 961.554016,974.870850 959.061096,980.039490 
	C952.550293,993.538574 951.868042,1006.964600 960.460022,1020.007263 
	C964.548096,1026.212891 973.332458,1028.852173 980.469849,1024.103638 
	C986.277222,1020.239929 988.291016,1014.388550 990.003174,1007.354553 
z"/>
<path fill="#0072BC" opacity="1.000000" stroke="none" 
	d="
M408.205750,970.413452 
	C402.867401,944.938049 413.743744,925.588013 442.406067,924.051636 
	C448.552185,923.722229 454.768677,923.656921 460.887268,924.203186 
	C465.535370,924.618042 470.079590,926.196167 475.280243,927.397644 
	C474.462769,934.031250 473.671722,940.450684 472.935120,946.428162 
	C465.307739,945.099365 458.287964,943.616272 451.194733,942.704529 
	C441.651337,941.477600 431.313721,946.929077 432.054321,958.220337 
	C432.522095,965.351868 438.546478,967.701721 443.796204,970.244690 
	C449.821106,973.163086 456.244965,975.252808 462.297058,978.121216 
	C480.518829,986.757446 484.903290,1001.919189 480.489288,1020.030334 
	C477.002899,1034.335327 466.122162,1040.201904 453.195343,1042.863525 
	C440.617767,1045.453125 427.966431,1044.183594 415.349640,1041.836426 
	C409.999817,1040.841064 407.880524,1038.936401 408.924286,1033.417603 
	C409.859467,1028.472900 410.146576,1023.405579 410.599060,1019.447144 
	C419.240479,1021.655396 427.381165,1023.846375 435.580261,1025.791260 
	C440.804962,1027.030396 451.874268,1022.101990 454.765594,1017.537231 
	C458.768066,1011.218323 456.535980,1003.406250 449.280487,999.776367 
	C442.254242,996.261169 434.909668,993.384949 427.858398,989.916199 
	C419.308533,985.710083 411.807434,980.273804 408.205750,970.413452 
z"/>
<path fill="#0072BC" opacity="1.000000" stroke="none" 
	d="
M1301.246338,958.668701 
	C1317.375977,966.063965 1324.091797,978.955139 1325.044312,995.693054 
	C1325.707764,1007.351196 1324.234985,1018.399109 1316.977417,1027.967407 
	C1309.535278,1037.779297 1299.573120,1043.442993 1287.248657,1043.869263 
	C1280.214233,1044.112549 1272.844482,1044.130005 1266.133789,1042.342163 
	C1250.996460,1038.309448 1241.629761,1028.098877 1237.812256,1012.671204 
	C1234.234131,998.211792 1235.768311,984.494324 1244.094482,972.247437 
	C1251.502319,961.351257 1262.427612,955.493408 1275.768921,955.057678 
	C1284.300537,954.779053 1292.974976,954.148621 1301.246338,958.668701 
M1300.653442,1007.796814 
	C1300.427124,1001.052551 1301.093628,994.125732 1299.761230,987.607544 
	C1297.853882,978.276489 1291.145264,972.918274 1281.591431,972.400269 
	C1274.693848,972.026367 1269.104126,974.874084 1265.197266,981.162903 
	C1257.439697,993.650208 1259.797852,1005.839600 1265.561157,1018.026001 
	C1267.879883,1022.929199 1276.300537,1027.593018 1281.536133,1026.924072 
	C1292.052856,1025.580566 1298.521362,1019.442505 1300.653442,1007.796814 
z"/>
<path fill="#0072BC" opacity="1.000000" stroke="none" 
	d="
M697.937927,962.985596 
	C709.320740,972.178467 713.848389,983.950500 714.163879,998.165161 
	C714.469421,1011.931824 711.209839,1023.934998 700.989563,1033.442749 
	C693.802673,1040.128662 685.186829,1043.997314 675.267517,1043.918945 
	C668.536072,1043.865723 661.528931,1044.087280 655.138916,1042.359497 
	C640.013794,1038.269653 630.631897,1028.104248 626.812195,1012.673645 
	C623.232239,998.211243 624.750793,984.477722 633.100525,972.247131 
	C640.633118,961.213440 651.697021,955.466675 665.276123,954.985840 
	C675.073364,954.638977 684.754944,954.780334 693.476318,960.181335 
	C694.871399,961.045349 696.216003,961.991028 697.937927,962.985596 
M649.978271,1001.702454 
	C651.338196,1006.882263 652.051880,1012.347534 654.188354,1017.184326 
	C659.122559,1028.355347 677.115417,1030.583252 684.835327,1019.219910 
	C691.901123,1008.819336 691.765198,997.064514 688.012024,985.645081 
	C685.012573,976.518799 677.838928,971.975708 669.454224,972.054199 
	C657.343811,972.167603 646.116150,988.683899 649.978271,1001.702454 
z"/>
<path fill="#0072BC" opacity="1.000000" stroke="none" 
	d="
M1067.295776,971.345886 
	C1058.628540,974.058167 1050.335449,976.549316 1042.364502,978.943726 
	C1041.997314,974.294617 1041.450562,968.420166 1041.167358,962.533081 
	C1041.129272,961.742798 1042.289551,960.347351 1043.115845,960.148071 
	C1050.708496,958.316956 1058.281006,956.173950 1065.995850,955.138794 
	C1074.389160,954.012512 1082.847900,954.127930 1090.901733,957.872009 
	C1099.785522,962.002014 1105.486206,968.798218 1106.820801,978.287231 
	C1107.990112,986.600891 1107.846924,995.122314 1107.957275,1003.556274 
	C1108.121948,1016.132080 1108.000000,1028.711670 1108.000000,1041.647217 
	C1102.421265,1041.647217 1096.167847,1041.647217 1089.363647,1041.647217 
	C1088.814331,1038.940063 1088.209595,1035.959961 1087.439697,1032.165405 
	C1085.738770,1033.827393 1084.201416,1035.350464 1082.641479,1036.850464 
	C1070.701904,1048.332153 1045.600098,1046.140869 1036.294312,1032.535522 
	C1027.328125,1019.426819 1032.311279,997.878052 1049.202271,992.192627 
	C1055.002197,990.240356 1061.350708,989.611572 1067.508179,989.112427 
	C1073.777710,988.604187 1080.120483,989.000000 1086.426025,989.000000 
	C1086.437378,976.846802 1082.377930,972.193909 1067.295776,971.345886 
M1059.877930,1025.963013 
	C1076.864502,1032.233887 1086.838379,1018.949097 1086.501465,1001.158081 
	C1078.955444,1002.244324 1071.372803,1002.584045 1064.233765,1004.541565 
	C1053.770752,1007.410461 1051.496948,1018.125061 1059.877930,1025.963013 
z"/>
<path fill="#0072BC" opacity="1.000000" stroke="none" 
	d="
M1398.003540,955.000366 
	C1411.107422,956.016418 1418.932617,964.978210 1420.856567,976.284180 
	C1421.956909,982.750549 1421.891357,989.451782 1421.954346,996.050964 
	C1422.098755,1011.170227 1422.000000,1026.291748 1422.000000,1041.704102 
	C1414.293213,1041.704102 1407.036499,1041.704102 1399.000610,1041.704102 
	C1399.000610,1039.983521 1399.000732,1038.232422 1399.000610,1036.481323 
	C1399.000488,1020.988220 1399.067017,1005.494568 1398.940796,990.002502 
	C1398.916992,987.087463 1398.448975,984.082275 1397.618896,981.287170 
	C1395.935791,975.619019 1391.573486,972.248291 1385.979858,972.292480 
	C1380.340820,972.337036 1374.479614,974.460693 1372.154541,980.159912 
	C1369.728394,986.106750 1367.550903,992.550903 1367.225830,998.878296 
	C1366.501465,1012.979370 1366.999634,1027.143188 1366.999634,1041.639526 
	C1359.302246,1041.639526 1351.927979,1041.639526 1344.275024,1041.639526 
	C1344.275024,1013.586792 1344.275024,985.670715 1344.275024,957.376831 
	C1351.333008,957.376831 1358.380371,957.376831 1365.766602,957.376831 
	C1365.904663,959.998169 1366.040649,962.581665 1366.226074,966.103760 
	C1375.095459,956.718445 1385.559326,953.475464 1398.003540,955.000366 
z"/>
<path fill="#0072BC" opacity="1.000000" stroke="none" 
	d="
M901.102661,958.644958 
	C910.157349,966.038879 913.093445,975.587463 913.026428,986.509460 
	C912.925232,1003.005737 913.000000,1019.503174 913.000000,1036.000122 
	C913.000000,1037.797119 913.000000,1039.593994 913.000000,1041.693115 
	C905.314758,1041.693115 898.056396,1041.693115 890.000854,1041.693115 
	C890.000854,1040.003418 890.000916,1038.254272 890.000854,1036.505249 
	C890.000549,1021.008118 890.066956,1005.510437 889.940979,990.014343 
	C889.917236,987.098328 889.451355,984.092285 888.621887,981.296204 
	C886.940247,975.627441 882.586609,972.245544 876.985291,972.292297 
	C871.344604,972.339172 865.480774,974.458008 863.154846,980.159058 
	C860.728088,986.107422 858.550720,992.553406 858.225586,998.882568 
	C857.501160,1012.985840 857.999451,1027.151855 857.999451,1041.645020 
	C850.289307,1041.645020 842.913818,1041.645020 835.267456,1041.645020 
	C835.267456,1013.566284 835.267456,985.645142 835.267456,957.361572 
	C842.367615,957.361572 849.417297,957.361572 856.771851,957.361572 
	C856.908081,960.029602 857.039551,962.604492 857.206360,965.870972 
	C870.350098,953.261597 884.952087,951.712097 901.102661,958.644958 
z"/>
<path fill="#0072BC" opacity="1.000000" stroke="none" 
	d="
M767.648438,1026.302368 
	C779.691406,1026.511597 785.014038,1019.773682 786.732422,1009.003540 
	C788.285889,999.266907 787.753906,989.185120 787.970398,979.251831 
	C788.126221,972.102295 788.000732,964.946594 788.000732,957.397583 
	C795.620300,957.397583 802.996582,957.397583 810.689697,957.397583 
	C810.689697,985.346252 810.689697,1013.267212 810.689697,1041.594604 
	C803.728333,1041.594604 796.681458,1041.594604 789.238342,1041.594604 
	C789.108276,1039.041870 788.976440,1036.455200 788.819702,1033.380615 
	C786.100342,1035.366699 783.770935,1037.371338 781.168701,1038.916382 
	C769.409912,1045.898438 757.188538,1046.738037 745.240784,1039.923096 
	C737.240601,1035.359985 733.466980,1027.125366 733.206055,1018.413879 
	C732.607788,998.438965 733.066528,978.432373 733.113953,958.438660 
	C733.114624,958.145386 733.344971,957.852600 733.584351,957.282898 
	C740.735596,957.282898 747.992737,957.282898 755.999939,957.282898 
	C755.999939,959.048828 755.999939,960.804321 755.999939,962.559814 
	C756.000000,977.889771 755.839355,993.222595 756.113403,1008.547668 
	C756.181824,1012.371521 757.286072,1016.300049 758.578674,1019.944885 
	C759.937134,1023.775574 763.002014,1026.015015 767.648438,1026.302368 
z"/>
<path fill="#0072BC" opacity="1.000000" stroke="none" 
	d="
M1712.000000,1001.000000 
	C1712.000000,1014.790894 1712.000000,1028.081787 1712.000000,1041.684204 
	C1704.535034,1041.684204 1697.485596,1041.684204 1690.210449,1041.684204 
	C1690.070190,1038.902832 1689.941040,1036.340088 1689.796021,1033.463745 
	C1686.422363,1035.843384 1683.415771,1038.034424 1680.338501,1040.121460 
	C1671.801880,1045.911133 1649.345703,1046.291626 1641.788574,1036.445190 
	C1637.659180,1031.064819 1634.311890,1025.269043 1634.170532,1018.707214 
	C1633.733032,998.409485 1634.010620,978.096375 1634.010620,957.395142 
	C1641.621338,957.395142 1648.995117,957.395142 1657.000000,957.395142 
	C1657.000000,959.187256 1657.000000,960.958740 1657.000000,962.730286 
	C1657.000000,977.887024 1656.918457,993.044495 1657.065308,1008.199829 
	C1657.096680,1011.438904 1657.640015,1014.757507 1658.504883,1017.885437 
	C1660.040894,1023.441650 1664.409302,1026.557739 1669.738892,1026.690918 
	C1675.445923,1026.833740 1681.283203,1024.609253 1683.751953,1019.106384 
	C1686.308105,1013.409363 1688.462036,1007.074707 1688.769653,1000.917908 
	C1689.489746,986.503662 1689.000000,972.028992 1689.000000,957.291748 
	C1696.716553,957.291748 1703.971802,957.291748 1712.000000,957.291748 
	C1712.000000,971.678223 1712.000000,986.089111 1712.000000,1001.000000 
z"/>
<path fill="#0072BC" opacity="1.000000" stroke="none" 
	d="
M549.000000,960.000000 
	C549.000000,948.545105 549.000000,937.590210 549.000000,926.319946 
	C570.766846,926.319946 592.125305,926.319946 613.742310,926.319946 
	C613.742310,932.116150 613.742310,937.703125 613.742310,943.889771 
	C600.634155,943.889771 587.592896,943.889771 574.281372,943.889771 
	C574.281372,953.732117 574.281372,962.983398 574.281372,972.834595 
	C586.642334,972.834595 599.018494,972.834595 611.691650,972.834595 
	C611.691650,979.011658 611.691650,984.599243 611.691650,990.789429 
	C599.405151,990.789429 587.028259,990.789429 574.070068,990.789429 
	C574.070068,1008.075928 574.070068,1024.780273 574.070068,1041.736450 
	C565.562988,1041.736450 557.644470,1041.736450 549.000000,1041.736450 
	C549.000000,1014.620422 549.000000,987.560181 549.000000,960.000000 
z"/>
<path fill="#0072BC" opacity="1.000000" stroke="none" 
	d="
M1568.715332,926.022827 
	C1569.787476,926.837280 1570.875366,927.620544 1570.901978,928.438293 
	C1571.063232,933.399963 1570.982300,938.369507 1570.982300,943.929688 
	C1559.928589,943.929688 1549.217529,943.929688 1538.121338,943.929688 
	C1538.121338,976.760193 1538.121338,1008.995178 1538.121338,1041.614014 
	C1530.028931,1041.614014 1522.324097,1041.614014 1514.039307,1041.614014 
	C1514.039307,1009.216980 1514.039307,976.861938 1514.039307,944.089478 
	C1503.219238,944.089478 1492.963867,944.089478 1482.357178,944.089478 
	C1482.357178,937.967712 1482.357178,932.262817 1482.357178,926.007507 
	C1511.075562,926.007507 1539.658081,926.007507 1568.715332,926.022827 
z"/>
<path fill="#0072BC" opacity="1.000000" stroke="none" 
	d="
M1778.245117,955.629150 
	C1779.456665,955.914429 1780.298828,955.891785 1781.115234,956.025696 
	C1787.857910,957.132263 1787.774292,957.132263 1787.052246,963.837036 
	C1786.659180,967.487000 1786.600464,971.172974 1786.467529,973.501038 
	C1777.373779,972.958374 1769.364380,972.157349 1761.352539,972.133850 
	C1757.124146,972.121460 1753.880737,974.848145 1753.075317,979.233276 
	C1752.215942,983.912903 1755.738525,985.422302 1759.306396,986.702087 
	C1766.043335,989.118713 1773.042480,991.010803 1779.431885,994.142273 
	C1789.444702,999.049500 1792.884399,1007.978149 1791.962524,1018.709473 
	C1790.927490,1030.756348 1783.869873,1038.116211 1772.866577,1041.904663 
	C1762.764771,1045.382935 1752.310791,1044.110474 1741.941650,1043.473145 
	C1741.634399,1043.454224 1741.351807,1043.167725 1741.037964,1043.105347 
	C1728.956421,1040.702148 1727.816406,1038.852417 1730.741089,1026.581055 
	C1731.075562,1025.177734 1731.126221,1023.706909 1731.244751,1022.770508 
	C1738.025391,1024.416016 1744.572266,1026.351929 1751.253540,1027.516357 
	C1756.596436,1028.447510 1761.915283,1026.781494 1765.769531,1023.155334 
	C1770.437012,1018.763733 1767.791504,1011.501343 1761.094727,1009.084900 
	C1754.657593,1006.762146 1748.096313,1004.765015 1741.732666,1002.261292 
	C1729.879150,997.597717 1728.057129,987.543152 1729.114746,976.641479 
	C1730.030151,967.206116 1736.314819,961.662354 1744.638550,957.951172 
	C1755.449829,953.130981 1766.717896,955.287048 1778.245117,955.629150 
z"/>
<path fill="#0072BC" opacity="1.000000" stroke="none" 
	d="
M1840.022705,954.715698 
	C1841.337402,955.793152 1842.616455,956.857788 1843.939819,956.915833 
	C1848.732300,957.126282 1853.539673,956.998779 1858.667480,956.998779 
	C1858.667480,962.297241 1858.667480,967.220886 1858.667480,972.757812 
	C1852.783813,972.757812 1846.727539,972.757812 1840.000000,972.757812 
	C1840.000000,979.110046 1840.000000,984.873596 1840.000000,990.637207 
	C1840.000000,998.298523 1839.994385,1005.959778 1840.001099,1013.621094 
	C1840.010498,1024.212524 1845.549927,1028.435791 1855.769165,1025.641968 
	C1857.028320,1025.297729 1858.271484,1024.895752 1859.635132,1024.486694 
	C1860.108643,1030.492554 1860.569702,1036.340942 1861.065063,1042.624268 
	C1851.039185,1044.446655 1841.478760,1045.617310 1831.530640,1042.390869 
	C1824.045776,1039.963379 1817.121216,1031.033813 1816.976807,1022.267883 
	C1816.728027,1007.172119 1816.335083,992.078735 1815.994629,976.984558 
	C1815.969116,975.851501 1815.881592,974.719910 1815.801147,973.172119 
	C1810.645020,973.172119 1805.713745,973.172119 1800.394043,973.172119 
	C1800.394043,967.712585 1800.394043,962.669006 1800.394043,957.188965 
	C1805.338379,957.188965 1810.269043,957.188965 1815.755371,957.188965 
	C1815.755371,951.051758 1815.755371,945.312439 1815.755371,939.464905 
	C1823.968628,936.881836 1831.706299,934.448425 1840.007324,931.837769 
	C1840.007324,939.658630 1840.007324,946.949829 1840.022705,954.715698 
z"/>
<path fill="#0072BC" opacity="1.000000" stroke="none" 
	d="
M1152.782715,1042.361084 
	C1144.330078,1039.760254 1138.130493,1031.649048 1138.044556,1022.593567 
	C1137.890381,1006.337097 1138.001221,990.078064 1138.001221,973.210693 
	C1131.748291,973.210693 1126.691528,973.210693 1121.323730,973.210693 
	C1121.323730,967.684204 1121.323730,962.759338 1121.323730,957.218506 
	C1126.240845,957.218506 1131.299316,957.218506 1136.774536,957.218506 
	C1136.774536,951.030090 1136.774536,945.435364 1136.774536,939.492249 
	C1144.778809,936.951111 1152.495728,934.501221 1160.856567,931.846863 
	C1160.856567,940.315369 1160.856567,948.350281 1160.856567,956.804565 
	C1167.334106,956.804565 1173.263672,956.804565 1179.594727,956.804565 
	C1179.594727,962.265869 1179.594727,967.311279 1179.594727,972.796021 
	C1173.676270,972.796021 1167.746094,972.796021 1161.000000,972.796021 
	C1161.000000,975.628235 1161.000000,978.041809 1161.000000,980.455383 
	C1161.000000,991.452026 1160.995850,1002.448730 1161.001099,1013.445374 
	C1161.006348,1024.384521 1166.471191,1028.471924 1177.055542,1025.479004 
	C1178.266113,1025.136719 1179.500977,1024.880249 1181.012695,1024.514160 
	C1181.012695,1027.796753 1180.846680,1030.799072 1181.061279,1033.773804 
	C1181.260010,1036.531738 1181.865601,1039.260254 1182.363037,1042.457764 
	C1172.311768,1044.636230 1162.751587,1045.777588 1152.782715,1042.361084 
z"/>
<path fill="#0072BC" opacity="1.000000" stroke="none" 
	d="
M1602.894287,977.584595 
	C1596.035400,981.310547 1593.721802,987.662659 1593.177124,994.191040 
	C1592.228394,1005.561890 1592.301514,1017.019897 1592.016968,1028.443237 
	C1591.909790,1032.741333 1591.999512,1037.044312 1591.999512,1041.668457 
	C1584.368774,1041.668457 1577.114014,1041.668457 1569.427734,1041.668457 
	C1569.427734,1013.787659 1569.427734,985.764832 1569.427734,957.369995 
	C1575.672119,957.369995 1582.044434,957.369995 1588.781738,957.369995 
	C1588.781738,961.893005 1588.781738,966.332642 1588.781738,970.772278 
	C1595.699097,958.625916 1605.203979,952.338440 1619.729004,955.591187 
	C1619.729004,962.898132 1619.729004,970.279114 1619.729004,976.395325 
	C1613.980713,976.721985 1608.588867,977.028381 1602.894287,977.584595 
z"/>
<path fill="#0072BC" opacity="1.000000" stroke="none" 
	d="
M1195.000000,996.000000 
	C1195.000000,982.869507 1195.000000,970.239075 1195.000000,957.306641 
	C1203.020508,957.306641 1210.613037,957.306641 1218.604492,957.306641 
	C1218.604492,985.299316 1218.604492,1013.341980 1218.604492,1041.693237 
	C1210.977539,1041.693237 1203.385376,1041.693237 1195.000000,1041.693237 
	C1195.000000,1026.668457 1195.000000,1011.584229 1195.000000,996.000000 
z"/>
<path fill="#0072BC" opacity="1.000000" stroke="none" 
	d="
M1217.666260,920.114746 
	C1218.545532,926.863098 1218.956543,933.535706 1219.392822,940.619385 
	C1211.040161,940.619385 1203.357788,940.619385 1195.334839,940.619385 
	C1195.334839,933.940979 1195.334839,927.256531 1195.334839,920.039001 
	C1202.713989,920.039001 1209.955933,920.039001 1217.666260,920.114746 
z"/>
<path fill="#FEFEFF" opacity="1.000000" stroke="none" 
	d="
M508.928467,233.099792 
	C507.286407,241.271515 505.713074,249.457779 503.989380,257.612244 
	C498.744598,282.423828 493.438354,307.222443 488.162445,332.027466 
	C481.487823,363.408356 474.820435,394.790771 468.148346,426.172180 
	C461.780853,456.120880 455.412109,486.069336 449.035309,516.016052 
	C448.935516,516.484680 448.725281,516.929749 448.507294,517.556213 
	C447.541016,517.635620 446.563171,517.785767 445.585266,517.786194 
	C416.259430,517.799072 386.932739,517.691895 357.608704,517.921997 
	C353.639221,517.953064 352.968811,515.843079 352.142487,513.111145 
	C344.234039,486.964722 336.377686,460.802368 328.395905,434.678345 
	C319.693817,406.196930 310.820587,377.767792 302.136505,349.280945 
	C299.215240,339.698029 296.645020,330.008087 293.914337,320.367065 
	C293.492340,320.353088 293.070343,320.339111 292.648346,320.325165 
	C279.353516,386.012238 266.058685,451.699310 252.724869,517.578918 
	C229.017975,517.578918 205.400757,517.578918 180.792786,517.578918 
	C201.230133,422.603271 221.611862,327.886078 242.059937,232.860565 
	C246.181396,232.860565 249.989929,232.860550 253.798462,232.860565 
	C280.291687,232.860611 306.785370,232.930191 333.277649,232.772171 
	C336.566162,232.752548 337.835052,233.812836 338.727417,236.847427 
	C352.564056,283.900940 366.502777,330.924500 380.439148,377.948669 
	C385.293945,394.329834 390.199768,410.695892 395.109955,427.060516 
	C395.408661,428.056091 395.951782,428.978302 397.366211,429.885712 
	C399.175598,421.185455 401.015961,412.491486 402.789032,403.783813 
	C410.387787,366.465881 417.961639,329.142914 425.555115,291.823914 
	C429.255646,273.637360 433.103180,255.479187 436.586060,237.251205 
	C437.266998,233.687424 438.523560,232.749344 442.043518,232.775787 
	C463.703827,232.938522 485.366058,232.847626 507.725861,232.904312 
	C508.592194,233.011597 508.760345,233.055695 508.928467,233.099792 
z"/>
<path fill="#FFFFFF" opacity="1.000000" stroke="none" 
	d="
M581.748169,395.462830 
	C581.748169,395.462830 581.268982,395.602020 580.796387,395.820435 
	C580.253357,396.379303 580.182861,396.719757 580.112427,397.060211 
	C571.815674,436.791046 563.518982,476.521912 554.868896,516.682678 
	C554.232483,517.221497 554.034729,517.416870 553.922485,517.698730 
	C529.614075,517.725769 505.305664,517.752808 480.427246,517.562073 
	C479.640106,517.166748 479.396759,517.039185 479.127197,516.961609 
	C482.303741,501.338409 485.416718,485.701965 488.667938,470.094330 
	C502.400360,404.171112 516.174988,338.256714 529.931763,272.338593 
	C532.647400,259.326111 535.352295,246.311356 538.096558,233.132660 
	C563.501038,233.132660 588.748474,233.132660 614.424438,233.132660 
	C607.203491,268.312531 600.053101,303.148956 592.668701,338.621277 
	C592.656189,340.067993 592.877808,340.878876 593.099426,341.689728 
	C622.902466,341.689728 652.705444,341.689728 683.136169,341.689728 
	C690.605286,305.700439 698.089355,269.639008 705.643372,233.240356 
	C730.981140,233.240356 756.199646,233.240356 782.013428,233.240356 
	C762.311096,327.571930 742.619446,421.852448 722.624146,516.562012 
	C722.058716,517.113525 721.918701,517.319031 721.900513,517.607483 
	C697.292236,517.660767 672.683960,517.713989 647.647705,517.362915 
	C647.137573,516.297607 647.055481,515.636658 646.973450,514.975708 
	C651.788818,491.548920 656.588745,468.118958 661.425049,444.696472 
	C664.582458,429.404846 667.792725,414.124115 671.166992,398.322662 
	C671.406860,397.695160 671.510437,397.578705 671.500549,397.472839 
	C671.479248,397.245209 671.399536,397.023041 671.343811,396.798615 
	C671.343811,396.798615 671.307373,396.324677 670.902039,395.804504 
	C669.674011,395.190399 668.851318,395.014740 668.028564,395.014282 
	C640.409302,394.998444 612.790039,394.993774 585.170776,395.017426 
	C584.029785,395.018402 582.889038,395.307770 581.748169,395.462830 
z"/>
<path fill="#FEFFFF" opacity="1.000000" stroke="none" 
	d="
M841.898193,240.888672 
	C856.667542,234.914551 871.467468,230.721146 887.109619,229.981598 
	C900.184509,229.363419 913.295776,227.683472 926.319458,228.217255 
	C948.896667,229.142578 971.630432,229.857101 993.440308,237.005981 
	C996.411072,237.979736 999.299866,239.203796 1002.615356,240.459167 
	C996.495911,259.274841 990.497437,277.718445 984.382507,296.520294 
	C978.625000,294.467133 973.171875,292.157104 967.516174,290.568237 
	C941.707886,283.317810 915.570129,281.670258 889.198730,286.993256 
	C885.037598,287.833191 880.854492,289.473236 877.167053,291.589355 
	C863.350342,299.518372 861.478699,317.879700 874.193726,327.601837 
	C881.593384,333.259735 890.542480,337.008270 899.057190,341.064240 
	C912.997620,347.704773 927.705566,352.915985 941.100342,360.481781 
	C968.240601,375.811432 979.197693,400.167755 977.003113,430.873077 
	C973.955811,473.507965 949.641113,499.084106 910.601257,511.738617 
	C896.360535,516.354675 881.274780,518.714661 866.397827,520.902832 
	C854.996338,522.579773 843.264404,523.392761 831.772461,522.796448 
	C804.140747,521.362671 776.971863,516.619202 750.511658,508.276001 
	C750.057434,508.132782 749.654724,507.825928 749.032898,507.490051 
	C754.909058,488.643738 760.772339,469.838623 766.791748,450.532928 
	C780.925476,458.316864 795.780151,462.347656 811.122986,464.325043 
	C822.109558,465.740997 833.276123,467.221924 844.272461,466.716766 
	C856.937073,466.134949 869.603027,464.214630 881.476807,458.701599 
	C902.232544,449.064789 905.273560,421.158508 884.437134,409.376129 
	C874.646545,403.839813 864.004700,399.815887 853.782776,395.033691 
	C841.612000,389.339691 829.000305,384.385132 817.441101,377.634979 
	C800.615845,367.809692 790.388062,352.811279 788.009705,333.089417 
	C783.159607,292.871216 802.643677,257.915588 839.265625,242.037933 
	C840.027100,241.707809 840.781921,241.362381 841.898193,240.888672 
z"/>
<path fill="#81A8D9" opacity="1.000000" stroke="none" 
	d="
M582.206665,395.636047 
	C582.889038,395.307770 584.029785,395.018402 585.170776,395.017426 
	C612.790039,394.993774 640.409302,394.998444 668.028564,395.014282 
	C668.851318,395.014740 669.674011,395.190399 670.793457,395.593109 
	C641.615112,395.871002 612.140137,395.840149 582.206665,395.636047 
z"/>
<path fill="#3D8AC9" opacity="1.000000" stroke="none" 
	d="
M593.104370,341.324646 
	C592.877808,340.878876 592.656189,340.067993 592.650024,339.021790 
	C592.946716,339.510864 593.028015,340.235229 593.104370,341.324646 
z"/>
<path fill="#BACCEA" opacity="1.000000" stroke="none" 
	d="
M646.789124,515.199707 
	C647.055481,515.636658 647.137573,516.297607 647.194763,517.292114 
	C646.981506,516.891663 646.793152,516.157715 646.789124,515.199707 
z"/>
<path fill="#81A8D9" opacity="1.000000" stroke="none" 
	d="
M580.301819,396.902283 
	C580.182861,396.719757 580.253357,396.379303 580.579834,395.944275 
	C580.867249,396.204285 580.752380,396.502472 580.301819,396.902283 
z"/>
<path fill="#81A8D9" opacity="1.000000" stroke="none" 
	d="
M671.190918,397.089935 
	C671.399536,397.023041 671.479248,397.245209 671.500549,397.472839 
	C671.510437,397.578705 671.406860,397.695160 671.211060,397.922729 
	C671.057556,397.819489 671.047791,397.600372 671.190918,397.089935 
z"/>
<path fill="#3C89C9" opacity="1.000000" stroke="none" 
	d="
M508.890594,232.933014 
	C508.760345,233.055695 508.592194,233.011597 508.189178,232.854111 
	C508.253754,232.749222 508.553223,232.757736 508.890594,232.933014 
z"/>
<path fill="#BBCDEA" opacity="1.000000" stroke="none" 
	d="
M479.119781,517.233521 
	C479.396759,517.039185 479.640106,517.166748 479.964813,517.521484 
	C479.752411,517.634277 479.432373,517.569885 479.119781,517.233521 
z"/>
<path fill="#BBCDEA" opacity="1.000000" stroke="none" 
	d="
M554.181702,517.766846 
	C554.034729,517.416870 554.232483,517.221497 554.717163,517.042236 
	C554.759399,517.259521 554.600159,517.547180 554.181702,517.766846 
z"/>
<path fill="#BACCEA" opacity="1.000000" stroke="none" 
	d="
M722.128662,517.643860 
	C721.918701,517.319031 722.058716,517.113525 722.510925,516.952026 
	C722.819153,517.273315 722.704285,517.529053 722.128662,517.643860 
z"/>
<path fill="#000000" opacity="1.000000" stroke="none" 
	d="
M989.994202,1007.782776 
	C988.291016,1014.388550 986.277222,1020.239929 980.469849,1024.103638 
	C973.332458,1028.852173 964.548096,1026.212891 960.460022,1020.007263 
	C951.868042,1006.964600 952.550293,993.538574 959.061096,980.039490 
	C961.554016,974.870850 966.448730,972.345459 971.885132,972.298645 
	C978.224121,972.244019 982.973633,975.847778 986.060181,981.357361 
	C990.625183,989.505859 992.263672,998.146851 989.994202,1007.782776 
z"/>
<path fill="#000000" opacity="1.000000" stroke="none" 
	d="
M1300.401367,1008.155884 
	C1298.521362,1019.442505 1292.052856,1025.580566 1281.536133,1026.924072 
	C1276.300537,1027.593018 1267.879883,1022.929199 1265.561157,1018.026001 
	C1259.797852,1005.839600 1257.439697,993.650208 1265.197266,981.162903 
	C1269.104126,974.874084 1274.693848,972.026367 1281.591431,972.400269 
	C1291.145264,972.918274 1297.853882,978.276489 1299.761230,987.607544 
	C1301.093628,994.125732 1300.427124,1001.052551 1300.401367,1008.155884 
z"/>
<path fill="#000000" opacity="1.000000" stroke="none" 
	d="
M649.937622,1001.263062 
	C646.116150,988.683899 657.343811,972.167603 669.454224,972.054199 
	C677.838928,971.975708 685.012573,976.518799 688.012024,985.645081 
	C691.765198,997.064514 691.901123,1008.819336 684.835327,1019.219910 
	C677.115417,1030.583252 659.122559,1028.355347 654.188354,1017.184326 
	C652.051880,1012.347534 651.338196,1006.882263 649.937622,1001.263062 
z"/>
<path fill="#000000" opacity="1.000000" stroke="none" 
	d="
M1059.527100,1025.796265 
	C1051.496948,1018.125061 1053.770752,1007.410461 1064.233765,1004.541565 
	C1071.372803,1002.584045 1078.955444,1002.244324 1086.501465,1001.158081 
	C1086.838379,1018.949097 1076.864502,1032.233887 1059.527100,1025.796265 
z"/>
</svg>