<?xml version="1.0" standalone="no"?>
<!DOCTYPE svg PUBLIC "-//W3C//DTD SVG 20010904//EN"
 "http://www.w3.org/TR/2001/REC-SVG-20010904/DTD/svg10.dtd">
<svg version="1.0" xmlns="http://www.w3.org/2000/svg"
 width="604.000000pt" height="604.000000pt" viewBox="0 0 604.000000 604.000000"
 preserveAspectRatio="xMidYMid meet">
<metadata>
Created by potrace 1.14, written by Peter Selinger 2001-2017
</metadata>
<g transform="translate(0.000000,604.000000) scale(0.100000,-0.100000)"
fill="#000000" stroke="none">
<path d="M3418 6017 c-17 -16 -23 -29 -18 -37 7 -11 11 -11 25 0 15 12 16 11
9 -14 l-7 -28 32 17 c18 9 34 22 37 30 3 8 15 17 26 21 28 8 11 22 -37 29 -34
6 -44 3 -67 -18z"/>
<path d="M2642 5934 c19 -33 82 -73 95 -60 8 8 -17 73 -33 87 -12 9 -20 10
-33 2 -11 -7 -23 -8 -34 -1 -14 7 -13 2 5 -28z"/>
<path d="M2764 5715 c0 -25 5 -37 18 -41 26 -8 22 -23 -4 -16 -14 3 -19 2 -14
-7 4 -6 10 -24 13 -39 3 -15 6 -31 7 -37 1 -5 7 -20 14 -31 13 -25 9 -31 -36
-49 -29 -13 -32 -17 -26 -42 10 -44 21 -49 50 -22 14 13 31 24 37 25 7 0 29 2
50 2 31 2 39 7 48 28 5 15 23 44 39 64 17 21 30 41 30 45 0 7 -31 2 -63 -11
-11 -4 -24 12 -46 53 -59 110 -117 149 -117 78z"/>
<path d="M3058 5738 c-9 -25 15 -93 48 -140 l33 -46 -22 -15 c-22 -14 -22 -15
-3 -36 21 -24 36 -27 36 -8 0 6 4 18 9 26 7 11 13 11 32 -3 13 -9 41 -16 62
-16 52 0 58 22 18 64 -37 38 -38 44 -8 56 18 7 19 9 3 9 -12 1 -16 6 -12 16 7
18 7 18 -33 4 -31 -11 -35 -9 -74 28 -73 68 -84 76 -89 61z"/>
<path d="M3317 5736 c-4 -9 2 -16 18 -20 32 -8 37 -30 14 -59 -20 -26 -25 -47
-10 -47 18 0 77 24 103 42 22 15 32 17 48 8 20 -11 26 -4 12 15 -21 29 -58 49
-100 55 -26 4 -54 10 -63 14 -10 5 -19 2 -22 -8z"/>
<path d="M2543 5720 c-13 -5 -23 -18 -23 -29 0 -12 -11 -23 -29 -29 -23 -8
-28 -15 -24 -31 6 -25 6 -25 43 -6 28 14 30 14 30 -3 0 -26 68 -102 91 -102
15 0 19 5 15 18 -3 9 -10 36 -15 60 -5 24 -12 46 -15 49 -3 3 9 17 26 30 l32
23 -32 0 c-20 0 -35 6 -38 15 -7 17 -28 18 -61 5z"/>
<path d="M3790 5717 c0 -8 6 -20 14 -27 8 -6 12 -18 9 -26 -9 -25 22 -15 52
16 26 28 24 45 -3 18 -9 -9 -16 -8 -29 4 -30 26 -43 30 -43 15z"/>
<path d="M2025 5699 c-38 -30 -45 -39 -45 -66 0 -20 -4 -22 -31 -16 -28 5 -30
4 -27 -18 2 -20 8 -23 31 -21 22 2 27 -1 27 -20 1 -24 52 -88 70 -88 5 0 10
23 10 50 0 47 2 50 25 50 32 0 32 14 1 28 -22 10 -25 19 -28 68 l-3 56 -30
-23z"/>
<path d="M2299 5648 c-1 -7 -1 -17 0 -21 1 -5 -3 -6 -9 -2 -9 5 -12 -1 -9 -21
0 -4 -5 -11 -13 -15 -10 -7 -10 -9 2 -9 9 -1 7 -5 -6 -10 -19 -7 -21 -15 -19
-57 2 -26 7 -58 10 -69 6 -19 3 -21 -19 -17 -34 7 -60 -3 -49 -19 4 -7 8 -20
8 -28 0 -22 46 -77 71 -84 19 -6 23 -2 28 28 l7 34 52 -34 c29 -19 57 -38 62
-42 6 -4 18 -6 29 -4 10 2 22 -2 27 -10 7 -10 9 -10 9 2 0 13 1 13 10 0 8 -12
10 -12 11 5 0 11 3 14 6 8 2 -7 13 -13 24 -13 35 0 20 36 -42 101 l-60 63 20
49 c12 28 19 53 16 56 -3 3 -19 -3 -34 -12 -16 -9 -33 -17 -39 -17 -5 0 -24
34 -42 75 -31 70 -48 92 -51 63z"/>
<path d="M3690 5600 c0 -5 5 -12 10 -15 18 -11 10 -24 -14 -22 -32 3 -35 -16
-4 -24 l23 -5 -25 -9 -25 -8 30 -9 c55 -16 157 10 111 28 -9 3 -16 12 -16 20
0 14 -19 26 -64 44 -15 5 -26 6 -26 0z"/>
<path d="M3445 5560 l-30 -7 32 -12 c27 -11 32 -19 35 -49 4 -51 23 -50 44 2
11 27 27 47 39 50 17 5 18 8 5 16 -17 11 -80 11 -125 0z"/>
<path d="M4294 5506 c-4 -9 0 -35 9 -56 14 -37 14 -40 -4 -45 -33 -11 -20 -23
22 -22 31 2 45 8 57 25 13 20 13 22 -2 22 -9 0 -16 8 -16 18 0 10 -13 31 -30
47 -26 25 -30 26 -36 11z"/>
<path d="M3322 5498 c-7 -7 -12 -18 -12 -25 0 -8 -11 -18 -25 -23 -38 -14 -31
-32 9 -25 27 5 35 3 40 -12 13 -33 51 -83 64 -83 16 0 17 101 0 118 -9 9 -3
15 23 26 19 9 30 16 24 16 -5 1 -24 3 -40 4 -17 2 -40 6 -51 10 -11 3 -25 1
-32 -6z"/>
<path d="M3986 5478 c-20 -29 -20 -48 0 -48 12 0 14 -7 10 -27 -7 -33 5 -85
21 -90 6 -2 18 14 27 37 15 37 25 44 64 43 17 -1 15 12 -3 27 -14 12 -12 17
17 47 l32 33 -38 0 c-20 0 -47 -5 -59 -11 -16 -9 -22 -9 -25 0 -6 18 -30 13
-46 -11z"/>
<path d="M3581 5471 c-7 -13 -14 -42 -14 -64 -2 -35 -6 -42 -27 -47 -14 -3
-26 -14 -28 -24 -3 -16 1 -17 36 -11 36 6 40 4 51 -22 15 -37 78 -103 98 -103
13 0 15 8 10 48 -3 26 -9 61 -13 79 -6 28 -3 34 20 44 30 14 25 29 -10 29 -18
0 -39 15 -68 47 -43 47 -43 47 -55 24z"/>
<path d="M3817 5413 c-3 -4 -2 -27 3 -51 6 -33 4 -42 -6 -42 -8 0 -14 -6 -14
-13 0 -7 14 -13 38 -13 28 -1 42 4 56 23 18 24 18 24 -3 30 -12 3 -21 11 -21
17 0 17 -47 60 -53 49z"/>
<path d="M3195 5371 c-9 -11 -15 -28 -13 -39 2 -11 -5 -29 -16 -41 -15 -17
-17 -23 -6 -36 11 -14 14 -13 27 4 13 19 14 19 56 -5 38 -21 97 -33 97 -18 0
6 -61 86 -72 95 -5 3 -1 14 7 25 20 27 18 37 -5 24 -14 -7 -26 -7 -39 -1 -14
8 -22 6 -36 -8z"/>
<path d="M1450 5371 c0 -4 16 -22 35 -41 34 -33 45 -60 24 -60 -5 0 -7 -4 -4
-10 15 -24 41 -10 88 46 17 21 17 21 -7 17 -16 -3 -45 6 -80 25 -31 17 -56 27
-56 23z"/>
<path d="M4543 5356 c10 -8 22 -27 26 -42 10 -39 30 -42 37 -5 4 17 13 31 20
31 19 0 18 16 -2 24 -9 3 -34 6 -57 6 -38 -1 -40 -2 -24 -14z"/>
<path d="M1636 5345 c-11 -8 -15 -15 -10 -15 6 0 19 7 30 15 10 8 15 14 9 14
-5 0 -19 -6 -29 -14z"/>
<path d="M1729 5358 c0 -2 -3 -15 -5 -29 -4 -25 -1 -27 48 -35 l53 -9 6 -79
c3 -49 10 -81 17 -84 7 -2 10 -8 6 -13 -3 -5 -1 -9 5 -9 5 0 16 -7 24 -15 14
-13 19 -6 51 56 20 39 36 81 36 94 0 18 7 24 35 29 20 4 44 2 56 -4 11 -7 23
-9 26 -7 5 6 -67 57 -81 57 -5 0 -14 8 -21 17 -16 22 -133 32 -145 13 -7 -11
-17 -10 -52 3 -42 16 -57 20 -59 15z"/>
<path d="M2900 5344 c0 -4 8 -12 17 -19 15 -11 15 -13 -5 -24 -12 -6 -22 -16
-22 -21 0 -14 79 -5 123 13 39 17 42 37 6 37 -10 0 -19 5 -19 10 0 6 -22 10
-50 10 -27 0 -50 -3 -50 -6z"/>
<path d="M2790 5320 c-14 -8 -20 -122 -10 -165 4 -16 -2 -22 -27 -30 -18 -5
-33 -13 -33 -18 0 -17 27 -35 41 -27 16 9 136 25 162 21 19 -3 23 15 5 23 -9
3 -7 8 6 17 15 9 16 13 5 20 -8 5 -24 9 -35 9 -16 0 -30 18 -61 79 -29 58 -43
77 -53 71z"/>
<path d="M4230 5282 c-19 -9 -37 -26 -39 -37 -4 -24 -19 -35 -49 -35 -20 0
-22 -4 -16 -22 10 -33 12 -34 43 -15 36 21 41 21 41 0 0 -17 57 -112 69 -115
3 0 19 -2 34 -3 22 -2 27 1 21 14 -3 9 -9 41 -14 71 -4 30 -9 62 -11 70 -3 9
9 18 31 26 35 13 28 18 -22 14 -22 -1 -29 4 -34 24 -7 31 -9 31 -54 8z"/>
<path d="M2603 5234 c-51 -30 -56 -49 -12 -39 31 7 32 7 26 -23 -9 -45 9 -48
43 -10 16 18 41 45 55 59 l25 27 -23 6 c-42 11 -72 6 -114 -20z"/>
<path d="M3937 5209 c4 -28 2 -44 -7 -49 -8 -5 -10 -15 -5 -26 5 -13 9 -15 12
-6 7 19 23 14 45 -13 11 -14 24 -23 29 -20 11 7 8 105 -3 105 -4 0 -18 11 -32
25 -35 35 -45 31 -39 -16z"/>
<path d="M3760 5222 c0 -4 5 -13 11 -19 7 -7 8 -17 3 -25 -11 -17 -14 -38 -6
-38 9 0 72 44 72 50 0 8 -56 40 -69 40 -6 0 -11 -4 -11 -8z"/>
<path d="M2980 5189 c0 -13 8 -23 21 -26 14 -4 17 -8 8 -13 -9 -6 -7 -17 10
-45 20 -34 20 -39 6 -55 -8 -9 -15 -24 -15 -33 0 -22 19 -31 26 -12 4 9 23 24
43 34 29 15 39 28 48 62 13 49 10 58 -12 39 -14 -11 -22 -7 -58 28 -47 46 -77
54 -77 21z"/>
<path d="M3428 5201 c-7 -2 -22 -11 -33 -21 -11 -10 -30 -21 -42 -25 -35 -10
-30 -36 5 -29 26 5 29 3 41 -37 l13 -43 19 25 c10 13 24 41 31 62 6 20 14 37
18 37 3 0 15 6 25 14 17 12 15 14 -22 17 -23 3 -48 3 -55 0z"/>
<path d="M2230 5180 c0 -6 -10 -8 -24 -4 -18 4 -25 1 -29 -15 -4 -18 0 -21 26
-22 18 -1 25 -3 15 -6 -9 -2 -19 -11 -22 -19 -8 -21 87 -20 105 2 8 10 21 13
38 9 l26 -5 -22 19 c-13 11 -23 24 -23 29 0 11 -33 22 -67 22 -13 0 -23 -5
-23 -10z"/>
<path d="M3219 5163 c-1 -16 0 -38 0 -49 1 -12 -5 -24 -13 -27 -9 -4 -16 -11
-16 -16 0 -6 7 -8 14 -5 8 3 25 -4 37 -15 30 -28 39 -26 39 7 0 15 5 33 12 40
9 9 9 12 -2 12 -8 0 -23 18 -32 40 -19 46 -38 52 -39 13z"/>
<path d="M2420 5148 c46 -70 47 -78 16 -103 -37 -29 -21 -38 43 -24 50 11 102
44 120 78 8 15 5 16 -25 13 -21 -3 -34 0 -34 7 0 14 -96 61 -123 61 -18 0 -18
-2 3 -32z"/>
<path d="M1390 5136 c-19 -7 -51 -22 -70 -34 -19 -12 -43 -22 -52 -22 -22 0
-29 -12 -18 -30 7 -12 13 -12 33 -1 33 18 61 10 65 -17 2 -12 8 -22 13 -22 5
0 9 -10 9 -23 0 -13 7 -32 15 -43 13 -16 16 -17 25 -4 17 25 50 139 44 154 -4
10 7 19 31 27 29 11 33 15 18 20 -28 12 -75 9 -113 -5z"/>
<path d="M3637 5132 c-10 -10 -17 -26 -17 -35 0 -9 -13 -23 -30 -29 -21 -9
-27 -17 -21 -27 6 -10 13 -11 29 -2 32 17 49 13 56 -14 7 -29 73 -105 90 -105
15 0 9 129 -7 148 -11 14 15 40 43 43 8 1 -10 5 -40 10 -30 5 -59 14 -64 19
-14 14 -21 13 -39 -8z"/>
<path d="M4566 5125 c-20 -14 -46 -25 -56 -25 -22 0 -24 -7 -11 -29 6 -10 13
-11 29 -2 29 15 30 15 47 -19 14 -28 60 -60 69 -49 2 2 0 27 -3 54 -6 46 -4
52 19 67 l25 18 -27 0 c-14 0 -33 2 -40 5 -8 3 -31 -6 -52 -20z"/>
<path d="M2059 5113 c-16 -7 -37 -19 -45 -28 -9 -8 -24 -15 -35 -15 -13 0 -19
-7 -19 -21 0 -16 4 -19 18 -14 44 18 50 17 68 -22 17 -34 67 -75 77 -63 2 3 1
31 -3 63 -6 56 -5 59 23 82 l30 23 -42 4 c-23 2 -56 -2 -72 -9z"/>
<path d="M3877 5074 c-10 -11 13 -44 30 -44 13 0 14 -3 5 -12 -8 -8 -4 -20 18
-48 26 -33 28 -39 14 -50 -8 -7 -14 -23 -12 -34 4 -28 34 -33 41 -7 3 12 18
28 34 38 24 13 31 26 39 70 11 57 9 61 -16 38 -16 -14 -22 -12 -70 20 -51 34
-71 41 -83 29z"/>
<path d="M2680 5053 c-50 -8 -90 -25 -90 -38 0 -8 13 -15 33 -17 42 -4 38 -20
-7 -32 -25 -7 -36 -15 -36 -28 0 -20 21 -23 51 -7 12 6 27 8 36 5 12 -5 11
-10 -8 -25 -13 -11 -20 -23 -16 -27 11 -12 139 56 144 76 2 8 17 24 33 35 29
19 29 20 7 28 -12 4 -32 5 -45 2 -14 -3 -21 -2 -18 4 11 17 -39 31 -84 24z"/>
<path d="M1757 5019 c-57 -13 -83 -29 -66 -40 8 -5 24 -9 37 -9 32 0 28 -28
-5 -36 -49 -10 -52 -12 -46 -34 4 -15 10 -19 22 -14 26 11 71 17 71 9 0 -4
-10 -15 -22 -25 -40 -32 -11 -33 56 -2 37 17 72 42 82 57 10 16 32 36 49 46
30 19 30 19 5 20 -14 1 -35 0 -47 -1 -14 -1 -23 4 -23 13 0 25 -46 32 -113 16z"/>
<path d="M4198 4988 c-25 -24 -47 -49 -50 -57 -3 -11 -8 -11 -25 -3 -16 9 -24
8 -33 -3 -10 -12 -7 -15 14 -21 23 -6 25 -9 20 -48 -5 -32 -2 -47 13 -65 l20
-24 24 51 c22 47 37 59 72 53 15 -2 6 19 -14 29 -14 8 -17 15 -11 23 5 7 15
29 22 50 19 60 0 65 -52 15z"/>
<path d="M2880 5001 c0 -5 7 -12 16 -15 23 -9 8 -24 -19 -19 -16 3 -26 -1 -30
-11 -5 -12 0 -16 21 -16 24 -1 25 -2 10 -14 -41 -31 29 -35 111 -7 44 16 50
20 32 26 -11 3 -26 15 -31 25 -14 26 -110 53 -110 31z"/>
<path d="M4327 4996 c-4 -11 1 -18 19 -22 22 -6 25 -11 19 -33 -4 -14 -11 -29
-17 -32 -5 -4 -8 -14 -6 -22 3 -14 11 -13 63 9 35 14 70 22 83 19 20 -5 22 -3
13 12 -17 33 -47 53 -92 62 -24 5 -51 12 -60 15 -10 5 -19 1 -22 -8z"/>
<path d="M3110 4965 c0 -9 10 -15 24 -15 34 0 38 -11 24 -69 -6 -28 -9 -54 -5
-57 7 -8 93 51 105 73 7 11 19 14 40 11 28 -4 30 -2 19 11 -25 32 -60 45 -154
55 -42 4 -53 2 -53 -9z"/>
<path d="M2275 4951 c-40 -19 -40 -19 -15 -29 27 -11 25 -12 -28 -28 -28 -8 1
-25 31 -18 l32 6 -20 -22 -20 -23 25 8 c38 12 92 41 125 69 l30 25 -25 2 c-14
1 -31 2 -37 2 -7 -1 -11 3 -8 7 5 8 -18 20 -38 20 -7 0 -30 -9 -52 -19z"/>
<path d="M3390 4953 c0 -7 9 -13 20 -13 18 0 20 -4 14 -40 -8 -48 1 -50 44
-10 19 17 45 30 60 30 l27 1 -30 24 c-24 20 -39 24 -82 22 -35 -1 -53 -6 -53
-14z"/>
<path d="M1970 4922 c0 -5 11 -19 25 -32 20 -19 23 -26 12 -38 -10 -13 -8 -14
22 -9 18 4 49 7 67 7 19 0 34 3 34 8 0 9 -49 32 -67 32 -8 0 -32 9 -53 20 -22
11 -40 17 -40 12z"/>
<path d="M2430 4890 c0 -6 7 -13 15 -16 8 -4 15 -17 15 -29 0 -13 4 -25 10
-27 6 -2 6 -16 -1 -41 -16 -60 -5 -65 24 -13 15 27 27 52 27 56 0 10 -72 80
-82 80 -4 0 -8 -5 -8 -10z"/>
<path d="M2574 4886 c-4 -10 -2 -34 5 -54 9 -32 8 -39 -6 -49 -9 -7 -14 -15
-12 -17 10 -11 84 14 103 35 l21 22 -22 -6 c-15 -3 -24 0 -28 12 -3 9 -17 29
-30 46 -21 26 -25 27 -31 11z"/>
<path d="M1310 4849 c0 -6 -5 -9 -12 -7 -6 2 -25 -10 -40 -28 -22 -24 -28 -41
-26 -68 2 -35 -23 -67 -64 -81 -22 -8 -22 -14 1 -42 25 -30 31 -29 69 10 l32
33 56 -53 c31 -29 62 -53 69 -53 7 0 15 -5 17 -11 5 -14 88 -25 88 -11 0 6 7
9 15 6 21 -8 19 6 -4 30 -11 12 -32 46 -47 76 -14 30 -35 65 -46 77 -20 21
-20 21 4 55 12 18 30 38 38 45 13 11 13 12 0 12 -8 0 -33 -6 -55 -14 -24 -9
-41 -11 -43 -5 -2 6 -10 10 -18 10 -8 0 -14 7 -14 15 0 8 -4 15 -10 15 -5 0
-10 -5 -10 -11z"/>
<path d="M4320 4830 c-11 -11 -24 -20 -30 -20 -5 0 -10 -7 -10 -16 0 -11 6
-13 19 -9 14 4 24 -3 41 -30 32 -51 53 -47 45 9 -6 36 -4 46 12 55 17 10 17
10 -4 11 -12 0 -25 5 -28 10 -9 15 -23 12 -45 -10z"/>
<path d="M4593 4835 c-6 -11 -8 -26 -5 -34 2 -7 -2 -17 -9 -22 -19 -11 1 -44
27 -45 11 -1 21 -2 24 -4 12 -6 50 -7 50 -1 0 4 -7 16 -15 27 -8 10 -15 27
-15 37 0 9 -6 17 -13 17 -8 0 -18 10 -24 22 -10 22 -10 22 -20 3z"/>
<path d="M1745 4817 c-9 -35 8 -88 45 -144 l32 -47 -28 -23 -28 -22 24 -21 24
-21 13 26 c14 26 28 32 38 15 11 -18 87 -33 112 -21 27 12 23 27 -21 74 -32
34 -33 57 -5 57 17 0 19 3 10 13 -6 8 -8 17 -4 20 10 11 -17 8 -39 -4 -17 -9
-27 -5 -67 33 -25 24 -58 54 -73 67 l-27 24 -6 -26z"/>
<path d="M2865 4833 c-39 -8 -75 -26 -75 -35 0 -6 9 -8 20 -5 17 4 18 2 9 -14
-6 -13 -21 -19 -44 -19 -60 0 -87 -22 -44 -35 19 -7 20 -8 3 -26 -27 -30 -8
-35 41 -11 25 12 48 22 50 22 12 0 3 -30 -12 -46 -16 -16 -27 -54 -16 -54 3 0
29 7 58 15 67 20 119 54 123 81 3 21 57 54 90 54 33 1 -31 40 -66 40 -29 0
-32 3 -27 20 6 18 2 20 -42 19 -26 -1 -57 -3 -68 -6z"/>
<path d="M4832 4798 c1 -18 5 -41 10 -50 6 -13 3 -20 -13 -29 -37 -20 -7 -30
53 -17 44 9 56 16 55 30 -1 10 -9 18 -18 18 -9 0 -29 18 -44 40 -34 48 -46 51
-43 8z"/>
<path d="M2054 4806 c-45 -20 -49 -33 -13 -41 24 -6 36 -3 51 13 11 11 17 25
14 31 -9 14 -14 13 -52 -3z"/>
<path d="M2230 4785 c0 -36 26 -95 56 -126 l26 -27 -27 -24 c-23 -22 -25 -26
-10 -38 13 -11 19 -10 39 9 22 21 23 21 40 2 23 -26 103 -45 126 -31 15 9 -14
56 -57 89 -24 20 -25 22 -9 46 16 24 16 26 0 32 -9 3 -24 1 -34 -5 -14 -8 -26
-2 -66 35 -69 64 -84 70 -84 38z"/>
<path d="M5067 4763 c6 -16 5 -16 -10 -4 -10 8 -21 11 -25 7 -4 -4 2 -14 12
-22 20 -14 20 -14 0 -14 -32 -1 25 -29 59 -30 25 0 28 3 22 23 -7 22 -40 57
-56 57 -5 0 -5 -8 -2 -17z"/>
<path d="M1560 4719 c0 -16 27 -64 44 -79 15 -11 15 -14 0 -24 -14 -11 -14
-13 0 -25 13 -11 17 -11 21 1 4 9 16 13 34 10 33 -5 48 12 31 33 -7 8 -10 24
-7 36 5 18 2 20 -18 15 -14 -4 -27 0 -34 8 -16 19 -71 38 -71 25z"/>
<path d="M2557 4712 c-36 -16 -46 -40 -13 -34 10 2 20 -8 27 -25 l11 -28 14
33 c8 18 12 37 9 43 -4 5 1 9 10 9 9 0 13 5 10 10 -8 14 -23 12 -68 -8z"/>
<path d="M2010 4691 c0 -5 16 -19 34 -31 22 -13 33 -26 29 -36 -9 -25 22 -15
52 16 l29 31 -29 -2 c-17 -1 -47 5 -69 14 -45 20 -46 20 -46 8z"/>
<path d="M4456 4693 c-3 -3 -6 -26 -6 -50 0 -30 -5 -45 -15 -49 -20 -8 -19
-24 0 -24 9 0 29 -10 45 -22 16 -12 31 -20 34 -17 2 2 6 23 9 47 4 31 2 42 -8
42 -7 0 -19 16 -25 35 -12 36 -23 49 -34 38z"/>
<path d="M4674 4618 c-3 -4 1 -10 8 -13 9 -4 13 -17 10 -40 -5 -41 9 -46 28
-10 7 14 21 25 31 25 15 0 15 3 6 25 -10 19 -19 24 -45 23 -18 -1 -35 -5 -38
-10z"/>
<path d="M2048 4542 c-59 -29 -75 -41 -68 -52 7 -11 13 -12 35 -2 42 19 37 25
85 -95 5 -13 14 -23 19 -23 12 0 51 103 51 134 0 14 9 28 25 36 31 17 32 26 3
34 -44 11 -74 5 -150 -32z"/>
<path d="M1100 4548 c-23 -9 -24 -11 -6 -17 19 -7 19 -8 -3 -14 -13 -3 -20
-10 -17 -16 4 -6 14 -7 23 -4 11 4 14 3 9 -5 -13 -22 21 -12 49 14 l28 25 -28
15 c-15 8 -28 14 -29 13 0 0 -12 -5 -26 -11z"/>
<path d="M1757 4483 c-24 -26 -31 -28 -111 -28 -76 0 -86 -2 -86 -18 0 -28 50
-95 82 -109 30 -14 30 -16 6 -76 -11 -28 -11 -34 2 -42 23 -15 27 -13 43 29 9
22 20 42 25 45 5 3 31 -2 58 -10 64 -19 173 -12 191 12 18 25 -2 44 -98 90
l-79 39 5 48 c3 26 2 47 -3 47 -4 0 -20 -12 -35 -27z"/>
<path d="M2435 4503 c-11 -3 -40 -13 -65 -23 -25 -10 -57 -21 -72 -24 -20 -5
-25 -10 -21 -26 5 -18 11 -20 47 -15 58 9 96 -7 88 -37 -3 -13 -13 -34 -23
-48 -10 -14 -19 -34 -21 -45 -8 -55 113 -6 183 74 44 49 100 76 137 65 9 -3 4
6 -13 20 -16 14 -34 26 -38 26 -4 0 -27 9 -49 20 -40 19 -105 24 -153 13z"/>
<path d="M1234 4398 c-4 -6 0 -16 9 -23 9 -7 14 -15 10 -18 -3 -4 2 -16 12
-27 13 -15 15 -23 7 -33 -9 -10 -9 -16 0 -25 15 -15 63 35 73 76 6 31 -6 45
-20 22 -4 -6 -20 0 -39 15 -37 28 -42 30 -52 13z"/>
<path d="M2147 4363 c-4 -6 7 -23 23 -38 34 -33 37 -50 13 -65 -17 -9 -17 -11
-1 -20 10 -6 14 -18 11 -32 -5 -19 3 -15 40 21 42 40 77 94 77 118 0 5 -15 10
-32 10 -18 0 -54 3 -79 8 -28 4 -49 4 -52 -2z"/>
<path d="M1469 4318 c-22 -9 -39 -22 -39 -28 0 -5 -13 -10 -30 -10 -26 0 -30
-4 -30 -26 0 -21 3 -25 18 -19 45 19 51 17 65 -16 16 -38 31 -53 65 -64 24 -7
24 -6 21 58 -4 66 8 97 37 97 8 0 14 4 14 9 0 17 -82 17 -121 -1z"/>
<path d="M1071 4236 c-8 -10 -11 -27 -7 -46 4 -22 2 -30 -9 -30 -9 0 -12 -6
-9 -15 4 -8 10 -13 14 -10 5 3 20 -6 34 -20 31 -31 49 -25 35 12 -6 18 -6 30
2 39 9 11 8 14 -3 14 -9 0 -22 16 -29 36 -13 33 -15 35 -28 20z"/>
<path d="M2025 4230 c3 -5 2 -10 -4 -10 -13 0 5 -51 23 -65 7 -5 21 -28 31
-49 10 -22 31 -46 47 -55 15 -9 28 -19 28 -23 0 -4 -14 -23 -31 -42 -33 -39
-31 -56 7 -56 16 0 28 8 36 25 6 14 15 25 20 25 5 0 30 20 56 44 27 25 61 50
77 57 29 11 30 11 8 20 -26 9 -29 28 -10 48 10 11 7 12 -13 6 -14 -4 -35 -13
-47 -21 -24 -15 -12 -20 -171 74 -57 34 -67 38 -57 22z"/>
<path d="M1238 4147 c-41 -24 -50 -43 -17 -34 17 4 24 -2 36 -31 l16 -37 21
45 c11 25 27 49 35 54 11 7 11 10 0 17 -22 14 -51 10 -91 -14z"/>
<path d="M1665 4140 c-3 -5 -12 -7 -20 -3 -9 3 -21 0 -29 -6 -7 -6 -15 -8 -18
-5 -9 9 -70 -26 -91 -52 -24 -31 -38 -30 -76 2 -29 24 -32 25 -48 8 -17 -16
-17 -18 1 -28 10 -6 28 -18 39 -27 l21 -16 -22 -28 c-12 -15 -19 -31 -16 -36
3 -5 1 -9 -3 -9 -27 0 -32 -119 -6 -128 7 -2 41 24 75 58 l61 62 40 -16 c22
-9 42 -14 44 -13 1 2 -6 20 -16 40 l-18 36 29 28 c45 42 90 112 84 129 -6 16
-22 19 -31 4z"/>
<path d="M2410 4131 c-12 -8 -7 -13 23 -26 40 -17 49 -44 17 -52 -21 -6 -26
-18 -12 -27 17 -10 82 15 101 40 22 28 18 59 -7 49 -8 -3 -18 -1 -22 5 -10 16
-82 23 -100 11z"/>
<path d="M1810 4100 c0 -6 11 -21 25 -34 17 -16 23 -29 18 -41 -5 -16 -3 -17
18 -10 13 4 47 10 74 14 45 7 48 8 23 15 -16 5 -28 12 -28 17 0 5 -9 9 -20 9
-12 0 -38 9 -60 20 -45 23 -50 24 -50 10z"/>
<path d="M1886 3955 c-5 -15 6 -86 19 -117 5 -13 0 -20 -20 -28 -23 -9 -25
-13 -15 -25 13 -16 40 -20 40 -7 0 9 80 32 110 32 11 0 20 5 20 10 0 6 -5 10
-11 10 -8 0 -8 5 1 15 11 13 8 15 -17 15 -25 0 -36 9 -68 55 -39 58 -49 65
-59 40z"/>
<path d="M2540 3957 c-19 -7 -44 -18 -55 -25 -20 -11 -20 -11 0 -12 29 0 65
-28 65 -49 0 -19 30 -51 47 -51 6 0 14 27 18 60 5 46 11 61 26 65 10 4 19 11
19 16 0 13 -79 10 -120 -4z"/>
<path d="M2248 3926 c-16 -5 -28 -18 -30 -30 -2 -13 -12 -22 -25 -24 -25 -4
-27 -9 -14 -31 8 -13 12 -13 26 -1 15 12 18 12 25 0 31 -54 59 -85 79 -88 21
-3 23 -1 17 20 -3 12 -9 42 -12 64 -6 37 -4 43 16 49 21 7 21 8 6 17 -9 5 -22
8 -29 5 -7 -2 -16 3 -22 13 -8 13 -15 14 -37 6z"/>
<path d="M1683 3886 c26 -20 21 -28 -13 -21 -23 5 -30 3 -30 -9 0 -9 8 -16 19
-16 29 0 35 -18 9 -22 -48 -9 31 -20 87 -13 57 7 70 19 35 30 -11 4 -18 11
-15 16 8 13 -55 49 -85 49 -23 -1 -24 -2 -7 -14z"/>
<path d="M2420 3781 c0 -10 10 -31 22 -46 15 -20 18 -30 10 -33 -17 -5 -15
-19 5 -26 9 -4 20 -1 24 6 6 9 13 9 34 0 15 -7 37 -10 48 -6 20 6 19 8 -13 36
-28 23 -32 30 -20 38 8 5 11 12 7 16 -3 4 -13 2 -20 -4 -10 -9 -21 -6 -47 13
-41 30 -50 31 -50 6z"/>
<path d="M2040 3750 c-11 -11 -24 -20 -29 -20 -6 0 -9 -9 -8 -19 1 -15 5 -17
18 -10 25 13 28 12 22 -12 -5 -20 -4 -20 18 -9 13 7 36 26 51 42 l27 29 -25 9
c-37 14 -52 12 -74 -10z"/>
<path d="M1352 3744 c-12 -8 -22 -24 -22 -35 0 -14 -9 -21 -30 -25 -32 -7 -35
-11 -20 -34 8 -12 13 -13 30 -2 29 18 35 15 48 -23 22 -60 109 -116 97 -62
-26 116 -26 111 0 132 34 28 31 35 -10 35 -22 0 -38 6 -41 15 -8 19 -24 19
-52 -1z"/>
<path d="M1703 3729 c-37 -11 -44 -29 -12 -29 11 0 17 -4 14 -10 -3 -5 -15
-10 -26 -10 -11 0 -19 -7 -19 -16 0 -13 6 -15 28 -9 22 5 25 4 15 -6 -47 -48
42 -10 96 40 l33 31 -25 0 c-14 0 -29 5 -32 10 -7 12 -28 12 -72 -1z"/>
<path d="M1523 3667 c-22 -8 -30 -16 -24 -25 4 -7 15 -10 25 -6 11 4 26 -2 41
-16 29 -28 42 -21 24 12 -7 12 -13 27 -14 32 0 15 -17 15 -52 3z"/>
<path d="M2065 3650 c-25 -17 -32 -18 -50 -6 -22 14 -26 12 -57 -33 -13 -18
-14 -28 -6 -47 10 -20 8 -28 -11 -48 l-23 -24 21 -21 c24 -24 31 -26 31 -8 0
7 6 21 13 31 12 17 15 17 47 -3 19 -11 49 -23 65 -26 17 -3 37 -7 45 -9 8 -2
25 1 37 7 21 9 19 13 -42 72 l-64 62 18 37 c21 41 18 42 -24 16z"/>
<path d="M2295 3618 c4 -29 11 -63 16 -74 6 -17 3 -24 -16 -32 -17 -8 -22 -17
-18 -31 6 -25 16 -26 33 -6 7 8 26 15 42 15 18 0 31 6 35 18 3 9 15 30 26 46
l21 29 -26 -6 c-22 -6 -29 -1 -56 43 -17 28 -39 50 -48 50 -13 0 -15 -8 -9
-52z"/>
<path d="M2475 3600 c-4 -22 -11 -40 -16 -40 -5 0 -9 -5 -9 -10 0 -12 48 -3
67 12 10 8 9 13 -2 25 -8 8 -15 21 -15 28 0 33 -19 21 -25 -15z"/>
<path d="M2590 3594 c-15 -54 -16 -58 -6 -101 7 -29 5 -32 -23 -38 -33 -7 -36
-12 -21 -35 7 -12 12 -12 22 -2 14 14 48 16 48 2 0 -15 69 -80 85 -80 20 0 19
40 -1 88 -15 37 -15 37 13 59 l28 23 -33 0 c-22 0 -34 5 -38 18 -16 53 -40
106 -50 109 -6 2 -17 -17 -24 -43z"/>
<path d="M1653 3558 c2 -15 0 -25 -4 -22 -14 8 -10 -44 6 -83 19 -45 19 -43
-6 -43 -15 0 -19 -4 -15 -16 3 -9 6 -21 6 -27 0 -13 45 -37 67 -37 7 0 13 11
13 25 0 22 3 24 19 16 22 -12 108 -21 117 -12 3 3 11 6 17 6 30 0 7 33 -41 58
-52 28 -52 28 -46 68 7 43 -3 50 -31 19 -17 -19 -18 -18 -62 28 -41 44 -44 45
-40 20z"/>
<path d="M1988 3412 c-30 -18 -38 -35 -13 -26 8 4 17 -1 21 -10 9 -25 21 -19
33 15 6 18 11 34 11 35 0 9 -28 2 -52 -14z"/>
<path d="M2120 3403 c0 -10 9 -32 19 -50 11 -17 17 -40 14 -52 -5 -20 6 -28
21 -14 4 4 22 6 41 5 40 -4 51 9 26 32 -11 10 -17 25 -14 36 4 14 1 18 -14 14
-12 -4 -32 5 -50 20 -36 31 -43 32 -43 9z"/>
<path d="M2323 3379 c-7 -7 -3 -19 16 -40 14 -16 28 -29 32 -29 4 0 9 18 11
40 3 37 2 40 -22 40 -14 0 -31 -5 -37 -11z"/>
<path d="M2764 3341 c-10 -10 -3 -21 14 -21 14 0 17 -7 14 -38 -2 -24 1 -42
10 -50 12 -9 17 -5 27 23 7 19 16 35 21 35 5 0 7 12 6 28 -3 25 -7 27 -45 27
-24 0 -45 -2 -47 -4z"/>
<path d="M2495 3333 c-44 -11 -60 -42 -22 -44 17 -1 15 -3 -10 -11 -45 -15
-45 -42 -1 -32 30 6 31 5 19 -10 -8 -9 -12 -18 -10 -21 7 -7 101 41 134 68
l29 24 -32 8 c-18 3 -32 11 -32 16 0 9 -40 10 -75 2z"/>
<path d="M3011 3271 c-6 -11 -11 -29 -11 -41 0 -11 -7 -23 -15 -26 -18 -7 -20
-24 -2 -24 7 0 24 -14 36 -31 29 -39 52 -26 34 20 -8 24 -8 32 5 45 14 14 14
16 -1 22 -9 3 -17 14 -17 24 0 27 -17 34 -29 11z"/>
<path d="M1923 3245 c-18 -8 -33 -19 -33 -24 0 -6 -18 -14 -40 -17 -36 -6 -40
-9 -34 -28 9 -29 9 -29 43 -12 39 21 39 21 55 -16 19 -46 53 -78 81 -78 21 0
23 4 20 33 -13 104 -13 116 4 131 10 9 27 13 41 10 23 -4 23 -4 4 5 -31 14
-104 11 -141 -4z"/>
<path d="M2275 3240 c-16 -11 -27 -20 -22 -21 4 -1 19 -3 35 -4 15 -2 38 -6
52 -11 l24 -7 -24 31 c-14 17 -27 31 -30 31 -3 1 -18 -8 -35 -19z"/>
<path d="M2775 3190 c-26 -17 -32 -18 -51 -5 -20 13 -23 12 -39 -24 -13 -30
-14 -43 -6 -59 8 -16 6 -25 -10 -46 -21 -26 -21 -28 -3 -41 27 -20 31 -19 43
16 6 17 14 29 18 27 83 -42 149 -56 175 -36 15 12 12 17 -37 60 -30 25 -59 48
-65 50 -7 2 -7 13 1 36 14 42 10 46 -26 22z"/>
<path d="M1590 3190 c0 -5 5 -10 10 -10 6 0 10 -4 10 -10 0 -5 -7 -10 -16 -10
-9 0 -14 -5 -12 -11 2 -6 8 -10 13 -9 5 1 12 -6 15 -14 4 -14 11 -12 43 9 20
14 37 29 37 33 0 11 -51 32 -77 32 -13 0 -23 -4 -23 -10z"/>
<path d="M3250 3164 c-24 -21 -30 -32 -26 -50 5 -18 0 -27 -21 -41 -16 -9 -30
-18 -32 -19 -1 -2 3 -12 11 -23 l15 -21 22 24 23 24 43 -44 c41 -41 95 -66
122 -57 7 3 1 21 -18 51 -16 25 -29 50 -29 56 0 5 -7 17 -15 26 -14 16 -13 20
15 50 l30 32 -33 -6 c-21 -4 -40 -1 -54 9 -20 14 -24 13 -53 -11z"/>
<path d="M2334 3158 c-8 -24 -7 -80 2 -110 4 -14 -3 -19 -35 -24 -41 -7 -48
-17 -32 -43 6 -10 13 -11 29 -2 32 17 56 13 96 -14 20 -14 48 -28 63 -31 26
-7 26 -6 21 40 -5 41 -3 48 21 65 l26 20 -41 6 c-29 5 -46 15 -57 34 -24 37
-64 81 -76 81 -5 0 -13 -10 -17 -22z"/>
<path d="M3589 3100 c-19 -10 -42 -21 -51 -24 -31 -9 -10 -38 23 -31 24 5 30
2 43 -22 8 -16 27 -35 41 -41 l27 -13 -4 61 c-4 51 -2 61 14 66 10 3 16 9 13
14 -9 14 -71 9 -106 -10z"/>
<path d="M2994 3071 c11 -21 12 -31 3 -40 -23 -23 22 -11 50 14 26 23 27 24 7
25 -12 0 -27 7 -34 15 -7 8 -19 15 -26 15 -12 0 -12 -4 0 -29z"/>
<path d="M3089 3044 c-17 -21 -21 -40 -21 -96 0 -44 -2 -48 -24 -48 -13 0 -24
-5 -24 -10 0 -20 30 -69 49 -79 21 -12 31 -5 31 21 0 17 2 17 30 -3 16 -12 40
-23 52 -25 13 -1 23 -3 23 -4 0 -1 15 -3 33 -5 44 -3 42 15 -8 69 l-41 44 15
36 c13 30 13 36 1 36 -8 0 -17 -4 -20 -10 -13 -22 -33 -8 -49 35 -21 53 -29
60 -47 39z"/>
<path d="M3762 3018 c-7 -7 -12 -18 -12 -25 0 -8 -12 -18 -26 -23 -33 -13 -21
-31 16 -23 23 4 31 1 37 -13 11 -30 57 -84 71 -84 12 0 11 19 -3 112 -4 23 0
29 21 34 31 8 23 18 -16 20 -16 1 -40 4 -53 8 -13 3 -29 0 -35 -6z"/>
<path d="M2540 3016 c0 -3 6 -15 13 -26 8 -14 9 -23 2 -28 -6 -4 -12 -17 -12
-29 -2 -22 -1 -22 28 -7 17 8 39 24 51 36 l21 21 -34 12 c-19 7 -42 16 -51 20
-10 4 -18 4 -18 1z"/>
<path d="M2938 2966 c-21 -8 -35 -10 -32 -5 3 5 -6 9 -21 9 -32 0 -121 -78
-106 -93 7 -7 15 -6 26 3 10 8 15 9 15 2 0 -6 -13 -21 -30 -33 -23 -18 -27
-25 -18 -36 9 -11 13 -11 27 0 35 30 41 29 35 -5 l-7 -33 43 40 c23 22 50 56
60 75 10 19 28 45 39 57 35 37 29 40 -31 19z"/>
<path d="M2625 2890 c-10 -32 -13 -122 -5 -151 7 -22 4 -29 -16 -38 -14 -6
-31 -11 -39 -11 -17 0 -19 -9 -7 -27 5 -8 13 -9 22 -3 26 16 58 11 65 -10 8
-24 61 -70 81 -70 12 0 15 12 13 58 -3 65 3 79 35 92 17 7 13 9 -21 9 -40 1
-43 3 -43 29 -1 31 -50 135 -67 140 -6 2 -14 -6 -18 -18z"/>
<path d="M3540 2880 c0 -11 5 -20 12 -20 6 0 8 -3 5 -7 -4 -3 3 -17 14 -29 17
-18 19 -27 11 -37 -6 -7 -7 -18 -3 -26 14 -21 71 44 71 82 0 23 -3 28 -11 20
-9 -9 -20 -6 -44 13 -39 29 -55 31 -55 4z"/>
<path d="M4091 2878 c-1 -10 -7 -17 -13 -15 -8 1 -14 -10 -16 -26 -3 -26 -5
-27 -20 -14 -15 13 -20 11 -49 -20 -17 -19 -32 -36 -32 -39 0 -2 -5 -12 -10
-22 -9 -16 -13 -15 -56 7 l-46 24 -27 -27 c-23 -22 -25 -28 -12 -36 8 -5 25
-10 37 -10 13 0 39 -18 63 -42 l40 -42 90 -1 c50 0 90 1 90 2 0 1 -14 15 -31
31 l-30 28 35 74 c39 81 44 111 21 130 -13 10 -15 9 -16 -11 l-1 -24 -8 25
c-5 17 -8 19 -9 8z"/>
<path d="M3472 2725 c4 -43 1 -58 -10 -64 -10 -5 -13 -15 -8 -26 5 -14 9 -16
18 -7 7 7 22 12 33 12 12 0 31 13 43 30 27 36 28 44 4 38 -13 -4 -24 6 -40 33
-32 56 -45 50 -40 -16z"/>
<path d="M2894 2715 c-19 -21 -31 -42 -28 -50 8 -19 18 -19 35 1 10 12 25 14
78 9 l66 -7 -34 26 c-19 14 -39 26 -43 26 -4 0 -8 7 -8 15 0 26 -31 16 -66
-20z"/>
<path d="M3670 2724 c-6 -14 -10 -36 -10 -48 0 -16 -7 -26 -21 -29 -12 -3 -18
-10 -14 -17 4 -6 14 -8 23 -6 12 4 23 -5 37 -32 13 -24 28 -38 43 -40 22 -3
23 -1 17 30 -3 18 -9 41 -11 50 -3 9 3 21 12 26 16 9 15 10 -3 16 -14 4 -23
19 -27 41 -8 42 -32 46 -46 9z"/>
<path d="M3288 2724 c-16 -8 -28 -19 -28 -24 0 -6 -6 -10 -14 -10 -13 0 -26
-28 -26 -57 0 -23 23 -14 57 23 35 38 38 39 133 17 25 -6 25 -6 6 15 -10 12
-27 24 -37 27 -11 4 -17 11 -14 16 10 14 -47 10 -77 -7z"/>
<path d="M4398 2684 c-9 -9 -24 -14 -34 -10 -27 8 -38 4 -41 -16 -2 -14 4 -18
25 -18 27 0 27 -1 27 -60 0 -48 5 -64 22 -81 l21 -21 7 23 c27 94 43 115 85
110 9 -2 5 7 -12 23 -16 15 -25 32 -22 41 4 8 2 15 -2 16 -5 0 -20 3 -34 5
-15 2 -32 -3 -42 -12z"/>
<path d="M3133 2678 c-4 -7 -7 -37 -7 -65 1 -39 -3 -53 -12 -53 -8 0 -14 -9
-14 -21 0 -15 5 -19 18 -15 12 4 27 -3 42 -19 23 -24 60 -34 60 -16 0 5 -4 21
-10 36 -8 20 -7 27 5 31 21 9 19 19 -7 31 -15 7 -28 27 -37 57 -13 47 -24 56
-38 34z"/>
<path d="M3538 2588 c-18 -6 -28 -17 -28 -29 0 -11 -9 -21 -24 -25 -16 -4 -24
-12 -23 -25 1 -12 7 -17 14 -14 7 3 19 8 27 11 9 3 17 -3 21 -15 11 -34 55
-81 77 -81 15 0 18 4 13 18 -4 9 -11 36 -15 60 -6 37 -4 46 11 55 25 16 24 22
-3 24 -13 1 -27 8 -33 16 -7 10 -17 11 -37 5z"/>
<path d="M3893 2580 c-15 -6 -21 -15 -17 -25 4 -10 0 -15 -10 -15 -9 0 -16 -5
-16 -11 0 -6 9 -9 19 -6 14 3 18 1 14 -9 -3 -8 -2 -14 1 -14 13 0 85 40 91 50
3 5 16 10 28 10 14 0 18 3 11 10 -14 14 -95 21 -121 10z"/>
<path d="M2849 2561 c-13 -10 -34 -21 -47 -25 -29 -10 -18 -27 16 -24 22 3 27
-2 36 -34 6 -20 14 -39 17 -43 8 -7 49 75 49 98 0 9 11 19 25 23 37 9 20 24
-29 24 -27 0 -52 -7 -67 -19z"/>
<path d="M4223 2551 c-25 -41 6 -150 59 -208 l21 -22 -32 -18 c-36 -21 -37
-25 -15 -58 21 -32 26 -31 48 6 l18 31 27 -31 c21 -24 39 -33 85 -42 32 -6 70
-8 84 -4 25 6 23 8 -42 74 l-67 67 26 38 c14 21 24 40 22 43 -3 2 -22 -2 -44
-10 l-40 -14 -49 59 c-98 119 -88 110 -101 89z"/>
<path d="M3307 2543 c-14 -4 -16 -8 -6 -19 8 -10 8 -14 0 -14 -6 0 -11 -5 -11
-11 0 -7 9 -9 21 -6 16 4 18 3 8 -9 -17 -21 4 -17 41 9 32 20 42 42 21 42 -5
0 -13 3 -17 8 -8 7 -28 8 -57 0z"/>
<path d="M4780 2511 c0 -4 16 -23 35 -42 34 -34 45 -59 24 -59 -5 0 -7 -4 -4
-10 12 -19 38 -10 67 23 l29 32 -26 3 c-15 2 -49 17 -76 32 -27 16 -49 26 -49
21z"/>
<path d="M4966 2485 c-11 -8 -15 -15 -10 -15 6 0 19 7 30 15 10 8 15 14 9 14
-5 0 -19 -6 -29 -14z"/>
<path d="M3786 2481 c-10 -15 5 -41 23 -42 10 0 12 -2 3 -6 -8 -3 -3 -16 17
-42 27 -34 29 -39 14 -53 -9 -10 -13 -24 -8 -37 8 -26 32 -28 39 -3 3 9 18 25
33 34 20 12 30 29 39 67 11 52 6 63 -16 36 -10 -12 -18 -10 -57 20 -45 35 -76
44 -87 26z"/>
<path d="M3445 2419 c-4 -11 -4 -36 0 -55 5 -30 3 -34 -15 -34 -22 0 -25 -7
-11 -29 5 -7 13 -11 18 -8 5 3 17 -3 27 -14 22 -26 40 -20 44 15 2 15 10 30
18 33 18 7 18 23 1 23 -7 0 -23 20 -35 45 -24 49 -37 56 -47 24z"/>
<path d="M4004 2410 c-28 -13 -34 -19 -19 -20 48 -4 115 -7 115 -6 0 1 -13 12
-28 23 -28 21 -29 21 -68 3z"/>
<path d="M2958 2413 c-22 -5 -24 -23 -3 -23 23 0 18 -18 -5 -22 -30 -4 -24
-23 7 -21 20 2 23 -1 15 -9 -44 -44 30 -15 86 33 l33 29 -26 0 c-14 0 -25 5
-25 10 0 10 -49 12 -82 3z"/>
<path d="M3156 2402 c-11 -18 12 -90 44 -138 l28 -42 -21 -21 c-17 -17 -19
-23 -9 -33 11 -11 17 -8 32 12 18 24 19 24 38 7 24 -22 113 -50 123 -40 4 5
-10 34 -32 67 -38 56 -45 96 -17 96 6 0 9 2 6 5 -3 3 -18 1 -33 -5 -27 -10
-32 -7 -85 45 -56 56 -65 61 -74 47z"/>
<path d="M3691 2382 c-7 -12 -9 -27 -6 -32 4 -6 -1 -13 -9 -16 -22 -8 -20 -27
2 -20 11 4 23 -4 37 -24 30 -44 48 -40 40 10 -4 26 -3 40 4 40 6 0 11 5 11 10
0 6 -7 10 -16 10 -9 0 -24 10 -34 22 l-17 22 -12 -22z"/>
<path d="M4555 2392 c-11 -4 -21 -15 -23 -24 -2 -14 4 -18 31 -18 28 0 41 -9
82 -57 27 -31 50 -52 52 -47 2 6 -5 36 -16 67 -13 37 -16 59 -9 63 30 19 -68
32 -117 16z"/>
<path d="M4106 2331 c-27 -10 -31 -45 -5 -38 10 3 22 1 25 -4 9 -16 24 -10 24
10 0 25 -21 40 -44 32z"/>
<path d="M3630 2265 c-7 -8 -18 -15 -25 -15 -17 0 -40 -30 -54 -69 -13 -40 -8
-49 15 -30 16 13 17 11 11 -13 -10 -37 10 -46 24 -11 l12 28 6 -25 c11 -40 24
-7 31 77 6 74 2 85 -20 58z"/>
<path d="M4043 2240 c-33 -20 -45 -37 -19 -27 7 3 18 1 24 -5 14 -14 62 16 62
37 0 21 -29 19 -67 -5z"/>
<path d="M3715 2187 c-9 -36 10 -98 46 -147 l32 -44 -29 -22 -28 -23 24 -21
c23 -20 25 -20 37 -4 7 9 14 22 16 28 3 7 11 5 23 -6 26 -22 85 -37 112 -27
29 11 28 18 -13 66 -41 48 -43 56 -12 71 12 6 16 11 8 11 -11 1 -11 4 -1 16
16 19 9 19 -35 1 -32 -14 -36 -13 -49 6 -8 11 -39 42 -70 70 -54 48 -55 49
-61 25z"/>
<path d="M4599 2198 c-1 -7 -1 -16 0 -20 0 -5 -3 -8 -8 -8 -5 0 -11 -13 -14
-29 -4 -17 -14 -30 -26 -34 -12 -3 -21 -12 -21 -20 0 -23 75 -29 111 -9 31 18
38 32 15 32 -9 0 -17 18 -22 47 -8 43 -32 72 -35 41z"/>
<path d="M4362 2133 c-48 -17 -51 -37 -7 -38 25 0 31 -5 40 -39 6 -22 17 -42
23 -44 14 -4 32 39 32 77 0 18 8 34 23 44 21 16 21 16 -23 16 -25 0 -64 -7
-88 -16z"/>
<path d="M4804 2121 c-16 -10 -36 -26 -44 -36 -14 -16 -12 -17 20 -10 19 4 39
11 44 16 5 4 25 1 44 -6 19 -8 37 -15 39 -15 9 0 -19 30 -47 50 -26 18 -28 18
-56 1z"/>
<path d="M3470 2100 c-17 -32 -5 -140 23 -198 13 -27 5 -35 -45 -51 -25 -9
-35 -17 -31 -27 6 -17 17 -18 46 -2 12 6 39 13 60 15 44 4 104 32 130 61 11
12 27 18 40 16 19 -4 19 -3 -3 6 -13 6 -35 8 -47 5 -19 -4 -25 1 -38 31 -18
44 -102 164 -115 164 -5 0 -14 -9 -20 -20z"/>
<path d="M4065 2084 c-22 -7 -42 -14 -45 -14 -3 0 2 -5 10 -10 12 -7 8 -12
-17 -21 -18 -6 -30 -15 -27 -20 3 -5 9 -7 14 -4 4 3 6 -5 3 -16 -6 -21 -5 -21
21 -4 28 19 48 13 28 -7 -7 -7 -12 -18 -12 -24 0 -18 52 1 76 27 11 11 30 31
44 45 20 21 22 27 10 34 -8 6 -22 10 -30 10 -9 0 -20 4 -25 9 -6 6 -25 4 -50
-5z"/>
<path d="M4226 2015 c-36 -21 -37 -43 -2 -29 12 5 18 -2 22 -25 9 -43 22 -39
45 14 11 25 24 45 30 45 6 0 7 5 4 10 -10 17 -58 10 -99 -15z"/>
<path d="M4516 1985 c-22 -8 -54 -26 -72 -40 -18 -14 -36 -25 -41 -25 -19 -1
-33 -18 -27 -33 4 -12 11 -14 31 -6 13 5 40 9 60 9 35 0 35 -1 29 -32 -12 -54
-12 -91 -1 -95 23 -7 93 58 123 116 24 43 42 63 69 76 32 16 34 19 18 28 -31
17 -146 18 -189 2z"/>
<path d="M4827 1939 c-9 -6 -17 -17 -17 -25 0 -8 -11 -19 -24 -25 -14 -7 -22
-17 -19 -25 4 -10 10 -11 23 -4 29 15 35 12 48 -22 17 -44 55 -89 68 -80 6 4
8 30 5 67 -6 56 -4 61 19 77 17 12 20 18 10 19 -35 2 -75 11 -85 19 -6 5 -18
4 -28 -1z"/>
<path d="M4053 1878 c-18 -11 -34 -26 -34 -34 -1 -8 -2 -20 -3 -26 0 -7 -20
-17 -43 -22 -39 -9 -42 -12 -36 -35 9 -41 13 -43 47 -21 19 11 36 20 38 20 3
0 18 -24 32 -53 25 -49 78 -115 94 -118 53 -10 61 -4 41 33 -7 12 -15 47 -20
77 -4 31 -9 65 -11 75 -2 14 9 25 42 42 l45 23 -35 3 c-19 1 -43 2 -52 2 -11
0 -19 10 -23 27 -7 32 -35 35 -82 7z"/>
<path d="M950 1875 c0 -8 6 -15 14 -15 10 0 14 -10 14 -30 -1 -17 1 -32 3 -34
2 -3 18 8 36 24 29 26 30 29 15 43 -26 22 -82 30 -82 12z"/>
<path d="M1390 1873 c-8 -3 -23 -12 -32 -21 -16 -14 -18 -13 -18 3 0 14 -3 15
-15 5 -10 -8 -12 -17 -6 -24 6 -7 6 -17 1 -26 -12 -19 -13 -70 -2 -70 5 0 17
9 27 20 10 11 24 20 32 20 9 0 12 6 9 18 -4 12 3 27 19 42 37 35 30 49 -15 33z"/>
<path d="M3770 1871 c-44 -14 -110 -51 -110 -62 0 -7 7 -8 18 -4 35 15 46 10
57 -27 17 -59 31 -67 49 -25 8 20 16 46 18 59 2 13 13 30 26 39 l23 16 -23 7
c-26 7 -25 7 -58 -3z"/>
<path d="M4312 1775 c3 -72 3 -75 -19 -75 -22 0 -24 -9 -14 -48 1 -1 9 2 20 7
14 8 21 5 31 -14 7 -14 21 -25 31 -25 22 0 42 34 34 59 -4 14 2 20 27 28 l33
11 -30 7 c-24 5 -35 18 -58 66 -41 86 -60 81 -55 -16z"/>
<path d="M4703 1807 c-19 -26 -32 -63 -35 -97 -2 -28 -8 -36 -26 -38 -32 -5
-22 -27 12 -27 17 0 31 -8 38 -20 17 -31 60 -75 75 -75 17 0 16 35 -2 85 -14
38 -14 41 6 58 l21 17 -25 0 c-23 0 -26 5 -32 50 -7 53 -17 68 -32 47z"/>
<path d="M3395 1740 c-3 -5 -3 -16 2 -22 4 -7 9 -22 10 -33 2 -10 9 -23 16
-27 6 -4 9 -8 4 -8 -14 0 22 -57 54 -84 l31 -26 -21 -35 c-21 -35 -19 -65 3
-65 7 0 20 16 29 35 18 38 28 43 46 21 11 -13 68 -29 111 -31 22 -1 70 16 70
25 0 12 -77 79 -106 92 -28 13 -30 25 -10 73 18 42 13 43 -30 10 l-33 -25 -33
28 c-32 28 -118 82 -131 82 -3 0 -9 -4 -12 -10z"/>
<path d="M3776 1674 c-9 -8 -16 -23 -16 -32 1 -15 3 -14 16 3 12 16 18 18 34
7 22 -14 25 -9 10 19 -13 23 -24 24 -44 3z"/>
<path d="M3869 1673 c-2 -33 3 -48 28 -81 24 -32 24 -34 7 -48 -18 -14 -18
-14 1 -30 18 -14 21 -13 34 5 13 21 13 21 38 1 26 -20 77 -27 87 -12 3 5 -10
24 -29 42 -29 28 -32 36 -23 53 9 18 8 19 -19 14 -26 -5 -36 0 -69 34 -42 43
-53 48 -55 22z"/>
<path d="M1310 1648 c-11 -18 -20 -37 -20 -41 0 -5 -9 -5 -20 -2 -11 4 -20 2
-20 -4 0 -6 6 -11 13 -11 7 0 20 -8 29 -19 11 -13 24 -17 43 -14 16 4 23 9 17
15 -5 5 -7 29 -5 52 7 56 -11 67 -37 24z"/>
<path d="M4870 1651 c0 -11 -4 -23 -10 -26 -5 -3 -10 -22 -10 -40 0 -29 -4
-36 -25 -41 -42 -10 -23 -29 26 -26 69 5 127 42 82 54 -11 3 -23 22 -30 51
-13 47 -33 64 -33 28z"/>
<path d="M4460 1652 c0 -4 7 -18 16 -31 13 -18 14 -25 4 -31 -7 -5 -14 -20
-16 -34 l-3 -26 37 19 c48 25 93 71 69 71 -9 0 -31 9 -49 20 -34 21 -58 26
-58 12z"/>
<path d="M1116 1543 c-4 -5 -13 -8 -18 -8 -6 0 -13 -6 -16 -14 -3 -10 0 -12
12 -8 12 5 16 1 16 -17 0 -13 7 -29 15 -36 13 -10 15 -9 15 8 0 11 6 27 14 34
11 11 11 17 1 31 -13 18 -27 22 -39 10z"/>
<path d="M4190 1515 c-7 -9 -14 -35 -14 -59 -1 -38 -4 -45 -29 -54 -39 -15
-25 -36 18 -28 29 6 34 3 44 -21 15 -36 68 -93 87 -93 17 0 18 34 2 97 -10 43
-10 47 12 63 l23 17 -29 7 c-16 4 -45 25 -65 47 -32 35 -38 37 -49 24z"/>
<path d="M4397 1508 c-5 -16 30 -88 42 -88 5 0 19 -16 31 -35 12 -20 35 -39
55 -46 l34 -13 -16 -30 c-8 -17 -22 -38 -30 -48 -13 -14 -12 -17 4 -21 37 -11
68 -3 71 19 2 11 36 55 77 98 41 44 75 80 75 81 0 1 -11 0 -25 -3 -28 -5 -29
-3 -15 32 12 32 4 33 -43 1 -29 -20 -41 -24 -56 -15 -11 5 -52 22 -93 36 -40
14 -77 30 -82 35 -14 12 -24 11 -29 -3z"/>
<path d="M3785 1498 c-12 -31 -12 -53 1 -98 8 -25 14 -46 14 -48 0 -1 -11 -7
-25 -12 -26 -10 -32 -24 -16 -35 5 -3 12 -1 16 5 3 5 20 10 36 10 34 0 61 12
102 46 l29 24 -35 0 c-29 0 -37 5 -45 28 -6 15 -24 43 -40 62 -25 29 -31 32
-37 18z"/>
<path d="M1410 1461 c0 -6 5 -13 11 -17 7 -4 9 -21 6 -40 -7 -43 6 -51 31 -19
11 14 28 25 37 25 15 0 16 2 4 17 -8 9 -28 22 -46 30 -38 16 -43 16 -43 4z"/>
<path d="M4784 1425 c-3 -8 -2 -19 2 -26 5 -8 3 -9 -6 -4 -9 6 -11 -1 -8 -29
3 -28 0 -37 -14 -42 -10 -3 -18 -14 -18 -25 0 -16 4 -18 18 -11 9 5 26 8 38 6
13 -2 31 8 49 26 23 24 25 30 12 30 -10 0 -20 8 -23 18 -24 72 -38 89 -50 57z"/>
<path d="M1192 1386 c-7 -18 -12 -40 -12 -49 0 -9 -7 -17 -15 -17 -8 0 -15 -7
-15 -15 0 -13 8 -15 38 -9 40 7 91 44 60 44 -17 0 -28 20 -28 50 0 32 -16 30
-28 -4z"/>
<path d="M1553 1379 c-7 -7 -13 -30 -13 -51 0 -26 -4 -38 -14 -38 -9 0 -12 -7
-9 -20 4 -16 8 -18 19 -9 11 9 14 8 14 -5 0 -16 46 -53 55 -44 3 3 0 19 -6 37
-9 26 -9 35 1 41 10 6 9 9 -1 12 -7 2 -18 23 -24 47 -8 34 -12 40 -22 30z"/>
<path d="M3400 1300 c0 -12 24 -46 57 -81 l56 -59 -20 -28 c-17 -22 -18 -30
-7 -40 10 -9 16 -6 31 18 10 18 26 30 39 30 28 0 54 31 53 61 -1 13 3 36 9 51
l11 27 -34 -16 c-31 -15 -36 -15 -52 -1 -25 22 -72 44 -110 53 -29 6 -33 4
-33 -15z"/>
<path d="M1310 1272 c0 -6 6 -13 13 -16 6 -3 0 -4 -15 -1 -15 3 -30 1 -33 -5
-3 -5 1 -10 9 -10 9 0 13 -6 10 -15 -7 -16 14 -23 87 -27 34 -2 45 0 42 10 -3
6 -9 12 -15 12 -5 0 -7 4 -3 10 3 5 -5 16 -17 24 -31 20 -78 31 -78 18z"/>
<path d="M3771 1257 c-30 -13 -56 -28 -59 -35 -2 -7 2 -10 12 -6 9 4 16 1 16
-6 0 -8 10 -11 29 -7 26 6 33 1 71 -53 63 -91 82 -78 60 40 -9 48 -8 53 13 71
l22 18 -55 0 c-34 0 -76 -9 -109 -22z"/>
<path d="M4045 1270 c-4 -6 -2 -17 5 -24 6 -8 13 -24 15 -36 2 -12 14 -38 26
-58 l21 -36 -22 -18 c-23 -18 -21 -46 4 -67 10 -9 16 -5 26 19 7 16 14 30 17
30 7 0 56 -33 86 -57 16 -13 33 -20 39 -17 17 10 2 93 -22 126 -18 25 -20 34
-11 60 15 41 15 41 -19 23 -36 -19 -40 -19 -40 -1 0 29 -111 79 -125 56z"/>
<path d="M3017 1234 c-14 -15 -6 -65 13 -84 11 -11 20 -29 20 -41 0 -12 16
-37 36 -57 l35 -35 -36 -37 c-39 -40 -38 -44 11 -54 24 -6 32 -3 40 13 11 23
93 84 146 109 42 19 49 32 18 32 -24 0 -26 22 -5 40 24 20 11 22 -38 5 l-46
-16 -45 33 c-53 39 -129 92 -137 96 -3 1 -8 -1 -12 -4z"/>
<path d="M4648 1218 c-32 -11 -36 -24 -10 -31 14 -4 14 -6 -5 -12 -13 -4 -23
-13 -23 -20 0 -9 8 -11 23 -7 20 5 21 4 7 -13 -14 -17 -13 -18 5 -11 33 12
125 70 125 78 0 4 -11 8 -25 8 -14 0 -25 5 -25 10 0 12 -36 12 -72 -2z"/>
<path d="M945 1184 c18 -13 17 -14 -13 -8 -38 8 -45 -12 -9 -26 17 -7 18 -9 5
-9 -10 -1 -18 -5 -18 -10 0 -13 69 -20 120 -13 43 7 44 8 24 22 -12 8 -21 20
-21 25 0 15 -44 35 -78 35 -29 -1 -29 -1 -10 -16z"/>
<path d="M2323 1130 c-32 -13 -29 -30 5 -30 16 0 38 -9 50 -20 30 -29 33 -25
14 20 -17 41 -29 46 -69 30z"/>
<path d="M4470 1104 c-69 -23 -99 -37 -94 -45 3 -5 11 -6 17 -2 7 4 6 0 -2
-10 -7 -9 -24 -17 -37 -17 -28 0 -41 -18 -19 -26 11 -5 13 -10 5 -19 -19 -23
6 -26 34 -4 36 28 53 20 27 -13 -13 -16 -17 -29 -11 -33 17 -11 114 48 128 78
8 16 27 34 44 41 30 13 30 13 7 19 -13 4 -34 7 -46 7 -14 0 -23 6 -23 15 0 16
-5 17 -30 9z"/>
<path d="M3656 1082 c-27 -9 -52 -23 -54 -31 -3 -8 0 -11 7 -7 6 4 11 3 11 -2
0 -12 -24 -22 -51 -22 -21 0 -26 -15 -8 -25 6 -4 8 -13 5 -21 -7 -18 14 -17
38 1 11 8 26 15 34 15 12 0 11 -5 -2 -26 -26 -38 -16 -45 34 -23 55 25 80 47
80 70 0 11 13 22 36 31 29 10 32 14 17 19 -10 4 -30 8 -45 8 -18 1 -28 6 -28
16 0 19 -13 18 -74 -3z"/>
<path d="M1283 1075 c-36 -15 -44 -35 -15 -35 11 0 22 -11 28 -27 l11 -28 12
30 c7 17 17 37 21 46 16 31 -6 36 -57 14z"/>
<path d="M1516 1081 c-3 -5 1 -12 9 -15 11 -4 14 -13 9 -30 -8 -33 15 -44 35
-17 12 15 22 20 35 15 16 -6 17 -4 7 14 -6 11 -21 24 -33 27 -13 4 -30 9 -40
11 -9 3 -19 1 -22 -5z"/>
<path d="M2633 1083 c-32 -6 -29 -21 4 -25 22 -2 31 -11 44 -48 26 -72 58 -60
59 22 0 18 7 29 21 33 54 17 -55 32 -128 18z"/>
<path d="M4640 1059 c-7 -11 -9 -32 -6 -45 5 -17 2 -26 -8 -30 -8 -3 -12 -12
-9 -20 4 -11 9 -12 18 -4 9 8 14 8 17 0 2 -6 16 3 33 20 22 23 25 30 12 30
-11 0 -18 12 -23 35 -7 40 -18 44 -34 14z"/>
<path d="M3918 1018 c-34 -12 -36 -25 -5 -31 20 -3 19 -5 -10 -16 -18 -7 -33
-19 -33 -27 0 -17 1 -17 36 -4 24 9 25 9 14 -5 -7 -8 -10 -18 -8 -21 14 -14
148 65 148 87 0 5 -14 9 -31 9 -17 0 -28 4 -24 10 8 13 -51 12 -87 -2z"/>
<path d="M3365 997 c-8 -4 -15 -15 -15 -23 0 -8 -11 -19 -25 -26 -32 -14 -21
-31 15 -23 23 5 30 2 35 -14 10 -31 61 -90 72 -83 6 5 7 29 3 67 -8 67 -6 73
21 84 14 5 4 9 -36 17 -30 5 -62 6 -70 1z"/>
<path d="M4157 968 c-9 -39 2 -130 18 -148 22 -24 19 -37 -15 -57 -34 -19 -36
-29 -15 -58 15 -19 16 -18 46 14 l30 34 42 -39 c23 -22 44 -40 46 -41 2 -1
-11 -16 -28 -32 -18 -17 -30 -35 -27 -39 13 -21 121 33 178 90 32 31 58 61 58
66 0 6 -15 6 -41 0 -36 -10 -42 -9 -55 11 -8 11 -21 21 -28 21 -7 0 -21 6 -31
14 -18 13 -18 14 3 50 23 39 16 45 -32 26 -23 -8 -30 -4 -77 50 -29 33 -55 60
-59 60 -4 0 -10 -10 -13 -22z"/>
<path d="M1553 957 c-13 -5 -23 -14 -23 -19 0 -4 -11 -8 -25 -8 -26 0 -30 -6
-16 -28 5 -9 17 -11 34 -6 18 4 27 2 27 -5 0 -18 47 -61 66 -61 14 0 16 8 12
55 -4 48 -2 56 15 61 15 5 16 8 7 14 -18 11 -71 10 -97 -3z"/>
<path d="M2068 949 c-10 -5 -15 -16 -12 -24 4 -8 11 -12 18 -8 7 4 7 1 -1 -7
-10 -11 -9 -16 5 -26 16 -13 16 -13 -1 -14 -19 0 -17 -24 9 -88 13 -32 13 -32
-21 -47 -39 -16 -39 -14 -25 -51 10 -26 11 -26 31 -8 11 11 44 24 72 29 39 8
53 15 56 30 2 11 6 22 10 25 4 3 15 18 25 34 l18 29 -30 -6 c-28 -6 -32 -3
-68 59 -42 72 -61 87 -86 73z"/>
<path d="M1784 942 c-6 -4 -10 -15 -8 -25 1 -11 -6 -21 -19 -26 -19 -7 -17 -9
17 -21 38 -12 88 -8 132 12 13 6 24 14 24 17 -1 9 -97 51 -117 51 -10 0 -23
-4 -29 -8z"/>
<path d="M3760 911 c0 -4 11 -24 25 -44 13 -20 20 -39 15 -42 -6 -4 -10 -11
-10 -17 0 -20 55 3 89 38 38 38 35 61 -3 25 l-25 -23 -37 36 c-36 35 -54 44
-54 27z"/>
<path d="M2679 894 c-17 -20 -20 -38 -21 -96 -1 -44 -3 -48 -24 -48 -13 0 -24
-5 -24 -10 0 -20 30 -69 49 -79 21 -12 31 -5 31 21 0 18 1 18 28 -2 36 -26 92
-43 92 -27 0 9 2 9 8 1 10 -16 42 -13 42 3 0 7 -18 33 -40 57 l-41 44 15 36
c13 30 13 36 1 36 -8 0 -17 -4 -20 -10 -13 -22 -33 -8 -49 35 -21 53 -29 60
-47 39z"/>
<path d="M2405 888 c-8 -5 -15 -17 -15 -27 0 -11 -9 -21 -21 -24 -12 -3 -18
-10 -14 -16 3 -6 17 -8 30 -5 18 4 26 0 35 -18 15 -29 51 -68 62 -68 12 0 10
94 -3 107 -8 8 -5 15 9 25 19 13 18 14 -23 24 -26 6 -51 7 -60 2z"/>
<path d="M2953 878 c-13 -6 -23 -15 -23 -20 0 -4 -11 -8 -24 -8 -28 0 -38 -10
-27 -28 6 -9 15 -10 33 -3 23 9 28 6 49 -27 13 -20 34 -38 45 -40 20 -3 21 1
16 47 -4 50 10 87 29 75 5 -3 9 0 9 5 0 14 -78 13 -107 -1z"/>
<path d="M1143 861 c-26 -22 -30 -33 -8 -25 8 4 17 -1 21 -10 3 -9 9 -16 13
-16 8 0 31 45 31 60 0 16 -34 11 -57 -9z"/>
<path d="M3565 842 c-49 -10 -105 -84 -105 -140 0 -40 39 -19 56 30 12 36 27
43 108 54 l48 6 -27 14 c-15 8 -33 14 -40 14 -8 0 -15 6 -17 13 -2 7 -12 11
-23 9z"/>
<path d="M4628 778 c-38 -20 -43 -44 -8 -33 13 4 20 -2 29 -25 13 -38 22 -34
46 20 10 22 24 40 32 40 8 0 11 5 8 10 -10 16 -67 10 -107 -12z"/>
<path d="M1415 780 c-3 -5 -15 -10 -26 -10 -10 0 -19 -4 -19 -10 0 -5 14 -10
30 -10 33 0 39 -16 18 -50 -7 -10 -10 -22 -7 -25 10 -9 62 14 89 40 14 13 36
25 50 27 25 4 24 4 -10 26 -37 23 -114 30 -125 12z"/>
<path d="M3760 776 c0 -7 -7 -19 -15 -26 -11 -9 -12 -16 -5 -25 8 -9 7 -14 -3
-18 -14 -5 -16 -64 -2 -106 5 -16 1 -19 -27 -18 -31 2 -33 0 -30 -27 4 -34 48
-86 74 -86 13 0 18 8 18 30 l0 30 42 -30 c23 -17 48 -28 55 -25 9 3 11 0 7 -7
-5 -7 0 -9 14 -6 12 3 23 1 26 -6 2 -6 5 -2 6 9 l1 20 9 -20 c5 -11 9 -15 9
-8 1 6 10 9 21 6 35 -9 23 22 -31 82 l-52 56 17 41 c8 23 14 43 12 46 -2 2
-18 -4 -35 -12 -16 -9 -32 -16 -34 -16 -2 0 -16 29 -32 65 -25 61 -45 83 -45
51z"/>
<path d="M1723 729 c-7 -17 -9 -37 -6 -45 4 -10 -2 -17 -16 -21 -11 -3 -21
-12 -21 -20 0 -11 9 -12 38 -7 47 8 95 37 70 42 -9 2 -20 18 -25 39 -11 47
-26 51 -40 12z"/>
<path d="M1887 745 c-25 -25 -35 -76 -27 -137 5 -31 11 -62 15 -67 4 -7 -7
-11 -29 -11 -34 0 -61 -20 -38 -28 7 -2 10 -7 8 -11 -3 -4 -1 -13 4 -20 6 -11
12 -11 31 3 30 21 36 20 42 -3 2 -11 22 -31 44 -45 48 -32 77 -27 69 13 -20
100 -20 101 6 101 15 0 25 6 25 14 0 8 -3 15 -6 14 -42 -4 -61 4 -67 30 -6 25
-53 153 -59 160 -1 2 -10 -4 -18 -13z"/>
<path d="M3225 724 c-16 -8 -38 -23 -49 -32 -18 -16 -17 -17 10 -23 l29 -5
-33 -21 c-21 -13 -29 -23 -22 -28 6 -4 22 0 35 9 32 21 38 20 25 -5 -29 -54
30 -20 87 49 20 26 42 51 48 55 5 5 -7 6 -27 3 -21 -2 -38 -1 -38 5 0 14 -31
11 -65 -7z"/>
<path d="M3027 692 c-23 -26 -21 -30 11 -24 24 5 25 3 14 -10 -16 -20 0 -33
26 -22 9 4 23 8 31 10 23 5 44 53 24 55 -5 0 -26 2 -48 5 -32 4 -44 1 -58 -14z"/>
<path d="M2347 684 c-9 -9 17 -55 47 -83 30 -28 32 -43 11 -61 -12 -10 -13
-16 -4 -24 8 -8 15 -5 26 12 9 12 23 22 32 22 28 0 43 17 47 50 2 17 6 36 9
41 8 12 -2 11 -25 -1 -13 -7 -21 -7 -25 0 -8 13 -80 50 -98 50 -7 0 -16 -3
-20 -6z"/>
<path d="M2899 663 c-2 -29 2 -46 18 -81 15 -30 14 -34 -2 -46 -13 -9 -15 -15
-6 -20 6 -4 18 -2 26 4 12 10 20 9 41 -4 14 -10 39 -16 55 -14 l30 3 -30 31
c-20 20 -29 38 -25 48 4 9 1 16 -6 16 -7 0 -28 18 -47 40 -39 44 -52 49 -54
23z"/>
<path d="M4077 673 c-9 -9 -9 -43 1 -43 4 0 8 -24 9 -54 1 -47 -2 -55 -22 -64
-17 -8 -22 -17 -18 -31 6 -23 31 -28 39 -8 2 7 19 14 36 15 35 3 58 18 58 37
0 6 9 20 20 30 27 25 25 32 -7 28 -24 -3 -32 3 -58 47 -27 47 -43 59 -58 43z"/>
<path d="M3472 639 c-32 -10 -36 -29 -6 -29 8 0 12 -4 9 -10 -3 -5 -15 -10
-25 -10 -13 0 -18 -5 -14 -15 4 -11 13 -13 28 -9 18 6 19 5 7 -10 -11 -13 -11
-16 0 -16 19 1 51 19 93 54 l35 30 -37 13 c-42 15 -45 15 -90 2z"/>
<path d="M2158 618 c-50 -21 -62 -38 -29 -38 11 0 21 -7 23 -15 2 -12 16 -7
61 22 40 25 54 39 45 45 -21 13 -50 9 -100 -14z"/>
<path d="M1566 582 c-4 -7 -5 -41 -1 -75 7 -62 6 -63 -22 -77 l-28 -15 53 -3
c44 -3 62 2 100 25 l47 28 -32 3 c-23 2 -33 9 -37 26 -8 34 -71 102 -80 88z"/>
<path d="M2753 564 c-44 -19 -48 -31 -12 -38 37 -7 71 9 67 31 -4 22 -17 24
-55 7z"/>
<path d="M2555 541 c-11 -5 -26 -6 -32 -4 -7 3 -13 -2 -13 -10 0 -9 10 -17 23
-19 18 -2 21 -8 19 -35 -5 -43 7 -41 51 7 19 22 41 40 49 40 7 1 2 7 -12 15
-28 16 -55 18 -85 6z"/>
<path d="M2172 523 c-13 -24 -9 -93 7 -137 14 -36 15 -32 -19 -44 -21 -8 -28
-16 -24 -26 5 -12 11 -13 24 -6 10 6 28 10 40 10 26 0 75 22 119 55 l34 25
-36 0 c-31 0 -38 5 -52 34 -9 19 -31 52 -49 72 -32 37 -33 38 -44 17z"/>
<path d="M3220 509 c0 -6 5 -19 11 -30 7 -15 7 -24 -1 -34 -28 -33 61 -14 102
22 17 15 16 17 -8 29 -33 17 -104 26 -104 13z"/>
<path d="M2820 470 c0 -5 -7 -7 -15 -4 -12 5 -15 -2 -15 -29 0 -19 -6 -37 -12
-40 -7 -2 -10 -8 -6 -12 10 -10 87 12 105 31 12 12 12 14 -2 14 -8 0 -21 11
-27 25 -11 25 -28 34 -28 15z"/>
<path d="M3377 457 c-8 -22 11 -55 62 -108 28 -29 51 -56 51 -59 0 -4 -9 -15
-20 -25 -24 -21 -27 -50 -5 -41 9 3 15 0 15 -9 0 -25 20 -16 33 14 12 29 13
29 37 11 19 -14 29 -16 52 -8 33 12 35 29 7 75 -20 32 -21 51 -3 97 6 15 3 15
-30 0 -35 -17 -37 -17 -58 3 -32 29 -135 66 -141 50z"/>
<path d="M2946 418 c-18 -26 -21 -54 -6 -63 6 -4 13 7 16 24 7 33 15 37 45 21
24 -13 25 2 1 23 -25 23 -38 21 -56 -5z"/>
<path d="M3130 390 c-60 -19 -128 -57 -121 -68 4 -7 12 -8 21 -2 25 16 48 11
56 -12 6 -21 8 -34 13 -75 0 -7 7 -13 15 -13 14 0 46 77 46 112 0 10 14 27 31
37 30 18 30 18 7 25 -28 7 -36 7 -68 -4z"/>
<path d="M3717 380 c-14 -11 -30 -20 -36 -20 -6 0 -11 -7 -11 -15 0 -10 8 -13
28 -9 22 4 30 0 44 -25 9 -17 24 -31 33 -31 13 0 16 9 14 45 -2 35 1 48 16 60
19 13 17 14 -21 15 -27 0 -50 -7 -67 -20z"/>
<path d="M2583 382 c-15 -9 -5 -25 25 -41 31 -16 28 -37 -8 -50 -21 -7 -30
-17 -30 -31 0 -20 4 -21 42 -15 l42 7 -18 -27 c-38 -57 19 -42 110 31 37 30
71 54 76 54 4 0 8 5 8 10 0 6 -18 10 -40 10 -32 0 -40 4 -40 18 0 11 -11 24
-25 30 -29 13 -123 16 -142 4z"/>
<path d="M2404 321 c-17 -11 -40 -21 -50 -23 -34 -6 -22 -33 14 -33 27 0 37
-6 48 -27 13 -25 42 -48 59 -48 4 0 5 26 4 57 -3 52 0 59 20 69 21 11 21 12 5
17 -39 10 -71 6 -100 -12z"/>
<path d="M3287 272 c-10 -10 -17 -25 -17 -33 1 -10 5 -8 15 5 12 16 18 17 27
8 20 -20 28 -13 16 13 -13 30 -20 31 -41 7z"/>
<path d="M2947 212 c-29 -18 -37 -38 -12 -28 10 4 19 -2 24 -16 8 -22 9 -22
25 9 19 39 19 40 3 46 -7 3 -25 -2 -40 -11z"/>
<path d="M2126 178 c-21 -30 -20 -41 4 -33 11 4 20 2 20 -4 0 -6 7 -11 15 -11
12 0 15 9 13 35 -3 42 -28 48 -52 13z"/>
<path d="M2805 123 c12 -32 10 -36 -22 -46 -41 -12 -44 -32 -4 -24 18 4 31 2
33 -5 6 -16 46 0 58 22 8 15 6 25 -12 45 -26 29 -64 35 -53 8z"/>
<path d="M3410 121 c0 -11 5 -23 11 -26 6 -4 8 -13 5 -21 -7 -19 24 -18 50 0
18 14 18 15 -7 24 -14 6 -33 18 -42 27 -16 15 -17 15 -17 -4z"/>
<path d="M3598 94 c6 -11 20 -28 31 -38 16 -15 18 -22 10 -33 -18 -21 25 -17
44 5 18 20 23 47 7 37 -5 -3 -31 6 -56 21 -40 23 -45 25 -36 8z"/>
</g>
</svg>
